<?xml version="1.0" encoding="utf-8"?>
<!-- Generator: Adobe Illustrator 26.3.1, SVG Export Plug-In . SVG Version: 6.00 Build 0)  -->
<svg version="1.1" id="Layer_1" xmlns="http://www.w3.org/2000/svg" xmlns:xlink="http://www.w3.org/1999/xlink" x="0px" y="0px"
	 viewBox="0 0 125 81" style="enable-background:new 0 0 125 81;" xml:space="preserve">
<style type="text/css">
	.st0{fill:#FFFFFF;}
	.st1{fill:#091430;}
</style>
<g>
	<g>
		<g>
			<path class="st0" d="M55.49,72.27H38.88l0-33.85H18.1l21.65-25.8h15.73V72.27z M43.88,67.27h6.61V17.63h-8.4l-13.26,15.8h8.85
				l6.2-7.71V67.27z"/>
			<path class="st0" d="M63.92,80.71H30.44V46.86H0.01L35.82,4.19h28.1V80.71z M35.44,75.71h23.48V9.19H38.16L10.74,41.86h24.71
				V75.71z M55.49,72.27H38.88l0-33.85H18.1l21.65-25.8h15.73V72.27z M43.88,67.27h6.61V17.63h-8.4l-13.26,15.8h8.85l6.2-7.71V67.27
				z"/>
		</g>
		<g>
			<path class="st0" d="M82.27,47H69.08c-1.61,0-3.12-0.42-4.48-1.25l0,0c-1.32-0.8-2.39-1.87-3.19-3.19
				c-0.83-1.36-1.25-2.87-1.25-4.48V34.3h2.07c-0.3-0.36-0.58-0.75-0.83-1.16c-0.83-1.37-1.25-2.87-1.25-4.48v-3.41
				c0-1.61,0.42-3.12,1.25-4.48c0.8-1.31,1.87-2.39,3.19-3.19c1.37-0.83,2.88-1.25,4.48-1.25h13.19c1.64,0,3.16,0.42,4.53,1.25
				c1.32,0.8,2.39,1.87,3.19,3.19c0.83,1.37,1.25,2.88,1.25,4.48v3.78h-2.07c0.3,0.36,0.58,0.75,0.83,1.16
				c0.83,1.37,1.25,2.87,1.25,4.48v3.41c0,1.61-0.42,3.12-1.25,4.48c-0.8,1.32-1.87,2.39-3.19,3.19C85.43,46.58,83.91,47,82.27,47z
				 M65.37,39.3c0.08,0.23,0.19,0.45,0.32,0.67c0.38,0.63,0.87,1.12,1.5,1.5l0,0c0.58,0.35,1.2,0.52,1.89,0.52h13.19
				c0.72,0,1.35-0.17,1.93-0.52c0.63-0.38,1.12-0.87,1.5-1.5c0.35-0.58,0.52-1.2,0.52-1.89v-3.41c0-0.69-0.17-1.31-0.52-1.89
				c-0.38-0.63-0.87-1.12-1.5-1.5c-0.58-0.35-1.21-0.52-1.93-0.52H66.94v-7.65h17.48v0.93h1.61c-0.08-0.23-0.19-0.46-0.32-0.67
				c-0.38-0.63-0.87-1.12-1.5-1.5c-0.58-0.35-1.21-0.52-1.93-0.52H69.08c-0.69,0-1.31,0.17-1.89,0.52c-0.63,0.38-1.12,0.87-1.5,1.5
				c-0.35,0.58-0.52,1.2-0.52,1.89v3.41c0,0.69,0.17,1.31,0.52,1.89c0.38,0.63,0.87,1.12,1.5,1.5c0.58,0.35,1.2,0.52,1.89,0.52
				h15.33v7.65H66.94V39.3H65.37z"/>
			<path class="st0" d="M82.27,55.43H69.08c-3.17,0-6.15-0.83-8.85-2.47c-2.49-1.51-4.52-3.54-6.03-6.03
				c-1.64-2.7-2.47-5.68-2.47-8.85V25.25c0-3.17,0.83-6.15,2.47-8.85c1.51-2.49,3.54-4.52,6.03-6.03c2.7-1.64,5.68-2.47,8.86-2.47
				h13.19c3.2,0,6.2,0.83,8.9,2.47c2.49,1.51,4.52,3.54,6.03,6.03c1.64,2.7,2.47,5.68,2.47,8.85v12.83c0,3.17-0.83,6.15-2.47,8.85
				c-1.51,2.49-3.54,4.52-6.03,6.03C88.47,54.6,85.47,55.43,82.27,55.43z M69.08,12.9c-2.25,0-4.35,0.59-6.26,1.75
				c-1.8,1.09-3.26,2.55-4.34,4.34c-1.16,1.91-1.74,4.01-1.74,6.26v12.83c0,2.25,0.59,4.35,1.75,6.26c1.09,1.79,2.55,3.25,4.34,4.34
				c1.91,1.16,4.01,1.74,6.26,1.74h13.19c2.28,0,4.4-0.59,6.31-1.75c1.79-1.09,3.25-2.55,4.34-4.34c1.16-1.91,1.75-4.02,1.75-6.26
				V25.25c0-2.24-0.59-4.35-1.74-6.26c-1.09-1.79-2.55-3.26-4.34-4.34c-1.91-1.16-4.03-1.75-6.31-1.75H69.08z M82.27,47H69.08
				c-1.61,0-3.12-0.42-4.48-1.25c-1.32-0.8-2.39-1.87-3.19-3.19c-0.83-1.36-1.25-2.87-1.25-4.48V34.3h2.07
				c-0.3-0.36-0.58-0.75-0.83-1.16c-0.83-1.37-1.25-2.87-1.25-4.48v-3.41c0-1.61,0.42-3.12,1.25-4.48c0.8-1.31,1.87-2.39,3.19-3.19
				c1.37-0.83,2.88-1.25,4.48-1.25h13.19c1.64,0,3.16,0.42,4.53,1.25c1.32,0.8,2.39,1.87,3.19,3.19c0.83,1.37,1.25,2.88,1.25,4.48
				v3.78h-2.07c0.3,0.36,0.58,0.75,0.83,1.16c0.83,1.37,1.25,2.87,1.25,4.48v3.41c0,1.61-0.42,3.12-1.25,4.48
				c-0.8,1.32-1.87,2.39-3.19,3.19C85.43,46.58,83.91,47,82.27,47z M65.37,39.3c0.08,0.23,0.19,0.45,0.32,0.67
				c0.38,0.63,0.87,1.12,1.5,1.5c0.58,0.35,1.2,0.52,1.89,0.52h13.19c0.72,0,1.35-0.17,1.93-0.52c0.63-0.38,1.12-0.87,1.5-1.5
				c0.35-0.58,0.52-1.2,0.52-1.89v-3.41c0-0.69-0.17-1.31-0.52-1.89c-0.38-0.63-0.87-1.12-1.5-1.5c-0.58-0.35-1.21-0.52-1.93-0.52
				H66.94v-7.65h17.48v0.93h1.61c-0.08-0.23-0.19-0.46-0.32-0.67c-0.38-0.63-0.87-1.12-1.5-1.5c-0.58-0.35-1.21-0.52-1.93-0.52
				H69.08c-0.69,0-1.31,0.17-1.89,0.52c-0.63,0.38-1.12,0.87-1.5,1.5c-0.35,0.58-0.52,1.2-0.52,1.89v3.41
				c0,0.69,0.17,1.31,0.52,1.89c0.38,0.63,0.87,1.12,1.5,1.5c0.58,0.35,1.2,0.52,1.89,0.52h15.33v7.65H66.94V39.3H65.37z"/>
		</g>
		<g>
			<path class="st0" d="M116.56,47h-12.32c-1.64,0-3.16-0.42-4.52-1.25c-1.32-0.8-2.39-1.87-3.19-3.19
				c-0.83-1.36-1.25-2.87-1.25-4.48V8.73h11.77v7.61h9.51v11.77h-9.51v7.12h9.51V47z M100.27,13.73v24.36
				c0,0.69,0.17,1.31,0.52,1.89c0.38,0.63,0.87,1.12,1.5,1.5l0,0c0.58,0.35,1.21,0.52,1.93,0.52h7.32v-1.77h-9.51V23.11h9.51v-1.77
				h-9.51v-7.61H100.27z"/>
			<path class="st0" d="M124.99,55.43h-20.76c-3.2,0-6.2-0.83-8.9-2.47c-2.49-1.51-4.52-3.54-6.03-6.03
				c-1.64-2.7-2.47-5.68-2.47-8.85V0.29h28.64V7.9h9.51V55.43z M91.84,5.29v32.79c0,2.25,0.59,4.35,1.75,6.26
				c1.09,1.79,2.55,3.25,4.34,4.34c1.91,1.16,4.03,1.74,6.3,1.74h15.76V12.9h-9.51V5.29H91.84z M116.56,47h-12.32
				c-1.64,0-3.16-0.42-4.53-1.25c-1.31-0.79-2.39-1.87-3.19-3.19c-0.83-1.36-1.25-2.87-1.25-4.48V8.73h11.77v7.61h9.51v11.77h-9.51
				v7.12h9.51V47z M100.27,13.73v24.36c0,0.69,0.17,1.31,0.52,1.89c0.38,0.63,0.87,1.12,1.5,1.5c0.58,0.35,1.21,0.53,1.94,0.53h7.32
				v-1.77h-9.51V23.11h9.51v-1.77h-9.51v-7.61H100.27z"/>
		</g>
	</g>
	<g>
		<g>
			<path class="st0" d="M41.38,69.77V32.81l-2.5,3.11H23.46l17.46-20.8h12.07v54.65H41.38z"/>
			<path class="st1" d="M52.99,15.13v54.65H41.38V32.81l-2.5,3.11H23.46l17.46-20.8H52.99 M61.42,6.69h-8.43H40.92h-3.93l-2.53,3.01
				L17.01,30.5L5.37,44.36h18.09h9.48v25.42v8.43h8.43h11.61h8.43v-8.43V15.13V6.69L61.42,6.69z"/>
		</g>
		<g>
			<path class="st0" d="M65.9,43.62c-0.97-0.59-1.76-1.37-2.34-2.34c-0.59-0.97-0.89-2.04-0.89-3.19V36.8h6.77v0.93h12.48v-2.65
				H69.08c-1.15,0-2.21-0.29-3.19-0.89c-0.97-0.59-1.76-1.37-2.34-2.35c-0.59-0.97-0.89-2.04-0.89-3.19v-3.41
				c0-1.15,0.29-2.21,0.89-3.19c0.59-0.97,1.37-1.75,2.34-2.34c0.97-0.59,2.04-0.89,3.19-0.89h13.19c1.18,0,2.26,0.29,3.23,0.89
				c0.97,0.59,1.76,1.37,2.35,2.34c0.59,0.97,0.89,2.04,0.89,3.19v1.28h-6.82v-0.93H69.44v2.65h12.83c1.18,0,2.26,0.3,3.23,0.89
				c0.97,0.59,1.76,1.37,2.35,2.35c0.59,0.97,0.89,2.04,0.89,3.19v3.41c0,1.15-0.3,2.21-0.89,3.19c-0.59,0.97-1.37,1.76-2.35,2.34
				c-0.97,0.59-2.05,0.89-3.23,0.89H69.08C67.93,44.5,66.87,44.21,65.9,43.62z"/>
			<path class="st1" d="M82.27,18.84c1.18,0,2.26,0.29,3.23,0.89c0.97,0.59,1.76,1.37,2.35,2.34c0.59,0.97,0.89,2.04,0.89,3.19v1.28
				h-6.82v-0.93H69.44v2.65h12.83c1.18,0,2.26,0.3,3.23,0.89c0.97,0.59,1.76,1.37,2.35,2.35c0.59,0.97,0.89,2.04,0.89,3.19v3.41
				c0,1.15-0.3,2.21-0.89,3.19c-0.59,0.97-1.37,1.76-2.35,2.34c-0.97,0.59-2.05,0.89-3.23,0.89H69.08c-1.15,0-2.21-0.29-3.19-0.89
				c-0.97-0.59-1.76-1.37-2.34-2.34c-0.59-0.97-0.89-2.04-0.89-3.19V36.8h6.77v0.93h12.48v-2.65H69.08c-1.15,0-2.21-0.29-3.19-0.89
				c-0.97-0.59-1.76-1.37-2.34-2.35c-0.59-0.97-0.89-2.04-0.89-3.19v-3.41c0-1.15,0.29-2.21,0.89-3.19
				c0.59-0.97,1.37-1.75,2.34-2.34c0.97-0.59,2.04-0.89,3.19-0.89H82.27 M82.27,10.4H69.08c-2.71,0-5.25,0.71-7.56,2.11
				c-2.14,1.3-3.89,3.04-5.18,5.19c-1.4,2.3-2.11,4.85-2.11,7.56v3.41v8.14v1.28c0,2.71,0.71,5.25,2.11,7.56
				c1.3,2.14,3.04,3.89,5.19,5.18c2.3,1.4,4.85,2.11,7.56,2.11h13.19c2.74,0,5.3-0.71,7.6-2.11c2.14-1.29,3.88-3.04,5.18-5.18
				c1.4-2.31,2.11-4.85,2.11-7.56v-3.12v-8.43v-1.28c0-2.71-0.71-5.25-2.11-7.56c-1.3-2.14-3.04-3.89-5.18-5.19
				C87.57,11.11,85.01,10.4,82.27,10.4L82.27,10.4z"/>
		</g>
		<g>
			<path class="st0" d="M101,43.62c-0.97-0.59-1.76-1.37-2.35-2.34c-0.59-0.97-0.88-2.04-0.88-3.19V11.22h6.77v7.61h9.51v6.77h-9.51
				v12.12h9.51v6.77h-9.82C103.05,44.5,101.98,44.21,101,43.62z"/>
			<path class="st1" d="M104.54,11.22v7.61h9.51v6.77h-9.51v12.12h9.51v6.77h-9.82c-1.18,0-2.26-0.29-3.23-0.89
				c-0.97-0.59-1.76-1.37-2.35-2.34c-0.59-0.97-0.88-2.04-0.88-3.19V11.22H104.54 M112.98,2.79h-8.43h-6.77h-8.43v8.43v26.86
				c0,2.71,0.71,5.25,2.11,7.56c1.3,2.14,3.04,3.88,5.19,5.18c2.3,1.4,4.86,2.11,7.6,2.11h9.82h8.43V44.5v-6.77v-3.69v-8.43v-6.77
				V10.4h-8.43h-1.08V2.79L112.98,2.79z"/>
		</g>
	</g>
</g>
</svg>
