<?xml version="1.0" encoding="utf-8"?>
<!-- Generator: Adobe Illustrator 26.3.1, SVG Export Plug-In . SVG Version: 6.00 Build 0)  -->
<svg version="1.1" id="Layer_1" xmlns="http://www.w3.org/2000/svg" xmlns:xlink="http://www.w3.org/1999/xlink" x="0px" y="0px"
	 viewBox="0 0 77 222" style="enable-background:new 0 0 77 222;" xml:space="preserve">
<style type="text/css">
	.st0{fill-rule:evenodd;clip-rule:evenodd;fill:url(#SVGID_1_);}
	.st1{fill-rule:evenodd;clip-rule:evenodd;fill:url(#SVGID_00000092421150842271770720000005582503323145944481_);}
	.st2{fill:url(#SVGID_00000021813912891224729190000016319877138001926590_);}
	.st3{fill:url(#SVGID_00000034795885538911273490000010314628841087528089_);}
	.st4{fill:url(#SVGID_00000133489968087480303420000007987066962981115526_);}
	.st5{fill:url(#SVGID_00000036223368077328867120000001888498842053328546_);}
	.st6{fill-rule:evenodd;clip-rule:evenodd;fill:#61349C;}
	.st7{fill-rule:evenodd;clip-rule:evenodd;fill:url(#SVGID_00000134239285105007665890000017024064863925692054_);}
	.st8{fill-rule:evenodd;clip-rule:evenodd;fill:#31165F;}
	.st9{fill:#53345F;}
	.st10{fill:#61349C;}
	.st11{opacity:0.5;fill-rule:evenodd;clip-rule:evenodd;fill:url(#SVGID_00000088832497964889528770000011652455307549112210_);}
	.st12{fill-rule:evenodd;clip-rule:evenodd;fill:url(#SVGID_00000068655320549918019460000005608612634703863220_);}
	.st13{opacity:0.5;fill-rule:evenodd;clip-rule:evenodd;fill:#31165F;}
	.st14{opacity:0.5;fill-rule:evenodd;clip-rule:evenodd;fill:url(#SVGID_00000111167685709795179520000016533030843770553741_);}
	.st15{fill-rule:evenodd;clip-rule:evenodd;fill:url(#SVGID_00000156569406705901541710000017118846444171150740_);}
	.st16{fill-rule:evenodd;clip-rule:evenodd;fill:url(#SVGID_00000079475648900402987800000018315957404493888437_);}
	.st17{fill-rule:evenodd;clip-rule:evenodd;fill:url(#SVGID_00000012470233656249217120000001682607261049020071_);}
	.st18{fill-rule:evenodd;clip-rule:evenodd;fill:url(#SVGID_00000002373734765783183790000001782908583517417604_);}
	.st19{opacity:0.3;fill-rule:evenodd;clip-rule:evenodd;}
	.st20{opacity:0.3;fill:#FFFFFF;}
	.st21{opacity:0.3;fill-rule:evenodd;clip-rule:evenodd;fill:#FFFFFF;}
	.st22{fill-rule:evenodd;clip-rule:evenodd;fill:#FFFFFF;}
	.st23{opacity:0.1;}
	.st24{fill-rule:evenodd;clip-rule:evenodd;fill:url(#SVGID_00000175310952249760960710000014584776783555642284_);}
	.st25{fill-rule:evenodd;clip-rule:evenodd;fill:url(#SVGID_00000025442039734087406910000008971740290655331758_);}
	.st26{fill-rule:evenodd;clip-rule:evenodd;fill:url(#SVGID_00000109006896747648244570000000661360374103352209_);}
	.st27{opacity:0.5;fill-rule:evenodd;clip-rule:evenodd;fill:url(#SVGID_00000107570544423362282110000017609110017008234372_);}
	.st28{fill-rule:evenodd;clip-rule:evenodd;fill:url(#SVGID_00000018205106693120345540000012468686151205225918_);}
	.st29{fill-rule:evenodd;clip-rule:evenodd;fill:url(#SVGID_00000100367095339158465810000003773912574067636879_);}
	.st30{fill-rule:evenodd;clip-rule:evenodd;fill:url(#SVGID_00000075130507696451288850000012853026146853321358_);}
	.st31{fill-rule:evenodd;clip-rule:evenodd;fill:url(#SVGID_00000180358033123742269450000010211297861231525552_);}
	.st32{fill-rule:evenodd;clip-rule:evenodd;fill:url(#SVGID_00000131361333400347190830000012224797912935809707_);}
	.st33{fill-rule:evenodd;clip-rule:evenodd;fill:url(#SVGID_00000061429627025569529500000011838137944817072283_);}
	.st34{fill-rule:evenodd;clip-rule:evenodd;fill:url(#SVGID_00000093885785920372502310000018413257941519592376_);}
	.st35{fill-rule:evenodd;clip-rule:evenodd;fill:url(#SVGID_00000024703018368722912690000008373059231903681714_);}
	.st36{fill-rule:evenodd;clip-rule:evenodd;fill:url(#SVGID_00000072245574186035696650000011129478144452256662_);}
	.st37{fill-rule:evenodd;clip-rule:evenodd;fill:url(#SVGID_00000060735284400184812560000003451304977364386445_);}
</style>
<g>
	
		<radialGradient id="SVGID_1_" cx="-3694.7239" cy="-1699.192" r="11.9762" gradientTransform="matrix(-0.0109 1.0938 -1.6064 -0.0157 -2730.5874 4181.2329)" gradientUnits="userSpaceOnUse">
		<stop  offset="0" style="stop-color:#2C6AFF"/>
		<stop  offset="1" style="stop-color:#2C6AFF;stop-opacity:0"/>
	</radialGradient>
	<path class="st0" d="M39.14,179.72c-10.63-0.1-19.18-6.05-19.11-13.29c0.07-7.23,8.74-13.02,19.37-12.91
		c10.63,0.1,19.18,6.05,19.11,13.29C58.43,174.04,49.76,179.82,39.14,179.72z"/>
	
		<radialGradient id="SVGID_00000070102757203182344190000007256780966692908443_" cx="-219.7072" cy="-759.1689" r="23.6145" gradientTransform="matrix(1.0938 0.0111 -0.0291 2.9952 258.1663 2427.4521)" gradientUnits="userSpaceOnUse">
		<stop  offset="0" style="stop-color:#2C6AFF"/>
		<stop  offset="1" style="stop-color:#2C6AFF;stop-opacity:0"/>
	</radialGradient>
	<path style="fill-rule:evenodd;clip-rule:evenodd;fill:url(#SVGID_00000070102757203182344190000007256780966692908443_);" d="
		M65.77,151.41c-0.38,39.06-12.25,70.61-26.52,70.47c-14.27-0.14-25.52-31.93-25.14-70.99c0.38-39.06,12.25-70.61,26.52-70.47
		C54.89,80.56,66.15,112.35,65.77,151.41z"/>
	<g>
		
			<linearGradient id="SVGID_00000065787188807214637860000014052669049933139847_" gradientUnits="userSpaceOnUse" x1="-284.4838" y1="-468.4327" x2="-284.4838" y2="-582.2839" gradientTransform="matrix(1 9.800000e-03 -9.800000e-03 1 317.2976 679.2481)">
			<stop  offset="0.1" style="stop-color:#2C6AFF;stop-opacity:0"/>
			<stop  offset="1" style="stop-color:#2C6AFF"/>
		</linearGradient>
		<path style="fill:url(#SVGID_00000065787188807214637860000014052669049933139847_);" d="M24,95.07l0.98,112.84l26.65-3.98
			l1.39-108.28C53.02,95.65,31.87,92.66,24,95.07z"/>
		
			<linearGradient id="SVGID_00000161626807108001171650000004258409312286337211_" gradientUnits="userSpaceOnUse" x1="-292.088" y1="-467.1608" x2="-292.088" y2="-582.8919" gradientTransform="matrix(1 9.800000e-03 -9.800000e-03 1 317.2976 679.2481)">
			<stop  offset="0.1" style="stop-color:#2C6AFF;stop-opacity:0"/>
			<stop  offset="1" style="stop-color:#2C6AFF"/>
		</linearGradient>
		<polygon style="fill:url(#SVGID_00000161626807108001171650000004258409312286337211_);" points="26.62,209.19 26.34,94.06 
			35.5,93.54 34.38,207.81 		"/>
		
			<linearGradient id="SVGID_00000152243127778331903760000000434022819114451336_" gradientUnits="userSpaceOnUse" x1="-281.7796" y1="-466.7437" x2="-281.7796" y2="-582.8917" gradientTransform="matrix(1 9.800000e-03 -9.800000e-03 1 317.2976 679.2481)">
			<stop  offset="0.1" style="stop-color:#2C6AFF;stop-opacity:0"/>
			<stop  offset="1" style="stop-color:#2C6AFF"/>
		</linearGradient>
		<polygon style="fill:url(#SVGID_00000152243127778331903760000000434022819114451336_);" points="40.54,93.59 39.66,209.74 
			40.52,209.75 41.92,94.01 		"/>
		
			<linearGradient id="SVGID_00000054252665378200709330000015288671724341502857_" gradientUnits="userSpaceOnUse" x1="-274.6498" y1="-466.4867" x2="-274.6498" y2="-581.9232" gradientTransform="matrix(1 9.800000e-03 -9.800000e-03 1 317.2976 679.2481)">
			<stop  offset="0.1" style="stop-color:#2C6AFF;stop-opacity:0"/>
			<stop  offset="1" style="stop-color:#2C6AFF"/>
		</linearGradient>
		<polygon style="fill:url(#SVGID_00000054252665378200709330000015288671724341502857_);" points="46.98,94.62 45.85,210.06 
			48.61,208.5 49.13,95.17 		"/>
	</g>
	<path class="st6" d="M65.25,131.27l11.66-2.03c0,0,1.65,21.68-12.56,45.74l-1.7-0.02l0.92-32.46l-1.45-0.07L65.25,131.27z"/>
	<path class="st6" d="M12.08,130.81l-11.94-2.33c0,0-2.08,21.65,11.66,45.98l1.99,0.02L13.22,142l1.45-0.04L12.08,130.81z"/>
	
		<radialGradient id="SVGID_00000001659772042156415860000013659935410452581507_" cx="-171.858" cy="-4826.9399" r="40.9882" gradientTransform="matrix(1.2541 0.0123 -0.0225 2.292 154.4783 11118.0371)" gradientUnits="userSpaceOnUse">
		<stop  offset="0" style="stop-color:#F4BAB3"/>
		<stop  offset="0.7654" style="stop-color:#8D6FC7"/>
		<stop  offset="0.9637" style="stop-color:#B695E5"/>
	</radialGradient>
	<path style="fill-rule:evenodd;clip-rule:evenodd;fill:url(#SVGID_00000001659772042156415860000013659935410452581507_);" d="
		M39.85,5.2C24.78,5.05,0.81,41.16,2.39,74.99c1.58,33.82,16.64,83.64,16.64,83.64l19.31,0.38l19.31,0c0,0,16.04-49.51,18.28-83.3
		C78.17,41.92,54.82,5.34,39.85,5.2z"/>
	<path class="st8" d="M19.03,158.63c0,0,22-1.74,38.62,0.38C57.65,159.01,36.06,160.93,19.03,158.63z"/>
	<g>
		<path class="st9" d="M61.03,22.64c-18.81-8.34-41.31-2.23-41.53-2.16l-0.1-0.35c0.23-0.06,22.85-6.21,41.78,2.18L61.03,22.64z"/>
	</g>
	<path class="st10" d="M42.65,5.61c-0.17-0.71-1.31-5.3-3.1-5.49c-1.55-0.16-2.68,3.93-3.08,5.57C27.74,8.3,19.45,20.3,19.45,20.3
		s21.43-6.56,41.66,2.17C61.11,22.47,52.49,8.22,42.65,5.61z"/>
	
		<radialGradient id="SVGID_00000163042458928654566770000006908568906775080861_" cx="-284.1751" cy="-3993.75" r="24.4244" gradientTransform="matrix(1 9.800000e-03 -0.0181 1.8414 250.2336 7477.7603)" gradientUnits="userSpaceOnUse">
		<stop  offset="0.0223" style="stop-color:#8881BC"/>
		<stop  offset="0.2869" style="stop-color:#8375B7"/>
		<stop  offset="0.7657" style="stop-color:#7555AA"/>
		<stop  offset="0.9944" style="stop-color:#6D43A3"/>
	</radialGradient>
	
		<path style="opacity:0.5;fill-rule:evenodd;clip-rule:evenodd;fill:url(#SVGID_00000163042458928654566770000006908568906775080861_);" d="
		M10.42,125.72c0,0,32.69-10.37,57.27-2.61c-3.35,14.09-10.04,35.9-10.04,35.9s-14.74-2.22-38.62-0.38
		C19.03,158.63,13.19,142.27,10.42,125.72z"/>
	<g>
		
			<rect x="20.09" y="100.68" transform="matrix(9.900505e-03 -1 1 9.900505e-03 -61.5192 139.5894)" class="st9" width="39.29" height="0.37"/>
	</g>
	<g>
		<path class="st9" d="M10.47,125.9l-0.1-0.35c37.4-10.44,57.19-2.69,57.39-2.61l-0.14,0.34C67.43,123.2,47.73,115.5,10.47,125.9z"
			/>
	</g>
	<g>
		<path class="st9" d="M7.68,112.76l-0.2-0.31c0.11-0.08,11.72-7.45,32.2-8.36l0.02,0.37C19.33,105.36,7.8,112.69,7.68,112.76z"/>
	</g>
	<polygon class="st8" points="43.75,148.81 43.37,131.85 48.02,130.72 47.39,148.85 	"/>
	
		<radialGradient id="SVGID_00000059293639462135482220000002967531498087494591_" cx="-283.7522" cy="-3973.2925" r="9.595" gradientTransform="matrix(1 9.800000e-03 -0.0181 1.8414 250.2336 7477.7603)" gradientUnits="userSpaceOnUse">
		<stop  offset="0.0223" style="stop-color:#725EB0"/>
		<stop  offset="0.3834" style="stop-color:#6D52AA"/>
		<stop  offset="0.9944" style="stop-color:#61349C"/>
	</radialGradient>
	<path style="fill-rule:evenodd;clip-rule:evenodd;fill:url(#SVGID_00000059293639462135482220000002967531498087494591_);" d="
		M22.22,159.01c0,0,16.79-1.45,33.21,0.17l-1.07,7.59l-31.28-1.14L22.22,159.01z"/>
	<path class="st13" d="M22.65,162.35c0,0,5.7-3.02,13.23-2.78c7.53,0.23,18.73,5.44,18.73,5.44l0.82-5.83c0,0-17.9-1.92-33.21-0.17
		L22.65,162.35z"/>
	
		<radialGradient id="SVGID_00000168830164876172806660000002502351692702518455_" cx="-284.058" cy="-653.6216" r="17.6778" gradientTransform="matrix(1 9.800000e-03 -9.800000e-03 1 317.2976 679.2481)" gradientUnits="userSpaceOnUse">
		<stop  offset="0.0223" style="stop-color:#8881BC"/>
		<stop  offset="0.2869" style="stop-color:#8375B7"/>
		<stop  offset="0.7657" style="stop-color:#7555AA"/>
		<stop  offset="0.9944" style="stop-color:#6D43A3"/>
	</radialGradient>
	
		<path style="opacity:0.5;fill-rule:evenodd;clip-rule:evenodd;fill:url(#SVGID_00000168830164876172806660000002502351692702518455_);" d="
		M15.01,27.12c0,0,21.48-10.81,49.18,0.44l-3.08-5.09c0,0-15.99-7.69-41.66-2.17L15.01,27.12z"/>
	<g>
		
			<linearGradient id="SVGID_00000105403020966939285700000012449109960468609422_" gradientUnits="userSpaceOnUse" x1="-285.4095" y1="-568.4409" x2="-285.4095" y2="-570.8583" gradientTransform="matrix(1 9.800000e-03 -9.800000e-03 1 317.2976 679.2481)">
			<stop  offset="0" style="stop-color:#8DC7FF"/>
			<stop  offset="0.3156" style="stop-color:#5C4D86"/>
		</linearGradient>
		<path style="fill-rule:evenodd;clip-rule:evenodd;fill:url(#SVGID_00000105403020966939285700000012449109960468609422_);" d="
			M38.68,106.81c-0.01,0.67-0.55,1.2-1.22,1.2s-1.2-0.55-1.2-1.22c0.01-0.67,0.55-1.2,1.22-1.2
			C38.15,105.6,38.69,106.15,38.68,106.81z"/>
		
			<radialGradient id="SVGID_00000119821964722210063140000004974332724538211255_" cx="-285.2384" cy="-570.1202" r="0.9517" gradientTransform="matrix(1 9.800000e-03 -9.800000e-03 1 317.2976 679.2481)" gradientUnits="userSpaceOnUse">
			<stop  offset="0.0223" style="stop-color:#8881BC"/>
			<stop  offset="0.2884" style="stop-color:#8375B7"/>
			<stop  offset="0.77" style="stop-color:#7555AA"/>
			<stop  offset="1" style="stop-color:#6D43A3"/>
		</radialGradient>
		<path style="fill-rule:evenodd;clip-rule:evenodd;fill:url(#SVGID_00000119821964722210063140000004974332724538211255_);" d="
			M38.42,106.81c-0.01,0.53-0.44,0.95-0.96,0.94c-0.53-0.01-0.95-0.44-0.94-0.96c0.01-0.53,0.44-0.95,0.96-0.94
			C38.01,105.85,38.43,106.29,38.42,106.81z"/>
	</g>
	<g>
		
			<linearGradient id="SVGID_00000159429594950860184900000015937534028493719989_" gradientUnits="userSpaceOnUse" x1="-285.4094" y1="-574.4036" x2="-285.4094" y2="-576.8209" gradientTransform="matrix(1 9.800000e-03 -9.800000e-03 1 317.2976 679.2481)">
			<stop  offset="0" style="stop-color:#8DC7FF"/>
			<stop  offset="0.3156" style="stop-color:#5C4D86"/>
		</linearGradient>
		<path style="fill-rule:evenodd;clip-rule:evenodd;fill:url(#SVGID_00000159429594950860184900000015937534028493719989_);" d="
			M38.74,100.85c-0.01,0.67-0.55,1.2-1.22,1.2c-0.67-0.01-1.2-0.55-1.2-1.22c0.01-0.67,0.55-1.2,1.22-1.2
			C38.21,99.64,38.74,100.18,38.74,100.85z"/>
		
			<radialGradient id="SVGID_00000078024115824557648970000012432178153592131508_" cx="-285.2383" cy="-576.0829" r="0.9517" gradientTransform="matrix(1 9.800000e-03 -9.800000e-03 1 317.2976 679.2481)" gradientUnits="userSpaceOnUse">
			<stop  offset="0.0223" style="stop-color:#8881BC"/>
			<stop  offset="0.2884" style="stop-color:#8375B7"/>
			<stop  offset="0.77" style="stop-color:#7555AA"/>
			<stop  offset="1" style="stop-color:#6D43A3"/>
		</radialGradient>
		<path style="fill-rule:evenodd;clip-rule:evenodd;fill:url(#SVGID_00000078024115824557648970000012432178153592131508_);" d="
			M38.48,100.85c-0.01,0.53-0.44,0.95-0.96,0.94c-0.53-0.01-0.95-0.44-0.94-0.96c0.01-0.53,0.44-0.95,0.96-0.94
			C38.06,99.89,38.49,100.32,38.48,100.85z"/>
	</g>
	<polygon class="st19" points="12.9,174.47 13.79,174.48 13.22,142 12.34,142.03 	"/>
	<polygon class="st19" points="64.45,142.54 63.57,142.5 62.65,174.96 63.25,174.97 	"/>
	<polygon class="st6" points="47.12,123.84 44.79,135.1 44.4,174.78 46.62,174.8 50.3,123.87 	"/>
	<polygon class="st13" points="50.19,125.44 57.65,159.01 49.96,158.51 49.78,166.6 47.21,166.58 	"/>
	<polygon class="st20" points="67.78,114.5 71.25,99.38 72.18,99.39 68.87,114.51 	"/>
	<path class="st21" d="M24.49,158.13c0,0-14.08-45.04-19.43-78.61l-1.43,0.69c0,0,6.32,51.48,16.17,78.36L24.49,158.13z"/>
	<polygon class="st21" points="71.8,95.95 73.56,86.62 74.45,86.63 72.68,95.95 	"/>
	<path class="st21" d="M13.08,110.54c0,0,9.67-4.2,18.84-5C31.92,105.54,22.77,107.49,13.08,110.54z"/>
	<path class="st22" d="M40.33,84.88l-0.11,34.44C40.23,119.32,40.95,106.84,40.33,84.88z"/>
	<path class="st21" d="M17.39,124.36c0,0,22.99-6.51,44.93-1.98C62.32,122.39,46.07,118.23,17.39,124.36z"/>
	<g class="st23">
		<path class="st22" d="M38.58,87.61c-0.39,0.26-1.14,0.62-1.02,1.22c0.06,0.28,0.22,0.51,0.3,0.78c0.07,0.23,0.12,0.48,0.14,0.72
			c0.03,0.33,0.2,0.85,0.43,1.1c0.18,0.2,0.37,0,0.49-0.19c0.13-0.2,0.27-0.41,0.29-0.65c0.02-0.32,0.03-0.63,0.12-0.93
			c0.03-0.12,0.12-0.22,0.15-0.35c0.04-0.16,0.03-0.34,0.03-0.51C39.5,88.44,39.23,87.75,38.58,87.61z"/>
		<path class="st22" d="M36.96,92.52c-0.05-0.16-0.02-0.3,0.09-0.4c0.58,0.02,0.77,1.17,0.22,1.38c-0.63,0.25-0.7-0.61-0.5-0.99
			L36.96,92.52z"/>
		<path class="st22" d="M26.19,99.76c0.3-0.14,0.56-0.34,0.89-0.26c0.28,0.07,0.51,0.24,0.7,0.45c0.23,0.27,0.33,0.61,0.42,0.95
			c0.05,0.17,0.13,0.32,0.08,0.5c-0.19,0.68-0.97,1.16-1.59,1.35c-0.36,0.11-0.69,0.24-1.07,0.26c-0.26,0.02-0.52,0.05-0.77,0.09
			c-0.21,0.03-0.41,0.12-0.63,0.06c-0.16-0.04-0.36-0.18-0.49-0.28c-0.41-0.32-0.66-0.78-0.64-1.29c0.04-0.89,1.11-1.59,1.84-1.94
			C25.53,99.36,26.48,99,26.19,99.76z"/>
		<path class="st22" d="M28.99,98.58c-0.09,0.25-0.16,0.33,0.04,0.47c0.15,0.1,0.36,0.1,0.52,0.05c0.31-0.1,0.71-0.57,0.48-0.89
			c-0.12-0.16-0.39-0.45-0.58-0.47c-0.38-0.04-0.87,0.5-0.82,0.84L28.99,98.58z"/>
		<path class="st22" d="M40.53,107.39c-0.05,0.14-0.05,0.25-0.05,0.4c0,0.35-0.01,0.69-0.01,1.04c0,0.65-0.11,1.3-0.11,1.95
			c-0.01,0.47,0.07,0.94,0.14,1.41c0.03,0.24,0.08,0.49,0.13,0.73c0.06-0.02,0.07-0.13,0.09-0.19c0.08-0.18,0.13-0.38,0.23-0.55
			c0.22-0.39,0.43-0.79,0.62-1.19c0.03-0.07,0.05-0.16,0.1-0.23c0.06-0.08,0.16-0.16,0.23-0.24c0.12-0.14,0.24-0.3,0.32-0.47
			c0.17-0.41,0.18-0.9,0.17-1.34c-0.01-0.15-0.04-0.29-0.05-0.44c0-0.16,0-0.32-0.03-0.48c-0.04-0.34-0.21-0.66-0.38-0.96
			c-0.2-0.35-0.42-0.95-0.86-1.06c-0.22-0.05-0.3,0.19-0.33,0.36c-0.04,0.22-0.05,0.45-0.08,0.67
			C40.61,107.11,40.5,107.46,40.53,107.39z"/>
		<path class="st22" d="M41.02,104.32c0.1-0.16,0.23-0.46,0.48-0.41c0.24,0.05,0.25,0.4,0.22,0.59c-0.07,0.45-0.64-0.03-0.6-0.32
			L41.02,104.32z"/>
		<path class="st22" d="M45.41,107.2c-0.08,0.18-0.16,0.34-0.12,0.53c0.05,0.28,0.26,0.39,0.53,0.41c0.41,0.02,0.7-0.08,0.79-0.51
			c0.05-0.26-0.12-0.66-0.31-0.84c-0.09-0.09-0.21-0.13-0.34-0.14c-0.25-0.02-0.38,0.18-0.5,0.37L45.41,107.2z"/>
		<path class="st22" d="M54.58,120.27c0.63-0.28,1.26-0.55,1.94-0.68c0.6-0.11,1.2-0.05,1.8-0.1c0.85-0.07,1.63-0.35,2.45-0.54
			c0.73-0.17,1.42-0.26,2.15-0.08c0.55,0.14,1.14,0.51,1.4,1.03c0.16,0.32,0.25,0.69,0.29,1.04c0.02,0.17,0.03,0.33,0.05,0.5
			c0.01,0.11,0.05,0.18,0.05,0.3c-0.01,0.16-0.07,0.16-0.22,0.16c-0.29,0-0.5-0.04-0.75-0.19c-0.38-0.24-0.86-0.35-1.3-0.43
			c-0.43-0.08-0.85-0.19-1.29-0.25c-0.43-0.06-0.86-0.11-1.29-0.17c-0.37-0.05-0.74-0.12-1.11-0.18c-0.37-0.06-0.74-0.06-1.1-0.09
			c-0.31-0.03-0.61,0-0.92-0.03c-0.19-0.02-0.38-0.04-0.57-0.04c-0.16,0-0.29-0.01-0.44-0.04c-0.14-0.03-0.29,0-0.43-0.01
			C55.18,120.45,54.86,120.38,54.58,120.27z"/>
		<path class="st22" d="M58.56,117.61c-0.1,0.08-0.22,0.15-0.25,0.27c-0.01,0.05,0,0.14,0.01,0.19c0.06,0.28,0.52,0.3,0.74,0.3
			c0.62,0.01,1.34-0.18,1.79-0.62c0.29-0.28,0.56-0.78,0.48-1.2c-0.11-0.58-0.73-0.91-1.27-1.04c-0.5-0.12-1.2-0.15-1.59,0.24
			c-0.14,0.14-0.26,0.31-0.28,0.51c-0.01,0.15,0.04,0.3,0.04,0.46c0,0.21-0.11,0.38-0.01,0.59
			C58.31,117.44,58.43,117.54,58.56,117.61z"/>
		<path class="st22" d="M62.28,117.69c-0.03-0.17-0.02-0.19,0.08-0.32c0.09-0.12,0.19-0.17,0.34-0.13c0.24,0.06,0.38,0.34,0.27,0.56
			c-0.07,0.14-0.26,0.22-0.41,0.23c-0.18,0.01-0.33-0.12-0.39-0.28L62.28,117.69z"/>
		<path class="st22" d="M67.2,104.26c-0.26,0.11-0.35,0.15-0.48,0.38c-0.07,0.11-0.1,0.19-0.05,0.32c0.13,0.32,0.53,0.64,0.84,0.75
			c0.23,0.08,0.53,0.07,0.75-0.05c0.19-0.1,0.35-0.33,0.49-0.49c0.13-0.15,0.25-0.3,0.37-0.46c0.2-0.28,0.36-0.59,0.16-0.92
			c-0.18-0.29-0.56-0.52-0.91-0.5c-0.28,0.02-0.45,0.11-0.69,0.23C67.46,103.64,67.26,103.71,67.2,104.26z"/>
		<path class="st22" d="M65.93,105.64c0.19,0.02,0.37,0.07,0.53,0.15c-0.01,0.08,0.1,0.13,0.06,0.23c-0.05,0.14-0.28,0.1-0.39,0.09
			c-0.13-0.01-0.28-0.07-0.37-0.17c-0.03-0.04-0.19-0.2-0.06-0.21L65.93,105.64z"/>
		<path class="st22" d="M49.04,116.35c-0.12,0.21-0.25,0.45-0.05,0.68c0.19,0.22,0.55,0.17,0.78,0.07c0.12-0.06,0.27-0.12,0.28-0.26
			c0.02-0.14,0-0.3,0-0.45c0.01-0.35,0.37-0.6,0.05-0.93c-0.13-0.14-0.4-0.25-0.6-0.22c-0.35,0.07-0.53,0.43-0.66,0.73L49.04,116.35
			z"/>
		<path class="st22" d="M20.74,128.95c-0.41,0.09-0.76,0.28-1.05,0.56c0,0.05,0.01,0.1,0.01,0.16c-0.1,0.27-0.12,0.55,0.01,0.81
			c0.41,0.8,1.23,0.71,1.99,0.71c0.8,0,1.83,0.1,1.47-1.01c-0.16-0.51-0.39-1.34-0.86-1.67c-0.25-0.17-0.38-0.09-0.62-0.01
			C21.39,128.62,20.99,128.72,20.74,128.95L20.74,128.95z"/>
		<path class="st22" d="M29.94,130.3c0.13-0.22,0.31-0.64,0.63-0.67c0.26-0.03,0.34,0.12,0.53,0.26c0.4,0.3,0.79,0.68,0.38,1.2
			c-0.18,0.23-0.61,0.38-0.92,0.32c-0.27-0.05-0.71-0.38-0.62-0.69L29.94,130.3z"/>
		<path class="st22" d="M69.12,60.39c-0.3,0.61-0.33,0.64-0.16,1.26c0.13,0.47,0.21,0.99,0.55,1.36c0.46,0.48,1.09,0.37,1.67,0.5
			c0.45,0.1,0.71,0.14,1.11-0.17c0.38-0.29,0.77-0.76,1.01-1.18c0.79-1.37,0.78-3.39,0.16-4.81c-0.4-0.93-1.01-2-2.06-2.31
			c-0.88-0.26-1.9-0.07-2.53,0.61c-0.64,0.68-0.81,1.68-0.63,2.57c0.06,0.21,0.11,0.42,0.17,0.63c0.03,0.27,0.03,0.55,0.01,0.82
			C68.45,59.96,68.61,60.22,69.12,60.39z"/>
		<path class="st22" d="M67.42,62.74c0.58,0.47,0.49,0.39,0.58,0.98c0.04,0.26,0.14,0.32,0.08,0.56c-0.07,0.3-0.51,0.59-0.82,0.56
			c-0.25-0.02-0.63-0.5-0.72-0.69c-0.15-0.29-0.09-0.45,0.05-0.73L67.42,62.74z"/>
		<path class="st22" d="M8.71,62.02c-0.13,0.51-0.3,1.11,0.26,1.46c0.38,0.24,0.97,0.01,1.31-0.25c0.48-0.36,1-1.28,1.09-1.88
			c0.09-0.65-0.68-1.34-1.27-1.42c-1.2-0.16-1.86,1.74-1.94,2.64L8.71,62.02z"/>
		<path class="st22" d="M7.82,67.59c-0.07-0.14-0.35-0.56-0.3-0.74c0.02-0.08,0.12-0.1,0.16-0.16c0.15-0.24,0.32-0.46,0.6-0.5
			c0.59-0.1,1.07,0.13,1.36,0.65c0.19,0.35,0.19,0.7-0.1,0.98c-0.32,0.31-1,0.44-1.31,0.06L7.82,67.59z"/>
		<path class="st22" d="M60.6,132.83c-0.42,0.85-0.38,1.8-0.2,2.73c0.11,0.59,0.19,1.38,0.82,1.65c1.48,0.63,2.66-2.56,2.95-3.57
			c0.24-0.84,0.34-1.85,0.2-2.73c-0.09-0.54-0.5-1.61-1.02-1.89c-0.67-0.36-1.43,0.07-1.85,0.59c-0.96,1.22-0.73,2.8-1.19,4.19
			L60.6,132.83z"/>
		<path class="st22" d="M59.83,132.61c-0.16,0.02-0.84,0.07-1.07,0.22c-0.17,0.11-0.43,0.27-0.48,0.47
			c-0.07,0.27,0.12,0.55,0.31,0.72c0.12,0.11,0.35,0.24,0.53,0.17c0.14-0.05,0.25-0.24,0.33-0.35c0.15-0.2,0.26-0.44,0.37-0.68
			c0.05-0.11,0.12-0.22,0.15-0.34c0.04-0.19-0.09-0.26-0.14-0.42L59.83,132.61z"/>
		<path class="st22" d="M58.92,140.42c0.17,0.08,0.33,0.16,0.5,0.24c-0.04,0.2,0.04,0.43-0.16,0.55c-0.13,0.09-0.48,0.09-0.63,0.03
			c-0.22-0.08-0.36-0.25-0.35-0.48c0.01-0.27,0.25-0.37,0.49-0.41L58.92,140.42z"/>
		<path class="st22" d="M35.66,150.72c-0.08,0.24-0.11,0.43,0.08,0.63c0.28,0.29,0.7,0.36,1.02,0.11c0.44-0.34,0.93-1.1,0.81-1.69
			c-0.08-0.37-0.55-0.81-0.93-0.59c-0.19,0.11-0.45,0.26-0.6,0.42c-0.26,0.27-0.36,0.68-0.39,1.04L35.66,150.72z"/>
		<path class="st22" d="M55.35,27.75c-0.18,0.16-0.26,0.21-0.31,0.44c-0.05,0.25-0.08,0.5,0.07,0.73c0.28,0.46,1,0.77,1.51,0.89
			c0.47,0.11,0.84,0.06,1.23-0.22c0.44-0.31,0.72-0.7,0.8-1.24c0.08-0.56-0.02-0.97-0.5-1.31c-0.38-0.28-0.91-0.59-1.38-0.67
			c-0.44-0.07-0.74,0.04-1.08,0.32C55.39,26.95,55,27.4,55.35,27.75z"/>
		<path class="st22" d="M59.24,29.53c0.01-0.15-0.02-0.32,0.14-0.35c0.21-0.05,0.57,0.15,0.71,0.29c0.11,0.12,0.22,0.39,0.2,0.55
			c-0.02,0.13-0.15,0.24-0.25,0.32c-0.18,0.13-0.39,0.15-0.56,0.04c-0.12-0.08-0.43-0.24-0.37-0.42L59.24,29.53z"/>
		<path class="st22" d="M46.24,11.75c-0.01,0.27,0,0.4,0.13,0.63c0.2,0.33,0.5,0.63,0.82,0.84c0.42,0.28,0.95,0.49,1.46,0.45
			c0.36-0.03,0.72-0.44,0.77-0.78c0.07-0.41-0.08-1.01-0.33-1.34c-0.47-0.65-1.33-1.18-2.16-1.12
			C45.99,10.5,45.94,11.92,46.24,11.75z"/>
		<path class="st22" d="M50.32,15.14c-0.11-0.1-0.18-0.21-0.21-0.35c0.14-0.06,0.19-0.22,0.34-0.27c0.15-0.05,0.33-0.01,0.46,0.06
			c0.19,0.11,0.32,0.28,0.32,0.5c0.01,0.25-0.08,0.3-0.28,0.4c-0.15,0.07-0.18,0.11-0.33,0.02c-0.08-0.04-0.22-0.15-0.29-0.22
			L50.32,15.14z"/>
	</g>
	<g>
		
			<linearGradient id="SVGID_00000046318629869904796230000003036293879738302886_" gradientUnits="userSpaceOnUse" x1="-304.3005" y1="-551.4509" x2="-304.3005" y2="-554.2448" gradientTransform="matrix(1 9.800000e-03 -9.800000e-03 1 317.2976 679.2481)">
			<stop  offset="0" style="stop-color:#8DC7FF"/>
			<stop  offset="0.3156" style="stop-color:#5C4D86"/>
		</linearGradient>
		<path style="fill-rule:evenodd;clip-rule:evenodd;fill:url(#SVGID_00000046318629869904796230000003036293879738302886_);" d="
			M19.43,123.43c-0.01,0.77-0.47,1.39-1.02,1.39c-0.56-0.01-1-0.64-1-1.41c0.01-0.77,0.47-1.39,1.02-1.39
			C18.99,122.03,19.43,122.66,19.43,123.43z"/>
		<path class="st22" d="M19.21,123.43c-0.01,0.61-0.37,1.1-0.81,1.09c-0.44,0-0.79-0.5-0.79-1.11c0.01-0.61,0.37-1.1,0.81-1.09
			C18.87,122.32,19.22,122.82,19.21,123.43z"/>
	</g>
	<g>
		
			<linearGradient id="SVGID_00000133520481780855451830000012973239365905166468_" gradientUnits="userSpaceOnUse" x1="-264.0693" y1="-554.3539" x2="-264.0693" y2="-557.1478" gradientTransform="matrix(1 9.800000e-03 -9.800000e-03 1 317.2976 679.2481)">
			<stop  offset="0" style="stop-color:#8DC7FF"/>
			<stop  offset="0.3156" style="stop-color:#5C4D86"/>
		</linearGradient>
		<path style="fill-rule:evenodd;clip-rule:evenodd;fill:url(#SVGID_00000133520481780855451830000012973239365905166468_);" d="
			M59.79,120.92c-0.01,0.77-0.51,1.39-1.13,1.39c-0.62-0.01-1.11-0.64-1.1-1.41c0.01-0.77,0.51-1.39,1.13-1.39
			C59.3,119.52,59.8,120.15,59.79,120.92z"/>
		<path class="st22" d="M59.55,120.92c-0.01,0.61-0.4,1.1-0.89,1.09c-0.49,0-0.87-0.5-0.87-1.11c0.01-0.61,0.4-1.1,0.89-1.09
			C59.17,119.81,59.56,120.31,59.55,120.92z"/>
	</g>
	<g>
		
			<linearGradient id="SVGID_00000174562930463778187070000009106949457637649845_" gradientUnits="userSpaceOnUse" x1="-283.2094" y1="-554.5732" x2="-283.2094" y2="-557.3671" gradientTransform="matrix(1 9.800000e-03 -9.800000e-03 1 317.2976 679.2481)">
			<stop  offset="0" style="stop-color:#8DC7FF"/>
			<stop  offset="0.3156" style="stop-color:#5C4D86"/>
		</linearGradient>
		<path style="fill-rule:evenodd;clip-rule:evenodd;fill:url(#SVGID_00000174562930463778187070000009106949457637649845_);" d="
			M40.93,120.52c-0.01,0.77-0.64,1.39-1.41,1.38c-0.77-0.01-1.39-0.64-1.38-1.41c0.01-0.77,0.64-1.39,1.41-1.38
			C40.32,119.11,40.94,119.74,40.93,120.52z"/>
		<path class="st22" d="M40.64,120.51c-0.01,0.61-0.5,1.1-1.11,1.09c-0.61-0.01-1.1-0.5-1.09-1.11c0.01-0.61,0.5-1.1,1.11-1.09
			C40.16,119.41,40.64,119.91,40.64,120.51z"/>
	</g>
	<g>
		
			<radialGradient id="SVGID_00000088846459263702299920000002091819189759920818_" cx="-284.193" cy="-612.5038" r="33.7961" gradientTransform="matrix(1 9.800000e-03 -9.800000e-03 1 317.2976 679.2481)" gradientUnits="userSpaceOnUse">
			<stop  offset="0.0223" style="stop-color:#8881BC"/>
			<stop  offset="0.2869" style="stop-color:#8375B7"/>
			<stop  offset="0.7657" style="stop-color:#7555AA"/>
			<stop  offset="0.9944" style="stop-color:#6D43A3"/>
		</radialGradient>
		
			<path style="opacity:0.5;fill-rule:evenodd;clip-rule:evenodd;fill:url(#SVGID_00000088846459263702299920000002091819189759920818_);" d="
			M38.13,28.95C20.41,30.16,7.6,51.14,6.61,69.55s15.72,29.82,33.67,29.49C58.24,98.7,73.22,86.5,71.36,66.32
			C69.69,48.07,57.8,27.62,38.13,28.95z"/>
		<path class="st8" d="M38.16,26.02C20.44,27.23,7.63,48.21,6.64,66.62S22.36,96.43,40.31,96.1c17.95-0.33,32.93-12.53,31.08-32.71
			C69.72,45.14,57.83,24.69,38.16,26.02z"/>
		
			<radialGradient id="SVGID_00000040562601481041773430000008922032544246009217_" cx="-239.0151" cy="-4045.9292" r="38.2988" gradientTransform="matrix(1.0959 0.0108 -0.0181 1.8414 227.3492 7478.0034)" gradientUnits="userSpaceOnUse">
			<stop  offset="0.0223" style="stop-color:#725EB0"/>
			<stop  offset="0.3834" style="stop-color:#6D52AA"/>
			<stop  offset="0.9944" style="stop-color:#61349C"/>
		</radialGradient>
		<path style="fill-rule:evenodd;clip-rule:evenodd;fill:url(#SVGID_00000040562601481041773430000008922032544246009217_);" d="
			M38.18,23.98C20.46,25.18,7.65,46.17,6.66,64.57C5.67,82.98,22.38,94.39,40.33,94.06c17.95-0.33,32.93-12.53,31.08-32.71
			C69.74,43.1,57.85,22.64,38.18,23.98z"/>
		
			<radialGradient id="SVGID_00000044886844855150912260000001671012037892483000_" cx="40.008" cy="57.8707" r="35.7419" fx="40.1876" fy="22.1293" gradientUnits="userSpaceOnUse">
			<stop  offset="0" style="stop-color:#2C0C49"/>
			<stop  offset="0.2523" style="stop-color:#250A40"/>
			<stop  offset="0.6624" style="stop-color:#130528"/>
			<stop  offset="1" style="stop-color:#00000F"/>
		</radialGradient>
		<path style="fill-rule:evenodd;clip-rule:evenodd;fill:url(#SVGID_00000044886844855150912260000001671012037892483000_);" d="
			M39.29,30.53C23.42,31.35,15.3,47.85,14.52,62.22c-0.78,14.37,12.36,23.28,26.46,23.02c14.1-0.26,25.88-9.78,24.42-25.54
			C64.08,45.46,55.87,29.68,39.29,30.53z"/>
		<g>
			<path class="st8" d="M13.26,68.5c-0.01,0.87-0.72,1.57-1.59,1.56c-0.87-0.01-1.57-0.72-1.56-1.59c0.01-0.87,0.72-1.57,1.59-1.56
				C12.57,66.92,13.27,67.63,13.26,68.5z"/>
			
				<radialGradient id="SVGID_00000070809002127160001340000008538986700224481414_" cx="-311.3461" cy="-608.3189" r="1.2386" gradientTransform="matrix(1 9.800000e-03 -9.800000e-03 1 317.2976 679.2481)" gradientUnits="userSpaceOnUse">
				<stop  offset="0" style="stop-color:#F4BAB3"/>
				<stop  offset="1" style="stop-color:#8D6FC7"/>
			</radialGradient>
			<path style="fill-rule:evenodd;clip-rule:evenodd;fill:url(#SVGID_00000070809002127160001340000008538986700224481414_);" d="
				M12.92,68.5c-0.01,0.68-0.57,1.23-1.25,1.23c-0.68-0.01-1.23-0.57-1.23-1.25c0.01-0.68,0.57-1.23,1.25-1.23
				C12.38,67.26,12.93,67.82,12.92,68.5z"/>
		</g>
		<g>
			<path class="st8" d="M16.24,46.27c-0.01,0.87-0.72,1.57-1.59,1.56c-0.87-0.01-1.57-0.72-1.56-1.59c0.01-0.87,0.72-1.57,1.59-1.56
				C15.55,44.69,16.24,45.4,16.24,46.27z"/>
			
				<radialGradient id="SVGID_00000141446893106385485640000006193680326555892102_" cx="-308.5866" cy="-630.5837" r="1.2386" gradientTransform="matrix(1 9.800000e-03 -9.800000e-03 1 317.2976 679.2481)" gradientUnits="userSpaceOnUse">
				<stop  offset="0" style="stop-color:#F4BAB3"/>
				<stop  offset="1" style="stop-color:#8D6FC7"/>
			</radialGradient>
			<path style="fill-rule:evenodd;clip-rule:evenodd;fill:url(#SVGID_00000141446893106385485640000006193680326555892102_);" d="
				M15.9,46.26c-0.01,0.68-0.57,1.23-1.25,1.23c-0.68-0.01-1.23-0.57-1.23-1.25c0.01-0.68,0.57-1.23,1.25-1.23
				C15.36,45.02,15.91,45.58,15.9,46.26z"/>
		</g>
		<g>
			<path class="st8" d="M27.81,86.23c-0.01,0.87-0.72,1.57-1.59,1.56c-0.87-0.01-1.57-0.72-1.56-1.59c0.01-0.87,0.72-1.57,1.59-1.56
				C27.12,84.65,27.82,85.36,27.81,86.23z"/>
			
				<radialGradient id="SVGID_00000183217283323767230360000004201691663179454868_" cx="-296.6243" cy="-590.7355" r="1.2386" gradientTransform="matrix(1 9.800000e-03 -9.800000e-03 1 317.2976 679.2481)" gradientUnits="userSpaceOnUse">
				<stop  offset="0" style="stop-color:#F4BAB3"/>
				<stop  offset="1" style="stop-color:#8D6FC7"/>
			</radialGradient>
			<path style="fill-rule:evenodd;clip-rule:evenodd;fill:url(#SVGID_00000183217283323767230360000004201691663179454868_);" d="
				M27.47,86.23c-0.01,0.68-0.57,1.23-1.25,1.23c-0.68-0.01-1.23-0.57-1.23-1.25c0.01-0.68,0.57-1.23,1.25-1.23
				C26.93,84.98,27.48,85.54,27.47,86.23z"/>
		</g>
		<g>
			<path class="st8" d="M52.15,88.36c-0.01,0.87-0.72,1.57-1.59,1.56C49.69,89.91,49,89.2,49,88.33c0.01-0.87,0.72-1.57,1.59-1.56
				C51.46,86.78,52.16,87.49,52.15,88.36z"/>
			
				<radialGradient id="SVGID_00000051376720567537582450000008954493236326530208_" cx="-272.262" cy="-588.8423" r="1.2386" gradientTransform="matrix(1 9.800000e-03 -9.800000e-03 1 317.2976 679.2481)" gradientUnits="userSpaceOnUse">
				<stop  offset="0" style="stop-color:#F4BAB3"/>
				<stop  offset="1" style="stop-color:#8D6FC7"/>
			</radialGradient>
			<path style="fill-rule:evenodd;clip-rule:evenodd;fill:url(#SVGID_00000051376720567537582450000008954493236326530208_);" d="
				M51.82,88.36c-0.01,0.68-0.57,1.23-1.25,1.23c-0.68-0.01-1.23-0.57-1.23-1.25c0.01-0.68,0.57-1.23,1.25-1.23
				C51.27,87.12,51.82,87.68,51.82,88.36z"/>
		</g>
		<g>
			<path class="st8" d="M68.79,73.84c-0.01,0.87-0.72,1.57-1.59,1.56c-0.87-0.01-1.57-0.72-1.56-1.59c0.01-0.87,0.72-1.57,1.59-1.56
				C68.1,72.26,68.8,72.98,68.79,73.84z"/>
			
				<radialGradient id="SVGID_00000169528660919544385090000017273609512474576830_" cx="-255.7676" cy="-603.5229" r="1.2386" gradientTransform="matrix(1 9.800000e-03 -9.800000e-03 1 317.2976 679.2481)" gradientUnits="userSpaceOnUse">
				<stop  offset="0" style="stop-color:#F4BAB3"/>
				<stop  offset="1" style="stop-color:#8D6FC7"/>
			</radialGradient>
			<path style="fill-rule:evenodd;clip-rule:evenodd;fill:url(#SVGID_00000169528660919544385090000017273609512474576830_);" d="
				M68.45,73.84c-0.01,0.68-0.57,1.23-1.25,1.23c-0.68-0.01-1.23-0.57-1.23-1.25c0.01-0.68,0.57-1.23,1.25-1.23
				C67.91,72.6,68.46,73.16,68.45,73.84z"/>
		</g>
		<g>
			<path class="st8" d="M66.54,45.94c-0.01,0.87-0.72,1.57-1.59,1.56c-0.87-0.01-1.57-0.72-1.56-1.59c0.01-0.87,0.72-1.57,1.59-1.56
				C65.85,44.36,66.55,45.07,66.54,45.94z"/>
			
				<radialGradient id="SVGID_00000029753775296379829410000002445590199201057178_" cx="-258.2919" cy="-631.3995" r="1.2386" gradientTransform="matrix(1 9.800000e-03 -9.800000e-03 1 317.2976 679.2481)" gradientUnits="userSpaceOnUse">
				<stop  offset="0" style="stop-color:#F4BAB3"/>
				<stop  offset="1" style="stop-color:#8D6FC7"/>
			</radialGradient>
			<path style="fill-rule:evenodd;clip-rule:evenodd;fill:url(#SVGID_00000029753775296379829410000002445590199201057178_);" d="
				M66.2,45.94c-0.01,0.68-0.57,1.23-1.25,1.23c-0.68-0.01-1.23-0.57-1.23-1.25c0.01-0.68,0.57-1.23,1.25-1.23
				C65.66,44.7,66.21,45.26,66.2,45.94z"/>
		</g>
		<g>
			<path class="st8" d="M54.28,31.45c-0.01,0.87-0.72,1.57-1.59,1.56c-0.87-0.01-1.57-0.72-1.56-1.59c0.01-0.87,0.72-1.57,1.59-1.56
				C53.59,29.87,54.29,30.58,54.28,31.45z"/>
			
				<radialGradient id="SVGID_00000078739004456056727040000012084099146730451373_" cx="-270.6873" cy="-645.7744" r="1.2386" gradientTransform="matrix(1 9.800000e-03 -9.800000e-03 1 317.2976 679.2481)" gradientUnits="userSpaceOnUse">
				<stop  offset="0" style="stop-color:#F4BAB3"/>
				<stop  offset="1" style="stop-color:#8D6FC7"/>
			</radialGradient>
			<path style="fill-rule:evenodd;clip-rule:evenodd;fill:url(#SVGID_00000078739004456056727040000012084099146730451373_);" d="
				M53.95,31.44c-0.01,0.68-0.57,1.23-1.25,1.23c-0.68-0.01-1.23-0.57-1.23-1.25c0.01-0.68,0.57-1.23,1.25-1.23
				C53.41,30.2,53.96,30.76,53.95,31.44z"/>
		</g>
		<g>
			<path class="st8" d="M33.43,28.99c-0.01,0.87-0.72,1.57-1.59,1.56c-0.87-0.01-1.57-0.72-1.56-1.59c0.01-0.87,0.72-1.57,1.59-1.56
				C32.74,27.41,33.44,28.12,33.43,28.99z"/>
			
				<radialGradient id="SVGID_00000137097875536590657160000007011863298451087498_" cx="-291.5607" cy="-648.028" r="1.2386" gradientTransform="matrix(1 9.800000e-03 -9.800000e-03 1 317.2976 679.2481)" gradientUnits="userSpaceOnUse">
				<stop  offset="0" style="stop-color:#F4BAB3"/>
				<stop  offset="1" style="stop-color:#8D6FC7"/>
			</radialGradient>
			<path style="fill-rule:evenodd;clip-rule:evenodd;fill:url(#SVGID_00000137097875536590657160000007011863298451087498_);" d="
				M33.1,28.99c-0.01,0.68-0.57,1.23-1.25,1.23c-0.68-0.01-1.23-0.57-1.23-1.25c0.01-0.68,0.57-1.23,1.25-1.23
				C32.56,27.74,33.1,28.3,33.1,28.99z"/>
		</g>
		<path class="st22" d="M18.68,34.63c0,0,4.05,1.68,6.5-5.89C25.19,28.74,21.13,31.56,18.68,34.63z"/>
		<path class="st21" d="M43.9,93.83c0,0,9.77-0.42,21.42-10.89C65.32,82.94,58.3,92.53,43.9,93.83z"/>
		<path class="st21" d="M40.29,85.24c0,0,8.48,4.66,14.39-3.67C54.68,81.57,50.11,85.57,40.29,85.24z"/>
		<g>
			<defs>
				<path id="SVGID_00000135650433709532178230000016651900951321600668_" d="M55.88,80.22C55.87,80.23,55.87,80.23,55.88,80.22
					l-0.03,0.03c-4.08,2.98-9.31,4.63-14.93,4.74c-13.42,0.24-27.13-9.1-26.39-22.77c0.26-4.6,1.34-9.28,3.29-13.52
					c3.81-8.39,10.95-15.04,21.49-15.78c15.57-1.09,23.6,14.21,24.86,27.77C64.96,69.39,61.52,76.09,55.88,80.22z"/>
			</defs>
			<clipPath id="SVGID_00000025440678235764041470000012254466660592699536_">
				<use xlink:href="#SVGID_00000135650433709532178230000016651900951321600668_"  style="overflow:visible;"/>
			</clipPath>
		</g>
	</g>
	<polygon class="st19" points="47.12,123.84 50.3,123.87 46.62,174.8 44.4,174.78 	"/>
</g>
</svg>
