<?xml version="1.0" encoding="utf-8"?>
<!-- Generator: Adobe Illustrator 26.3.1, SVG Export Plug-In . SVG Version: 6.00 Build 0)  -->
<svg version="1.1" id="Layer_1" xmlns="http://www.w3.org/2000/svg" xmlns:xlink="http://www.w3.org/1999/xlink" x="0px" y="0px"
	 viewBox="0 0 150 82" style="enable-background:new 0 0 150 82;" xml:space="preserve">
<style type="text/css">
	.st0{fill:#FFFFFF;}
	.st1{fill:#091430;}
</style>
<g>
	<g>
		<g>
			<path class="st0" d="M67.33,73.17H8.67V49.5c0-2.48,0.63-4.78,1.88-6.84c1.22-2.02,2.87-3.65,4.89-4.84
				c2.05-1.21,4.34-1.83,6.81-1.83h28.47v-5.85H25.29v4.4H8.67v-7.51c0-2.48,0.63-4.78,1.88-6.84c1.22-2.02,2.87-3.65,4.89-4.84
				c2.05-1.21,4.34-1.83,6.81-1.83h31.5c2.47,0,4.76,0.62,6.81,1.83c2.02,1.19,3.66,2.82,4.89,4.84c1.25,2.06,1.88,4.36,1.88,6.84
				V39.1c0,2.48-0.63,4.78-1.88,6.84c-1.22,2.01-2.86,3.65-4.86,4.87c-2.06,1.25-4.36,1.88-6.84,1.88H25.29v3.88h42.05V73.17z
				 M13.67,68.17h48.66v-6.61H20.29V47.68h33.47c1.57,0,2.96-0.38,4.25-1.16c1.33-0.81,2.37-1.85,3.18-3.18
				c0.78-1.28,1.15-2.67,1.15-4.24V27.03c0-1.57-0.38-2.96-1.16-4.25c-0.8-1.32-1.84-2.35-3.16-3.13c-1.29-0.76-2.69-1.13-4.27-1.13
				h-31.5c-1.58,0-2.98,0.37-4.27,1.13c-1.32,0.78-2.36,1.8-3.16,3.13c-0.78,1.28-1.16,2.67-1.16,4.25v2.51h6.61v-4.4h35.44v15.85
				H22.25c-1.58,0-2.98,0.37-4.27,1.13c-1.32,0.78-2.35,1.8-3.16,3.13c-0.78,1.28-1.16,2.67-1.16,4.25V68.17z"/>
			<path class="st0" d="M75.77,81.61H0.24V49.5c0-2.26,0.33-4.44,0.98-6.52H0.24V27.03c0-4.04,1.04-7.81,3.1-11.21
				C5.29,12.6,7.92,10,11.15,8.09c3.37-1.99,7.1-3,11.1-3h31.5c4,0,7.73,1.01,11.1,3c3.23,1.91,5.85,4.51,7.81,7.73
				c2.06,3.4,3.1,7.17,3.1,11.21V39.1c0,3.2-0.65,6.22-1.94,9.03h1.94V81.61z M5.24,76.61h65.53V53.13h-6.3l2.97-3.99
				c0.33-0.45,0.66-0.93,0.95-1.42c1.58-2.61,2.38-5.51,2.38-8.62V27.03c0-3.11-0.8-6.01-2.38-8.61c-1.52-2.51-3.57-4.54-6.08-6.02
				c-2.59-1.53-5.47-2.3-8.56-2.3h-31.5c-3.09,0-5.97,0.78-8.56,2.31c-2.51,1.48-4.56,3.51-6.08,6.02c-1.58,2.6-2.38,5.5-2.38,8.62
				v10.94h3.91l-1.97,3.68c-1.28,2.4-1.94,5.03-1.94,7.84V76.61z M67.33,73.17H8.67V49.5c0-2.48,0.63-4.78,1.88-6.84
				c1.22-2.02,2.87-3.65,4.89-4.84c2.05-1.21,4.34-1.83,6.81-1.83h28.47v-5.85H25.29v4.4H8.67v-7.51c0-2.48,0.63-4.78,1.88-6.84
				c1.22-2.02,2.87-3.65,4.89-4.84c2.05-1.21,4.34-1.83,6.81-1.83h31.5c2.47,0,4.76,0.62,6.81,1.83c2.02,1.19,3.66,2.82,4.89,4.84
				c1.25,2.06,1.88,4.36,1.88,6.84V39.1c0,2.48-0.63,4.78-1.88,6.84c-1.22,2.01-2.86,3.65-4.86,4.87c-2.06,1.25-4.36,1.88-6.84,1.88
				H25.29v3.88h42.05V73.17z M13.67,68.17h48.66v-6.61H20.29V47.68h33.47c1.57,0,2.96-0.38,4.25-1.16c1.33-0.81,2.37-1.85,3.18-3.18
				c0.78-1.28,1.15-2.67,1.15-4.24V27.03c0-1.57-0.38-2.96-1.16-4.25c-0.8-1.32-1.84-2.35-3.16-3.13c-1.29-0.76-2.69-1.13-4.27-1.13
				h-31.5c-1.58,0-2.98,0.37-4.27,1.13c-1.32,0.78-2.36,1.8-3.16,3.13c-0.78,1.28-1.16,2.67-1.16,4.25v2.51h6.61v-4.4h35.44v15.85
				H22.25c-1.58,0-2.98,0.37-4.27,1.13c-1.32,0.78-2.35,1.8-3.16,3.13c-0.78,1.28-1.16,2.67-1.16,4.25V68.17z"/>
		</g>
		<g>
			<path class="st0" d="M105.3,47.9H93.54V29.01h-7.48V47.9H74.29V17.23h22.1c1.64,0,3.16,0.42,4.53,1.25
				c1.33,0.81,2.4,1.89,3.18,3.21c0.8,1.36,1.21,2.86,1.21,4.46V47.9z M98.54,42.9h1.77V26.15c0-0.7-0.17-1.33-0.52-1.92
				c-0.37-0.62-0.84-1.1-1.47-1.48c-0.58-0.35-1.21-0.52-1.93-0.52h-17.1V42.9h1.77V24.01h17.48V42.9z"/>
			<path class="st0" d="M113.74,56.33H65.85V8.8h30.54c3.2,0,6.2,0.83,8.9,2.47c2.53,1.53,4.57,3.59,6.06,6.13
				c1.58,2.67,2.38,5.62,2.38,8.75V56.33z M70.85,51.33h37.88V26.15c0-2.22-0.57-4.31-1.69-6.21c-1.07-1.82-2.54-3.3-4.35-4.4
				c-1.91-1.16-4.03-1.75-6.31-1.75H70.85V51.33z M105.3,47.9H93.53V29.01h-7.48V47.9H74.29V17.23h22.1c1.64,0,3.16,0.42,4.53,1.25
				c1.33,0.81,2.4,1.89,3.18,3.21c0.8,1.36,1.21,2.86,1.21,4.46V47.9z M98.53,42.9h1.77V26.15c0-0.7-0.17-1.33-0.52-1.92
				c-0.36-0.62-0.84-1.1-1.47-1.48c-0.58-0.35-1.21-0.52-1.93-0.52h-17.1V42.9h1.77V24.01h17.48V42.9z"/>
		</g>
		<g>
			<path class="st0" d="M141.33,47.9h-22.15c-1.64,0-3.16-0.42-4.53-1.25l0,0c-1.33-0.8-2.4-1.88-3.18-3.21
				c-0.8-1.36-1.21-2.86-1.21-4.46V26.15c0-1.6,0.41-3.1,1.21-4.46c0.78-1.33,1.85-2.41,3.18-3.21c1.37-0.83,2.89-1.25,4.53-1.25
				h10.38V8.83h11.77V47.9z M119.18,22.23c-0.72,0-1.35,0.17-1.94,0.52c-0.62,0.38-1.1,0.86-1.47,1.48
				c-0.35,0.59-0.51,1.21-0.51,1.92v12.83c0,0.7,0.17,1.33,0.51,1.92c0.37,0.62,0.84,1.1,1.47,1.48l0,0
				c0.58,0.35,1.21,0.52,1.93,0.52h17.15V13.83h-1.77v8.41H119.18z M134.56,41.13h-17.48V24.01h17.48V41.13z M122.08,36.13h7.48
				v-7.12h-7.48V36.13z"/>
			<path class="st0" d="M149.76,56.33h-30.58c-3.2,0-6.2-0.83-8.9-2.47c-2.53-1.53-4.57-3.59-6.07-6.13
				c-1.58-2.68-2.38-5.62-2.38-8.75V26.15c0-3.13,0.8-6.07,2.38-8.75c1.5-2.53,3.54-4.6,6.06-6.13c2.7-1.64,5.7-2.47,8.9-2.47h1.94
				V0.39h28.64V56.33z M119.18,13.8c-2.28,0-4.4,0.59-6.31,1.75c-1.81,1.1-3.28,2.58-4.35,4.4c-1.12,1.9-1.69,3.99-1.69,6.21v12.83
				c0,2.22,0.57,4.31,1.69,6.2c1.08,1.82,2.54,3.3,4.36,4.4c1.91,1.16,4.03,1.74,6.3,1.74h25.58V5.39h-18.64v8.41H119.18z
				 M141.33,47.9h-22.15c-1.64,0-3.16-0.42-4.53-1.25c-1.32-0.8-2.39-1.88-3.18-3.21c-0.8-1.36-1.21-2.86-1.21-4.46V26.15
				c0-1.6,0.41-3.1,1.21-4.46c0.78-1.33,1.85-2.41,3.18-3.21c1.37-0.83,2.89-1.25,4.53-1.25h10.38V8.83h11.77V47.9z M119.18,22.23
				c-0.72,0-1.35,0.17-1.94,0.52c-0.62,0.38-1.1,0.86-1.47,1.48c-0.35,0.59-0.51,1.21-0.51,1.92v12.83c0,0.7,0.17,1.33,0.51,1.92
				c0.37,0.62,0.84,1.1,1.47,1.48c0.58,0.35,1.21,0.52,1.94,0.52h17.15V13.83h-1.77v8.41H119.18z M134.56,41.13h-17.48V24.01h17.48
				V41.13z M122.08,36.13h7.48v-7.12h-7.48V36.13z"/>
		</g>
	</g>
	<g>
		<g>
			<path class="st0" d="M11.17,70.67V49.5c0-2.02,0.51-3.87,1.52-5.54c1.01-1.67,2.35-3,4.02-3.99c1.67-0.99,3.52-1.48,5.54-1.48
				h30.97V27.64H22.79v4.4H11.17v-5.01c0-2.02,0.51-3.87,1.52-5.54c1.01-1.67,2.35-3,4.02-3.98c1.67-0.99,3.52-1.48,5.54-1.48h31.5
				c2.02,0,3.87,0.49,5.54,1.48c1.67,0.99,3.01,2.32,4.02,3.98c1.01,1.67,1.52,3.52,1.52,5.54V39.1c0,2.03-0.51,3.87-1.52,5.54
				c-1.01,1.67-2.35,3.01-4.02,4.02c-1.67,1.01-3.52,1.52-5.54,1.52H22.79v8.88h42.05v11.61H11.17z"/>
			<path class="st1" d="M53.75,16.03c2.02,0,3.87,0.49,5.54,1.48c1.67,0.99,3.01,2.32,4.02,3.98c1.01,1.67,1.52,3.52,1.52,5.54V39.1
				c0,2.03-0.51,3.87-1.52,5.54c-1.01,1.67-2.35,3.01-4.02,4.02c-1.67,1.01-3.52,1.52-5.54,1.52H22.79v8.88h42.05v11.61H11.17V49.5
				c0-2.02,0.51-3.87,1.52-5.54c1.01-1.67,2.35-3,4.02-3.99c1.67-0.99,3.52-1.48,5.54-1.48h30.97V27.64H22.79v4.4H11.17v-5.01
				c0-2.02,0.51-3.87,1.52-5.54c1.01-1.67,2.35-3,4.02-3.98c1.67-0.99,3.52-1.48,5.54-1.48H53.75 M53.75,7.59h-31.5
				c-3.54,0-6.85,0.89-9.83,2.65c-2.87,1.7-5.21,4.01-6.94,6.87c-1.82,3-2.74,6.34-2.74,9.91v5.01v8.43h2.23
				c-1.48,2.76-2.23,5.79-2.23,9.02v21.18v8.43h8.43h53.66h8.43v-8.43V59.06v-8.43h-3.83c0.38-0.52,0.75-1.06,1.09-1.61
				c1.82-3,2.74-6.34,2.74-9.91V27.03c0-3.58-0.92-6.91-2.74-9.91c-1.74-2.87-4.08-5.18-6.95-6.88C60.6,8.48,57.3,7.59,53.75,7.59
				L53.75,7.59z"/>
		</g>
		<g>
			<path class="st0" d="M76.79,45.4V19.73h19.6c1.18,0,2.26,0.29,3.23,0.89s1.75,1.37,2.32,2.34c0.58,0.97,0.86,2.04,0.86,3.19V45.4
				h-6.77V26.5H83.56V45.4H76.79z"/>
			<path class="st1" d="M96.39,19.73c1.18,0,2.26,0.29,3.23,0.89s1.75,1.37,2.32,2.34c0.58,0.97,0.86,2.04,0.86,3.19V45.4h-6.77
				V26.5H83.56V45.4h-6.77V19.73H96.39 M96.39,11.3h-19.6h-8.43v8.43V45.4v8.43h8.43h6.77h8.43h4.05h6.77h8.43V45.4V26.15
				c0-2.68-0.69-5.19-2.04-7.48c-1.28-2.17-3.04-3.95-5.21-5.26C101.69,12.01,99.13,11.3,96.39,11.3L96.39,11.3z"/>
		</g>
		<g>
			<path class="st0" d="M115.95,44.51c-0.97-0.59-1.75-1.37-2.32-2.34c-0.57-0.97-0.86-2.04-0.86-3.19V26.15
				c0-1.15,0.29-2.21,0.86-3.19c0.58-0.97,1.35-1.75,2.32-2.34s2.05-0.89,3.23-0.89h12.88v-8.41h6.77V45.4h-19.65
				C118,45.4,116.92,45.1,115.95,44.51z M132.06,38.63V26.5h-12.48v12.12H132.06z"/>
			<path class="st1" d="M138.83,11.33V45.4h-19.65c-1.18,0-2.26-0.29-3.23-0.89c-0.97-0.59-1.75-1.37-2.32-2.34
				c-0.57-0.97-0.86-2.04-0.86-3.19V26.15c0-1.15,0.29-2.21,0.86-3.19c0.58-0.97,1.35-1.75,2.32-2.34s2.05-0.89,3.23-0.89h12.88
				v-8.41H138.83 M119.58,38.63h12.48V26.5h-12.48V38.63 M147.26,2.89h-8.43h-6.77h-8.43v8.41h-4.44c-2.74,0-5.3,0.71-7.6,2.11
				c-2.17,1.32-3.92,3.09-5.21,5.26c-1.35,2.29-2.04,4.8-2.04,7.48v12.83c0,2.67,0.68,5.19,2.03,7.47c1.29,2.18,3.05,3.95,5.22,5.27
				c2.3,1.4,4.86,2.11,7.6,2.11h19.65h8.43V45.4V11.33V2.89L147.26,2.89z"/>
		</g>
	</g>
</g>
</svg>
