<?xml version="1.0" encoding="utf-8"?>
<!-- Generator: Adobe Illustrator 26.3.1, SVG Export Plug-In . SVG Version: 6.00 Build 0)  -->
<svg version="1.1" id="Layer_1" xmlns="http://www.w3.org/2000/svg" xmlns:xlink="http://www.w3.org/1999/xlink" x="0px" y="0px"
	 viewBox="0 0 140 82" style="enable-background:new 0 0 140 82;" xml:space="preserve">
<style type="text/css">
	.st0{fill:#FFFFFF;}
	.st1{fill:#091430;}
</style>
<g>
	<g>
		<g>
			<path class="st0" d="M53.62,73.17H22.05c-2.48,0-4.78-0.63-6.84-1.88h0c-2.01-1.22-3.65-2.86-4.86-4.87
				c-1.25-2.06-1.88-4.33-1.88-6.76v-6.75h16.61v3.64h25.44v-5.1H17.42V34.85h31.04v-4.72H25.08v4.25H8.47v-7.36
				c0-2.48,0.63-4.78,1.88-6.84c1.22-2.02,2.87-3.65,4.89-4.84c2.05-1.21,4.34-1.83,6.81-1.83h29.53c2.47,0,4.76,0.61,6.81,1.83
				c2.03,1.2,3.67,2.84,4.87,4.86c1.21,2.05,1.83,4.35,1.83,6.81v10.93c0,0.65-0.04,1.35-0.13,2.08c-0.04,0.29-0.08,0.57-0.13,0.85
				c0.58,0.86,1.07,1.81,1.46,2.82c0.56,1.47,0.85,3.04,0.85,4.65v11.31c0,2.42-0.62,4.69-1.83,6.74c-1.19,2.02-2.82,3.67-4.84,4.89
				C58.4,72.54,56.1,73.17,53.62,73.17z M17.8,67.02c1.28,0.78,2.67,1.16,4.25,1.16h31.57c1.57,0,2.96-0.38,4.25-1.16
				c1.32-0.8,2.35-1.84,3.13-3.16c0.76-1.29,1.13-2.66,1.13-4.19V48.36c0-1-0.17-1.96-0.52-2.86c-0.35-0.93-0.83-1.75-1.41-2.44
				l-0.86-1.03l0.39-1.29c0.11-0.36,0.19-0.79,0.25-1.28c0.06-0.53,0.1-1.03,0.1-1.49V27.03c0-1.58-0.37-2.98-1.13-4.27
				c-0.78-1.31-1.79-2.33-3.1-3.1c-1.29-0.76-2.69-1.13-4.27-1.13H22.05c-1.58,0-2.98,0.37-4.27,1.13c-1.32,0.78-2.35,1.8-3.16,3.13
				c-0.78,1.28-1.16,2.67-1.16,4.25v2.36h6.61v-4.25h33.39v14.72H22.42v6.61h33.09v15.1H20.08v-3.64h-6.61v1.75
				c0,1.52,0.38,2.89,1.16,4.17C15.43,65.17,16.47,66.21,17.8,67.02L17.8,67.02z"/>
			<path class="st0" d="M53.62,81.61H22.05c-4.04,0-7.82-1.04-11.21-3.1c-3.18-1.93-5.77-4.52-7.7-7.7
				c-2.06-3.39-3.1-7.14-3.1-11.13V44.48h8.96v-1.66H0.03V27.03c0-4.04,1.04-7.81,3.1-11.21C5.08,12.6,7.71,10,10.95,8.09
				c3.37-1.99,7.1-3,11.1-3h29.53c4,0,7.73,1.01,11.1,3c3.27,1.93,5.9,4.57,7.84,7.84c1.99,3.37,3,7.11,3,11.1v10.93
				c0,0.38-0.01,0.76-0.03,1.16c0.24,0.51,0.46,1.04,0.67,1.57c0.93,2.44,1.41,5.02,1.41,7.67v11.31c0,3.95-1.01,7.66-3,11.03
				c-1.91,3.23-4.51,5.86-7.73,7.81C61.44,80.56,57.67,81.61,53.62,81.61z M5.03,49.48v10.18c0,3.07,0.8,5.94,2.38,8.54
				c1.51,2.49,3.53,4.51,6.02,6.02c2.6,1.58,5.5,2.38,8.62,2.38h31.57c3.12,0,6.02-0.8,8.62-2.38c2.51-1.52,4.53-3.56,6.01-6.08
				c1.53-2.59,2.31-5.44,2.31-8.48V48.36c0-2.04-0.36-4.01-1.08-5.88c-0.23-0.59-0.49-1.17-0.77-1.72l-0.32-0.62l0.05-0.7
				c0.04-0.5,0.06-1,0.06-1.47V27.03c0-3.09-0.78-5.97-2.3-8.56c-1.5-2.53-3.54-4.58-6.08-6.07c-2.59-1.53-5.47-2.31-8.56-2.31
				H22.05c-3.09,0-5.97,0.78-8.56,2.3c-2.51,1.49-4.56,3.51-6.08,6.02c-1.58,2.6-2.38,5.5-2.38,8.62v10.79h8.96v11.66H5.03z
				 M53.62,73.17H22.05c-2.48,0-4.78-0.63-6.84-1.88c-2.01-1.22-3.65-2.86-4.87-4.87c-1.25-2.06-1.88-4.33-1.88-6.76v-6.75h16.61
				v3.64h25.44v-5.1H17.42V34.85h31.04v-4.71H25.08v4.25H8.47v-7.36c0-2.48,0.63-4.78,1.88-6.84c1.22-2.02,2.87-3.65,4.89-4.84
				c2.05-1.21,4.34-1.83,6.81-1.83h29.53c2.47,0,4.76,0.61,6.81,1.83c2.03,1.2,3.67,2.84,4.87,4.86c1.21,2.05,1.83,4.35,1.83,6.81
				v10.93c0,0.65-0.04,1.35-0.13,2.08c-0.04,0.29-0.08,0.57-0.13,0.85c0.58,0.86,1.07,1.81,1.46,2.82c0.56,1.47,0.85,3.04,0.85,4.65
				v11.31c0,2.42-0.62,4.69-1.83,6.74c-1.19,2.02-2.82,3.67-4.84,4.89C58.4,72.54,56.1,73.17,53.62,73.17z M13.47,57.92v1.75
				c0,1.52,0.38,2.89,1.16,4.17c0.81,1.33,1.85,2.37,3.18,3.18c1.28,0.78,2.67,1.16,4.24,1.16h31.57c1.57,0,2.96-0.38,4.25-1.16
				c1.32-0.8,2.35-1.84,3.13-3.16c0.76-1.29,1.13-2.66,1.13-4.19V48.36c0-1-0.17-1.96-0.52-2.86c-0.35-0.93-0.83-1.75-1.41-2.44
				l-0.86-1.03l0.39-1.29c0.11-0.36,0.19-0.79,0.25-1.28c0.06-0.53,0.1-1.03,0.1-1.49V27.03c0-1.58-0.37-2.98-1.13-4.27
				c-0.78-1.31-1.79-2.33-3.1-3.1c-1.29-0.76-2.69-1.13-4.27-1.13H22.05c-1.58,0-2.98,0.37-4.27,1.13c-1.32,0.78-2.35,1.8-3.16,3.13
				c-0.78,1.28-1.16,2.67-1.16,4.25v2.36h6.61v-4.25h33.39v14.72H22.42v6.61h33.09v15.1H20.08v-3.64H13.47z"/>
		</g>
		<g>
			<path class="st0" d="M85.85,47.9H74.08V26.15c0-1.61,0.42-3.12,1.25-4.48c0.79-1.31,1.87-2.38,3.19-3.19
				c1.36-0.83,2.89-1.25,4.53-1.25H99.7V29H85.85V47.9z M79.08,42.9h1.77V24H94.7v-1.77H83.04c-0.72,0-1.35,0.17-1.93,0.52
				c-0.63,0.38-1.12,0.87-1.5,1.5c-0.35,0.58-0.52,1.2-0.52,1.89V42.9z"/>
			<path class="st0" d="M94.29,56.33H65.65V26.15c0-3.17,0.83-6.15,2.47-8.85c1.51-2.49,3.54-4.52,6.03-6.03
				c2.7-1.64,5.7-2.47,8.9-2.47h25.09v28.64H94.29V56.33z M70.65,51.33h18.64V32.44h13.85V13.8H83.04c-2.28,0-4.4,0.59-6.31,1.75
				c-1.79,1.09-3.26,2.55-4.34,4.34c-1.16,1.91-1.74,4.01-1.74,6.26V51.33z M85.85,47.9H74.08V26.15c0-1.61,0.42-3.12,1.25-4.48
				c0.79-1.31,1.87-2.38,3.19-3.19c1.36-0.83,2.89-1.25,4.53-1.25H99.7V29H85.85V47.9z M79.08,42.9h1.77V24H94.7v-1.77H83.04
				c-0.72,0-1.35,0.17-1.93,0.52c-0.63,0.38-1.12,0.87-1.5,1.5c-0.35,0.58-0.52,1.2-0.52,1.89V42.9z"/>
		</g>
		<g>
			<path class="st0" d="M131.53,47.9h-22.15c-1.64,0-3.16-0.42-4.53-1.25l0,0c-1.33-0.8-2.4-1.88-3.18-3.21
				c-0.8-1.36-1.21-2.86-1.21-4.46V26.15c0-1.6,0.41-3.1,1.21-4.46c0.78-1.33,1.85-2.41,3.18-3.21c1.37-0.83,2.89-1.25,4.53-1.25
				h10.38V8.83h11.77V47.9z M109.39,22.23c-0.72,0-1.35,0.17-1.93,0.52c-0.62,0.38-1.1,0.86-1.47,1.48
				c-0.35,0.59-0.51,1.21-0.51,1.91v12.83c0,0.7,0.17,1.33,0.51,1.91c0.37,0.62,0.84,1.1,1.47,1.48l0,0
				c0.58,0.35,1.21,0.52,1.93,0.52h17.15V13.83h-1.77v8.41H109.39z M124.77,41.13h-17.48V24h17.48V41.13z M112.29,36.13h7.48V29
				h-7.48V36.13z"/>
			<path class="st0" d="M139.97,56.33h-30.58c-3.2,0-6.2-0.83-8.9-2.47c-2.53-1.53-4.57-3.6-6.07-6.14
				c-1.58-2.68-2.38-5.62-2.38-8.75V26.15c0-3.13,0.8-6.07,2.38-8.75c1.5-2.53,3.54-4.6,6.06-6.13c2.7-1.64,5.7-2.47,8.9-2.47h1.94
				V0.39h28.64V56.33z M109.39,13.8c-2.28,0-4.4,0.59-6.31,1.75c-1.81,1.1-3.28,2.58-4.35,4.4c-1.12,1.9-1.69,3.99-1.69,6.21v12.83
				c0,2.22,0.57,4.31,1.69,6.2c1.08,1.82,2.54,3.3,4.36,4.4c1.91,1.16,4.03,1.74,6.3,1.74h25.58V5.39h-18.64v8.41H109.39z
				 M131.53,47.9h-22.15c-1.64,0-3.16-0.42-4.53-1.25c-1.32-0.8-2.39-1.88-3.18-3.21c-0.8-1.36-1.21-2.86-1.21-4.46V26.15
				c0-1.6,0.41-3.1,1.21-4.46c0.78-1.33,1.85-2.41,3.18-3.21c1.37-0.83,2.89-1.25,4.53-1.25h10.38V8.83h11.77V47.9z M109.39,22.23
				c-0.72,0-1.35,0.17-1.93,0.52c-0.62,0.38-1.1,0.86-1.47,1.48c-0.35,0.59-0.51,1.21-0.51,1.91v12.83c0,0.7,0.17,1.33,0.51,1.91
				c0.37,0.62,0.84,1.1,1.47,1.48c0.58,0.35,1.21,0.52,1.94,0.52h17.15V13.83h-1.77v8.41H109.39z M124.77,41.13h-17.48V24h17.48
				V41.13z M112.29,36.13h7.48V29h-7.48V36.13z"/>
		</g>
	</g>
	<g>
		<g>
			<path class="st0" d="M16.51,69.16c-1.67-1.01-3.01-2.35-4.02-4.02c-1.01-1.67-1.52-3.49-1.52-5.46v-4.25h11.61v3.64h30.44v-10.1
				H19.92V37.35h31.04v-9.72H22.58v4.25H10.97v-4.86c0-2.02,0.51-3.87,1.52-5.54c1.01-1.67,2.35-3,4.02-3.98
				c1.67-0.99,3.52-1.48,5.54-1.48h29.52c2.02,0,3.87,0.49,5.54,1.48c1.67,0.99,3,2.32,3.98,3.98c0.99,1.67,1.48,3.52,1.48,5.54
				v10.93c0,0.56-0.04,1.15-0.11,1.78c-0.08,0.63-0.19,1.2-0.34,1.71c0.76,0.91,1.37,1.96,1.82,3.15c0.46,1.19,0.68,2.44,0.68,3.76
				v11.31c0,1.97-0.49,3.8-1.48,5.46c-0.99,1.67-2.31,3.01-3.98,4.02c-1.67,1.01-3.52,1.52-5.54,1.52H22.05
				C20.02,70.67,18.18,70.17,16.51,69.16z"/>
			<path class="st1" d="M51.57,16.03c2.02,0,3.87,0.49,5.54,1.48c1.67,0.99,3,2.32,3.98,3.98c0.99,1.67,1.48,3.52,1.48,5.54v10.93
				c0,0.56-0.04,1.15-0.11,1.78c-0.08,0.63-0.19,1.2-0.34,1.71c0.76,0.91,1.37,1.96,1.82,3.15c0.46,1.19,0.68,2.44,0.68,3.76v11.31
				c0,1.97-0.49,3.8-1.48,5.46c-0.99,1.67-2.31,3.01-3.98,4.02c-1.67,1.01-3.52,1.52-5.54,1.52H22.05c-2.02,0-3.87-0.5-5.54-1.52
				c-1.67-1.01-3.01-2.35-4.02-4.02c-1.01-1.67-1.52-3.49-1.52-5.46v-4.25h11.61v3.64h30.44v-10.1H19.92V37.35h31.04v-9.72H22.58
				v4.25H10.97v-4.86c0-2.02,0.51-3.87,1.52-5.54c1.01-1.67,2.35-3,4.02-3.98c1.67-0.99,3.52-1.48,5.54-1.48H51.57 M51.57,7.59
				H22.05c-3.54,0-6.85,0.89-9.83,2.65c-2.87,1.7-5.21,4.01-6.95,6.88c-1.82,3-2.74,6.33-2.74,9.91v4.86v8.43h8.43h0.52v6.66h-0.52
				H2.53v8.43v4.25c0,3.53,0.92,6.84,2.74,9.84c1.71,2.83,4.02,5.14,6.86,6.86c3,1.82,6.33,2.74,9.91,2.74h31.57
				c3.58,0,6.92-0.92,9.92-2.74c2.86-1.73,5.17-4.07,6.87-6.94c1.76-2.97,2.65-6.26,2.65-9.75V48.36c0-2.34-0.42-4.62-1.24-6.77
				c-0.26-0.68-0.55-1.33-0.87-1.96c0.04-0.57,0.06-1.12,0.06-1.66V27.03c0-3.54-0.89-6.85-2.65-9.83c-1.71-2.9-4.05-5.24-6.95-6.96
				C58.42,8.48,55.12,7.59,51.57,7.59L51.57,7.59z"/>
		</g>
		<g>
			<path class="st0" d="M76.58,45.4V26.15c0-1.15,0.29-2.21,0.89-3.19c0.59-0.97,1.37-1.75,2.34-2.34s2.05-0.89,3.23-0.89H97.2v6.77
				H83.35V45.4H76.58z"/>
			<path class="st1" d="M97.2,19.73v6.77H83.35V45.4h-6.77V26.15c0-1.15,0.29-2.21,0.89-3.19c0.59-0.97,1.37-1.75,2.34-2.34
				s2.05-0.89,3.23-0.89H97.2 M105.64,11.3H97.2H83.04c-2.74,0-5.3,0.71-7.6,2.11c-2.14,1.3-3.89,3.04-5.18,5.19
				c-1.4,2.3-2.11,4.85-2.11,7.56V45.4v8.43h8.43h6.77h8.43V45.4V34.94h5.42h8.43V26.5v-6.77V11.3L105.64,11.3z"/>
		</g>
		<g>
			<path class="st0" d="M106.16,44.51c-0.97-0.59-1.75-1.37-2.32-2.34c-0.57-0.97-0.86-2.04-0.86-3.19V26.15
				c0-1.15,0.29-2.21,0.86-3.19c0.58-0.97,1.35-1.75,2.32-2.34s2.05-0.89,3.23-0.89h12.88v-8.41h6.77V45.4h-19.65
				C108.21,45.4,107.13,45.1,106.16,44.51z M122.26,38.63V26.5h-12.48v12.12H122.26z"/>
			<path class="st1" d="M129.03,11.33V45.4h-19.65c-1.18,0-2.26-0.29-3.23-0.89c-0.97-0.59-1.75-1.37-2.32-2.34
				c-0.57-0.97-0.86-2.04-0.86-3.19V26.15c0-1.15,0.29-2.21,0.86-3.19c0.58-0.97,1.35-1.75,2.32-2.34s2.05-0.89,3.23-0.89h12.88
				v-8.41H129.03 M109.79,38.63h12.48V26.5h-12.48V38.63 M137.47,2.89h-8.43h-6.77h-8.43v8.41h-4.44c-2.74,0-5.3,0.71-7.6,2.11
				c-2.17,1.32-3.92,3.09-5.21,5.26c-1.35,2.29-2.04,4.8-2.04,7.48v12.83c0,2.67,0.68,5.19,2.03,7.47c1.29,2.18,3.05,3.95,5.22,5.27
				c2.3,1.4,4.86,2.11,7.6,2.11h19.65h8.43V45.4V11.33V2.89L137.47,2.89z"/>
		</g>
	</g>
</g>
</svg>
