<?xml version="1.0" encoding="utf-8"?>
<!-- Generator: Adobe Illustrator 26.4.1, SVG Export Plug-In . SVG Version: 6.00 Build 0)  -->
<svg version="1.1" id="Layer_1" xmlns="http://www.w3.org/2000/svg" xmlns:xlink="http://www.w3.org/1999/xlink" x="0px" y="0px"
	 viewBox="0 0 360 360" style="enable-background:new 0 0 360 360;" xml:space="preserve">
<style type="text/css">
	.st0{fill-rule:evenodd;clip-rule:evenodd;fill:url(#SVGID_1_);}
	.st1{fill-rule:evenodd;clip-rule:evenodd;fill:url(#SVGID_00000116957303615133721100000013623258904335160760_);}
	.st2{fill-rule:evenodd;clip-rule:evenodd;fill:url(#SVGID_00000175305479710052604180000004839408707906922381_);}
	.st3{fill-rule:evenodd;clip-rule:evenodd;fill:url(#SVGID_00000066501900396914726170000012169298505625281169_);}
	.st4{opacity:0.4;fill-rule:evenodd;clip-rule:evenodd;fill:#7D72B3;enable-background:new    ;}
	.st5{fill-rule:evenodd;clip-rule:evenodd;fill:url(#SVGID_00000103945937519658960870000015789510459741223858_);}
	.st6{opacity:0.7;}
	.st7{fill-rule:evenodd;clip-rule:evenodd;fill:url(#SVGID_00000013912076639640651460000000432473006531680663_);}
	.st8{fill-rule:evenodd;clip-rule:evenodd;fill:#FF9F84;}
	.st9{fill-rule:evenodd;clip-rule:evenodd;fill:#FFEF84;}
	.st10{fill-rule:evenodd;clip-rule:evenodd;fill:url(#SVGID_00000093175253077006358690000015673111764899088057_);}
	.st11{fill-rule:evenodd;clip-rule:evenodd;fill:url(#SVGID_00000123419547145574943720000013400637479832826297_);}
	.st12{fill:url(#SVGID_00000086685674164030071830000012180249121122880404_);}
	.st13{fill-rule:evenodd;clip-rule:evenodd;fill:#FFFF0E;}
	.st14{fill-rule:evenodd;clip-rule:evenodd;fill:url(#SVGID_00000115494198634966066140000014415955210423850666_);}
	.st15{fill-rule:evenodd;clip-rule:evenodd;fill:url(#SVGID_00000002364982772017688400000016483270419995411588_);}
	.st16{fill-rule:evenodd;clip-rule:evenodd;fill:url(#SVGID_00000049185424296266787540000006058275713926312622_);}
	.st17{fill-rule:evenodd;clip-rule:evenodd;fill:url(#SVGID_00000111180110346746017150000003412462593136625852_);}
</style>
<g>
	
		<radialGradient id="SVGID_1_" cx="180" cy="-15" r="180" gradientTransform="matrix(1 0 0 1 0 195)" gradientUnits="userSpaceOnUse">
		<stop  offset="0" style="stop-color:#FF4000"/>
		<stop  offset="0.9" style="stop-color:#FF4000;stop-opacity:0"/>
	</radialGradient>
	<circle class="st0" cx="180" cy="180" r="180"/>
	
		<radialGradient id="SVGID_00000008830077288399688960000014732755281564893098_" cx="180" cy="-15" r="141.37" gradientTransform="matrix(1 0 0 1 0 195)" gradientUnits="userSpaceOnUse">
		<stop  offset="0" style="stop-color:#FF7300"/>
		<stop  offset="1" style="stop-color:#FF7300;stop-opacity:0"/>
	</radialGradient>
	
		<circle style="fill-rule:evenodd;clip-rule:evenodd;fill:url(#SVGID_00000008830077288399688960000014732755281564893098_);" cx="180" cy="180" r="141.37"/>
	
		<radialGradient id="SVGID_00000007403007289658499860000013900077722916773548_" cx="180" cy="-15" r="134.91" gradientTransform="matrix(1 0 0 1 0 195)" gradientUnits="userSpaceOnUse">
		<stop  offset="0" style="stop-color:#FF7900"/>
		<stop  offset="0.8874" style="stop-color:#FF7900;stop-opacity:0.1126"/>
		<stop  offset="1" style="stop-color:#FF7900;stop-opacity:0"/>
	</radialGradient>
	
		<circle style="fill-rule:evenodd;clip-rule:evenodd;fill:url(#SVGID_00000007403007289658499860000013900077722916773548_);" cx="180" cy="180" r="134.91"/>
	
		<radialGradient id="SVGID_00000173877879346305080900000007115581451977698692_" cx="104.3611" cy="-74.3349" r="196.4112" gradientTransform="matrix(1 0 0 1 0 195)" gradientUnits="userSpaceOnUse">
		<stop  offset="5.586590e-03" style="stop-color:#DE6863"/>
		<stop  offset="0.2018" style="stop-color:#DB6563"/>
		<stop  offset="0.3542" style="stop-color:#D15D62"/>
		<stop  offset="0.4919" style="stop-color:#C14F60"/>
		<stop  offset="0.6209" style="stop-color:#A93B5E"/>
		<stop  offset="0.7437" style="stop-color:#8B225B"/>
		<stop  offset="0.8606" style="stop-color:#670357"/>
		<stop  offset="0.8715" style="stop-color:#630057"/>
	</radialGradient>
	<path style="fill-rule:evenodd;clip-rule:evenodd;fill:url(#SVGID_00000173877879346305080900000007115581451977698692_);" d="
		M302.36,177.86c0,11.74-1.65,23.12-4.77,33.86c-6.19,21.6-18.2,40.73-34.22,55.64c-11.46,10.68-24.98,19.18-39.88,24.83
		c-13.5,5.14-28.11,7.92-43.41,7.92c-2.17,0-4.36-0.05-6.5-0.18h-0.03c-3.2-0.15-6.38-0.46-9.5-0.85
		c-23.62-3.1-45.06-12.9-62.46-27.51c-6.53-5.45-12.47-11.59-17.71-18.3c-3.97-5.03-7.56-10.38-10.71-16.03
		c-0.75-1.34-1.47-2.71-2.19-4.08c0-0.05-0.03-0.08-0.05-0.13c-0.75-1.47-1.45-2.94-2.12-4.44c-0.03,0-0.03,0-0.03,0
		c-2.12-4.67-3.97-9.5-5.47-14.45c-1.14-3.56-2.09-7.23-2.86-10.94c-0.03-0.03-0.03-0.08-0.03-0.1c-0.54-2.61-1.01-5.24-1.37-7.9
		c-0.83-5.68-1.24-11.46-1.24-17.34c0-3.38,0.13-6.76,0.44-10.07c0.15-2.12,0.39-4.21,0.67-6.3c1.57-12.03,4.93-23.49,9.78-34.15
		c2.37-5.24,5.11-10.27,8.18-15.1C82,104.2,88.04,96.82,94.85,90.19c22.02-21.42,52.08-34.61,85.22-34.61
		c1.29,0,2.58,0.03,3.85,0.05c1.37,0.05,2.74,0.1,4.1,0.21c7.02,0.46,13.89,1.5,20.52,3.1c3.87,0.93,7.67,2.01,11.38,3.3
		c2.53,0.85,5.01,1.81,7.46,2.84c1.83,0.77,3.61,1.57,5.39,2.43c0.31,0.15,0.62,0.28,0.93,0.44c11.87,5.81,22.63,13.45,31.98,22.61
		c1.34,1.29,2.63,2.63,3.92,4c0.85,0.93,1.7,1.88,2.53,2.84c1.42,1.6,2.79,3.28,4.13,4.96c4.88,6.19,9.16,12.85,12.75,19.92
		c4.21,8.21,7.51,16.96,9.76,26.12C301.12,157.83,302.36,167.69,302.36,177.86z"/>
	<path class="st4" d="M57.81,177.85c0,0,28.83,51.16,56.71,59.1s59.71,2.89,70.59,6.94c10.88,4.05,16.8,20.68,16.8,20.68l4.05,2.32
		c0,0,9.3-14.44,15-5.91c0,0-2.27-12.09,4.58-26.81c6.84-14.72,11.41-30.53,19.89-35.58s23.98-7.4,36.28-2.53
		c12.3,4.87,18.66,3.94,18.66,3.94l0.92-5.79l0.92-5.11c0,0-11.77,1.87-21.23-4.18c0,0,1.3,2.26,8.63-11.43s6.49-26.05,6.49-26.05
		l-1.05-11.38c0,0-3.94,39.46-20.58,50.91c0,0-37.1-7.68-52.8,36.12c0,0-2.68,29.29-18.23,28.47
		c-15.55-0.82-10.17-19.97-32.66-20.16c-22.49-0.2-36.14,9.05-58.41-3.65C90.07,215.06,57.81,177.85,57.81,177.85z"/>
	<path class="st4" d="M173.57,299.94c0,0,15.42-23.03,32.38-22.9s24.78,6.28,38.15-1.52s18.92-12.68,25.08-16.85
		c6.16-4.17,7.2-5.49,7.2-5.49l2.78-3.67c0,0-9.37-4.55-17.63,2.13c-8.26,6.68-23.2,21.81-35.05,21.74s-11.27-6.9-24.59-1.55
		s-41.36,24.25-41.36,24.25S165.62,299.77,173.57,299.94z"/>
	<path class="st4" d="M64.53,217.9l1.47,4.04c0,0,23.84,13.16,38.9,31.48s17.73,30.73,17.73,30.73s2.68-10.92-10.3-31.45
		C99.36,232.17,71.43,220.92,64.53,217.9z"/>
	
		<linearGradient id="SVGID_00000137120280546925981670000003882192465406680505_" gradientUnits="userSpaceOnUse" x1="57.77" y1="-50.7" x2="233.7" y2="-50.7" gradientTransform="matrix(1 0 0 1 0 195)">
		<stop  offset="0.0112" style="stop-color:#FF7D85"/>
		<stop  offset="0.2983" style="stop-color:#FC7B84"/>
		<stop  offset="0.5089" style="stop-color:#F3757F"/>
		<stop  offset="0.695" style="stop-color:#E36B77"/>
		<stop  offset="0.8659" style="stop-color:#CC5C6C"/>
		<stop  offset="1" style="stop-color:#B54D61"/>
	</linearGradient>
	<path style="fill-rule:evenodd;clip-rule:evenodd;fill:url(#SVGID_00000137120280546925981670000003882192465406680505_);" d="
		M233.7,67.95c-0.4,0.04-0.81,0.08-1.21,0.17c-1.38,0.25-2.46,0.13-3.82-0.25c-0.98-0.28-1.68-0.68-2.71-0.85
		c-1.48-0.23-2.86-0.87-4.35-1.06c-1.57-0.21-2.93-0.83-4.41-1.36c-1.17-0.42-1.78-0.28-2.91,0c-1.12,0.3-1.91-0.17-2.91-0.59
		c-1.12-0.49-2.25-0.57-3.44-0.81c-3.1-0.64-6.17-1.63-9.25-2.42c-1.91-0.49-3.67-0.49-5.62-0.51c-1.53-0.02-2.91,0.42-4.43,0.42
		c-1.02,0-1.89-0.17-2.91-0.32c-1.04-0.19-2.1,0.02-3.14-0.13c-1.55-0.23-2.38-0.47-3.94,0.02c-1.17,0.38-2.08,0.34-3.25,0.4
		c-1.29,0.06-2.76,0.4-4.03,0.7c-2.29,0.53-4.79,0.95-7.15,0.91c-1.44,0-3.56-0.4-4.94,0.08c-0.89,0.32-1.34,1.27-1.95,1.91
		c-1.19,1.23-2.65,2.33-3.65,3.71s-2.12,2.8-2.04,4.54c0.08,1.51,0.78,3.27,1.44,4.64c0.68,1.46,0.91,2.8-0.59,3.78
		c-1.89,1.25-4.07,2.4-6.24,3.01c-1.44,0.42-2.74,0.68-3.94-0.36c-0.45-0.38-0.72-1.12-1.27-1.42c-0.57-0.3-1.17,0-1.78,0.19
		c-1.53,0.45-3.01,0.95-4.56,1.21c-0.95,0.15-1.78,0.66-2.71,0.83c-1.12,0.21-1.93-0.61-3.1-0.34c-1.63,0.38-3.27,1.06-4.96,1.15
		c-1.21,0.06-2.74-0.47-3.75-1.08c-0.59-0.34-0.74-0.68-1.42-0.49c-0.55,0.13-1.38,0.81-1.68,1.23c-0.4,0.57-0.55,1.31-0.95,1.91
		c-0.42,0.66-0.83,1.29-1.21,1.99c-0.7,1.36-1.53,2.63-2.42,3.84c-0.64,0.85-1.08,1.99-1.78,2.78c-0.36,0.42-1.15,0.72-1.61,1.04
		c-1.27,0.89-2.61,1.7-3.84,2.65c-2.38,1.87-4.62,3.92-7.04,5.73c-1.85,1.38-4.43,2.18-6.53,3.05c-1.31,0.53-2.67,0.91-3.99,1.46
		c-0.42,0.17-1.21,0.36-1.57,0.68c-0.47,0.4-0.72,1.15-1.15,1.7c-1.15,1.4-2.35,2.8-3.22,4.41c-0.53,0.93-0.85,1.89-1.19,2.91
		c-0.47,1.38-1.21,2.65-1.68,4.03c-0.95,2.88-1.15,5.9-2.21,8.76c-0.62,1.68-1.51,3.2-2.27,4.73c-1.31,2.59-1.51,5.66-1.89,8.53
		c-0.21,1.68-0.13,3.61,0.17,5.24c0.32,1.76,0.23,3.58,0.21,5.39c-0.02,1.91-1.23,3.78-2.44,5.22c-1.1,1.34-2.78,1.85-4.01,3.03
		c-1.04,1.02-2.29,2.18-2.74,3.63c-0.19,0.64-0.02,1.36-0.13,2.04c-0.28,1.51-0.66,2.93-0.87,4.45c-0.23,1.89-0.28,3.67-0.28,5.58
		c0,0.95-0.06,1.93-0.02,2.88c0.04,0.91,0.38,1.76,0.45,2.67c0.04,0.64-0.08,1.27,0,1.91c0.13,0.72,0.4,1.46,0.57,2.16
		c0.42,1.7,0.74,3.35,1.06,5.05c0.3,1.57,0.91,3.12,1.4,4.64c0.68,2.08,1.12,4.22,1.53,6.38c0.32,1.61,0.3,3.29,0.53,4.92
		c0.19,1.31,0.49,2.65,0.55,3.97c0.06,1.99-0.42,3.99-0.45,6c-0.02,3.39,1.34,6.79,2.12,10.05c0.23,0.91,0.47,1.85,0.72,2.76
		c-8.4-16.59-13.13-35.33-13.13-55.19c0-24.14,7-46.64,19.07-65.6C81.97,104.18,88,96.8,94.8,90.18
		c22.04-21.42,52.09-34.61,85.24-34.61c2.67,0,5.3,0.08,7.93,0.25C204.33,56.88,219.77,61.12,233.7,67.95z"/>
	<path class="st4" d="M87.72,109.33c0,0,27.52,24.61,63.84,25.31s49.81-1.74,61.89-15.19s25.09-36.23,25.09-36.23
		s-15.51,7.47-26.24,22.08C201.56,119.91,150.88,144.8,87.72,109.33z"/>
	<g class="st6">
		<path class="st4" d="M89.9,110.03c-3.6,4.26-6.74,8.61-9.16,13.66c-2.15,4.49-2.94,9.49-3.72,14.34c-0.46,2.88-0.87,5.78-1.3,8.67
			c-0.39,2.56-1.13,5.26-0.68,7.86c0.6,3.51,0.78,7.39,2.46,10.59c1.8,3.43,3.67,6.44,6.06,9.46c2.34,2.97,5.17,4.3,8.95,4.56
			c2.05,0.15,4.09-0.17,6.14,0.1c2.85,0.37,5.7,0.89,8.54,1.35c5.72,0.92,12.14,0.96,16.25-3.73c3.33-3.8,4.91-8.54,7.03-13.07
			c2.26-4.82,5.1-8.82,9.33-12.1c3.11-2.41,5.84-5.12,8.83-7.66c1.35-1.15,2.18-2.4,3.72-3.26c1.51-0.84,2.32-1.79,3.65-3
			c1.19-1.09,2.63-1.83,3.69-3.08c1.69-1.98,3.03-4.66,3.94-7.07c0.95-2.53,1.41-5.22,1.79-7.89c0.37-2.61-0.42-5.23-1.23-7.72
			c-1.55-4.73-5.59-7.71-9.39-10.64c-4.71-3.64-10.25-5.25-16.05-6.39c-5.27-1.04-11.61-1.25-16.91-0.31
			c-5.6,0.99-11.36,1.8-16.57,4.22c-3.81,1.77-6.12,4.23-9.2,6.84c-1.57,1.33-3.47,2.24-4.88,3.74
			C89.23,111.59,87.4,113.84,89.9,110.03z"/>
		<path class="st4" d="M145.33,87.21c0.76-1.33,1.63-3.23,2.68-4.48c0.57-0.68,1.3-1.2,1.98-1.76c2.05-1.71,4.28-3.16,6.87-3.91
			c1.43-0.41,3-0.44,4.43-0.08c1.46,0.37,4.09,1.37,5.21,2.43c2.08,1.98,0.71,5.36,0.08,7.67c-0.63,2.33-1.36,4.53-3.44,6.01
			c-1.36,0.96-2.98,1.73-4.6,2.1c-0.9,0.21-1.81,0.15-2.73,0.26c-0.74,0.09-1.44,0.27-2.19,0.27c-1.69,0-4.26-1.21-4.97-2.86
			c-0.37-0.87-0.58-1.76-0.97-2.63c-0.3-0.66-0.53-1.35-0.81-2.02C146.36,86.94,145.9,85.73,145.33,87.21z"/>
		<path class="st4" d="M165.54,100.25c-0.5,1.35-0.78,2.74-0.82,4.16c0.63,0.37,0.85,1.14,1.46,1.51c0.59,0.35,1.3,0.21,1.98,0.2
			c1.22,0,2.41,0.01,2.61-1.49c0.18-1.32-0.99-2.28-1.97-3c-0.71-0.52-2.12-1.72-2.93-0.73L165.54,100.25z"/>
		<path class="st4" d="M182.49,120.14c-1.59,1.13-3.3,2.15-4.82,3.36c-1.92,1.53-3.43,3.47-4.93,5.41
			c-1.86,2.41-4.04,4.92-3.58,8.16c0.46,3.19,1.54,5.84,3.99,7.99c2.83,2.48,7.21,2.46,10.51,4.07c2.81,1.37,4.61,4.21,6.03,6.91
			c2.14,4.1,6.64,4.83,10.75,5.6c2.67,0.5,5.31,0.89,8.01,1.22c3.62,0.44,7.21,1.13,10.84,1.48c6.65,0.64,13.37,2.17,20.07,1.64
			c7.11-0.57,13.55-3.11,19.4-7.18c4.99-3.47,9.44-9.49,10.76-15.46c1.38-6.27-0.68-13.26-3.71-18.73
			c-3.94-7.12-8.6-13.79-13.67-20.15c-2.8-3.52-6.06-6.66-8.92-10.15c-2.48-3.02-5.08-5.72-8.05-8.27
			c-6.64-5.71-14.88-10.42-23.8-10.89c-3.4-0.18-6.83,0.32-10.02,1.56c-2.8,1.08-4.82,2.69-6.9,4.83
			c-5.28,5.43-8.04,12.35-10.32,19.45c-1.05,3.25-2.03,6.93-1.64,10.39c0.12,1.06,0.68,1.89,0.67,2.9c-0.01,0.94,0,1.88,0,2.81
			c0,0.55,0.05,0.97-0.14,1.44C182.68,119.26,181.92,120.05,182.49,120.14z"/>
		<path class="st4" d="M154.45,144.26c-3.45,2.01-6.98,3.58-9.51,6.8c-0.45,0.57-1.12,1.21-0.88,1.99c0.26,0.85,1.22,1.34,1.96,1.65
			c2.56,1.07,5.69,1.63,8.43,1.08c2.47-0.49,5.71-2.16,7.04-4.39c1.69-2.83-0.22-7.37-3.79-7.15c-0.54,0.03-0.94,0.29-1.46,0.35
			c-0.42,0.05-0.88-0.03-1.31-0.02c-0.49,0.02-0.6,0.12-1,0.29C153.51,145.05,152.94,145.54,154.45,144.26z"/>
		<path class="st4" d="M83.71,191.53c-1.4,1.27-2.8,2.25-3.6,3.93c-0.76,1.58-1.28,3.09-1.65,4.8c-0.32,1.48-0.73,3.06-0.35,4.57
			c0.34,1.35,0.97,2.7,1.44,4.03c0.61,1.73,1.16,3.35,1.54,5.13c0.46,2.22,1.28,4.11,2.27,6.15c0.97,2,2.07,3.92,3.26,5.8
			c1.23,1.94,2.66,3.47,4.25,5.13c5.57,5.81,12.39,11.96,20.7,13c4.2,0.53,8.58-0.55,11.64-3.56c3.35-3.29,5.49-8.03,6.21-12.65
			c0.61-3.93,0.21-8.01-1.92-11.43c-1.7-2.73-3.55-5.66-5.74-8.02c-1.48-1.59-3.18-2.96-4.79-4.42c-1.6-1.45-3.14-2.98-4.89-4.25
			c-3.07-2.24-6.03-4.61-9.12-6.83c-2.79-2.01-5.81-4.2-9.23-5.02c-2.36-0.56-4.94-1.04-7.26-0.13c-1,0.39-1.76,0.73-2.27,1.64
			c-0.25,0.45-0.84,1.22-0.88,1.73C83.23,191.16,83.15,191.18,83.71,191.53z"/>
		<path class="st4" d="M105.55,185.99c0.11,0.98,0.23,1.97,0.34,2.95c0.07,0.32,0.14,0.64,0.21,0.96c0.2,0.21,0.93,0.29,1.19,0.32
			c1,0.12,2.08-0.42,2.86-1.03c1.19-0.93,1.73-3.09,0.63-4.2c-0.88-0.88-2.03-1.2-3.27-0.95c-0.64,0.13-3.36,1.56-2.28,2.59
			L105.55,185.99z"/>
		<path class="st4" d="M269.21,159.26c0.43-2.19,0.47-3.6,1.82-5.23c1.17-1.42,2.45-2.75,3.58-4.21c2.06-2.67,3.34-5.83,4.11-9.1
			c0.68-2.89-0.03-5.7,1.27-8.5c0.31-0.66,0.67-1.92,1.37-2.24c0.64-0.29,1.95-0.05,2.53,0.3c0.59,0.35,1.2,1.12,1.69,1.56
			c0.9,0.79,1.67,1.67,2.48,2.55c4.08,4.44,6.33,11.05,6.29,17.03c-0.02,3.51-0.4,6.75-1.56,10.04c-0.47,1.34-0.96,2.54-1.69,3.76
			c-0.89,1.5-1.98,2.4-3.43,3.33c-4.22,2.7-10.35,1.69-13.88-1.64c-1.31-1.24-1.91-2.94-2.76-4.39c-0.67-1.14-1.3-2.17-1.54-3.53
			C269.38,158.97,269.3,158.95,269.21,159.26z"/>
		<path class="st4" d="M269.21,113.29c0.7,2.38,1.05,4.98,3.5,6.22c0.42,0.21,1.33,0.56,1.8,0.58c0.62,0.03,1.06-0.32,1.55-0.68
			c2.57-1.88,1.09-6.21-0.64-8.16c-1.02-1.15-2.19-1.53-3.61-1.95c-0.65-0.19-0.49-0.24-1.03-0.01c-0.42,0.18-0.69,0.38-0.91,0.72
			c-0.22,0.35-0.31,0.91-0.33,1.32c-0.02,0.46-0.17,0.71-0.24,1.05c-0.18,0.83-0.09,1.49,0.25,2.21L269.21,113.29z"/>
		<path class="st4" d="M249.98,212.72c-0.63,1.62-1.12,3.32-1.84,4.9c-0.76,1.68-1.52,3.39-2.24,5.09
			c-1.88,4.5-2.94,9.17-4.15,13.88c-1.28,4.95-2.1,9.99-2.61,15.08c-0.26,2.62-0.67,5.14-0.6,7.78c0.05,1.88,0.04,4.17,0.71,5.96
			c0.41,1.11,1.46,2.81,2.62,3.31c1.51,0.65,3.43-0.61,4.71-1.25c4.99-2.47,9.23-6.22,13.18-10.08c3.9-3.8,7.86-7.41,11.09-11.83
			c1.47-2.01,3.11-4,4.34-6.17c1.03-1.82,1.73-3.79,2.67-5.65c0.88-1.74,1.52-3.58,2.34-5.35c1-2.15,1.93-4.35,2.63-6.62
			c1.34-4.34,2.52-8.77,1-13.24c-1.29-3.8-4.45-6.72-8.39-7.57c-2.13-0.46-4.53-1.09-6.72-0.92c-2.16,0.17-4.47,0.76-6.46,1.58
			c-1.74,0.72-3.5,1.56-5.09,2.56c-0.89,0.56-1.5,1.34-2.21,2.1c-1.19,1.28-2.37,2.67-3.28,4.16c-0.47,0.77-0.88,1.21-1.47,1.87
			C249.42,213.2,249.07,214.56,249.98,212.72z"/>
		<path class="st4" d="M230.74,269.12c-2.59,0.98-4.74,1.92-6.95,3.56c-2.64,1.96-5.11,3.98-7,6.69c-0.69,0.99-2.07,2.69-1.04,3.87
			c0.9,1.02,2.36,0.93,3.58,0.9c1.78-0.04,3.56-0.36,5.22-1.05c1.54-0.64,2.93-1.49,4.52-2.04c1.52-0.52,3.6-1.54,4.62-2.84
			c0.58-0.75,0.92-1.77,1.47-2.57c0.44-0.65,0.58-1.15,0.48-1.96c-0.11-0.91-0.68-2.21-1.38-2.85c-0.64-0.58-1.85-1.16-2.7-1.05
			c-0.45,0.06-1.02,0.21-1.44,0.39C229.09,270.6,228.25,271.88,230.74,269.12z"/>
		<path class="st4" d="M227.48,254.13c-0.53-1.95-1.13-3.48-0.96-5.43c0.15-1.77,0.13-3.26,1.06-4.86c0.39-0.67,1.52-2.8,2.28-3.07
			c0.26-0.09,1.05-0.05,1.29-0.02c1.32,0.17,2.11,1.8,2.38,2.98c0.42,1.83,0.13,3.98,0.14,5.85c0.01,1.46-0.19,2.81-0.74,4.17
			c-0.45,1.1-1.33,1.09-2.44,1.04c-1.1-0.04-1.55-0.35-2.36-0.99c-0.3-0.23-0.73-0.32-1-0.55
			C226.77,252.92,226.9,252.48,227.48,254.13z"/>
		<path class="st4" d="M225.2,176.86c-0.23,1.36-0.32,2.72-0.28,4.08c0.5,0,1.01,0.91,1.65,1.07c0.91,0.23,1.84-0.33,2.54-0.89
			c1.54-1.23,1.96-3.56,1.62-5.41c-0.34-1.8-2.42-1.99-3.91-1.8c-0.5,0.06-1.25,0.3-1.64,0.64c-0.91,0.8-0.99,1.77-0.96,2.95
			L225.2,176.86z"/>
		<path class="st4" d="M108.49,260.97c0.83-1.45,1.55-3,2.62-4.28c1.2-1.43,2.56-2.96,3.93-4.2c1.71-1.56,3.7-3,5.53-4.42
			c1.7-1.32,3.45-2.6,5.27-3.75c3.18-2,6.47-3.31,10-4.53c2.88-0.99,5.92-1.32,8.92-0.71c3.08,0.63,6.07,2.37,8.33,4.51
			c2.17,2.06,4.46,4.55,5.79,7.26c2.73,5.53,1.68,11.52-0.19,17.13c-0.83,2.5-2.58,5.5-4.68,7.13c-1.19,0.92-2.63,1.53-4.08,1.85
			c-1.66,0.37-3.54,0.94-5.22,1.15c-7.37,0.93-14.92,0.4-21.92-2.18c-2.77-1.02-5.49-2.27-8.14-3.56c-2.11-1.03-3.87-2.33-5.27-4.21
			c-1.04-1.4-1.93-3.07-1.88-4.85c0.02-0.8,0.29-1.52,0.4-2.29C108.24,261.01,108.53,260.79,108.49,260.97z"/>
		<path class="st4" d="M163.91,264.23c-0.52,1.35-0.84,2.73-0.98,4.16c0.5,0.29,0.47,1.11,0.84,1.56c0.42,0.51,0.88,0.78,1.5,0.81
			c0.65,0.04,1.44,0.07,2.08-0.03c1.01-0.16,1.23-0.53,1.76-1.27c0.59-0.84,0.74-1.2,0.67-2.3c-0.05-0.76-0.26-1.57-0.73-2.19
			c-0.29-0.39-0.82-1.02-1.23-1.31c-0.96-0.69-1.69-0.3-2.61,0.26L163.91,264.23z"/>
		<path class="st4" d="M284.53,200.66c-1.13-0.88-2.06-1.92-2.79-3.12c0.1-0.49,0.09-0.98-0.05-1.47c-0.18-1.25-0.42-2.28-0.16-3.55
			c0.61-2.98,3.19-5.18,6.2-5.52c1.98-0.22,4.86,1.38,5.9,2.98c1.11,1.7,1.56,3.99,1.65,5.98c0.08,1.65-0.3,3.61-1.29,4.98
			c-0.69,0.95-2.09,0.99-3.19,1.03c-1.27,0.04-2.54-0.17-3.74-0.57C286.15,201.1,285.14,200.43,284.53,200.66z"/>
	</g>
	
		<radialGradient id="SVGID_00000005255569163645994620000013216758896372930178_" cx="90.732" cy="-100.3707" r="160.9386" gradientTransform="matrix(1 0 0 1 0 195)" gradientUnits="userSpaceOnUse">
		<stop  offset="0" style="stop-color:#FFFF4A"/>
		<stop  offset="1" style="stop-color:#FFFF4A;stop-opacity:0"/>
	</radialGradient>
	<path style="fill-rule:evenodd;clip-rule:evenodd;fill:url(#SVGID_00000005255569163645994620000013216758896372930178_);" d="
		M107.58,273.35c-12.64-10.58-23.12-23.69-30.65-38.54c-4.73-9.33-8.29-19.34-10.5-29.84c-0.02-0.02-0.02-0.06-0.02-0.11
		c-1.7-8.14-2.61-16.59-2.61-25.24c0-24.14,7-46.64,19.07-65.6c5.13-8.06,11.16-15.44,17.96-22.06
		c22.04-21.42,52.09-34.61,85.24-34.61c2.67,0,5.3,0.08,7.93,0.25c8.29,0.53,16.35,1.9,24.1,4.01c-9.56-3.13-19.64-5.11-30.09-5.78
		c-2.63-0.17-5.26-0.25-7.93-0.25c-33.15,0-63.2,13.19-85.24,34.61c-6.81,6.62-12.83,14-17.96,22.06
		c-12.07,18.96-19.07,41.46-19.07,65.6c0,8.65,0.91,17.09,2.61,25.24c0,0.04,0,0.08,0.02,0.11c2.21,10.5,5.77,20.51,10.5,29.84
		c7.53,14.85,18.01,27.95,30.65,38.54c13.4,11.24,29.21,19.63,46.56,24.32C133.14,291,119.41,283.28,107.58,273.35z"/>
	<path class="st4" d="M72,164.7c0,0,68.47,27.93,105.62,25.7c37.15-2.24,52.97-23.52,67.8-42.95s20.4-42.83,20.4-42.83
		s-28.14,54.3-63.07,68.68l-20.08,4.06c0,0,10.47-7.81,17.77-15.74c7.31-7.93,35.46-19.47,38.1-28.74
		c2.64-9.27,2.32-24.5,6.88-34.24s9.11-17.79,9.11-17.79l-12.08-2.09l-5.67,13.34c0,0-1.59,22.16-5.93,34.17s-46.72,44.9-56.26,50.4
		C165.04,182.17,80.61,170.55,72,164.7z"/>
	<g>
		<path class="st4" d="M194.14,281.79c0.26-0.1,4.68-2.1,5.95-2.01c0.54,0.04,1.1,0.48,1.51,0.7c1.18,0.66,1.94,1.64,1.81,3.01
			c-0.19,1.96-2.34,4.53-4.69,5.39c-2.92,1.06-5.99-0.28-7.03-2.21c-1.05-1.95,1.62-5.54,4.55-5.6L194.14,281.79z"/>
		<path class="st8" d="M136.85,160.12c-1.61,2.76-5.66,7.8-4.43,11.75c0.52,1.69,1.73,3.44,2.48,5.04c2.07,4.37,6.23,8.77,11.41,5.6
			c5.81-3.55,3.28-10.03,0.83-14.75c-0.91-1.76-2.26-3.92-4.08-4.91c-0.99-0.54-2.61-1.1-3.72-1.32
			C137.41,161.16,138.78,159.91,136.85,160.12L136.85,160.12z"/>
		<path class="st9" d="M175.97,70.14c-0.23,1.42-0.27,2.85-0.12,4.27c0.45-0.09,0.79,0.32,1.26,0.32c0.53-0.01,1.3-0.37,1.73-0.66
			c0.91-0.62,1.37-1.9,1.37-2.95c-0.01-1.09-0.11-2.02-1.14-2.62c-1.23-0.72-2.46-0.2-3.1,0.99L175.97,70.14L175.97,70.14z"/>
		<path class="st8" d="M150.22,203.16c0.23-0.9,0.59-3.36,1.33-4.44c0.61-0.89,1.74-1.39,2.72-1.72c2.14-0.71,4.35-0.62,6.06,0.92
			c3,2.7,2.89,6.74,0.03,9.51c-1.3,1.26-3.08,2.53-4.95,2.6c-0.92,0.04-2.13,0.15-2.91-0.32c-0.96-0.57-1.72-1.58-2.04-2.62
			c-0.53-1.74-0.2-3.06,0.75-4.58L150.22,203.16z"/>
		<path class="st8" d="M127.72,201.85c0,1.36-0.79,4.56,1.17,5.19c0.95,0.31,1.95-0.96,2.1-1.76c0.15-0.81,0.07-2.06-0.25-2.78
			c-0.48-1.1-1.45-1.86-2.37-0.65L127.72,201.85L127.72,201.85z"/>
		<path class="st8" d="M75.56,178.05c0.17,2.15,0.16,5.3,1.46,7.29c0.55,0.82,1.09,1.67,2.12,1.86c0.91,0.16,1.44-0.39,1.96-1.06
			c0.92-1.2,1.04-2.02,0.99-3.52c-0.05-1.33-0.46-2.82-1.06-4.01c-0.44-0.87-1.19-1.51-1.88-2.19c-0.62-0.61-1.07-0.75-1.96-0.65
			c-1.18,0.12-1.1,1.55-1.3,2.61L75.56,178.05z"/>
		<path class="st8" d="M256.82,167.95c0.03-0.2,0.27-3.82,0.94-4.63c0.28-0.34,0.94-0.57,1.32-0.76c1.13-0.56,2.36-0.73,3.53-0.17
			c1.67,0.8,2.98,3.1,2.66,4.95c-0.39,2.3-3.01,3.88-5.21,3.91c-2.24,0.03-4.22-2.96-2.93-4.93L256.82,167.95z"/>
		<path class="st8" d="M131.11,196.99c0.02-0.1,0.14-1.91,0.47-2.32c0.14-0.17,0.47-0.28,0.66-0.38c0.57-0.28,1.18-0.36,1.77-0.09
			c0.84,0.4,1.49,1.55,1.33,2.48c-0.2,1.15-1.51,1.94-2.61,1.96c-1.12,0.01-2.11-1.48-1.46-2.46L131.11,196.99z"/>
		<path class="st8" d="M186.8,219.32c0.02-0.1,0.14-1.91,0.47-2.32c0.14-0.17,0.47-0.28,0.66-0.38c0.57-0.28,1.18-0.36,1.77-0.09
			c0.84,0.4,1.49,1.55,1.33,2.48c-0.2,1.15-1.51,1.94-2.61,1.96c-1.12,0.01-2.11-1.48-1.46-2.46L186.8,219.32z"/>
		<path class="st8" d="M224.39,120.74c0.02-0.1,0.14-1.91,0.47-2.32c0.14-0.17,0.47-0.28,0.66-0.38c0.57-0.28,1.18-0.36,1.77-0.09
			c0.84,0.4,1.49,1.55,1.33,2.48c-0.2,1.15-1.51,1.94-2.61,1.96c-1.12,0.01-2.11-1.48-1.46-2.46L224.39,120.74z"/>
		<path class="st8" d="M147.75,263.81c0.02-0.1,0.14-1.91,0.47-2.32c0.14-0.17,0.47-0.28,0.66-0.38c0.57-0.28,1.18-0.36,1.77-0.09
			c0.84,0.4,1.49,1.55,1.33,2.48c-0.2,1.15-1.51,1.94-2.61,1.96c-1.12,0.01-2.11-1.48-1.46-2.46L147.75,263.81z"/>
		<path class="st8" d="M248.67,198.59c-1.86,1.16-3,1.68-4.11,3.38c-0.82,1.27-1.72,2.44-2.37,3.82c-0.51,1.09-1.14,2.74-1.04,3.97
			c0.25,3.21,4.24,0.39,5.39-0.59c1.54-1.31,3.01-3.1,3.12-5.18c0.05-0.82,0.07-1.73-0.25-2.49c-0.14-0.33-0.31-0.72-0.48-1.04
			C248.56,199.76,248.23,199.74,248.67,198.59z"/>
		<path class="st8" d="M287.79,212.61c0.14-1.42-0.57,3.7-0.28,3.92c0.45,0.01,0.98,0.07,1.42,0.01c0.63-0.09,0.81-0.42,1.3-0.8
			c1.02-0.78,1.76-1.24,1.8-2.64c0.03-1.15-0.17-1.85-1.31-2.2c-0.5-0.15-0.73-0.35-1.28-0.2c-1.1,0.32-1.87,1.25-2.31,2.23
			L287.79,212.61z"/>
		<path class="st9" d="M183.89,70.81c0.1-0.96-0.39,2.51-0.19,2.66c0.31,0.01,0.66,0.05,0.96,0c0.43-0.06,0.55-0.28,0.88-0.54
			c0.69-0.53,1.19-0.84,1.22-1.79c0.02-0.78-0.12-1.26-0.89-1.49c-0.34-0.1-0.5-0.24-0.87-0.13c-0.75,0.22-1.27,0.84-1.56,1.51
			L183.89,70.81z"/>
		<path class="st9" d="M250.13,170.57c0.1-0.96-0.39,2.51-0.19,2.66c0.31,0.01,0.66,0.05,0.96,0c0.43-0.06,0.55-0.28,0.88-0.54
			c0.69-0.53,1.19-0.84,1.22-1.79c0.02-0.78-0.12-1.25-0.89-1.49c-0.34-0.1-0.5-0.24-0.87-0.13c-0.75,0.22-1.27,0.84-1.56,1.51
			L250.13,170.57z"/>
		<path class="st9" d="M180.28,265.75c0.96,0-2.53-0.13-2.66,0.08c0.03,0.31,0.02,0.66,0.1,0.96c0.11,0.42,0.34,0.51,0.63,0.82
			c0.6,0.63,0.96,1.1,1.9,1.02c0.78-0.06,1.24-0.25,1.39-1.04c0.07-0.35,0.19-0.52,0.04-0.88c-0.29-0.72-0.97-1.17-1.66-1.4
			L180.28,265.75z"/>
		<path class="st9" d="M124.69,160.86c0.1-0.96-0.39,2.51-0.19,2.66c0.31,0.01,0.66,0.05,0.96,0c0.43-0.06,0.55-0.28,0.88-0.54
			c0.69-0.53,1.19-0.84,1.22-1.79c0.02-0.78-0.12-1.26-0.89-1.49c-0.34-0.1-0.5-0.24-0.87-0.13c-0.75,0.22-1.27,0.84-1.56,1.51
			L124.69,160.86z"/>
		<path class="st8" d="M178.41,255.38c0.14-1.42-0.57,3.7-0.28,3.92c0.45,0.01,0.98,0.07,1.42,0.01c0.63-0.09,0.81-0.42,1.3-0.8
			c1.02-0.78,1.76-1.24,1.8-2.64c0.03-1.15-0.17-1.85-1.31-2.2c-0.5-0.15-0.73-0.35-1.28-0.2c-1.1,0.32-1.87,1.24-2.31,2.23
			L178.41,255.38z"/>
	</g>
	
		<linearGradient id="SVGID_00000143619568625903401300000017710205699368576409_" gradientUnits="userSpaceOnUse" x1="57.2496" y1="-69.7906" x2="273.2744" y2="-69.7906" gradientTransform="matrix(1 0 0 1 0 195)">
		<stop  offset="5.586590e-03" style="stop-color:#FFB80B"/>
		<stop  offset="0.388" style="stop-color:#FFB60C"/>
		<stop  offset="0.5789" style="stop-color:#FEAE10"/>
		<stop  offset="0.7274" style="stop-color:#FCA117"/>
		<stop  offset="0.8539" style="stop-color:#FA8E21"/>
		<stop  offset="0.9655" style="stop-color:#F7762E"/>
		<stop  offset="1" style="stop-color:#F66D33"/>
	</linearGradient>
	<path style="fill-rule:evenodd;clip-rule:evenodd;fill:url(#SVGID_00000143619568625903401300000017710205699368576409_);" d="
		M110.12,174.86c39.61,6.26,37.17,16.72,83.13,4.2c45.97-12.52,78.89-81.67,78.89-81.67s2.3-5.12,0.35-8.13
		c-0.77-1.2-6.81,1.29-6.81,1.29c1.04,22.2-30.02,68.03-65.1,81.23c-3.75,1.41-7.53,1.9-11.05,2.69c-1.65-0.83-5.72-4.58,13.49-17.6
		c22.6-15.32,32.76-21.03,30.67-36.96c-2.09-15.92,18.01-41.15,18.01-41.15l0,0c0,0,1.46-6.71-2.35-10.9
		c-4.89-5.38-15.66,0.08-15.66,0.08s-2.8,31.22-42.41,48.09s-61.62,8.49-76.78,3.88C99.36,115.3,94.84,90.2,94.84,90.2
		S82,87.53,77.35,95.72c-3.42,6.02,1.54,13.49,1.54,13.49s23.89,8.66,45.4,16.91c21.52,8.26,62.59,0.86,77.26-6.2
		s14.67-18.33,26.41-28.59c4.85-4.24,9.74-7.11,13.81-9.03c0,0-12.83,19.8-11.37,33.74c1.47,13.94-7.34,13.45-28.85,37.9
		c-15.1,17.16-28.28,22.59-34.81,24.32c-16.57,1.5-31.62-0.36-52.23-5.95c-33.25-9.02-53.22-23.48-53.22-23.48s-2.89-1.38-3.99,1.81
		c-0.47,1.35,2.5,5.13,2.5,5.13S70.51,168.6,110.12,174.86z"/>
	
		<radialGradient id="SVGID_00000119835147737522404030000009418836825235579789_" cx="76.2176" cy="40.0687" r="62.1034" gradientTransform="matrix(1 0 0 1 0 195)" gradientUnits="userSpaceOnUse">
		<stop  offset="5.586590e-03" style="stop-color:#FFB80B"/>
		<stop  offset="0.388" style="stop-color:#FFB60C"/>
		<stop  offset="0.5789" style="stop-color:#FEAE10"/>
		<stop  offset="0.7274" style="stop-color:#FCA117"/>
		<stop  offset="0.8539" style="stop-color:#FA8E21"/>
		<stop  offset="0.9655" style="stop-color:#F7762E"/>
		<stop  offset="1" style="stop-color:#F66D33"/>
	</radialGradient>
	<path style="fill-rule:evenodd;clip-rule:evenodd;fill:url(#SVGID_00000119835147737522404030000009418836825235579789_);" d="
		M137.96,292.05c0,0-9.75-6.08-17.08-24.91c-7.34-18.83-6.36-17.6-20.05-29.46c-13.69-11.86-37.51-23.53-37.51-23.53
		s-1.61,0.55-1.61,1.03c0,2.45,2.83,2.73,2.83,2.73s22.23,9.53,36.11,24.86s28.88,42.53,18.2,40.91c0,0,2.4,6.82,8.03,8.38
		C132.5,293.62,137.96,292.05,137.96,292.05z"/>
	
		<linearGradient id="SVGID_00000171000115142245677090000002522073769382501512_" gradientUnits="userSpaceOnUse" x1="53.1033" y1="19.3476" x2="306.3759" y2="19.3476" gradientTransform="matrix(1 0 0 1 0 195)">
		<stop  offset="5.586590e-03" style="stop-color:#FFB80B"/>
		<stop  offset="0.388" style="stop-color:#FFB60C"/>
		<stop  offset="0.5789" style="stop-color:#FEAE10"/>
		<stop  offset="0.7274" style="stop-color:#FCA117"/>
		<stop  offset="0.8539" style="stop-color:#FA8E21"/>
		<stop  offset="0.9655" style="stop-color:#F7762E"/>
		<stop  offset="1" style="stop-color:#F66D33"/>
	</linearGradient>
	<path style="fill:url(#SVGID_00000171000115142245677090000002522073769382501512_);" d="M235.3,200.95
		c4.54-4.85,10.04-11.38,32.29-11.51c22.25-0.15,33.68,4.77,33.68,4.77s4.58-1.29,5.07-7.24c0.48-5.89-4.01-8.89-4.01-8.89
		c-0.23,1.86-2.48,14.09-21.37,6.84c0-0.18,6.68-6.25,8.13-18.58c1.47-12.52,5.94-30.27,5.94-30.27s2.63-4.39,0.92-7.93
		c-0.56-1.17-4.89-1.69-4.89-1.69c3.74,24.96-5.7,55.03-15.98,58.48c-12.47,0.15-27.67,2.32-34.56,6.86
		c-8.47,5.6-16.96,30.92-22.4,48.73c-1.37,4.41-4.16,9.21-7.72,14.01c-13.63,3.28-9.32-13.06-15.2-18.09
		c-5.86-5.01-17.11-2.32-24.44-5.03c-7.33-2.71-9.29-8.52-17.11-9.45s-20.16,13.63-34.22,7.61c-14.07-6.01-61.17-61.79-61.17-61.79
		s-4.25-1.02-5.1,1.91c-0.66,2.25,4.66,8.15,4.66,8.15s32.75,49.42,64.03,55.85c31.31,6.43,59.67,0.41,69.45,8.9
		c9.73,8.47,10.48,21.99,10.48,22.09c-10.17,10.79-22.12,20.08-27.77,22.92c-9.78,4.93-25.86,8.28-25.86,8.28
		c2.2,2.53,6.61,4.56,11.36,5.83c6.86,1.83,11.24-1.62,11.24-1.62s-3.97-3.46,1.21-7.79c13.21-10.99,22.58-15.8,36.29-19.05
		c8.31-1.96,10.79,1.81,11.98,0.59v0.03c12.78,4.05,22.89-5.52,33.89-14.32c10.97-8.77,25.06-10.07,25.06-10.07s7.29-1.23,9.19-4.45
		c1.72-2.93-2.35-6.13-2.35-6.13s-6.22,2.56-17.94,8.49c-11.74,5.94-24.31,23.2-38.64,22.66c-7.9-0.28-6.25-8.28-6.99-9.42
		c0-0.57,0.03-1.14,0-1.7v-0.03c-0.23-5.81-1.45-11.07-1.45-15.28c0-1.08,0.08-2.09,0.28-3.02
		C222.6,234.4,230.76,205.8,235.3,200.95z M210.37,254.58c-2.5,3.38-5.39,6.74-8.47,9.99L210.37,254.58z M221.34,263.23
		c0.18,1.34,0.44,2.66,0.23,4c-0.08,0.7-0.21,1.26-0.88,1.5c-0.39,0.13-0.83,0.18-1.21,0.28c-0.62,0.15-1.21,0.39-1.83,0.46
		c-0.95,0.13-2.01,0.03-2.97,0.03c-1.03,0-2.14,0.1-3.17-0.03c-0.49-0.08-0.98-0.18-1.47-0.26c-0.49-0.08-1.16-0.1-1.6-0.36
		c-1.06-0.59-1.68-1.7-2.48-1.96c0.08-0.93,0.03-1.76,0.41-2.58c0.1-0.31,0.21-0.62,0.28-0.93c0.18-0.54,0.39-1.03,0.62-1.55
		c0.57-1.32,1.14-2.58,1.96-3.74c0.39-0.59,0.77-1.19,1.14-1.81c0.44-0.67,1.03-1.19,1.6-1.76c0.83-0.83,1.63-1.57,2.66-2.14
		c0.8-0.44,2.09-1.06,2.99-0.72c0.93,0.31,1.32,1.52,1.68,2.35c0.26,0.59,0.34,1.24,0.52,1.88c0.21,0.8,0.57,1.52,0.75,2.35
		c0.21,0.9,0.21,1.83,0.39,2.74C221.11,261.73,221.21,262.48,221.34,263.23z"/>
	<path class="st13" d="M82.1,93.05c0,0,5.52,11.34,19.7,21.56c0,0-4.71-16.46-8.1-23.29C93.71,91.32,89.05,86.93,82.1,93.05z"/>
	<path class="st13" d="M156.47,127.64c0,0,9.65-3.88,12.64-2.43C169.11,125.21,159.87,127.77,156.47,127.64z"/>
	<path class="st13" d="M188.73,118.72c1.74-0.56,3.5-1.07,5.2-1.74c1.51-0.59,2.94-1.28,4.34-2.06c1.79-1,3.53-2.09,5.14-3.34
		c0.42-0.32,0.9-0.53,1.33-0.83c0.5-0.35,1-0.75,1.49-1.12c0.44-0.33,0.78-0.78,1.2-1.13c0.42-0.36,0.84-0.7,1.27-1.04
		c0.73-0.57,1.5-1.19,2.17-1.83c0.33-0.31,0.64-0.64,0.98-0.93c0.24-0.2,0.43-0.26,0.71-0.37c0.1,0.22-0.16,0.75-0.25,0.96
		c-0.2,0.47-0.52,0.82-0.77,1.25c-0.58,0.99-1.52,1.62-2.22,2.5c-0.47,0.59-1.11,1.05-1.73,1.47c-0.88,0.59-1.88,1.11-2.82,1.59
		c-0.96,0.5-1.97,0.8-2.91,1.34c-0.89,0.52-1.77,0.92-2.7,1.34c-0.61,0.28-1.17,0.7-1.75,1.05c-0.49,0.29-0.98,0.58-1.47,0.88
		c-0.73,0.44-1.44,0.86-2.19,1.26c-0.4,0.21-0.81,0.39-1.2,0.6c-0.9,0.49-1.94,0.87-2.98,0.86c-0.38,0-0.72,0.04-1.07-0.12
		c-0.15-0.07-0.45-0.16-0.47-0.34C188.26,118.97,188.48,118.65,188.73,118.72z"/>
	<path class="st13" d="M214.77,101.97c-0.45,0.23-0.85,0.53-1.18,0.91c0,0.27-0.15,0.58,0.32,0.56c0.5-0.01,0.85-0.33,1.17-0.68
		c0.16-0.18,0.49-0.72,0.3-0.97c-0.24-0.32-0.9,0.12-1.1,0.3L214.77,101.97z"/>
	<path class="st13" d="M235.43,68.72c-0.35,0.47-0.87,1.02-1.1,1.6c-0.17,0.44-0.33,0.89-0.49,1.33c-0.33,0.87-0.52,1.76-0.79,2.64
		c-0.5,1.6-0.89,3.23-1.53,4.8c-0.29,0.71-0.64,1.38-0.98,2.07c-0.18,0.37-0.45,0.7-0.62,1.07c-0.14,0.33-0.34,0.61-0.49,0.94
		c-0.14,0.31-0.19,0.62-0.39,0.9c-0.24,0.33-0.39,0.65-0.58,1.01c-0.16,0.29-0.79,0.99-0.6,1.36c0.19,0.03,0.38-0.26,0.49-0.38
		c0.35-0.36,0.75-0.64,1.12-0.99c0.68-0.64,1.28-1.37,1.93-2.05c0.28-0.29,0.47-0.64,0.72-0.95c0.36-0.45,0.79-0.81,1.14-1.28
		c0.56-0.75,1.18-1.47,1.81-2.18c0.31-0.35,0.53-0.77,0.84-1.13c0.28-0.33,0.6-0.62,0.9-0.94c0.92-1.02,1.9-1.98,2.79-3.03
		c0.71-0.83,1.38-1.73,1.99-2.64c0.48-0.72,0.91-1.45,1.35-2.2c0.18-0.3,0.57-1.03,0.43-1.4c-0.17-0.47-0.74-0.67-1.18-0.73
		c-0.68-0.1-1.57-0.12-2.23,0.05c-0.75,0.18-1.41,0.46-2.12,0.76c-0.64,0.26-1.15,0.73-1.76,1.04
		C235.63,68.6,235.13,68.81,235.43,68.72z"/>
	<path class="st13" d="M241.78,83.39c-0.2,0.42-0.45,1.11-0.75,1.53c-0.28,0.38-0.54,0.74-0.77,1.15c-0.42,0.71-0.81,1.43-1.22,2.14
		c-0.75,1.3-1.69,2.5-2.26,3.89c-0.23,0.55-0.46,1.08-0.73,1.61c-0.28,0.56-0.41,1.16-0.61,1.75c-0.2,0.58-0.26,1.16-0.39,1.75
		c-0.11,0.48-0.33,0.93-0.19,1.42c0.47-0.61,0.8-1.28,1.23-1.92c0.3-0.45,0.54-0.91,0.95-1.27c0.41-0.37,0.73-0.76,1.1-1.17
		c0.36-0.4,0.71-0.81,0.98-1.28c0.25-0.43,0.41-0.88,0.7-1.29c0.27-0.38,0.47-0.82,0.72-1.22c0.3-0.47,0.6-0.93,0.79-1.46
		c0.36-1,0.71-2.06,0.98-3.08c0.12-0.48,0.21-1.13,0.12-1.63C242.33,83.91,241.7,82.81,241.78,83.39z"/>
	<path class="st13" d="M233.35,100.14c-0.19,0.65-0.44,1.38-0.59,2.05c-0.04,0.17-0.1,0.53,0.04,0.63c0.15,0.12,0.53-0.04,0.64-0.15
		c0.13-0.12,0.21-0.3,0.3-0.45c0.2-0.32,0.44-0.83,0.34-1.23c-0.1-0.44-0.51-0.81-0.86-0.36L233.35,100.14z"/>
	<path class="st13" d="M220.51,135.59c-1.38,1.32-2.97,2.49-4.09,4.05c-0.11,0.15-0.67,0.8-0.54,1.07c0.16,0.31,0.8,0.1,1.01,0.03
		c0.8-0.27,1.6-0.71,2.35-1.08c0.58-0.29,1.11-0.66,1.65-1.01c1.26-0.81,2.32-1.88,3.29-3.02c0.42-0.49,0.87-1.03,1.1-1.64
		c0.06-0.17,0.32-0.65,0.26-0.85c-0.2-0.67-1.8,0.04-2.13,0.25c-0.38,0.24-0.71,0.58-1.06,0.86c-0.29,0.24-0.57,0.43-0.87,0.63
		c-0.25,0.17-0.49,0.39-0.73,0.58C220.5,135.66,220.32,136.09,220.51,135.59z"/>
	<path class="st13" d="M214.28,141.95c-0.47,0.22-0.94,0.44-1.4,0.68c0,0.22-0.58,0.61-0.29,0.9c0.16,0.16,0.68-0.05,0.83-0.1
		c0.34-0.11,0.52-0.35,0.77-0.59c0.26-0.24,0.23-0.34,0.09-0.64L214.28,141.95L214.28,141.95z"/>
	<path class="st13" d="M182.65,172.19c-1.12,0.85-2.33,1.63-3.58,2.29c-1.47,0.78-3.04,1.37-4.5,2.19c-2.25,1.27-4.64,2.24-7,3.28
		c-0.38,0.17-3.85,1.53-2.54,2.22c0.61,0.32,1.21,0.26,1.87,0.27c0.54,0.01,1.06,0.16,1.61,0.18c0.55,0.02,1.11-0.01,1.66,0
		c2.84,0.02,5.82-0.66,8.41-1.8c0.58-0.25,1.29-0.45,1.82-0.81c0.32-0.22,0.62-0.55,0.91-0.82c0.57-0.53,0.99-1.14,1.35-1.84
		c0.51-1,0.85-1.93,0.81-3.05c-0.01-0.41-0.15-0.9-0.43-1.21C182.81,172.84,182.53,172.76,182.65,172.19z"/>
	<path class="st13" d="M162.44,180.82c-0.63-0.31-1.35-0.79-2.04-0.82c-0.25-0.01-0.48,0.03-0.72,0.08
		c-0.53,0.11-1.37,0.17-1.78,0.58c-0.62,0.61,0.7,1.1,1.19,1.22c0.59,0.15,1.42,0.16,2.04,0.08c0.5-0.06,1.49-0.5,1.49-1.12
		c0.04-0.01,0.09-0.02,0.13-0.03L162.44,180.82L162.44,180.82z"/>
	<path class="st13" d="M199.93,173c2.64-0.79,5.14-1.87,7.6-3.1c0.95-0.48,1.9-1.02,2.8-1.59c0.59-0.37,1.18-0.84,1.79-1.15
		c0.26-0.13,1.78-1.02,1.99-0.59c0.27,0.55-1.39,1.65-1.63,1.86c-0.63,0.56-1.32,0.99-2,1.48c-0.58,0.41-1.22,0.61-1.82,0.96
		c-0.8,0.46-1.61,0.86-2.46,1.22c-0.63,0.27-1.27,0.58-1.93,0.75c-0.51,0.13-1.01,0.33-1.52,0.45c-0.38,0.09-0.76-0.02-1.14,0.07
		C201.13,173.48,200.25,173.71,199.93,173z"/>
	<path class="st13" d="M257.55,187.18c1.28,0,2.82,0.13,4.14-0.06c0.96-0.14,1.92-0.34,2.89-0.43c1.9-0.18,3.77-0.67,5.68-0.74
		c0.76-0.03,1.52,0.01,2.28,0.01c0.41,0,1-0.1,1.41-0.01c0.18,0.04,0.66,0.29,0.79,0.43c0.46,0.5,0.02,0.42-0.3,0.6
		c-0.68,0.39-1.21,0.7-2,0.87c-1.2,0.25-2.39,0.58-3.6,0.75c-0.84,0.12-1.68-0.03-2.51,0.1c-1.11,0.18-2.18,0.19-3.31,0.19
		c-0.92,0-1.83,0-2.75,0c-0.7,0-1.27-0.13-1.95-0.22c-0.58-0.08-0.92,0.03-1.4-0.24C256.69,188.31,256.33,187.96,257.55,187.18z"/>
	<path class="st13" d="M288.36,188.4c1.64,0.15,2.65,0.34,4.13,0.07c0.97-0.18,1.94-0.34,2.91-0.5c1.38-0.23,2.87-0.88,4.06-1.65
		c0.66-0.43,2-1.35,2.86-1.11c0.67,0.19,1.42,1,1.47,1.73c0.07,0.92-0.96,1.66-1.6,2.16c-1.1,0.87-2.74,1.19-4.1,1.27
		c-1.67,0.1-3.29-0.13-4.91-0.5c-0.5-0.11-0.99-0.26-1.49-0.37C291.26,189.41,290.36,189.52,288.36,188.4z"/>
	<path class="st13" d="M292.03,128.01c-0.1,1.11-0.79,3.86,0.61,4.76c0.74,0.48,1.1-0.78,1.11-1.34c0.02-0.82-0.51-2.95-1.47-3.17
		L292.03,128.01z"/>
	<path class="st13" d="M61.54,153.28c1.16,1.49,2.02,3.04,3.63,3.98c0.94,0.55,1.85,1.18,2.9,1.5c0.98,0.3,2.24,0.63,3.26,0.4
		c0.55-0.12,0.7,0.06,0.67-0.65c-0.01-0.32-0.25-0.73-0.41-0.98c-0.33-0.51-0.85-0.83-1.24-1.29c-0.46-0.54-0.74-1.05-1.3-1.5
		c-1.88-1.47-3.62-2.69-5.89-3.42c-0.82-0.26-0.88-0.36-1.6,0.09c-0.57,0.36-0.59,0.21-0.67,0.88c-0.11,0.89,0.53,1.6,0.99,2.29
		L61.54,153.28z"/>
	<path class="st13" d="M62.52,177.4c1.9,3.03,4.07,5.78,6.36,8.52c1.63,1.94,2.61,4.38,4.46,6.16c0.31,0.29,3.56,3.09,3.52,1.48
		c-0.01-0.37-0.93-1.81-1.13-2.14c-0.54-0.89-1.14-1.82-1.81-2.62c-0.54-0.66-1.18-1.3-1.64-2.03c-0.5-0.78-0.92-1.25-1.54-1.94
		c-0.79-0.87-1.21-1.97-1.9-2.91c-0.64-0.87-1.3-1.69-1.93-2.58c-0.83-1.18-1.7-2.51-3.03-3c-0.35-0.13-0.88-0.51-1.32-0.19
		C61.87,176.67,62.43,178.44,62.52,177.4z"/>
	<path class="st13" d="M180.21,234.78c2.73-0.49,4.94-0.92,7.63-0.29c1.32,0.31,2.64,0.72,3.94,1.1c0.84,0.25,2.1,0.49,2.71,1.12
		c0.64,0.65,0.42,1.83-0.16,2.4c-0.79,0.79-2.55,0.62-3.55,0.53c-2.03-0.19-3.98-0.44-5.93-1.03c-1.11-0.34-2.65-0.89-3.58-1.62
		C180.83,236.65,179.72,235.72,180.21,234.78z"/>
	<path class="st13" d="M217.7,249.45c-1.38-0.3-1.5-2.77-1.12-3.76c0.22-0.56,0.57-1.46,1.19-1.71c0.64-0.26,0.86,0.18,1.39,0.37
		c-0.57,1.23-1.28,2.39-2.12,3.47L217.7,249.45z"/>
	<path class="st13" d="M269.21,248.47c1.82-1.19,3.05-2.02,5.04-2.61c1.01-0.3,2.05-0.43,3.05-0.73c1.18-0.36,2.37-0.92,3.58-1.16
		c0.44-0.09,0.87-0.06,1.3-0.14c0.49-0.08,0.25-0.33,0.81-0.02c1.02,0.56,0.56,1.31-0.11,1.88c-1.26,1.07-2.34,1.5-3.98,1.88
		c-0.91,0.21-1.64,0.73-2.53,1c-0.53,0.16-1.09,0.25-1.63,0.4C272.75,249.49,270.31,249.12,269.21,248.47z"/>
	<path class="st13" d="M104.9,244.23c1.15,2.37,2.11,4.64,3.6,6.78c0.67,0.96,1.18,1.89,2.27,2.36c0.86,0.37,1.45,0.51,1.56-0.67
		c0.06-0.61-0.44-1.48-0.77-2.07c-0.96-1.71-2.33-3.2-3.47-4.77c-0.44-0.61-1.07-1.43-1.64-1.89
		C106.03,243.63,104.8,243.25,104.9,244.23L104.9,244.23z"/>
	<path class="st13" d="M152.82,296.4c2.76-0.57,5.15-1.43,7.76-2.38c1.08-0.39,2.16-0.39,3.25-0.63c0.1-0.02,0.22-0.23,0.37-0.27
		c0.27-0.07,0.72,0.02,1,0.02c0.29,0,1.53-0.17,1.78,0.01c1.02,0.75-1.16,2.73-1.63,3.22c-1.79,1.88-4.76,2.92-7.4,2.65
		c-1.33-0.14-2.54-0.85-3.84-0.99c-0.83-0.09-2.65-0.4-2.57-1.58C151.65,296.43,151.75,296.41,152.82,296.4z"/>
	<path class="st13" d="M200.1,268.68c-2.44,1.66-5.12,3.1-6.87,5.55c-1.21,1.69,1,1.34,1.97,0.97c0.81-0.31,1.42-0.61,2.13-1.11
		c0.64-0.45,0.99-0.89,1.53-1.43c0.39-0.39,0.88-0.7,1.23-1.12c0.36-0.43,0.5-1.36,0.92-1.65c-0.07-0.19-0.16-0.37-0.27-0.56
		L200.1,268.68z"/>
	<path class="st13" d="M133.59,231.19c1.77-0.75,3.54-1.38,5.19-2.27c1.54-0.82,3.02-1.68,4.59-2.46c2.02-1,4.19-2.4,6.53-2.45
		c0.88-0.02,1.46-0.45,2.27-0.08c0.65,0.29,1.14,0.55,1.55,1.14c1.19,1.69-1.17,3.32-2.46,4.19c-0.99,0.67-1.89,1.48-3,1.95
		c-1.29,0.54-2.68,0.79-3.99,1.28c-2.17,0.8-4.47,1.7-6.78,1.98c-1.2,0.15-2.29-0.29-3.25-0.91c-0.49-0.32-0.97-0.74-1.3-1.22
		C132.64,231.89,132.44,231.15,133.59,231.19z"/>
	
		<radialGradient id="SVGID_00000141426940269989383910000005112380973888280991_" cx="-212.5098" cy="354.6832" r="26.0518" gradientTransform="matrix(1.5376 -0.6436 0.4127 0.9858 357.9873 -316.438)" gradientUnits="userSpaceOnUse">
		<stop  offset="0" style="stop-color:#FF5B00;stop-opacity:0.5"/>
		<stop  offset="1" style="stop-color:#FF5B00;stop-opacity:0"/>
	</radialGradient>
	<path style="fill-rule:evenodd;clip-rule:evenodd;fill:url(#SVGID_00000141426940269989383910000005112380973888280991_);" d="
		M217.67,153.21c5.94,14.18-7.18,33.19-29.31,42.45c-22.12,9.26-44.87,5.27-50.81-8.91c-5.94-14.18,7.18-33.19,29.31-42.45
		C188.99,135.03,211.74,139.02,217.67,153.21z"/>
	
		<radialGradient id="SVGID_00000029035254705001876510000003817411931747707819_" cx="-383.6584" cy="-159.3245" r="26.0503" gradientTransform="matrix(1.0538 0.7047 -0.5941 0.8884 398.0996 510.468)" gradientUnits="userSpaceOnUse">
		<stop  offset="0" style="stop-color:#FF5B00;stop-opacity:0.5"/>
		<stop  offset="1" style="stop-color:#FF5B00;stop-opacity:0"/>
	</radialGradient>
	<path style="fill-rule:evenodd;clip-rule:evenodd;fill:url(#SVGID_00000029035254705001876510000003817411931747707819_);" d="
		M115.91,116.92c-8.55,12.78-27.77,14.92-42.93,4.78C57.81,111.56,52.45,92.98,61,80.2s27.77-14.92,42.93-4.78
		S124.46,104.14,115.91,116.92z"/>
	
		<radialGradient id="SVGID_00000155837060020514066920000014886208838617352329_" cx="-208.1058" cy="-200.0628" r="23.5021" gradientTransform="matrix(1.0538 0.7047 -0.5941 0.8884 398.0996 510.468)" gradientUnits="userSpaceOnUse">
		<stop  offset="0" style="stop-color:#FF5B00;stop-opacity:0.5"/>
		<stop  offset="1" style="stop-color:#FF5B00;stop-opacity:0"/>
	</radialGradient>
	<path style="fill-rule:evenodd;clip-rule:evenodd;fill:url(#SVGID_00000155837060020514066920000014886208838617352329_);" d="
		M322.42,202.64c-7.71,11.53-25.05,13.46-38.73,4.32c-13.68-9.15-18.51-25.91-10.8-37.44c7.71-11.53,25.05-13.46,38.73-4.32
		C325.29,174.35,330.13,191.11,322.42,202.64z"/>
	
		<radialGradient id="SVGID_00000101085868757543868530000000316823488286231477_" cx="-276.1955" cy="-31.7458" r="23.5021" gradientTransform="matrix(1.0538 0.7047 -0.5941 0.8884 398.0996 510.468)" gradientUnits="userSpaceOnUse">
		<stop  offset="0" style="stop-color:#FF5B00;stop-opacity:0.5"/>
		<stop  offset="1" style="stop-color:#FF5B00;stop-opacity:0"/>
	</radialGradient>
	<path style="fill-rule:evenodd;clip-rule:evenodd;fill:url(#SVGID_00000101085868757543868530000000316823488286231477_);" d="
		M150.67,304.19c-7.71,11.53-25.05,13.46-38.73,4.32c-13.68-9.15-18.51-25.91-10.8-37.44s25.05-13.46,38.73-4.32
		C153.54,275.9,158.38,292.66,150.67,304.19z"/>
</g>
</svg>
