<?xml version="1.0" encoding="utf-8"?>
<!-- Generator: Adobe Illustrator 26.3.1, SVG Export Plug-In . SVG Version: 6.00 Build 0)  -->
<svg version="1.1" id="Layer_1" xmlns="http://www.w3.org/2000/svg" xmlns:xlink="http://www.w3.org/1999/xlink" x="0px" y="0px"
	 viewBox="0 0 1288 320" style="enable-background:new 0 0 1288 320;" xml:space="preserve">
<style type="text/css">
	.st0{fill:none;stroke:#FFFFFF;stroke-width:0.5;stroke-miterlimit:10;}
	.st1{opacity:0.75;fill:none;stroke:#FFFFFF;stroke-width:0.25;stroke-miterlimit:10;enable-background:new    ;}
	.st2{fill:#FFFFFF;}
</style>
<g>
	<g>
		<g>
			<g>
				<line class="st0" x1="4" y1="320" x2="324" y2="320"/>
			</g>
			<g>
				<line class="st0" x1="324" y1="320" x2="644" y2="320"/>
			</g>
			<g>
				<line class="st0" x1="644" y1="320" x2="964" y2="320"/>
			</g>
			<g>
				<line class="st0" x1="964" y1="320" x2="1284" y2="320"/>
			</g>
		</g>
		<g>
			<g>
				<line class="st0" x1="4" y1="320" x2="324" y2="320"/>
				<line class="st1" x1="4" y1="20" x2="324" y2="20"/>
				<line class="st1" x1="4" y1="40" x2="324" y2="40"/>
				<line class="st1" x1="4" y1="60" x2="324" y2="60"/>
				<line class="st1" x1="4" y1="100" x2="324" y2="100"/>
				<line class="st1" x1="4" y1="120" x2="324" y2="120"/>
				<line class="st1" x1="4" y1="140" x2="324" y2="140"/>
				<line class="st1" x1="4" y1="180" x2="324" y2="180"/>
				<line class="st1" x1="4" y1="200" x2="324" y2="200"/>
				<line class="st1" x1="4" y1="220" x2="324" y2="220"/>
				<line class="st1" x1="4" y1="260" x2="324" y2="260"/>
				<line class="st1" x1="4" y1="280" x2="324" y2="280"/>
				<line class="st1" x1="4" y1="300" x2="324" y2="300"/>
				<line class="st0" x1="4" y1="160" x2="324" y2="160"/>
				<line class="st0" x1="4" y1="240" x2="324" y2="240"/>
				<line class="st0" x1="4" y1="80" x2="324" y2="80"/>
				<line class="st0" x1="324" y1="320" x2="324" y2="0"/>
				<line class="st0" x1="4" y1="320" x2="4" y2="0"/>
				<line class="st1" x1="24" y1="320" x2="24" y2="0"/>
				<line class="st1" x1="44" y1="320" x2="44" y2="0"/>
				<line class="st1" x1="64" y1="320" x2="64" y2="0"/>
				<line class="st1" x1="104" y1="320" x2="104" y2="0"/>
				<line class="st1" x1="124" y1="320" x2="124" y2="0"/>
				<line class="st1" x1="144" y1="320" x2="144" y2="0"/>
				<line class="st1" x1="184" y1="320" x2="184" y2="0"/>
				<line class="st1" x1="204" y1="320" x2="204" y2="0"/>
				<line class="st1" x1="224" y1="320" x2="224" y2="0"/>
				<line class="st1" x1="264" y1="320" x2="264" y2="0"/>
				<line class="st1" x1="284" y1="320" x2="284" y2="0"/>
				<line class="st1" x1="304" y1="320" x2="304" y2="0"/>
				<line class="st0" x1="164" y1="320" x2="164" y2="0"/>
				<line class="st0" x1="84" y1="320" x2="84" y2="0"/>
				<line class="st0" x1="244" y1="320" x2="244" y2="0"/>
				<g>
					<rect x="42.5" y="38.5" class="st2" width="3" height="3"/>
				</g>
				<g>
					<polygon class="st2" points="8,0 0,0 0,1 3,1 3,4 5,4 5,1 8,1 					"/>
					<polygon class="st2" points="88,0 80,0 80,1 83,1 83,4 85,4 85,1 88,1 					"/>
					<polygon class="st2" points="168,0 160,0 160,1 163,1 163,4 165,4 165,1 168,1 					"/>
					<polygon class="st2" points="248,0 240,0 240,1 243,1 243,4 245,4 245,1 248,1 					"/>
					<polygon class="st2" points="328,0 320,0 320,1 323,1 323,4 325,4 325,1 328,1 					"/>
					<polygon class="st2" points="408,0 400,0 400,1 403,1 403,4 405,4 405,1 408,1 					"/>
					<polygon class="st2" points="488,0 480,0 480,1 483,1 483,4 485,4 485,1 488,1 					"/>
					<polygon class="st2" points="568,0 560,0 560,1 563,1 563,4 565,4 565,1 568,1 					"/>
					<polygon class="st2" points="648,0 640,0 640,1 643,1 643,4 645,4 645,1 648,1 					"/>
					<polygon class="st2" points="728,0 720,0 720,1 723,1 723,4 725,4 725,1 728,1 					"/>
					<polygon class="st2" points="808,0 800,0 800,1 803,1 803,4 805,4 805,1 808,1 					"/>
					<polygon class="st2" points="888,0 880,0 880,1 883,1 883,4 885,4 885,1 888,1 					"/>
					<polygon class="st2" points="968,0 960,0 960,1 963,1 963,4 965,4 965,1 968,1 					"/>
					<polygon class="st2" points="1048,0 1040,0 1040,1 1043,1 1043,4 1045,4 1045,1 1048,1 					"/>
					<polygon class="st2" points="1128,0 1120,0 1120,1 1123,1 1123,4 1125,4 1125,1 1128,1 					"/>
					<polygon class="st2" points="1208,0 1200,0 1200,1 1203,1 1203,4 1205,4 1205,1 1208,1 					"/>
					<polygon class="st2" points="1288,0 1280,0 1280,1 1283,1 1283,4 1285,4 1285,1 1288,1 					"/>
					<polygon class="st2" points="8,159 5,159 5,156 3,156 3,159 0,159 0,161 3,161 3,164 5,164 5,161 8,161 					"/>
					<polygon class="st2" points="8,79 5,79 5,76 3,76 3,79 0,79 0,81 3,81 3,84 5,84 5,81 8,81 					"/>
					<polygon class="st2" points="8,239 5,239 5,236 3,236 3,239 0,239 0,241 3,241 3,244 5,244 5,241 8,241 					"/>
					<polygon class="st2" points="8,319 5,319 5,316 3,316 3,319 0,319 0,320 3,320 3,320 5,320 5,320 8,320 					"/>
				</g>
				<g>
					<polygon class="st2" points="88,79 85,79 85,76 83,76 83,79 80,79 80,81 83,81 83,84 85,84 85,81 88,81 					"/>
					<polygon class="st2" points="88,159 85,159 85,156 83,156 83,159 80,159 80,161 83,161 83,164 85,164 85,161 88,161 					"/>
					<polygon class="st2" points="88,239 85,239 85,236 83,236 83,239 80,239 80,241 83,241 83,244 85,244 85,241 88,241 					"/>
					<polygon class="st2" points="88,319 85,319 85,316 83,316 83,319 80,319 80,320 83,320 83,320 85,320 85,320 88,320 					"/>
				</g>
				<g>
					<polygon class="st2" points="168,79 165,79 165,76 163,76 163,79 160,79 160,81 163,81 163,84 165,84 165,81 168,81 					"/>
					<polygon class="st2" points="168,159 165,159 165,156 163,156 163,159 160,159 160,161 163,161 163,164 165,164 165,161 
						168,161 					"/>
					<polygon class="st2" points="168,239 165,239 165,236 163,236 163,239 160,239 160,241 163,241 163,244 165,244 165,241 
						168,241 					"/>
					<polygon class="st2" points="168,319 165,319 165,316 163,316 163,319 160,319 160,320 163,320 163,320 165,320 165,320 
						168,320 					"/>
				</g>
				<g>
					<polygon class="st2" points="248,79 245,79 245,76 243,76 243,79 240,79 240,81 243,81 243,84 245,84 245,81 248,81 					"/>
					<polygon class="st2" points="248,159 245,159 245,156 243,156 243,159 240,159 240,161 243,161 243,164 245,164 245,161 
						248,161 					"/>
					<polygon class="st2" points="248,239 245,239 245,236 243,236 243,239 240,239 240,241 243,241 243,244 245,244 245,241 
						248,241 					"/>
					<polygon class="st2" points="248,319 245,319 245,316 243,316 243,319 240,319 240,320 243,320 243,320 245,320 245,320 
						248,320 					"/>
				</g>
				<g>
					<polygon class="st2" points="328,79 325,79 325,76 323,76 323,79 320,79 320,81 323,81 323,84 325,84 325,81 328,81 					"/>
					<polygon class="st2" points="328,159 325,159 325,156 323,156 323,159 320,159 320,161 323,161 323,164 325,164 325,161 
						328,161 					"/>
					<polygon class="st2" points="328,239 325,239 325,236 323,236 323,239 320,239 320,241 323,241 323,244 325,244 325,241 
						328,241 					"/>
					<polygon class="st2" points="328,319 325,319 325,316 323,316 323,319 320,319 320,320 323,320 323,320 325,320 325,320 
						328,320 					"/>
				</g>
				<g>
					<polygon class="st2" points="408,79 405,79 405,76 403,76 403,79 400,79 400,81 403,81 403,84 405,84 405,81 408,81 					"/>
					<polygon class="st2" points="408,159 405,159 405,156 403,156 403,159 400,159 400,161 403,161 403,164 405,164 405,161 
						408,161 					"/>
					<polygon class="st2" points="408,239 405,239 405,236 403,236 403,239 400,239 400,241 403,241 403,244 405,244 405,241 
						408,241 					"/>
					<polygon class="st2" points="408,319 405,319 405,316 403,316 403,319 400,319 400,320 403,320 403,320 405,320 405,320 
						408,320 					"/>
				</g>
				<g>
					<polygon class="st2" points="488,79 485,79 485,76 483,76 483,79 480,79 480,81 483,81 483,84 485,84 485,81 488,81 					"/>
					<polygon class="st2" points="488,159 485,159 485,156 483,156 483,159 480,159 480,161 483,161 483,164 485,164 485,161 
						488,161 					"/>
					<polygon class="st2" points="488,239 485,239 485,236 483,236 483,239 480,239 480,241 483,241 483,244 485,244 485,241 
						488,241 					"/>
					<polygon class="st2" points="488,319 485,319 485,316 483,316 483,319 480,319 480,320 483,320 483,320 485,320 485,320 
						488,320 					"/>
				</g>
				<g>
					<polygon class="st2" points="568,79 565,79 565,76 563,76 563,79 560,79 560,81 563,81 563,84 565,84 565,81 568,81 					"/>
					<polygon class="st2" points="568,159 565,159 565,156 563,156 563,159 560,159 560,161 563,161 563,164 565,164 565,161 
						568,161 					"/>
					<polygon class="st2" points="568,239 565,239 565,236 563,236 563,239 560,239 560,241 563,241 563,244 565,244 565,241 
						568,241 					"/>
					<polygon class="st2" points="568,319 565,319 565,316 563,316 563,319 560,319 560,320 563,320 563,320 565,320 565,320 
						568,320 					"/>
				</g>
				<g>
					<polygon class="st2" points="648,79 645,79 645,76 643,76 643,79 640,79 640,81 643,81 643,84 645,84 645,81 648,81 					"/>
					<polygon class="st2" points="648,159 645,159 645,156 643,156 643,159 640,159 640,161 643,161 643,164 645,164 645,161 
						648,161 					"/>
					<polygon class="st2" points="648,239 645,239 645,236 643,236 643,239 640,239 640,241 643,241 643,244 645,244 645,241 
						648,241 					"/>
					<polygon class="st2" points="648,319 645,319 645,316 643,316 643,319 640,319 640,320 643,320 643,320 645,320 645,320 
						648,320 					"/>
				</g>
				<g>
					<polygon class="st2" points="728,79 725,79 725,76 723,76 723,79 720,79 720,81 723,81 723,84 725,84 725,81 728,81 					"/>
					<polygon class="st2" points="728,159 725,159 725,156 723,156 723,159 720,159 720,161 723,161 723,164 725,164 725,161 
						728,161 					"/>
					<polygon class="st2" points="728,239 725,239 725,236 723,236 723,239 720,239 720,241 723,241 723,244 725,244 725,241 
						728,241 					"/>
					<polygon class="st2" points="728,319 725,319 725,316 723,316 723,319 720,319 720,320 723,320 723,320 725,320 725,320 
						728,320 					"/>
				</g>
				<g>
					<polygon class="st2" points="808,79 805,79 805,76 803,76 803,79 800,79 800,81 803,81 803,84 805,84 805,81 808,81 					"/>
					<polygon class="st2" points="808,159 805,159 805,156 803,156 803,159 800,159 800,161 803,161 803,164 805,164 805,161 
						808,161 					"/>
					<polygon class="st2" points="808,239 805,239 805,236 803,236 803,239 800,239 800,241 803,241 803,244 805,244 805,241 
						808,241 					"/>
					<polygon class="st2" points="808,319 805,319 805,316 803,316 803,319 800,319 800,320 803,320 803,320 805,320 805,320 
						808,320 					"/>
				</g>
				<g>
					<polygon class="st2" points="888,79 885,79 885,76 883,76 883,79 880,79 880,81 883,81 883,84 885,84 885,81 888,81 					"/>
					<polygon class="st2" points="888,159 885,159 885,156 883,156 883,159 880,159 880,161 883,161 883,164 885,164 885,161 
						888,161 					"/>
					<polygon class="st2" points="888,239 885,239 885,236 883,236 883,239 880,239 880,241 883,241 883,244 885,244 885,241 
						888,241 					"/>
					<polygon class="st2" points="888,319 885,319 885,316 883,316 883,319 880,319 880,320 883,320 883,320 885,320 885,320 
						888,320 					"/>
				</g>
				<g>
					<polygon class="st2" points="968,79 965,79 965,76 963,76 963,79 960,79 960,81 963,81 963,84 965,84 965,81 968,81 					"/>
					<polygon class="st2" points="968,159 965,159 965,156 963,156 963,159 960,159 960,161 963,161 963,164 965,164 965,161 
						968,161 					"/>
					<polygon class="st2" points="968,239 965,239 965,236 963,236 963,239 960,239 960,241 963,241 963,244 965,244 965,241 
						968,241 					"/>
					<polygon class="st2" points="968,319 965,319 965,316 963,316 963,319 960,319 960,320 963,320 963,320 965,320 965,320 
						968,320 					"/>
				</g>
				<g>
					<polygon class="st2" points="1048,79 1045,79 1045,76 1043,76 1043,79 1040,79 1040,81 1043,81 1043,84 1045,84 1045,81 
						1048,81 					"/>
					<polygon class="st2" points="1048,159 1045,159 1045,156 1043,156 1043,159 1040,159 1040,161 1043,161 1043,164 1045,164 
						1045,161 1048,161 					"/>
					<polygon class="st2" points="1048,239 1045,239 1045,236 1043,236 1043,239 1040,239 1040,241 1043,241 1043,244 1045,244 
						1045,241 1048,241 					"/>
					<polygon class="st2" points="1048,319 1045,319 1045,316 1043,316 1043,319 1040,319 1040,320 1043,320 1043,320 1045,320 
						1045,320 1048,320 					"/>
				</g>
				<g>
					<polygon class="st2" points="1128,79 1125,79 1125,76 1123,76 1123,79 1120,79 1120,81 1123,81 1123,84 1125,84 1125,81 
						1128,81 					"/>
					<polygon class="st2" points="1128,159 1125,159 1125,156 1123,156 1123,159 1120,159 1120,161 1123,161 1123,164 1125,164 
						1125,161 1128,161 					"/>
					<polygon class="st2" points="1128,239 1125,239 1125,236 1123,236 1123,239 1120,239 1120,241 1123,241 1123,244 1125,244 
						1125,241 1128,241 					"/>
					<polygon class="st2" points="1128,319 1125,319 1125,316 1123,316 1123,319 1120,319 1120,320 1123,320 1123,320 1125,320 
						1125,320 1128,320 					"/>
				</g>
				<g>
					<polygon class="st2" points="1208,79 1205,79 1205,76 1203,76 1203,79 1200,79 1200,81 1203,81 1203,84 1205,84 1205,81 
						1208,81 					"/>
					<polygon class="st2" points="1208,159 1205,159 1205,156 1203,156 1203,159 1200,159 1200,161 1203,161 1203,164 1205,164 
						1205,161 1208,161 					"/>
					<polygon class="st2" points="1208,239 1205,239 1205,236 1203,236 1203,239 1200,239 1200,241 1203,241 1203,244 1205,244 
						1205,241 1208,241 					"/>
					<polygon class="st2" points="1208,319 1205,319 1205,316 1203,316 1203,319 1200,319 1200,320 1203,320 1203,320 1205,320 
						1205,320 1208,320 					"/>
				</g>
				<g>
					<polygon class="st2" points="1288,79 1285,79 1285,76 1283,76 1283,79 1280,79 1280,81 1283,81 1283,84 1285,84 1285,81 
						1288,81 					"/>
					<polygon class="st2" points="1288,159 1285,159 1285,156 1283,156 1283,159 1280,159 1280,161 1283,161 1283,164 1285,164 
						1285,161 1288,161 					"/>
					<polygon class="st2" points="1288,239 1285,239 1285,236 1283,236 1283,239 1280,239 1280,241 1283,241 1283,244 1285,244 
						1285,241 1288,241 					"/>
					<polygon class="st2" points="1288,319 1285,319 1285,316 1283,316 1283,319 1280,319 1280,320 1283,320 1283,320 1285,320 
						1285,320 1288,320 					"/>
				</g>
				<g>
					<rect x="42.5" y="118.5" class="st2" width="3" height="3"/>
				</g>
				<g>
					<rect x="42.5" y="198.5" class="st2" width="3" height="3"/>
				</g>
				<g>
					<rect x="42.5" y="278.5" class="st2" width="3" height="3"/>
				</g>
				<g>
					<rect x="122.5" y="278.5" class="st2" width="3" height="3"/>
				</g>
				<g>
					<rect x="202.5" y="278.5" class="st2" width="3" height="3"/>
				</g>
				<g>
					<rect x="282.5" y="278.5" class="st2" width="3" height="3"/>
				</g>
				<g>
					<rect x="362.5" y="278.5" class="st2" width="3" height="3"/>
				</g>
				<g>
					<rect x="442.5" y="278.5" class="st2" width="3" height="3"/>
				</g>
				<g>
					<rect x="522.5" y="278.5" class="st2" width="3" height="3"/>
				</g>
				<g>
					<rect x="602.5" y="278.5" class="st2" width="3" height="3"/>
				</g>
				<g>
					<rect x="682.5" y="278.5" class="st2" width="3" height="3"/>
				</g>
				<g>
					<rect x="762.5" y="278.5" class="st2" width="3" height="3"/>
				</g>
				<g>
					<rect x="842.5" y="278.5" class="st2" width="3" height="3"/>
				</g>
				<g>
					<rect x="922.5" y="278.5" class="st2" width="3" height="3"/>
				</g>
				<g>
					<rect x="1002.5" y="278.5" class="st2" width="3" height="3"/>
				</g>
				<g>
					<rect x="1082.5" y="278.5" class="st2" width="3" height="3"/>
				</g>
				<g>
					<rect x="1162.5" y="278.5" class="st2" width="3" height="3"/>
				</g>
				<g>
					<rect x="1242.5" y="278.5" class="st2" width="3" height="3"/>
				</g>
				<g>
					<rect x="1242.5" y="198.5" class="st2" width="3" height="3"/>
				</g>
				<g>
					<rect x="1162.5" y="198.5" class="st2" width="3" height="3"/>
				</g>
				<g>
					<rect x="1082.5" y="198.5" class="st2" width="3" height="3"/>
				</g>
				<g>
					<rect x="1002.5" y="198.5" class="st2" width="3" height="3"/>
				</g>
				<g>
					<rect x="922.5" y="198.5" class="st2" width="3" height="3"/>
				</g>
				<g>
					<rect x="842.5" y="198.5" class="st2" width="3" height="3"/>
				</g>
				<g>
					<rect x="762.5" y="198.5" class="st2" width="3" height="3"/>
				</g>
				<g>
					<rect x="682.5" y="198.5" class="st2" width="3" height="3"/>
				</g>
				<g>
					<rect x="602.5" y="198.5" class="st2" width="3" height="3"/>
				</g>
				<g>
					<rect x="522.5" y="198.5" class="st2" width="3" height="3"/>
				</g>
				<g>
					<rect x="442.5" y="198.5" class="st2" width="3" height="3"/>
				</g>
				<g>
					<rect x="362.5" y="198.5" class="st2" width="3" height="3"/>
				</g>
				<g>
					<rect x="282.5" y="198.5" class="st2" width="3" height="3"/>
				</g>
				<g>
					<rect x="202.5" y="198.5" class="st2" width="3" height="3"/>
				</g>
				<g>
					<rect x="122.5" y="198.5" class="st2" width="3" height="3"/>
				</g>
				<g>
					<rect x="122.5" y="118.5" class="st2" width="3" height="3"/>
				</g>
				<g>
					<rect x="202.5" y="118.5" class="st2" width="3" height="3"/>
				</g>
				<g>
					<rect x="282.5" y="118.5" class="st2" width="3" height="3"/>
				</g>
				<g>
					<rect x="362.5" y="118.5" class="st2" width="3" height="3"/>
				</g>
				<g>
					<rect x="442.5" y="118.5" class="st2" width="3" height="3"/>
				</g>
				<g>
					<rect x="522.5" y="118.5" class="st2" width="3" height="3"/>
				</g>
				<g>
					<rect x="602.5" y="118.5" class="st2" width="3" height="3"/>
				</g>
				<g>
					<rect x="682.5" y="118.5" class="st2" width="3" height="3"/>
				</g>
				<g>
					<rect x="762.5" y="118.5" class="st2" width="3" height="3"/>
				</g>
				<g>
					<rect x="842.5" y="118.5" class="st2" width="3" height="3"/>
				</g>
				<g>
					<rect x="922.5" y="118.5" class="st2" width="3" height="3"/>
				</g>
				<g>
					<rect x="1002.5" y="118.5" class="st2" width="3" height="3"/>
				</g>
				<g>
					<rect x="1082.5" y="118.5" class="st2" width="3" height="3"/>
				</g>
				<g>
					<rect x="1162.5" y="118.5" class="st2" width="3" height="3"/>
				</g>
				<g>
					<rect x="1242.5" y="118.5" class="st2" width="3" height="3"/>
				</g>
				<g>
					<rect x="1242.5" y="38.5" class="st2" width="3" height="3"/>
				</g>
				<g>
					<rect x="1162.5" y="38.5" class="st2" width="3" height="3"/>
				</g>
				<g>
					<rect x="1082.5" y="38.5" class="st2" width="3" height="3"/>
				</g>
				<g>
					<rect x="1002.5" y="38.5" class="st2" width="3" height="3"/>
				</g>
				<g>
					<rect x="922.5" y="38.5" class="st2" width="3" height="3"/>
				</g>
				<g>
					<rect x="842.5" y="38.5" class="st2" width="3" height="3"/>
				</g>
				<g>
					<rect x="762.5" y="38.5" class="st2" width="3" height="3"/>
				</g>
				<g>
					<rect x="682.5" y="38.5" class="st2" width="3" height="3"/>
				</g>
				<g>
					<rect x="602.5" y="38.5" class="st2" width="3" height="3"/>
				</g>
				<g>
					<rect x="522.5" y="38.5" class="st2" width="3" height="3"/>
				</g>
				<g>
					<rect x="442.5" y="38.5" class="st2" width="3" height="3"/>
				</g>
				<g>
					<rect x="362.5" y="38.5" class="st2" width="3" height="3"/>
				</g>
				<g>
					<rect x="282.5" y="38.5" class="st2" width="3" height="3"/>
				</g>
				<g>
					<rect x="202.5" y="38.5" class="st2" width="3" height="3"/>
				</g>
				<g>
					<rect x="122.5" y="38.5" class="st2" width="3" height="3"/>
				</g>
			</g>
			<g>
				<line class="st0" x1="324" y1="320" x2="644" y2="320"/>
				<line class="st1" x1="324" y1="20" x2="644" y2="20"/>
				<line class="st1" x1="324" y1="40" x2="644" y2="40"/>
				<line class="st1" x1="324" y1="60" x2="644" y2="60"/>
				<line class="st1" x1="324" y1="100" x2="644" y2="100"/>
				<line class="st1" x1="324" y1="120" x2="644" y2="120"/>
				<line class="st1" x1="324" y1="140" x2="644" y2="140"/>
				<line class="st1" x1="324" y1="180" x2="644" y2="180"/>
				<line class="st1" x1="324" y1="200" x2="644" y2="200"/>
				<line class="st1" x1="324" y1="220" x2="644" y2="220"/>
				<line class="st1" x1="324" y1="260" x2="644" y2="260"/>
				<line class="st1" x1="324" y1="280" x2="644" y2="280"/>
				<line class="st1" x1="324" y1="300" x2="644" y2="300"/>
				<line class="st0" x1="324" y1="160" x2="644" y2="160"/>
				<line class="st0" x1="324" y1="240" x2="644" y2="240"/>
				<line class="st0" x1="324" y1="80" x2="644" y2="80"/>
				<line class="st0" x1="644" y1="320" x2="644" y2="0"/>
				<line class="st0" x1="324" y1="320" x2="324" y2="0"/>
				<line class="st1" x1="344" y1="320" x2="344" y2="0"/>
				<line class="st1" x1="364" y1="320" x2="364" y2="0"/>
				<line class="st1" x1="384" y1="320" x2="384" y2="0"/>
				<line class="st1" x1="424" y1="320" x2="424" y2="0"/>
				<line class="st1" x1="444" y1="320" x2="444" y2="0"/>
				<line class="st1" x1="464" y1="320" x2="464" y2="0"/>
				<line class="st1" x1="504" y1="320" x2="504" y2="0"/>
				<line class="st1" x1="524" y1="320" x2="524" y2="0"/>
				<line class="st1" x1="544" y1="320" x2="544" y2="0"/>
				<line class="st1" x1="584" y1="320" x2="584" y2="0"/>
				<line class="st1" x1="604" y1="320" x2="604" y2="0"/>
				<line class="st1" x1="624" y1="320" x2="624" y2="0"/>
				<line class="st0" x1="484" y1="320" x2="484" y2="0"/>
				<line class="st0" x1="404" y1="320" x2="404" y2="0"/>
				<line class="st0" x1="564" y1="320" x2="564" y2="0"/>
			</g>
			<g>
				<line class="st0" x1="644" y1="320" x2="964" y2="320"/>
				<line class="st1" x1="644" y1="20" x2="964" y2="20"/>
				<line class="st1" x1="644" y1="40" x2="964" y2="40"/>
				<line class="st1" x1="644" y1="60" x2="964" y2="60"/>
				<line class="st1" x1="644" y1="100" x2="964" y2="100"/>
				<line class="st1" x1="644" y1="120" x2="964" y2="120"/>
				<line class="st1" x1="644" y1="140" x2="964" y2="140"/>
				<line class="st1" x1="644" y1="180" x2="964" y2="180"/>
				<line class="st1" x1="644" y1="200" x2="964" y2="200"/>
				<line class="st1" x1="644" y1="220" x2="964" y2="220"/>
				<line class="st1" x1="644" y1="260" x2="964" y2="260"/>
				<line class="st1" x1="644" y1="280" x2="964" y2="280"/>
				<line class="st1" x1="644" y1="300" x2="964" y2="300"/>
				<line class="st0" x1="644" y1="160" x2="964" y2="160"/>
				<line class="st0" x1="644" y1="240" x2="964" y2="240"/>
				<line class="st0" x1="644" y1="80" x2="964" y2="80"/>
				<line class="st0" x1="964" y1="320" x2="964" y2="0"/>
				<line class="st0" x1="644" y1="320" x2="644" y2="0"/>
				<line class="st1" x1="664" y1="320" x2="664" y2="0"/>
				<line class="st1" x1="684" y1="320" x2="684" y2="0"/>
				<line class="st1" x1="704" y1="320" x2="704" y2="0"/>
				<line class="st1" x1="744" y1="320" x2="744" y2="0"/>
				<line class="st1" x1="764" y1="320" x2="764" y2="0"/>
				<line class="st1" x1="784" y1="320" x2="784" y2="0"/>
				<line class="st1" x1="824" y1="320" x2="824" y2="0"/>
				<line class="st1" x1="844" y1="320" x2="844" y2="0"/>
				<line class="st1" x1="864" y1="320" x2="864" y2="0"/>
				<line class="st1" x1="904" y1="320" x2="904" y2="0"/>
				<line class="st1" x1="924" y1="320" x2="924" y2="0"/>
				<line class="st1" x1="944" y1="320" x2="944" y2="0"/>
				<line class="st0" x1="804" y1="320" x2="804" y2="0"/>
				<line class="st0" x1="724" y1="320" x2="724" y2="0"/>
				<line class="st0" x1="884" y1="320" x2="884" y2="0"/>
			</g>
			<g>
				<line class="st0" x1="964" y1="320" x2="1284" y2="320"/>
				<line class="st1" x1="964" y1="20" x2="1284" y2="20"/>
				<line class="st1" x1="964" y1="40" x2="1284" y2="40"/>
				<line class="st1" x1="964" y1="60" x2="1284" y2="60"/>
				<line class="st1" x1="964" y1="100" x2="1284" y2="100"/>
				<line class="st1" x1="964" y1="120" x2="1284" y2="120"/>
				<line class="st1" x1="964" y1="140" x2="1284" y2="140"/>
				<line class="st1" x1="964" y1="180" x2="1284" y2="180"/>
				<line class="st1" x1="964" y1="200" x2="1284" y2="200"/>
				<line class="st1" x1="964" y1="220" x2="1284" y2="220"/>
				<line class="st1" x1="964" y1="260" x2="1284" y2="260"/>
				<line class="st1" x1="964" y1="280" x2="1284" y2="280"/>
				<line class="st1" x1="964" y1="300" x2="1284" y2="300"/>
				<line class="st0" x1="964" y1="160" x2="1284" y2="160"/>
				<line class="st0" x1="964" y1="240" x2="1284" y2="240"/>
				<line class="st0" x1="964" y1="80" x2="1284" y2="80"/>
				<line class="st0" x1="1284" y1="320" x2="1284" y2="0"/>
				<line class="st0" x1="964" y1="320" x2="964" y2="0"/>
				<line class="st1" x1="984" y1="320" x2="984" y2="0"/>
				<line class="st1" x1="1004" y1="320" x2="1004" y2="0"/>
				<line class="st1" x1="1024" y1="320" x2="1024" y2="0"/>
				<line class="st1" x1="1064" y1="320" x2="1064" y2="0"/>
				<line class="st1" x1="1084" y1="320" x2="1084" y2="0"/>
				<line class="st1" x1="1104" y1="320" x2="1104" y2="0"/>
				<line class="st1" x1="1144" y1="320" x2="1144" y2="0"/>
				<line class="st1" x1="1164" y1="320" x2="1164" y2="0"/>
				<line class="st1" x1="1184" y1="320" x2="1184" y2="0"/>
				<line class="st1" x1="1224" y1="320" x2="1224" y2="0"/>
				<line class="st1" x1="1244" y1="320" x2="1244" y2="0"/>
				<line class="st1" x1="1264" y1="320" x2="1264" y2="0"/>
				<line class="st0" x1="1124" y1="320" x2="1124" y2="0"/>
				<line class="st0" x1="1044" y1="320" x2="1044" y2="0"/>
				<line class="st0" x1="1204" y1="320" x2="1204" y2="0"/>
			</g>
		</g>
	</g>
</g>
</svg>
