<?xml version="1.0" encoding="utf-8"?>
<!-- Generator: Adobe Illustrator 26.3.1, SVG Export Plug-In . SVG Version: 6.00 Build 0)  -->
<svg version="1.1" id="Layer_1" xmlns="http://www.w3.org/2000/svg" xmlns:xlink="http://www.w3.org/1999/xlink" x="0px" y="0px"
	 viewBox="0 0 225 115" style="enable-background:new 0 0 225 115;" xml:space="preserve">
<style type="text/css">
	.st0{fill:#091430;}
	.st1{fill:url(#SVGID_1_);}
	.st2{clip-path:url(#SVGID_00000124861816850735422820000001208089245004244653_);fill:#FFFAEF;}
	.st3{clip-path:url(#SVGID_00000171706647724076518450000006024566942418316935_);fill:#FFFAEF;}
	.st4{clip-path:url(#SVGID_00000043420259195526177070000007012371213195878026_);fill:#FFFAEF;}
	.st5{clip-path:url(#SVGID_00000101814289960345698990000001278713730089115278_);fill:#FFFAEF;}
	.st6{clip-path:url(#SVGID_00000083777659733940271120000015798195729275514508_);fill:#FFFAEF;}
	.st7{fill:#FFFDF7;}
	.st8{fill:#009BFF;}
</style>
<path class="st0" d="M150.48,16.93l-21.83-12.6c-9.99-5.77-22.3-5.77-32.29,0l-21.84,12.6C64.53,22.7,58.37,33.36,58.37,44.9v25.21
	c0,11.54,6.16,22.2,16.15,27.97l12.09,6.98l9.74,5.62c8.7,5.02,19.14,5.65,28.29,1.93c0.85-0.35,1.7-0.72,2.53-1.14
	c0.49-0.25,0.99-0.51,1.47-0.79l9.83-5.68h0.01l12-6.93c9.99-5.77,16.15-16.43,16.15-27.97V44.9
	C166.63,33.36,160.47,22.7,150.48,16.93z"/>
<g>
	<g>
		
			<radialGradient id="SVGID_1_" cx="120.4084" cy="-0.6331" r="81.478" fx="68.8451" fy="62.4532" gradientTransform="matrix(0.983 0 0 -0.983 -7.044 38.0377)" gradientUnits="userSpaceOnUse">
			<stop  offset="0.1384" style="stop-color:#60DBFF"/>
			<stop  offset="0.2205" style="stop-color:#5FD2FF"/>
			<stop  offset="0.3546" style="stop-color:#5EBAFF"/>
			<stop  offset="0.5238" style="stop-color:#5B92FF"/>
			<stop  offset="0.7197" style="stop-color:#585BFF"/>
			<stop  offset="0.8" style="stop-color:#5643FF"/>
			<stop  offset="0.8373" style="stop-color:#563DF8"/>
			<stop  offset="0.8912" style="stop-color:#552EE5"/>
			<stop  offset="0.9549" style="stop-color:#5315C6"/>
			<stop  offset="1" style="stop-color:#5200AB"/>
		</radialGradient>
		<path class="st1" d="M145.83,21.9l-19.16-11.06c-8.77-5.06-19.57-5.06-28.34,0L79.17,21.9C70.4,26.96,65,36.32,65,46.44v22.13
			c0,10.12,5.4,19.48,14.17,24.54l10.61,6.13l8.55,4.94c7.63,4.41,16.8,4.96,24.83,1.69c0.75-0.3,1.49-0.63,2.22-1
			c0.43-0.22,0.87-0.44,1.29-0.69l8.63-4.98h0.01l10.53-6.08C154.6,88.05,160,78.69,160,68.57V46.44
			C160,36.32,154.6,26.96,145.83,21.9z"/>
	</g>
</g>
<g>
	<g>
		<defs>
			<path id="SVGID_00000031915873625437663260000012862166348543586697_" d="M145.83,21.9l-19.16-11.06
				c-8.77-5.06-19.57-5.06-28.34,0L79.17,21.9C70.4,26.96,65,36.32,65,46.44v22.13c0,10.12,5.4,19.48,14.17,24.54l10.61,6.13
				l8.55,4.94c7.63,4.41,16.8,4.96,24.83,1.69c0.75-0.3,1.49-0.63,2.22-1c0.43-0.22,0.87-0.44,1.29-0.69l8.63-4.98h0.01l10.53-6.08
				C154.6,88.05,160,78.69,160,68.57V46.44C160,36.32,154.6,26.96,145.83,21.9z"/>
		</defs>
		<clipPath id="SVGID_00000095327943180229209360000000235163514734623876_">
			<use xlink:href="#SVGID_00000031915873625437663260000012862166348543586697_"  style="overflow:visible;"/>
		</clipPath>
		<path style="clip-path:url(#SVGID_00000095327943180229209360000000235163514734623876_);fill:#FFFAEF;" d="M114.43,67.83h-3.81
			c0,10.02-4.43,18.99-11.44,25.09l1.35,0.78c6.41,3.7,14.11,4.16,20.86,1.42c0.63-0.26,1.25-0.53,1.87-0.84
			c0.36-0.19,0.73-0.37,1.09-0.58l1.48-0.86C118.86,86.74,114.43,77.79,114.43,67.83z"/>
	</g>
	<g>
		<defs>
			<path id="SVGID_00000129905656682725385100000014838912009631732370_" d="M145.83,21.9l-19.16-11.06
				c-8.77-5.06-19.57-5.06-28.34,0L79.17,21.9C70.4,26.96,65,36.32,65,46.44v22.13c0,10.12,5.4,19.48,14.17,24.54l10.61,6.13
				l8.55,4.94c7.63,4.41,16.8,4.96,24.83,1.69c0.75-0.3,1.49-0.63,2.22-1c0.43-0.22,0.87-0.44,1.29-0.69l8.63-4.98h0.01l10.53-6.08
				C154.6,88.05,160,78.69,160,68.57V46.44C160,36.32,154.6,26.96,145.83,21.9z"/>
		</defs>
		<clipPath id="SVGID_00000147216249536488013920000001513905501667943586_">
			<use xlink:href="#SVGID_00000129905656682725385100000014838912009631732370_"  style="overflow:visible;"/>
		</clipPath>
		<path style="clip-path:url(#SVGID_00000147216249536488013920000001513905501667943586_);fill:#FFFAEF;" d="M124.84,49.99
			c-0.16-0.16-0.34-0.43-0.31-0.63c0.39-3.51,0.02-6.98-0.62-10.42c-1.38-7.39-4.45-14.04-8.97-20.03
			c-0.74-0.98-1.56-1.89-2.38-2.87c-0.22,0.22-0.38,0.35-0.5,0.51c-0.82,0.99-1.68,1.95-2.44,2.99c-4.16,5.72-7.06,12.01-8.42,18.97
			c-0.7,3.58-1.11,7.19-0.7,10.86c0.02,0.18-0.11,0.42-0.24,0.56c-0.79,0.87-1.65,1.68-2.39,2.59c-1.16,1.42-1.77,3.03-1.6,4.92
			c0.22,2.46,0.86,4.81,1.86,7.06c0.64,1.44,1.39,2.82,2.15,4.35c2.02-2.69,3.93-5.23,5.87-7.81c0.69,0.69,1.31,1.34,1.97,1.94
			c0.21,0.19,0.54,0.34,0.82,0.34c2.37,0.03,4.74,0.01,7.11,0.02c0.39,0,0.67-0.1,0.93-0.38c0.61-0.65,1.25-1.26,1.92-1.93
			c1.95,2.6,3.85,5.12,5.82,7.75c0.49-0.9,0.96-1.69,1.38-2.52c1.47-2.95,2.54-6.01,2.69-9.34c0.05-1.12-0.23-2.14-0.76-3.11
			C127.21,52.32,126.04,51.14,124.84,49.99z M115.22,40.33c-1.51,1.5-3.95,1.49-5.44-0.01c-1.45-1.46-1.45-3.89,0-5.35
			c1.55-1.55,3.92-1.54,5.46,0.02C116.69,36.45,116.68,38.88,115.22,40.33z"/>
	</g>
	<g>
		<defs>
			<path id="SVGID_00000096778489197219608300000015756697419339892109_" d="M145.83,21.9l-19.16-11.06
				c-8.77-5.06-19.57-5.06-28.34,0L79.17,21.9C70.4,26.96,65,36.32,65,46.44v22.13c0,10.12,5.4,19.48,14.17,24.54l10.61,6.13
				l8.55,4.94c7.63,4.41,16.8,4.96,24.83,1.69c0.75-0.3,1.49-0.63,2.22-1c0.43-0.22,0.87-0.44,1.29-0.69l8.63-4.98h0.01l10.53-6.08
				C154.6,88.05,160,78.69,160,68.57V46.44C160,36.32,154.6,26.96,145.83,21.9z"/>
		</defs>
		<clipPath id="SVGID_00000030476965328932563980000006250019912744640939_">
			<use xlink:href="#SVGID_00000096778489197219608300000015756697419339892109_"  style="overflow:visible;"/>
		</clipPath>
		<path style="clip-path:url(#SVGID_00000030476965328932563980000006250019912744640939_);fill:#FFFAEF;" d="M85.76,68.84
			l-2.03-0.69c-0.75-0.26-1.31-0.88-1.47-1.67l-0.86-4.26c-0.02-0.11-0.12-0.18-0.23-0.18s-0.21,0.07-0.23,0.18l-0.86,4.26
			c-0.16,0.77-0.71,1.41-1.46,1.67l-2.03,0.69c-0.1,0.04-0.16,0.12-0.16,0.22s0.06,0.18,0.16,0.22l2.03,0.69
			c0.75,0.26,1.31,0.88,1.46,1.67l0.86,4.26c0.02,0.11,0.12,0.18,0.23,0.18s0.21-0.07,0.23-0.18l0.86-4.26
			c0.16-0.77,0.71-1.41,1.47-1.67l2.03-0.69c0.1-0.04,0.16-0.12,0.16-0.22C85.92,68.96,85.86,68.88,85.76,68.84z"/>
	</g>
	<g>
		<defs>
			<path id="SVGID_00000060723723022683466910000017221292682633909415_" d="M145.83,21.9l-19.16-11.06
				c-8.77-5.06-19.57-5.06-28.34,0L79.17,21.9C70.4,26.96,65,36.32,65,46.44v22.13c0,10.12,5.4,19.48,14.17,24.54l10.61,6.13
				l8.55,4.94c7.63,4.41,16.8,4.96,24.83,1.69c0.75-0.3,1.49-0.63,2.22-1c0.43-0.22,0.87-0.44,1.29-0.69l8.63-4.98h0.01l10.53-6.08
				C154.6,88.05,160,78.69,160,68.57V46.44C160,36.32,154.6,26.96,145.83,21.9z"/>
		</defs>
		<clipPath id="SVGID_00000070120790220641217380000014263739619583810948_">
			<use xlink:href="#SVGID_00000060723723022683466910000017221292682633909415_"  style="overflow:visible;"/>
		</clipPath>
		<path style="clip-path:url(#SVGID_00000070120790220641217380000014263739619583810948_);fill:#FFFAEF;" d="M94.27,30.42
			l-1.59-0.54c-0.58-0.2-1.02-0.69-1.15-1.31l-0.67-3.34c-0.02-0.09-0.09-0.14-0.18-0.14c-0.09,0-0.16,0.06-0.18,0.14l-0.67,3.34
			c-0.12,0.61-0.56,1.11-1.14,1.31l-1.59,0.54c-0.08,0.03-0.12,0.1-0.12,0.17c0,0.08,0.05,0.14,0.12,0.17l1.59,0.54
			c0.58,0.2,1.03,0.69,1.14,1.31l0.67,3.34c0.02,0.09,0.09,0.14,0.18,0.14c0.09,0,0.16-0.06,0.18-0.14l0.67-3.34
			c0.13-0.61,0.56-1.11,1.15-1.31l1.59-0.54c0.08-0.03,0.12-0.1,0.12-0.17C94.39,30.51,94.34,30.44,94.27,30.42z"/>
	</g>
	<g>
		<defs>
			<path id="SVGID_00000171690803240831407000000004925910929679903419_" d="M145.83,21.9l-19.16-11.06
				c-8.77-5.06-19.57-5.06-28.34,0L79.17,21.9C70.4,26.96,65,36.32,65,46.44v22.13c0,10.12,5.4,19.48,14.17,24.54l10.61,6.13
				l8.55,4.94c7.63,4.41,16.8,4.96,24.83,1.69c0.75-0.3,1.49-0.63,2.22-1c0.43-0.22,0.87-0.44,1.29-0.69l8.63-4.98h0.01l10.53-6.08
				C154.6,88.05,160,78.69,160,68.57V46.44C160,36.32,154.6,26.96,145.83,21.9z"/>
		</defs>
		<clipPath id="SVGID_00000105401946185005169520000017295674029514183839_">
			<use xlink:href="#SVGID_00000171690803240831407000000004925910929679903419_"  style="overflow:visible;"/>
		</clipPath>
		<path style="clip-path:url(#SVGID_00000105401946185005169520000017295674029514183839_);fill:#FFFAEF;" d="M151.71,57.44
			l-2.73-0.92c-1-0.34-1.75-1.19-1.96-2.24l-1.15-5.71c-0.03-0.15-0.16-0.25-0.31-0.25s-0.28,0.1-0.31,0.25l-1.15,5.71
			c-0.21,1.04-0.95,1.89-1.96,2.24l-2.73,0.92c-0.13,0.04-0.21,0.16-0.21,0.29c0,0.14,0.08,0.26,0.21,0.29l2.73,0.92
			c1.01,0.34,1.75,1.19,1.96,2.24l1.15,5.71c0.02,0.15,0.16,0.25,0.31,0.25s0.27-0.11,0.31-0.25l1.15-5.71
			c0.21-1.04,0.96-1.89,1.96-2.24l2.73-0.92c0.12-0.04,0.21-0.16,0.21-0.29C151.92,57.6,151.83,57.48,151.71,57.44z"/>
	</g>
</g>
<path class="st0" d="M219,115H6c-2.76,0-5-2.24-5-5V93c0-2.76,2.24-5,5-5c0,0,94.19,0,98.06,0s5.46,4.72,5.46,4.72
	S111.1,88,114.81,88C118.52,88,219,88,219,88c2.76,0,5,2.24,5,5v17C224,112.76,221.76,115,219,115z"/>
<g>
	<g>
		<path class="st7" d="M24.57,96.18c0.13,0.13,0.18,0.31,0.18,0.48v3.52c0,0.29-0.09,0.53-0.29,0.73l-1.85,1.74l2.44,5.17
			c0.11,0.24,0.15,0.37,0.15,0.64v0.24c0,0.24-0.02,0.4-0.35,0.4h-3.32c-0.15,0-0.29-0.09-0.35-0.24l-2.22-5.24h-7.85v5.13
			c0,0.24-0.11,0.35-0.35,0.35H7.3c-0.22,0-0.33-0.11-0.33-0.35V94.53c0-0.42,0.2-0.64,0.62-0.64h14.19c0.26,0,0.48,0.09,0.66,0.26
			L24.57,96.18z M19.44,96.34c-0.09-0.09-0.2-0.13-0.35-0.13h-7.61c-0.24,0-0.37,0.13-0.37,0.42v4.77h8.03l1.32-1.23
			c0.11-0.11,0.15-0.2,0.15-0.31v-2.2c0-0.13-0.04-0.24-0.15-0.35L19.44,96.34z"/>
		<path class="st7" d="M45.25,107.79c0.09,0.24,0.15,0.42,0.15,0.64v0.31c0,0.24-0.11,0.35-0.33,0.35h-3.34
			c-0.15,0-0.24-0.09-0.31-0.26l-1.06-2.88h-9.33L30,108.83c-0.07,0.15-0.18,0.26-0.33,0.26h-2.71c-0.22,0-0.33-0.11-0.33-0.35
			v-0.31c0-0.22,0.07-0.4,0.15-0.64l4.84-13.47c0.09-0.26,0.44-0.44,0.64-0.44h7.5c0.33,0,0.53,0.15,0.64,0.44L45.25,107.79z
			 M34.8,96.21c-0.13,0-0.22,0.04-0.24,0.13l-2.73,7.44h7.75l-2.73-7.46c-0.02-0.07-0.09-0.11-0.2-0.11H34.8z"/>
		<path class="st7" d="M62.8,95.88c0,0.22-0.11,0.33-0.35,0.33h-9.48c-0.13,0-0.24,0.04-0.33,0.13l-1.08,1.03
			c-0.07,0.07-0.11,0.18-0.11,0.31v7.28c0,0.13,0.02,0.26,0.11,0.33l1.45,1.36c0.11,0.09,0.22,0.13,0.37,0.13h9.07
			c0.24,0,0.35,0.11,0.35,0.35v1.61c0,0.24-0.11,0.35-0.35,0.35H50.97c-0.22,0-0.42-0.09-0.57-0.24l-2.93-2.75
			c-0.13-0.13-0.2-0.29-0.2-0.48v-8.96c0-0.2,0.07-0.35,0.2-0.48l2.13-2.05c0.15-0.15,0.35-0.24,0.57-0.24h12.28
			c0.24,0,0.35,0.11,0.35,0.35C62.8,94.23,62.8,95.88,62.8,95.88z"/>
		<path class="st7" d="M80.87,95.88c0,0.22-0.11,0.33-0.35,0.33h-9.9c-0.13,0-0.24,0.04-0.35,0.15l-1.01,0.97
			c-0.11,0.11-0.15,0.24-0.15,0.4v2.49h11.27c0.24,0,0.35,0.11,0.35,0.33v1.55c0,0.22-0.11,0.33-0.35,0.33H69.09v2.51
			c0,0.15,0.04,0.26,0.15,0.37l1.41,1.32c0.11,0.11,0.22,0.15,0.37,0.15h9.51c0.24,0,0.35,0.11,0.35,0.35v1.61
			c0,0.24-0.11,0.35-0.35,0.35H68.68c-0.24,0-0.46-0.09-0.66-0.24l-2.9-2.75c-0.13-0.13-0.2-0.29-0.2-0.48v-8.96
			c0-0.2,0.07-0.35,0.2-0.48l2.11-2.02c0.18-0.18,0.37-0.26,0.62-0.26h12.67c0.24,0,0.35,0.11,0.35,0.35V95.88z"/>
		<path class="st8" d="M98.14,95.99c0.11,0.11,0.15,0.26,0.15,0.46v3.34c0,0.24-0.04,0.4-0.15,0.51l-1.87,2.11
			c-0.11,0.13-0.26,0.2-0.46,0.2h-7.68c-0.11,0-0.2,0.02-0.26,0.09l-0.95,0.81c-0.11,0.09-0.15,0.22-0.15,0.37v2.66
			c0,0.15,0.09,0.24,0.24,0.24h11.05c0.22,0,0.33,0.11,0.33,0.35v1.61c0,0.24-0.11,0.35-0.33,0.35H83.61
			c-0.42,0-0.62-0.22-0.62-0.66v-5.54c0-0.29,0.09-0.51,0.26-0.66l1.98-1.76c0.24-0.2,0.51-0.31,0.79-0.31h7.92
			c0.11,0,0.2-0.04,0.29-0.13l0.76-0.79c0.11-0.15,0.15-0.31,0.15-0.51V97.4c0-0.09-0.04-0.2-0.13-0.31l-0.73-0.77
			c-0.09-0.09-0.2-0.13-0.31-0.13h-9.86c-0.24,0-0.35-0.11-0.35-0.33v-1.63c0-0.24,0.11-0.35,0.35-0.35h11.75
			c0.22,0,0.4,0.09,0.53,0.24L98.14,95.99z"/>
		<path class="st7" d="M118.46,106.06c0,0.18-0.07,0.33-0.2,0.44l-2.38,2.29c-0.22,0.2-0.51,0.31-0.81,0.31h-11
			c-0.31,0-0.59-0.11-0.81-0.31l-2.38-2.29c-0.13-0.11-0.2-0.26-0.2-0.44V94.25c0-0.22,0.11-0.35,0.35-0.35h3.5
			c0.22,0,0.33,0.13,0.33,0.35v11c0,0.13,0.07,0.22,0.13,0.29l1.25,1.14c0.09,0.09,0.15,0.11,0.29,0.11h6.14
			c0.13,0,0.2-0.02,0.29-0.11l1.25-1.14c0.07-0.07,0.13-0.15,0.13-0.29v-11c0-0.22,0.11-0.35,0.33-0.35h3.43
			c0.24,0,0.35,0.13,0.35,0.35L118.46,106.06L118.46,106.06z"/>
		<path class="st7" d="M138.4,96.18c0.13,0.13,0.18,0.31,0.18,0.48v3.52c0,0.29-0.09,0.53-0.29,0.73l-1.85,1.74l2.44,5.17
			c0.11,0.24,0.15,0.37,0.15,0.64v0.24c0,0.24-0.02,0.4-0.35,0.4h-3.32c-0.15,0-0.29-0.09-0.35-0.24l-2.22-5.24h-7.86v5.13
			c0,0.24-0.11,0.35-0.35,0.35h-3.45c-0.22,0-0.33-0.11-0.33-0.35V94.53c0-0.42,0.2-0.64,0.62-0.64h14.19
			c0.26,0,0.48,0.09,0.66,0.26L138.4,96.18z M133.27,96.34c-0.09-0.09-0.2-0.13-0.35-0.13h-7.61c-0.24,0-0.37,0.13-0.37,0.42v4.77
			h8.03l1.32-1.23c0.11-0.11,0.15-0.2,0.15-0.31v-2.2c0-0.13-0.04-0.24-0.15-0.35L133.27,96.34z"/>
		<path class="st7" d="M159.08,107.79c0.09,0.24,0.15,0.42,0.15,0.64v0.31c0,0.24-0.11,0.35-0.33,0.35h-3.34
			c-0.15,0-0.24-0.09-0.31-0.26l-1.06-2.88h-9.33l-1.03,2.88c-0.07,0.15-0.18,0.26-0.33,0.26h-2.71c-0.22,0-0.33-0.11-0.33-0.35
			v-0.31c0-0.22,0.07-0.4,0.15-0.64l4.84-13.47c0.09-0.26,0.44-0.44,0.64-0.44h7.5c0.33,0,0.53,0.15,0.64,0.44L159.08,107.79z
			 M148.63,96.21c-0.13,0-0.22,0.04-0.24,0.13l-2.73,7.44h7.75l-2.73-7.46c-0.02-0.07-0.09-0.11-0.2-0.11H148.63z"/>
		<path class="st7" d="M178.63,108.51c0,0.4-0.18,0.59-0.55,0.59h-2.18c-0.42,0-0.77-0.15-1.08-0.46l-10.47-9.83v9.95
			c0,0.24-0.11,0.35-0.33,0.35h-2.44c-0.22,0-0.33-0.11-0.33-0.35V94.49c0-0.4,0.18-0.59,0.55-0.59h2.18c0.42,0,0.77,0.15,1.08,0.46
			l10.39,9.88v-9.99c0-0.24,0.11-0.35,0.35-0.35h2.51c0.22,0,0.33,0.11,0.33,0.35L178.63,108.51L178.63,108.51z"/>
		<path class="st7" d="M198.74,106.06c0,0.18-0.07,0.33-0.2,0.44l-2.38,2.29c-0.22,0.2-0.51,0.31-0.81,0.31h-11
			c-0.31,0-0.59-0.11-0.81-0.31l-2.38-2.29c-0.13-0.11-0.2-0.26-0.2-0.44V94.25c0-0.22,0.11-0.35,0.35-0.35h3.5
			c0.22,0,0.33,0.13,0.33,0.35v11c0,0.13,0.07,0.22,0.13,0.29l1.25,1.14c0.09,0.09,0.15,0.11,0.29,0.11h6.14
			c0.13,0,0.2-0.02,0.29-0.11l1.25-1.14c0.07-0.07,0.13-0.15,0.13-0.29v-11c0-0.22,0.11-0.35,0.33-0.35h3.43
			c0.24,0,0.35,0.13,0.35,0.35L198.74,106.06L198.74,106.06z"/>
		<path class="st7" d="M217.75,95.88c0,0.22-0.11,0.33-0.35,0.33h-10.85c-0.2,0-0.35,0.07-0.48,0.2l-0.77,0.75
			c-0.13,0.11-0.2,0.26-0.2,0.44v1.25c0,0.11,0.04,0.2,0.13,0.29l0.88,0.86c0.09,0.09,0.18,0.13,0.29,0.13h8.96
			c0.31,0,0.57,0.11,0.77,0.31l1.61,1.72c0.2,0.22,0.29,0.44,0.29,0.68v3.41c0,0.24-0.09,0.44-0.26,0.62l-2.02,1.94
			c-0.24,0.2-0.51,0.31-0.79,0.31H201.1c-0.22,0-0.33-0.11-0.33-0.35v-1.61c0-0.24,0.11-0.35,0.33-0.35h11.46
			c0.2,0,0.35-0.04,0.51-0.15l0.75-0.77c0.11-0.11,0.15-0.22,0.15-0.35v-1.72c-0.02-0.07-0.07-0.11-0.13-0.18l-0.86-0.84
			c-0.11-0.11-0.26-0.15-0.42-0.18h-9.17c-0.15,0-0.31-0.04-0.44-0.18l-1.65-1.83c-0.24-0.24-0.29-0.4-0.29-0.73v-3.26
			c0-0.33,0.18-0.48,0.42-0.68l1.89-1.78c0.18-0.18,0.4-0.26,0.66-0.26h13.44c0.24,0,0.35,0.11,0.35,0.35v1.63H217.75z"/>
	</g>
</g>
</svg>
