<?xml version="1.0" encoding="utf-8"?>
<!-- Generator: Adobe Illustrator 26.5.0, SVG Export Plug-In . SVG Version: 6.00 Build 0)  -->
<svg version="1.1" id="Layer_1" xmlns="http://www.w3.org/2000/svg" xmlns:xlink="http://www.w3.org/1999/xlink" x="0px" y="0px"
	 viewBox="0 0 225 115" style="enable-background:new 0 0 225 115;" xml:space="preserve">
<style type="text/css">
	.st0{fill:#091430;}
	.st1{fill:url(#SVGID_1_);}
	.st2{clip-path:url(#SVGID_00000017490443815888644270000018035722761809753275_);fill:#FFFAEF;}
	.st3{clip-path:url(#SVGID_00000041988619368798611940000012973434643967408554_);fill:#FFFAEF;}
	.st4{clip-path:url(#SVGID_00000041988861373333106570000006627958244444288933_);fill:#FFFAEF;}
	.st5{clip-path:url(#SVGID_00000112626700586720516070000011359661135223218592_);fill:#FFFAEF;}
	.st6{clip-path:url(#SVGID_00000052071600291064250960000003128616358262746284_);fill:#FFFAEF;}
	.st7{fill:#FFFDF7;}
	.st8{fill:#009BFF;}
</style>
<path class="st0" d="M150.5,16.9L128.6,4.3c-10-5.8-22.3-5.8-32.3,0L74.5,16.9c-10,5.8-16.1,16.4-16.1,28v25.2
	c0,11.5,6.2,22.2,16.1,28l12.1,7l9.7,5.6c8.7,5,19.1,5.7,28.3,1.9c0.8-0.3,1.7-0.7,2.5-1.1c0.5-0.2,1-0.5,1.5-0.8l9.8-5.7h0l12-6.9
	c10-5.8,16.1-16.4,16.1-28V44.9C166.6,33.4,160.5,22.7,150.5,16.9z"/>
<g>
	<g>
		<g>
			
				<radialGradient id="SVGID_1_" cx="128.8306" cy="635.0776" r="81.478" fx="77.2673" fy="698.1639" gradientTransform="matrix(0.983 0 0 0.983 -15.323 -585.6213)" gradientUnits="userSpaceOnUse">
				<stop  offset="0" style="stop-color:#60DBFF"/>
				<stop  offset="9.936358e-02" style="stop-color:#5FD2FF"/>
				<stop  offset="0.2614" style="stop-color:#5EBAFF"/>
				<stop  offset="0.4661" style="stop-color:#5B92FF"/>
				<stop  offset="0.7029" style="stop-color:#585BFF"/>
				<stop  offset="0.8" style="stop-color:#5643FF"/>
				<stop  offset="0.8373" style="stop-color:#563DF8"/>
				<stop  offset="0.8912" style="stop-color:#552EE5"/>
				<stop  offset="0.9549" style="stop-color:#5315C6"/>
				<stop  offset="1" style="stop-color:#5200AB"/>
			</radialGradient>
			<path class="st1" d="M145.8,21.9l-19.2-11.1c-8.8-5.1-19.6-5.1-28.3,0L79.2,21.9C70.4,27,65,36.3,65,46.4v22.1
				c0,10.1,5.4,19.5,14.2,24.5l10.6,6.1l8.6,4.9c7.6,4.4,16.8,5,24.8,1.7c0.8-0.3,1.5-0.6,2.2-1c0.4-0.2,0.9-0.4,1.3-0.7l8.6-5h0
				l10.5-6.1c8.8-5.1,14.2-14.4,14.2-24.5V46.4C160,36.3,154.6,27,145.8,21.9z"/>
		</g>
	</g>
</g>
<g>
	<g>
		<g>
			<defs>
				<path id="SVGID_00000088132997246524077370000012393543223745133247_" d="M145.8,21.9l-19.2-11.1c-8.8-5.1-19.6-5.1-28.3,0
					L79.2,21.9C70.4,27,65,36.3,65,46.4v22.1c0,10.1,5.4,19.5,14.2,24.5l10.6,6.1l8.6,4.9c7.6,4.4,16.8,5,24.8,1.7
					c0.8-0.3,1.5-0.6,2.2-1c0.4-0.2,0.9-0.4,1.3-0.7l8.6-5h0l10.5-6.1c8.8-5.1,14.2-14.4,14.2-24.5V46.4
					C160,36.3,154.6,27,145.8,21.9z"/>
			</defs>
			<clipPath id="SVGID_00000101797205082219170400000017016025513790648245_">
				<use xlink:href="#SVGID_00000088132997246524077370000012393543223745133247_"  style="overflow:visible;"/>
			</clipPath>
			<path style="clip-path:url(#SVGID_00000101797205082219170400000017016025513790648245_);fill:#FFFAEF;" d="M114.4,67.8h-3.8
				c0,10-4.4,19-11.4,25.1l1.3,0.8c6.4,3.7,14.1,4.2,20.9,1.4c0.6-0.3,1.2-0.5,1.9-0.8c0.4-0.2,0.7-0.4,1.1-0.6l1.5-0.9
				C118.9,86.7,114.4,77.8,114.4,67.8z"/>
		</g>
	</g>
	<g>
		<g>
			<defs>
				<path id="SVGID_00000080188078070083422270000004351987352628770736_" d="M145.8,21.9l-19.2-11.1c-8.8-5.1-19.6-5.1-28.3,0
					L79.2,21.9C70.4,27,65,36.3,65,46.4v22.1c0,10.1,5.4,19.5,14.2,24.5l10.6,6.1l8.6,4.9c7.6,4.4,16.8,5,24.8,1.7
					c0.8-0.3,1.5-0.6,2.2-1c0.4-0.2,0.9-0.4,1.3-0.7l8.6-5h0l10.5-6.1c8.8-5.1,14.2-14.4,14.2-24.5V46.4
					C160,36.3,154.6,27,145.8,21.9z"/>
			</defs>
			<clipPath id="SVGID_00000005224341869912658090000013149342396338530743_">
				<use xlink:href="#SVGID_00000080188078070083422270000004351987352628770736_"  style="overflow:visible;"/>
			</clipPath>
			<path style="clip-path:url(#SVGID_00000005224341869912658090000013149342396338530743_);fill:#FFFAEF;" d="M124.8,50
				c-0.2-0.2-0.3-0.4-0.3-0.6c0.4-3.5,0-7-0.6-10.4c-1.4-7.4-4.4-14-9-20c-0.7-1-1.6-1.9-2.4-2.9c-0.2,0.2-0.4,0.4-0.5,0.5
				c-0.8,1-1.7,2-2.4,3c-4.2,5.7-7.1,12-8.4,19c-0.7,3.6-1.1,7.2-0.7,10.9c0,0.2-0.1,0.4-0.2,0.6c-0.8,0.9-1.7,1.7-2.4,2.6
				c-1.2,1.4-1.8,3-1.6,4.9c0.2,2.5,0.9,4.8,1.9,7.1c0.6,1.4,1.4,2.8,2.2,4.3c2-2.7,3.9-5.2,5.9-7.8c0.7,0.7,1.3,1.3,2,1.9
				c0.2,0.2,0.5,0.3,0.8,0.3c2.4,0,4.7,0,7.1,0c0.4,0,0.7-0.1,0.9-0.4c0.6-0.7,1.2-1.3,1.9-1.9c1.9,2.6,3.8,5.1,5.8,7.8
				c0.5-0.9,1-1.7,1.4-2.5c1.5-3,2.5-6,2.7-9.3c0.1-1.1-0.2-2.1-0.8-3.1C127.2,52.3,126,51.1,124.8,50z M115.2,40.3
				c-1.5,1.5-3.9,1.5-5.4,0c-1.4-1.5-1.4-3.9,0-5.3c1.6-1.5,3.9-1.5,5.5,0C116.7,36.5,116.7,38.9,115.2,40.3z"/>
		</g>
	</g>
	<g>
		<g>
			<defs>
				<path id="SVGID_00000136390850696803337900000005704790068720900739_" d="M145.8,21.9l-19.2-11.1c-8.8-5.1-19.6-5.1-28.3,0
					L79.2,21.9C70.4,27,65,36.3,65,46.4v22.1c0,10.1,5.4,19.5,14.2,24.5l10.6,6.1l8.6,4.9c7.6,4.4,16.8,5,24.8,1.7
					c0.8-0.3,1.5-0.6,2.2-1c0.4-0.2,0.9-0.4,1.3-0.7l8.6-5h0l10.5-6.1c8.8-5.1,14.2-14.4,14.2-24.5V46.4
					C160,36.3,154.6,27,145.8,21.9z"/>
			</defs>
			<clipPath id="SVGID_00000015320000844045615370000000382939797867746454_">
				<use xlink:href="#SVGID_00000136390850696803337900000005704790068720900739_"  style="overflow:visible;"/>
			</clipPath>
			<path style="clip-path:url(#SVGID_00000015320000844045615370000000382939797867746454_);fill:#FFFAEF;" d="M85.8,68.8l-2-0.7
				c-0.8-0.3-1.3-0.9-1.5-1.7l-0.9-4.3c0-0.1-0.1-0.2-0.2-0.2s-0.2,0.1-0.2,0.2l-0.9,4.3c-0.2,0.8-0.7,1.4-1.5,1.7l-2,0.7
				c-0.1,0-0.2,0.1-0.2,0.2s0.1,0.2,0.2,0.2l2,0.7c0.8,0.3,1.3,0.9,1.5,1.7l0.9,4.3c0,0.1,0.1,0.2,0.2,0.2s0.2-0.1,0.2-0.2l0.9-4.3
				c0.2-0.8,0.7-1.4,1.5-1.7l2-0.7c0.1,0,0.2-0.1,0.2-0.2C85.9,69,85.9,68.9,85.8,68.8z"/>
		</g>
	</g>
	<g>
		<g>
			<defs>
				<path id="SVGID_00000075147165400353916790000007104396208753531794_" d="M145.8,21.9l-19.2-11.1c-8.8-5.1-19.6-5.1-28.3,0
					L79.2,21.9C70.4,27,65,36.3,65,46.4v22.1c0,10.1,5.4,19.5,14.2,24.5l10.6,6.1l8.6,4.9c7.6,4.4,16.8,5,24.8,1.7
					c0.8-0.3,1.5-0.6,2.2-1c0.4-0.2,0.9-0.4,1.3-0.7l8.6-5h0l10.5-6.1c8.8-5.1,14.2-14.4,14.2-24.5V46.4
					C160,36.3,154.6,27,145.8,21.9z"/>
			</defs>
			<clipPath id="SVGID_00000163785602959453568240000005204593782916704166_">
				<use xlink:href="#SVGID_00000075147165400353916790000007104396208753531794_"  style="overflow:visible;"/>
			</clipPath>
			<path style="clip-path:url(#SVGID_00000163785602959453568240000005204593782916704166_);fill:#FFFAEF;" d="M94.3,30.4l-1.6-0.5
				c-0.6-0.2-1-0.7-1.2-1.3l-0.7-3.3c0-0.1-0.1-0.1-0.2-0.1c-0.1,0-0.2,0.1-0.2,0.1l-0.7,3.3c-0.1,0.6-0.6,1.1-1.1,1.3l-1.6,0.5
				c-0.1,0-0.1,0.1-0.1,0.2c0,0.1,0.1,0.1,0.1,0.2l1.6,0.5c0.6,0.2,1,0.7,1.1,1.3l0.7,3.3c0,0.1,0.1,0.1,0.2,0.1
				c0.1,0,0.2-0.1,0.2-0.1l0.7-3.3c0.1-0.6,0.6-1.1,1.2-1.3l1.6-0.5c0.1,0,0.1-0.1,0.1-0.2C94.4,30.5,94.3,30.4,94.3,30.4z"/>
		</g>
	</g>
	<g>
		<g>
			<defs>
				<path id="SVGID_00000137127848755774849190000006494495118812790921_" d="M145.8,21.9l-19.2-11.1c-8.8-5.1-19.6-5.1-28.3,0
					L79.2,21.9C70.4,27,65,36.3,65,46.4v22.1c0,10.1,5.4,19.5,14.2,24.5l10.6,6.1l8.6,4.9c7.6,4.4,16.8,5,24.8,1.7
					c0.8-0.3,1.5-0.6,2.2-1c0.4-0.2,0.9-0.4,1.3-0.7l8.6-5h0l10.5-6.1c8.8-5.1,14.2-14.4,14.2-24.5V46.4
					C160,36.3,154.6,27,145.8,21.9z"/>
			</defs>
			<clipPath id="SVGID_00000137106064160694821170000009872568960479093663_">
				<use xlink:href="#SVGID_00000137127848755774849190000006494495118812790921_"  style="overflow:visible;"/>
			</clipPath>
			<path style="clip-path:url(#SVGID_00000137106064160694821170000009872568960479093663_);fill:#FFFAEF;" d="M151.7,57.4l-2.7-0.9
				c-1-0.3-1.8-1.2-2-2.2l-1.1-5.7c0-0.2-0.2-0.2-0.3-0.2s-0.3,0.1-0.3,0.2l-1.1,5.7c-0.2,1-0.9,1.9-2,2.2l-2.7,0.9
				c-0.1,0-0.2,0.2-0.2,0.3c0,0.1,0.1,0.3,0.2,0.3l2.7,0.9c1,0.3,1.8,1.2,2,2.2l1.1,5.7c0,0.2,0.2,0.2,0.3,0.2s0.3-0.1,0.3-0.2
				l1.1-5.7c0.2-1,1-1.9,2-2.2l2.7-0.9c0.1,0,0.2-0.2,0.2-0.3C151.9,57.6,151.8,57.5,151.7,57.4z"/>
		</g>
	</g>
</g>
<path class="st0" d="M219,115H6c-2.8,0-5-2.2-5-5V93c0-2.8,2.2-5,5-5c0,0,94.2,0,98.1,0s5.5,4.7,5.5,4.7s1.6-4.7,5.3-4.7
	S219,88,219,88c2.8,0,5,2.2,5,5v17C224,112.8,221.8,115,219,115z"/>
<g>
	<g>
		<path class="st7" d="M24.6,96.2c0.1,0.1,0.2,0.3,0.2,0.5v3.5c0,0.3-0.1,0.5-0.3,0.7l-1.9,1.7l2.4,5.2c0.1,0.2,0.1,0.4,0.1,0.6v0.2
			c0,0.2,0,0.4-0.4,0.4h-3.3c-0.1,0-0.3-0.1-0.4-0.2l-2.2-5.2h-7.9v5.1c0,0.2-0.1,0.3-0.4,0.3H7.3c-0.2,0-0.3-0.1-0.3-0.3V94.5
			c0-0.4,0.2-0.6,0.6-0.6h14.2c0.3,0,0.5,0.1,0.7,0.3L24.6,96.2z M19.4,96.3c-0.1-0.1-0.2-0.1-0.4-0.1h-7.6c-0.2,0-0.4,0.1-0.4,0.4
			v4.8h8l1.3-1.2c0.1-0.1,0.1-0.2,0.1-0.3v-2.2c0-0.1,0-0.2-0.1-0.3L19.4,96.3z"/>
		<path class="st7" d="M45.2,107.8c0.1,0.2,0.2,0.4,0.2,0.6v0.3c0,0.2-0.1,0.3-0.3,0.3h-3.3c-0.2,0-0.2-0.1-0.3-0.3l-1.1-2.9H31
			l-1,2.9c-0.1,0.2-0.2,0.3-0.3,0.3H27c-0.2,0-0.3-0.1-0.3-0.3v-0.3c0-0.2,0.1-0.4,0.1-0.6l4.8-13.5c0.1-0.3,0.4-0.4,0.6-0.4h7.5
			c0.3,0,0.5,0.2,0.6,0.4L45.2,107.8z M34.8,96.2c-0.1,0-0.2,0-0.2,0.1l-2.7,7.4h7.8l-2.7-7.5c0-0.1-0.1-0.1-0.2-0.1H34.8z"/>
		<path class="st7" d="M62.8,95.9c0,0.2-0.1,0.3-0.3,0.3H53c-0.1,0-0.2,0-0.3,0.1l-1.1,1c-0.1,0.1-0.1,0.2-0.1,0.3v7.3
			c0,0.1,0,0.3,0.1,0.3l1.5,1.4c0.1,0.1,0.2,0.1,0.4,0.1h9.1c0.2,0,0.3,0.1,0.3,0.3v1.6c0,0.2-0.1,0.3-0.3,0.3H51
			c-0.2,0-0.4-0.1-0.6-0.2l-2.9-2.8c-0.1-0.1-0.2-0.3-0.2-0.5v-9c0-0.2,0.1-0.3,0.2-0.5l2.1-2.1c0.2-0.2,0.3-0.2,0.6-0.2h12.3
			c0.2,0,0.3,0.1,0.3,0.3C62.8,94.2,62.8,95.9,62.8,95.9z"/>
		<path class="st7" d="M80.9,95.9c0,0.2-0.1,0.3-0.3,0.3h-9.9c-0.1,0-0.2,0-0.3,0.2l-1,1c-0.1,0.1-0.2,0.2-0.2,0.4v2.5h11.3
			c0.2,0,0.3,0.1,0.3,0.3v1.6c0,0.2-0.1,0.3-0.3,0.3H69.1v2.5c0,0.2,0,0.3,0.2,0.4l1.4,1.3c0.1,0.1,0.2,0.2,0.4,0.2h9.5
			c0.2,0,0.3,0.1,0.3,0.3v1.6c0,0.2-0.1,0.3-0.3,0.3H68.7c-0.2,0-0.5-0.1-0.7-0.2l-2.9-2.8c-0.1-0.1-0.2-0.3-0.2-0.5v-9
			c0-0.2,0.1-0.3,0.2-0.5l2.1-2c0.2-0.2,0.4-0.3,0.6-0.3h12.7c0.2,0,0.3,0.1,0.3,0.3C80.9,94.3,80.9,95.9,80.9,95.9z"/>
		<path class="st8" d="M98.1,96c0.1,0.1,0.2,0.3,0.2,0.5v3.3c0,0.2,0,0.4-0.2,0.5l-1.9,2.1c-0.1,0.1-0.3,0.2-0.5,0.2h-7.7
			c-0.1,0-0.2,0-0.3,0.1l-0.9,0.8c-0.1,0.1-0.2,0.2-0.2,0.4v2.7c0,0.2,0.1,0.2,0.2,0.2h11.1c0.2,0,0.3,0.1,0.3,0.3v1.6
			c0,0.2-0.1,0.3-0.3,0.3H83.6c-0.4,0-0.6-0.2-0.6-0.7v-5.5c0-0.3,0.1-0.5,0.3-0.7l2-1.8c0.2-0.2,0.5-0.3,0.8-0.3h7.9
			c0.1,0,0.2,0,0.3-0.1l0.8-0.8c0.1-0.2,0.2-0.3,0.2-0.5v-1.3c0-0.1,0-0.2-0.1-0.3l-0.7-0.8c-0.1-0.1-0.2-0.1-0.3-0.1h-9.9
			c-0.2,0-0.3-0.1-0.3-0.3v-1.6c0-0.2,0.1-0.3,0.3-0.3h11.8c0.2,0,0.4,0.1,0.5,0.2L98.1,96z"/>
		<path class="st7" d="M118.5,106.1c0,0.2-0.1,0.3-0.2,0.4l-2.4,2.3c-0.2,0.2-0.5,0.3-0.8,0.3h-11c-0.3,0-0.6-0.1-0.8-0.3l-2.4-2.3
			c-0.1-0.1-0.2-0.3-0.2-0.4V94.2c0-0.2,0.1-0.3,0.3-0.3h3.5c0.2,0,0.3,0.1,0.3,0.3v11c0,0.1,0.1,0.2,0.1,0.3l1.2,1.1
			c0.1,0.1,0.2,0.1,0.3,0.1h6.1c0.1,0,0.2,0,0.3-0.1l1.2-1.1c0.1-0.1,0.1-0.2,0.1-0.3v-11c0-0.2,0.1-0.3,0.3-0.3h3.4
			c0.2,0,0.3,0.1,0.3,0.3L118.5,106.1L118.5,106.1z"/>
		<path class="st7" d="M138.4,96.2c0.1,0.1,0.2,0.3,0.2,0.5v3.5c0,0.3-0.1,0.5-0.3,0.7l-1.9,1.7l2.4,5.2c0.1,0.2,0.1,0.4,0.1,0.6
			v0.2c0,0.2,0,0.4-0.4,0.4h-3.3c-0.1,0-0.3-0.1-0.4-0.2l-2.2-5.2h-7.9v5.1c0,0.2-0.1,0.3-0.3,0.3h-3.4c-0.2,0-0.3-0.1-0.3-0.3V94.5
			c0-0.4,0.2-0.6,0.6-0.6h14.2c0.3,0,0.5,0.1,0.7,0.3L138.4,96.2z M133.3,96.3c-0.1-0.1-0.2-0.1-0.4-0.1h-7.6
			c-0.2,0-0.4,0.1-0.4,0.4v4.8h8l1.3-1.2c0.1-0.1,0.1-0.2,0.1-0.3v-2.2c0-0.1,0-0.2-0.1-0.3L133.3,96.3z"/>
		<path class="st7" d="M159.1,107.8c0.1,0.2,0.1,0.4,0.1,0.6v0.3c0,0.2-0.1,0.3-0.3,0.3h-3.3c-0.1,0-0.2-0.1-0.3-0.3l-1.1-2.9h-9.3
			l-1,2.9c-0.1,0.2-0.2,0.3-0.3,0.3h-2.7c-0.2,0-0.3-0.1-0.3-0.3v-0.3c0-0.2,0.1-0.4,0.1-0.6l4.8-13.5c0.1-0.3,0.4-0.4,0.6-0.4h7.5
			c0.3,0,0.5,0.2,0.6,0.4L159.1,107.8z M148.6,96.2c-0.1,0-0.2,0-0.2,0.1l-2.7,7.4h7.8l-2.7-7.5c0-0.1-0.1-0.1-0.2-0.1H148.6z"/>
		<path class="st7" d="M178.6,108.5c0,0.4-0.2,0.6-0.6,0.6h-2.2c-0.4,0-0.8-0.2-1.1-0.5l-10.5-9.8v9.9c0,0.2-0.1,0.3-0.3,0.3h-2.4
			c-0.2,0-0.3-0.1-0.3-0.3V94.5c0-0.4,0.2-0.6,0.6-0.6h2.2c0.4,0,0.8,0.2,1.1,0.5l10.4,9.9v-10c0-0.2,0.1-0.3,0.4-0.3h2.5
			c0.2,0,0.3,0.1,0.3,0.3L178.6,108.5L178.6,108.5z"/>
		<path class="st7" d="M198.7,106.1c0,0.2-0.1,0.3-0.2,0.4l-2.4,2.3c-0.2,0.2-0.5,0.3-0.8,0.3h-11c-0.3,0-0.6-0.1-0.8-0.3l-2.4-2.3
			c-0.1-0.1-0.2-0.3-0.2-0.4V94.2c0-0.2,0.1-0.3,0.4-0.3h3.5c0.2,0,0.3,0.1,0.3,0.3v11c0,0.1,0.1,0.2,0.1,0.3l1.2,1.1
			c0.1,0.1,0.1,0.1,0.3,0.1h6.1c0.1,0,0.2,0,0.3-0.1l1.2-1.1c0.1-0.1,0.1-0.2,0.1-0.3v-11c0-0.2,0.1-0.3,0.3-0.3h3.4
			c0.2,0,0.4,0.1,0.4,0.3L198.7,106.1L198.7,106.1z"/>
		<path class="st7" d="M217.8,95.9c0,0.2-0.1,0.3-0.4,0.3h-10.9c-0.2,0-0.4,0.1-0.5,0.2l-0.8,0.8c-0.1,0.1-0.2,0.3-0.2,0.4v1.2
			c0,0.1,0,0.2,0.1,0.3l0.9,0.9c0.1,0.1,0.2,0.1,0.3,0.1h9c0.3,0,0.6,0.1,0.8,0.3l1.6,1.7c0.2,0.2,0.3,0.4,0.3,0.7v3.4
			c0,0.2-0.1,0.4-0.3,0.6l-2,1.9c-0.2,0.2-0.5,0.3-0.8,0.3h-13.9c-0.2,0-0.3-0.1-0.3-0.3v-1.6c0-0.2,0.1-0.3,0.3-0.3h11.5
			c0.2,0,0.4,0,0.5-0.2l0.8-0.8c0.1-0.1,0.1-0.2,0.1-0.3v-1.7c0-0.1-0.1-0.1-0.1-0.2l-0.9-0.8c-0.1-0.1-0.3-0.2-0.4-0.2h-9.2
			c-0.1,0-0.3,0-0.4-0.2l-1.6-1.8c-0.2-0.2-0.3-0.4-0.3-0.7v-3.3c0-0.3,0.2-0.5,0.4-0.7l1.9-1.8c0.2-0.2,0.4-0.3,0.7-0.3h13.4
			c0.2,0,0.4,0.1,0.4,0.3L217.8,95.9L217.8,95.9z"/>
	</g>
</g>
</svg>
