<?xml version="1.0" encoding="utf-8"?>
<!-- Generator: Adobe Illustrator 26.3.1, SVG Export Plug-In . SVG Version: 6.00 Build 0)  -->
<svg version="1.1" id="Layer_1" xmlns="http://www.w3.org/2000/svg" xmlns:xlink="http://www.w3.org/1999/xlink" x="0px" y="0px"
	 viewBox="0 0 40 40" style="enable-background:new 0 0 40 40;" xml:space="preserve">
<style type="text/css">
	.st0{fill:#DA2626;}
	.st1{fill:#FCFBF5;}
</style>
<g>
	<path class="st0" d="M8,0h24c4.42,0,8,3.58,8,8v24c0,4.42-3.58,8-8,8H8c-4.42,0-8-3.58-8-8V8C0,3.58,3.58,0,8,0z"/>
	<path class="st1" d="M34.38,19.59l-4.34-1.45c-1.59-0.53-2.78-1.86-3.11-3.49l-1.83-8.93c-0.05-0.22-0.25-0.39-0.49-0.39
		s-0.44,0.17-0.49,0.39l-1.83,8.93c-0.34,1.62-1.52,2.96-3.11,3.49l-4.34,1.45c-0.2,0.07-0.34,0.26-0.34,0.46
		c0,0.21,0.13,0.4,0.34,0.46l4.34,1.45c1.59,0.53,2.78,1.87,3.11,3.49l1.83,8.92c0.05,0.22,0.25,0.39,0.49,0.39s0.44-0.17,0.49-0.39
		l1.83-8.92c0.34-1.62,1.52-2.96,3.11-3.49l4.34-1.45c0.2-0.07,0.34-0.26,0.34-0.46C34.72,19.85,34.58,19.66,34.38,19.59z"/>
	<path class="st1" d="M11.09,11.41l1.53,0.51c0.56,0.19,0.98,0.65,1.1,1.23l0.65,3.15c0.02,0.08,0.08,0.14,0.17,0.14
		c0.08,0,0.15-0.06,0.17-0.14l0.65-3.15c0.12-0.57,0.54-1.04,1.1-1.23l1.53-0.51c0.07-0.02,0.12-0.09,0.12-0.17
		c0-0.07-0.05-0.14-0.12-0.17l-1.53-0.51c-0.56-0.19-0.98-0.65-1.1-1.24l-0.65-3.15c-0.02-0.08-0.08-0.14-0.17-0.14
		c-0.08,0-0.15,0.06-0.17,0.14l-0.65,3.15c-0.12,0.57-0.54,1.04-1.1,1.24l-1.53,0.51c-0.07,0.02-0.12,0.09-0.12,0.17
		C10.97,11.32,11.02,11.38,11.09,11.41z"/>
	<path class="st1" d="M14.65,26.88L12.6,26.2c-0.75-0.25-1.32-0.88-1.47-1.65l-0.86-4.22c-0.03-0.11-0.12-0.18-0.23-0.18
		s-0.21,0.07-0.23,0.18l-0.86,4.22c-0.16,0.77-0.72,1.4-1.47,1.65l-2.05,0.69C5.35,26.92,5.28,27,5.28,27.1
		c0,0.1,0.07,0.19,0.16,0.22L7.49,28c0.75,0.25,1.32,0.88,1.47,1.65l0.86,4.22c0.03,0.11,0.12,0.18,0.23,0.18s0.21-0.07,0.23-0.18
		l0.86-4.22c0.16-0.77,0.72-1.4,1.47-1.65l2.05-0.69c0.09-0.03,0.16-0.12,0.16-0.22C14.81,27,14.74,26.91,14.65,26.88z"/>
</g>
</svg>
