<?xml version="1.0" encoding="utf-8"?>
<!-- Generator: Adobe Illustrator 26.5.0, SVG Export Plug-In . SVG Version: 6.00 Build 0)  -->
<svg version="1.1" id="Layer_1" xmlns="http://www.w3.org/2000/svg" xmlns:xlink="http://www.w3.org/1999/xlink" x="0px" y="0px"
	 viewBox="0 0 360 360" style="enable-background:new 0 0 360 360;" xml:space="preserve">
<style type="text/css">
	.st0{fill-rule:evenodd;clip-rule:evenodd;fill:url(#SVGID_1_);}
	.st1{fill-rule:evenodd;clip-rule:evenodd;fill:url(#SVGID_00000101081531372163347630000002216326351834370236_);}
	.st2{fill-rule:evenodd;clip-rule:evenodd;fill:url(#SVGID_00000109737427147647449370000005222460161254863253_);}
	.st3{fill-rule:evenodd;clip-rule:evenodd;fill:url(#SVGID_00000013912773490643946350000000803591588245032067_);}
	.st4{fill-rule:evenodd;clip-rule:evenodd;fill:url(#SVGID_00000094617005462584715960000011252200880815826348_);}
	.st5{fill-rule:evenodd;clip-rule:evenodd;fill:url(#SVGID_00000007392698402583748500000001614462605229874110_);}
	.st6{fill-rule:evenodd;clip-rule:evenodd;fill:url(#SVGID_00000103952081533453154850000006696461524209363383_);}
	.st7{opacity:0.3;fill-rule:evenodd;clip-rule:evenodd;}
	.st8{fill-rule:evenodd;clip-rule:evenodd;fill:url(#SVGID_00000074409692699840263950000008527436538243853232_);}
	.st9{opacity:5.000000e-02;fill-rule:evenodd;clip-rule:evenodd;}
	.st10{opacity:0.4;fill-rule:evenodd;clip-rule:evenodd;fill:url(#SVGID_00000021083858926834517450000009685622424425974662_);}
	.st11{opacity:0.4;fill-rule:evenodd;clip-rule:evenodd;fill:url(#SVGID_00000126311631409096913670000002437160280609981065_);}
	.st12{fill-rule:evenodd;clip-rule:evenodd;fill:url(#SVGID_00000146490485106969142140000014001850692786500998_);}
	.st13{fill-rule:evenodd;clip-rule:evenodd;fill:url(#SVGID_00000114047287717354242990000003544670106851557026_);}
	.st14{fill-rule:evenodd;clip-rule:evenodd;fill:url(#SVGID_00000037687498089163267300000014164811523927087748_);}
	.st15{fill-rule:evenodd;clip-rule:evenodd;fill:url(#SVGID_00000051381883883950152600000016941019412362582960_);}
	.st16{fill-rule:evenodd;clip-rule:evenodd;fill:url(#SVGID_00000121994898096136896620000015098921638653282986_);}
	.st17{fill-rule:evenodd;clip-rule:evenodd;fill:url(#SVGID_00000057127623217305955010000011174231609138434495_);}
	.st18{fill-rule:evenodd;clip-rule:evenodd;fill:url(#SVGID_00000049928376611237327300000017451539787449140408_);}
	.st19{fill-rule:evenodd;clip-rule:evenodd;fill:url(#SVGID_00000021114583924560443720000016042931397770967225_);}
	.st20{fill-rule:evenodd;clip-rule:evenodd;fill:url(#SVGID_00000104687888753775293970000014245224050542514077_);}
	.st21{fill-rule:evenodd;clip-rule:evenodd;fill:url(#SVGID_00000018921832119922028890000011826671825993321917_);}
	.st22{fill-rule:evenodd;clip-rule:evenodd;fill:url(#SVGID_00000174561634178379383300000013886605565014669189_);}
	.st23{fill-rule:evenodd;clip-rule:evenodd;fill:#0EDBFF;}
	.st24{fill-rule:evenodd;clip-rule:evenodd;fill:url(#SVGID_00000178899511213335397120000005558249400462454913_);}
	.st25{fill-rule:evenodd;clip-rule:evenodd;fill:url(#SVGID_00000035523894227902832060000007635798696001409672_);}
	.st26{fill-rule:evenodd;clip-rule:evenodd;fill:url(#SVGID_00000040534684267538598690000006236634199701788064_);}
	.st27{fill-rule:evenodd;clip-rule:evenodd;fill:url(#SVGID_00000032644607243872745780000006593450450949532821_);}
	.st28{fill-rule:evenodd;clip-rule:evenodd;fill:url(#SVGID_00000123409459093638756010000001456166021414529690_);}
	.st29{fill-rule:evenodd;clip-rule:evenodd;fill:url(#SVGID_00000096766758265207256970000007311557982067187123_);}
</style>
<g>
	<radialGradient id="SVGID_1_" cx="180" cy="180" r="180" gradientUnits="userSpaceOnUse">
		<stop  offset="5.586590e-03" style="stop-color:#009BFF;stop-opacity:0.5"/>
		<stop  offset="1" style="stop-color:#009BFF;stop-opacity:0"/>
	</radialGradient>
	<circle class="st0" cx="180" cy="180" r="180"/>
	
		<radialGradient id="SVGID_00000034808760090756812630000006972091176942945687_" cx="180" cy="180" r="150.6653" gradientUnits="userSpaceOnUse">
		<stop  offset="5.586590e-03" style="stop-color:#009BFF;stop-opacity:0.5"/>
		<stop  offset="1" style="stop-color:#009BFF;stop-opacity:0"/>
	</radialGradient>
	
		<circle style="fill-rule:evenodd;clip-rule:evenodd;fill:url(#SVGID_00000034808760090756812630000006972091176942945687_);" cx="180" cy="180" r="150.7"/>
	
		<radialGradient id="SVGID_00000010990654385405342250000010312525578325317277_" cx="180" cy="180" r="153.3359" gradientUnits="userSpaceOnUse">
		<stop  offset="5.586590e-03" style="stop-color:#0092FF;stop-opacity:0.5"/>
		<stop  offset="0.9978" style="stop-color:#0092FF;stop-opacity:1.091748e-03"/>
		<stop  offset="1" style="stop-color:#0092FF;stop-opacity:0"/>
	</radialGradient>
	
		<circle style="fill-rule:evenodd;clip-rule:evenodd;fill:url(#SVGID_00000010990654385405342250000010312525578325317277_);" cx="180" cy="180" r="153.3"/>
	
		<linearGradient id="SVGID_00000176732607591514511070000004474708777504742068_" gradientUnits="userSpaceOnUse" x1="93.7111" y1="110.3011" x2="93.7111" y2="65.2671">
		<stop  offset="0" style="stop-color:#9A00B3"/>
		<stop  offset="1" style="stop-color:#7F72FF"/>
	</linearGradient>
	<path style="fill-rule:evenodd;clip-rule:evenodd;fill:url(#SVGID_00000176732607591514511070000004474708777504742068_);" d="
		M70.3,110.3c0,0,1.6-13.7,2.6-21.2c0,0,9.4-13.1,24.3-23.8l19.9,1C117.1,66.3,77,98.4,70.3,110.3z"/>
	
		<linearGradient id="SVGID_00000053541183520136255400000015280390230820907653_" gradientUnits="userSpaceOnUse" x1="83.7442" y1="112.5821" x2="100.6658" y2="60.9226">
		<stop  offset="0" style="stop-color:#5B008B"/>
		<stop  offset="1" style="stop-color:#8E00FF"/>
	</linearGradient>
	<path style="fill-rule:evenodd;clip-rule:evenodd;fill:url(#SVGID_00000053541183520136255400000015280390230820907653_);" d="
		M97.2,65.3c0,0,0,11-10.1,19.7c-10.1,8.7-14.4,5.6-14.4,5.6l-2.4,17.5l46.8-41.9L97.2,65.3z"/>
	
		<radialGradient id="SVGID_00000101094876989656215000000000622002895022946995_" cx="99.5602" cy="119.2472" r="208.8812" gradientUnits="userSpaceOnUse">
		<stop  offset="5.586590e-03" style="stop-color:#60DBFF"/>
		<stop  offset="9.373057e-02" style="stop-color:#60D5FF"/>
		<stop  offset="0.211" style="stop-color:#5FC4FF"/>
		<stop  offset="0.3446" style="stop-color:#5DA9FF"/>
		<stop  offset="0.4903" style="stop-color:#5A82FF"/>
		<stop  offset="0.6442" style="stop-color:#5751FF"/>
		<stop  offset="0.6844" style="stop-color:#5643FF"/>
		<stop  offset="0.7432" style="stop-color:#563DF8"/>
		<stop  offset="0.8282" style="stop-color:#552EE5"/>
		<stop  offset="0.9287" style="stop-color:#5315C6"/>
		<stop  offset="1" style="stop-color:#5200AB"/>
	</radialGradient>
	<path style="fill-rule:evenodd;clip-rule:evenodd;fill:url(#SVGID_00000101094876989656215000000000622002895022946995_);" d="
		M310.1,180.1c0,12.5-1.8,24.6-5.1,36c-6.6,23-19.4,43.3-36.4,59.2c-12.2,11.4-26.6,20.4-42.4,26.4c-14.4,5.5-29.9,8.4-46.2,8.4
		c-2.3,0-4.6-0.1-6.9-0.2h0c-3.4-0.2-6.8-0.5-10.1-0.9c-25.1-3.3-47.9-13.7-66.4-29.3c-6.9-5.8-13.3-12.3-18.8-19.5
		c-4.2-5.4-8-11-11.4-17c-0.8-1.4-1.6-2.9-2.3-4.3c0-0.1,0-0.1-0.1-0.1c-0.8-1.6-1.5-3.1-2.3-4.7c0,0,0,0,0,0
		c-2.3-5-4.2-10.1-5.8-15.4c-1.2-3.8-2.2-7.7-3-11.6c0,0,0-0.1,0-0.1c-0.6-2.8-1.1-5.6-1.5-8.4c-0.9-6-1.3-12.2-1.3-18.4
		c0-3.6,0.1-7.2,0.5-10.7c0.2-2.3,0.4-4.5,0.7-6.7c1.7-12.8,5.2-25,10.4-36.3c2.5-5.6,5.4-10.9,8.7-16.1
		c5.4-8.6,11.9-16.4,19.1-23.5C112.9,64.1,144.8,50,180.1,50c1.4,0,2.7,0,4.1,0.1c1.5,0.1,2.9,0.1,4.4,0.2
		c7.5,0.5,14.8,1.6,21.8,3.3c4.1,1,8.2,2.1,12.1,3.5c2.7,0.9,5.3,1.9,7.9,3c1.9,0.8,3.8,1.7,5.7,2.6c0.3,0.2,0.7,0.3,1,0.5
		c12.6,6.2,24.1,14.3,34,24c1.4,1.4,2.8,2.8,4.2,4.3c0.9,1,1.8,2,2.7,3c1.5,1.7,3,3.5,4.4,5.3c5.2,6.6,9.7,13.7,13.6,21.2
		c4.5,8.7,8,18,10.4,27.8C308.8,158.8,310.1,169.3,310.1,180.1z"/>
	
		<linearGradient id="SVGID_00000144318625613944415080000006610497145814328227_" gradientUnits="userSpaceOnUse" x1="50.0567" y1="144.3941" x2="237.1122" y2="144.3941">
		<stop  offset="1.117320e-02" style="stop-color:#81E0FF"/>
		<stop  offset="0.3224" style="stop-color:#82DDFF"/>
		<stop  offset="0.5506" style="stop-color:#86D4FF"/>
		<stop  offset="0.7523" style="stop-color:#8BC4FF"/>
		<stop  offset="0.9375" style="stop-color:#94ADFF"/>
		<stop  offset="1" style="stop-color:#97A4FF"/>
	</linearGradient>
	<path style="fill-rule:evenodd;clip-rule:evenodd;fill:url(#SVGID_00000144318625613944415080000006610497145814328227_);" d="
		M237.1,63.2c-0.4,0-0.9,0.1-1.3,0.2c-1.5,0.3-2.6,0.1-4.1-0.3c-1-0.3-1.8-0.7-2.9-0.9c-1.6-0.2-3-0.9-4.6-1.1
		c-1.7-0.2-3.1-0.9-4.7-1.4c-1.2-0.5-1.9-0.3-3.1,0c-1.2,0.3-2-0.2-3.1-0.6c-1.2-0.5-2.4-0.6-3.7-0.9c-3.3-0.7-6.6-1.7-9.8-2.6
		c-2-0.5-3.9-0.5-6-0.5c-1.6,0-3.1,0.5-4.7,0.5c-1.1,0-2-0.2-3.1-0.3c-1.1-0.2-2.2,0-3.3-0.1c-1.6-0.2-2.5-0.5-4.2,0
		c-1.2,0.4-2.2,0.4-3.5,0.4c-1.4,0.1-2.9,0.4-4.3,0.7c-2.4,0.6-5.1,1-7.6,1c-1.5,0-3.8-0.4-5.3,0.1c-0.9,0.3-1.4,1.4-2.1,2
		c-1.3,1.3-2.8,2.5-3.9,3.9c-1.1,1.5-2.3,3-2.2,4.8c0.1,1.6,0.8,3.5,1.5,4.9c0.7,1.6,1,3-0.6,4c-2,1.3-4.3,2.5-6.6,3.2
		c-1.5,0.5-2.9,0.7-4.2-0.4c-0.5-0.4-0.8-1.2-1.4-1.5c-0.6-0.3-1.2,0-1.9,0.2c-1.6,0.5-3.2,1-4.8,1.3c-1,0.2-1.9,0.7-2.9,0.9
		c-1.2,0.2-2.1-0.7-3.3-0.4c-1.7,0.4-3.5,1.1-5.3,1.2c-1.3,0.1-2.9-0.5-4-1.2c-0.6-0.4-0.8-0.7-1.5-0.5c-0.6,0.1-1.5,0.9-1.8,1.3
		c-0.4,0.6-0.6,1.4-1,2c-0.5,0.7-0.9,1.4-1.3,2.1c-0.7,1.4-1.6,2.8-2.6,4.1c-0.7,0.9-1.2,2.1-1.9,3c-0.4,0.5-1.2,0.8-1.7,1.1
		c-1.4,0.9-2.8,1.8-4.1,2.8c-2.5,2-4.9,4.2-7.5,6.1c-2,1.5-4.7,2.3-6.9,3.2c-1.4,0.6-2.8,1-4.2,1.6c-0.5,0.2-1.3,0.4-1.7,0.7
		c-0.5,0.4-0.8,1.2-1.2,1.8c-1.2,1.5-2.5,3-3.4,4.7c-0.6,1-0.9,2-1.3,3.1c-0.5,1.5-1.3,2.8-1.8,4.3c-1,3.1-1.2,6.3-2.3,9.3
		c-0.7,1.8-1.6,3.4-2.4,5c-1.4,2.8-1.6,6-2,9.1c-0.2,1.8-0.1,3.8,0.2,5.6c0.3,1.9,0.2,3.8,0.2,5.7c0,2-1.3,4-2.6,5.5
		c-1.2,1.4-3,2-4.3,3.2c-1.1,1.1-2.4,2.3-2.9,3.9c-0.2,0.7,0,1.4-0.1,2.2c-0.3,1.6-0.7,3.1-0.9,4.7c-0.2,2-0.3,3.9-0.3,5.9
		c0,1-0.1,2.1,0,3.1c0,1,0.4,1.9,0.5,2.8c0,0.7-0.1,1.4,0,2c0.1,0.8,0.4,1.6,0.6,2.3c0.5,1.8,0.8,3.6,1.1,5.4c0.3,1.7,1,3.3,1.5,4.9
		c0.7,2.2,1.2,4.5,1.6,6.8c0.3,1.7,0.3,3.5,0.6,5.2c0.2,1.4,0.5,2.8,0.6,4.2c0.1,2.1-0.5,4.2-0.5,6.4c0,3.6,1.4,7.2,2.3,10.7
		c0.2,1,0.5,2,0.8,2.9c-8.9-17.6-14-37.6-14-58.7c0-25.7,7.4-49.6,20.3-69.8c5.5-8.6,11.9-16.4,19.1-23.5
		C112.9,64.1,144.8,50,180.1,50c2.8,0,5.6,0.1,8.4,0.3C205.9,51.4,222.3,55.9,237.1,63.2z"/>
	<path class="st7" d="M188.4,241.2c0,0,12.1,17.9,28.2,32.5c16.1,14.5,18.4,24.3,18.4,24.3s30.4-12.7,52-42.8
		C308.7,225.1,188.4,241.2,188.4,241.2z"/>
	
		<radialGradient id="SVGID_00000025410083946856859000000001025195898991006618_" cx="85.0658" cy="91.5584" r="171.1566" gradientUnits="userSpaceOnUse">
		<stop  offset="0" style="stop-color:#FFFFD9;stop-opacity:0.2"/>
		<stop  offset="1" style="stop-color:#FFFFD9;stop-opacity:0"/>
	</radialGradient>
	<path style="fill-rule:evenodd;clip-rule:evenodd;fill:url(#SVGID_00000025410083946856859000000001025195898991006618_);" d="
		M103,281.6c-13.4-11.3-24.6-25.2-32.6-41c-5-9.9-8.8-20.6-11.2-31.7c0,0,0-0.1,0-0.1c-1.8-8.7-2.8-17.6-2.8-26.8
		c0-25.7,7.4-49.6,20.3-69.8c5.5-8.6,11.9-16.4,19.1-23.5c23.4-22.8,55.4-36.8,90.7-36.8c2.8,0,5.6,0.1,8.4,0.3
		c8.8,0.6,17.4,2,25.6,4.3c-10.2-3.3-20.9-5.4-32-6.1c-2.8-0.2-5.6-0.3-8.4-0.3c-35.3,0-67.2,14-90.7,36.8
		c-7.2,7-13.6,14.9-19.1,23.5c-12.8,20.2-20.3,44.1-20.3,69.8c0,9.2,1,18.2,2.8,26.8c0,0,0,0.1,0,0.1c2.3,11.2,6.1,21.8,11.2,31.7
		c8,15.8,19.1,29.7,32.6,41c14.2,12,31.1,20.9,49.5,25.9C130.2,300.4,115.6,292.2,103,281.6z"/>
	<path class="st9" d="M210.4,53.6c-7.1-1.7-14.4-2.8-21.8-3.3c-1.5-0.1-2.9-0.2-4.4-0.2c3.1,1.7,6,4.8,6.7,7.9
		c1.2,5.4,2.9,10.3,3.9,15.7c1,5.3,0.8,11.8-1.6,16.6c-1.5,3-3.3,5.6-5.7,8.1c-1.7,1.7-3.2,2.7-4.4,4.8c-1.2,2.1-2.4,4.1-3.7,6.1
		c-2,3-4.2,6.1-6.5,8.8c-0.8,1-1.7,1.7-2.5,2.8c-0.9,1.4-1.4,2.8-2.4,3.9c-2.3,2.6-6,4.1-9.2,5.2c-4.2,1.6-7.7,3.3-11.6,5.4
		c-5.5,2.9-10,6.6-16.5,6.8c-2.1,0.1-4.4-0.2-6.5-0.1c-2.7,0.2-5.1,1.5-7.8,2c-2.3,0.4-4.6,0.9-6.9,1.3c-3.8,0.6-6.9,1.9-10.6,2.7
		c-4.7,1.2-9.7,0.9-14.5,1.5c-4.3,0.6-8,1.1-12.3,0.1c-6.6-1.6-10.2-4.8-8.8-11.8c0.9-4.6,0.6-8.1-1.8-11.7
		c-5.2,11.3-8.7,23.5-10.4,36.3c3.1,1.3,6.7,2,9.5,2.3c9.6,1,20-3.3,28.8-6.6c4.5-1.7,9.1-4.2,13.9-4.7c5.1-0.5,9.6,0.1,14.7-1.2
		c17.6-4.3,34.9-10.5,50.6-19.8c6.5-3.8,9.4-9.3,13.9-14.9c4-4.9,8.5-8.9,13.2-13c4.7-4,8.8-7.9,11.6-13.5
		c2.9-5.9,5.4-12.3,6.8-18.8C215.7,65.7,214,59.1,210.4,53.6z M209.5,71.3c-0.3,1.5-0.5,3-0.9,4.4c-1.1,3.5-3.2,7.1-6.5,8.9
		c-1.5,0.9-3.5,0.3-4.4-1.2c-0.5-0.8-0.5-1.9-0.6-2.8c-0.3-1.8-0.5-3.5-0.5-5.4c0.1-4.4-0.1-8.7-0.5-13.1c0.5,2.5-0.1-3.7,3.8-5.4
		c1.8-0.8,4.6-0.1,6,1.3c1.8,1.8,2.2,4.8,2.8,7.1C209.2,67.3,209.9,69.1,209.5,71.3z"/>
	<path class="st9" d="M190.6,278.9c-0.4,0.1-0.7,0.1-1.1,0.2l2.6,0.2C191.8,279.2,191.3,279,190.6,278.9z M190.6,278.9
		c-0.4,0.1-0.7,0.1-1.1,0.2l2.6,0.2C191.8,279.2,191.3,279,190.6,278.9z M306.3,148.7c-0.1,3.4-1,6.8-1.1,10.2
		c-0.1,4.6-0.9,8.1-2,12.5c-0.8,3-2.4,5.2-3.4,8.2c-1.2,3.3-2.8,6.2-4.5,9.3c-3.4,6.1-6.8,12.3-8.2,19.3c-1.3,6.3-1.6,11.6-4.7,17.3
		c-3,5.5-7.5,10.2-10.7,15.5c-1.5,2.6-2.6,2.4-4.8,4.1c-2.6,1.8-4.9,4.7-7.4,6.7c-5.3,4.3-10.2,7.2-16.6,9.6c-4,1.5-8,2.7-12.2,3.4
		c-2.8,0.4-5.5,0-8.3,0.5c-4.4,0.7-8.6,2-12.8,3.4c-6.9,2.3-14,3.5-20.9,5.7c-4.8,1.5-9.6,2.4-14.5,3.4c-3,0.6-5.4,2.3-8.5,1.6
		c-3.1-0.7-6-1.7-9.1-2.7c-3.9-1.2-7.2-1.3-11.4-1.3c-5.6,0-12.2,0.9-17.7-0.2c-6.3-1.2-12.5-2.9-18.7-4.2c-3.8-0.8-6.7-2.4-10.1-4
		c-3.2-1.5-6.7-1.9-10.1-3c-3.6-1.1-7-2.8-10.6-3.7c5.6,7.1,11.9,13.7,18.8,19.5c18.5,15.5,41.3,26,66.4,29.3
		c3.3,0.4,6.7,0.7,10.1,0.9h0c7.4-1.7,14.5-3.8,22-6.1c12.3-3.8,23-11.3,35.3-14.9c4.6-1.4,8.7-2.9,13-5c3.2-1.6,6.5-2,9.7-3.3
		c11.4-4.9,20.1-16,25.2-26.9c2.3-4.9,4.5-10.5,8.7-14.2c1.7-1.5,3.7-2.9,5.2-4.6c1.7-1.9,2.8-4.3,4.3-6.3c2.6-3.7,5.1-7.4,7.7-11.1
		c0.3-0.4,0.6-0.9,0.9-1.3c3.3-11.4,5.1-23.5,5.1-36C310.1,169.3,308.8,158.8,306.3,148.7z M187,279.8c0.5-0.3,1.2-0.9,1.7-1.1
		c0.5-0.2,1.2,0,1.9,0.1c1-0.1,1.9-0.2,2.8,0.1c0.5,0.2,1.5,0.7,1.7,1.3c0.2,0.6-0.1,0.9-0.5,1.3c-0.5,0.5-0.9,0.5-1.6,0.6
		c-1.4,0.3-2.8,0.5-4.3,0.4c-0.9-0.1-2.2-0.1-2.7-1C185.6,280.9,186.4,280.2,187,279.8z M195.6,296.8c-0.8,1-1.6,2.1-2.6,2.8
		c-1,0.8-2.1,1.2-3.2,1.8c-2.6,1.5-5.4,3.1-8.3,3.8c-1.2,0.3-2.4,0.2-3.6,0.3c-1.5,0.1-2.9,0.2-4.4,0.2c-1.8,0-3.5,0.4-5.2,0.5
		c-1.8,0.1-3.5,0.1-5.2,0.2c-2.9,0.2-5.5-0.3-8.2-1.3c-2.5-0.9-5-2.1-7.2-3.5c-1.6-1-2.9-2.5-4.3-3.8c-1.3-1.2-2.3-2.4-3-4
		c-0.2-0.6-0.5-1.2-0.4-1.8c0.1-0.3,0.2-0.5,0.2-0.6c0.5-0.4,1-0.7,1.5-0.9c0.9-0.4,2-0.6,3-0.7c2.4-0.3,5,0.1,7.4,0.3
		c1.4,0.1,2.7,0.2,4.1,0c1.9-0.3,3.7-0.9,5.5-1.3c4.4-1.2,8.7-2.1,13.2-2.6c4.5-0.5,9.2-1,13.8-0.2c1.7,0.3,3.8,0.8,5.2,1.8
		c1.1,0.7,2,1.9,2.6,3.1C197.3,292.7,196.9,295,195.6,296.8z M230,285.5c-0.8,0.9-1.9,1.5-2.9,2.2c-1.4,1-2.8,1.7-4.3,2.6
		c-1.2,0.7-2.4,1.3-3.6,1.9c-1.2,0.6-2.5,1.2-3.7,1.8c-1.3,0.7-2.8,1.2-4.2,1.6c-1,0.4-2.2,0.9-3.3,0.7c-0.9-0.2-1.9-0.5-2.6-1.2
		c-1-1-0.8-2.2-0.5-2.6c0-1-0.3-2.3,0-3.3c0.2-0.5,0.9-1.4,1.2-1.9c1.2-2.1,2.8-3.6,4.5-5.2c1.5-1.5,3-2.6,5-3.3
		c2.3-0.8,4.9-1,7.2-1.3c2.6-0.3,6.9-0.5,8.1,2.5C231.7,281.8,231.4,283.7,230,285.5z M192.1,279.3c-0.3-0.1-0.9-0.3-1.5-0.4
		c-0.4,0.1-0.7,0.1-1.1,0.2L192.1,279.3z"/>
	<path class="st9" d="M295.9,121v0.5c-0.2,3.6-1.6,6.1-2.9,9.3c-1,2.6-2.3,5-3.6,7.5c-2.3,4.2-3.3,8.1-5,12.6
		c-2.6,7-3.9,14.2-8,20.5c-3.7,5.7-4.5,12.7-7.5,18.7c-3.4,6.8-8.5,11.6-14.1,16.6c-2.5,2.2-4.5,4.9-6.8,7.3c-2.4,2.6-4.2,5.8-7,7.9
		c-6.1,4.4-12.8,8.3-18.8,13c-3.6,2.8-6.1,6.5-10.1,8.9c-4,2.4-8.2,4-12.2,6.4c-3.5,2.2-7,4.5-10.9,6.1c-4.4,1.8-8,1.2-12.5,1.5
		c-5,0.2-10.2,1.5-14.8,3.2c-3.9,1.4-7.2,2.8-11.1,1.4c-2.6-0.9-5-2.7-7.8-3.2c-6.5-1.3-13.8,0-20.4-0.2c-5.1-0.1-10.8-1.3-15.8-2.3
		c-4.9-1-9-4.4-13.8-5.8c-5.9-1.7-12.8-0.2-18.5-2.5c-2.3-0.9-4.6-2.8-6.6-4.1c-0.4-0.3-0.9-0.5-1.3-0.8c-0.8-1.4-1.6-2.9-2.3-4.3
		c1.4,0.6,2.8,1.2,4.2,1.9c7.5,3.6,16.8,3,24.8,4.4c9.1,1.6,18.1,4,27.3,5c3.7,0.4,7.4,0.4,11.1,0c5.2-0.6,10.5-0.5,15.6-1.4
		c8.8-1.6,17.5-5.7,26.6-4.6c1.7,0.2,3.6,1.1,5.3,1.1c2.6-0.1,4.3-2.3,6.4-3.6c3.6-2.3,7.4-1.8,10.6-4.8c3.1-2.9,6.6-4.8,10.4-6.8
		c9.9-5.1,18-13.3,25.8-21.1c6.5-6.5,12.9-13.4,17.3-21.5c4.4-8,3.5-17.5,6.8-25.8c2.4-5.9,4.4-11.5,8.3-16.7c1.9-2.5,4.1-4.6,6.1-7
		c2.1-2.6,3.4-5.3,5-8.2c1.8-3.2,4-6.1,5.5-9.5c1.3-3.2,1.2-6.1,1.2-9.5c-0.1-3.7,0-7.5,0-11.2C287.6,106.3,292.1,113.4,295.9,121z"
		/>
	<path class="st9" d="M275.3,91.5c-1.4-1.5-2.7-2.9-4.2-4.3c-9.9-9.7-21.4-17.9-34-24c-0.3-0.2-0.7-0.3-1-0.5
		c-1.9-0.9-3.8-1.8-5.7-2.6c-2.6-1.1-5.2-2.1-7.9-3c0.9,0.5,1.8,1,2.2,1.2c1.6,0.8,2.9,1.4,4.1,2.8c1.1,1.4,1.6,2.5,1.7,4.3
		c0.1,1.7,0.3,3.5,0.6,5.2c0.3,1.6,1,3,1.4,4.6c0.2,0.9,0.3,1.8,0.6,2.7c0.7,2.2,1.4,4.3,1.9,6.6c0.8,4-1.3,7.3-2.7,11
		c-2.3,5.8-3.7,11.7-5.4,17.6c-1.3,4.7-3.9,9.4-7.5,12.8c-3.5,3.4-8.6,4.1-11.8,7.8c-2.7,3.2-6.1,6.3-10,8.1
		c-4.5,2.1-9.2,3.8-13.9,5.2c-3.4,1-7,1.1-10.4,2c-4.3,1.1-8.2,3.2-12.2,4.9c-4.3,1.8-8.2,4.2-12.5,6c-4.3,1.8-8.3,4.3-12.6,6
		c-2.1,0.9-4.3,1.3-6.4,2c-4.4,1.5-8.6,4.3-13.3,4.9c-1.6,0.2-3.3,0.6-4.9,0.6c-1.3,0-2.4,0.2-3.7,0.6c-4.1,1.6-6.6,6.2-11.2,6.2
		c-4.3,0-8.5-0.2-12.8,0.3c-2.1,0.2-4.1,0.1-6.2,0.1c-0.6,0-1.4,0.1-2-0.1c-0.7-0.3-1.5-0.9-2.1-1.3c-1.5-0.9-3-1.9-4.4-3
		c-2.7-2.1-6.3-0.9-9.4-1.6c-0.9-0.2-2.3-0.1-3.1-0.5c-1.9-1.2-4.3-3.5-5.9-4.8c-0.3,3.5-0.5,7.1-0.5,10.7c0,6.3,0.4,12.4,1.3,18.4
		c0.4,2.8,0.9,5.6,1.5,8.4c0,0,0,0.1,0,0.1c0.8,4,1.8,7.9,3,11.6c1.6,5.3,3.6,10.4,5.8,15.4c0,0,0,0,0,0c3.5,0.6,7.2,1,10.8,0.5
		c5.1-0.7,10.1-1.5,15.3-1.3c4.8,0.2,9.3,1.9,14.1,2.7c5.3,0.9,10.8,1.6,16.2,1.9c4.9,0.3,9.8,0.7,14.7,1.3c3.7,0.4,7.4,1.2,11,1.4
		c9.6,0.7,18.9-1.8,28.3-2.8c4.7-0.5,9.4-1.7,14-2.7c2.8-0.6,5.6-1.3,8.1-2.9c3.3-2.1,5.4-5.2,8.3-7.7c3.2-2.8,6.6-5.5,10-8
		c2.9-2.2,5.6-4.6,8.6-6.5c2.3-1.5,4.6-2.9,6.8-4.6c4.3-3.3,7.6-7.2,11.1-11.3c4.9-5.7,6.9-13.6,8.9-20.7c1.8-6.5,3-13,6.6-18.9
		c1.8-2.9,3.1-6.1,3.9-9.4c0.5-2,0.7-4.3,1.6-6.2c1.5-3.1,4.4-5.4,6.2-8.3c1.4-2.3,3-4.5,4-7.1c1.9-5.1,3.4-10,4.2-15.4
		c0.6-4,1.9-7.6,3.1-11.4c0.2-0.6,0.4-1.3,0.5-1.9C277.1,93.5,276.2,92.5,275.3,91.5z M106.1,180.3c0.3-0.7,5.1-2.6,5.9-2.8
		c0,0-0.1,0.1-0.2,0.1l-3.2,1.4c3.5-1.2,9.9,2.4,6.8,6.4c-0.9,1.2-3.3,1.8-4.7,2c-1.4,0.2-2.3-0.2-3.1-1.4c-0.7-1-1.2-2.9-1.4-4.1
		C106.1,181.4,105.9,180.8,106.1,180.3z M67.4,215.3c-3.8-1-6.3-2.4-8.6-5.6c-1.5-2.1-2.8-4.1-3.2-6.6c-0.3-2.1-1.2-4-0.7-6
		c0.4-1.6,1-3.5,1.8-5c0.9-1.7,2.1-3.5,2.2-4.1c3.8-0.3,7.3-0.5,11.1-0.5c4.2,0,8.5,0.5,12.7,0.5c1.9,0,3.8,0.1,5.7-0.3
		c1.8-0.4,3.6-0.9,5.5-1.2c3.2-0.5,6.3-0.9,9.3,0.7c2.3,1.2,3.4,3.8,4.4,6.1c0.6,1.3,1,2.3,1,3.7c0,1.8-0.1,3.5-0.3,5.3
		c-0.1,0.7-0.2,1.3-0.3,2c-2.7,5.8-10,7.7-15.5,9.8C84.6,217.1,75.6,217.6,67.4,215.3z M125.8,227.8c-1.7,4.3-8.9,5.8-13,6
		c-2,0.1-4.5-0.3-6.3-1.4c-1-0.6-2-1.8-2.6-2.8c-0.5-0.8-1.5-2.2-3.6-1.6c0.4-2.4,1.2-4.6,2.2-6.8c0.9-1,1.9-2,2.9-3
		c1.9-1.7,4.1-3.2,6.4-4.4c3.6-1.8,7.4-0.5,10.8,1.1c2.3,1.1,4.1,2.7,4.6,5.2C127.8,223.1,126.9,225.2,125.8,227.8z M174,227
		c-1.3,3.2-3.2,3.9-6.1,5.4c-3.4,1.7-7.5,3-11.4,3c-2,0-3.8-0.9-5.6-1.6c-1.2-0.5-2.5-0.8-3.4-1.6c-2.6-2.4-3-5.8-1.4-5.1
		c-1-2.1-1.6-4.3-1.9-6.6c0.4-0.4,0.7-0.8,0.9-1.4c1.4-2.6,3.9-4.7,6.5-6.1c4.5-2.6,10.2-2.9,15-0.9c2.1,0.9,3.5,1.9,5.1,3.6
		c0.7,0.8,1.8,1.5,2.4,2.4C175.4,220.4,175,224.6,174,227z M188.8,226.5c-0.7,0.6-2.2,1.8-3.1,1.6c-0.8-0.2-2.3-1.8-2.1-2.6
		l-0.5-0.5c1.2-1.8,2.3-3.6,3.4-5.4c1.8,0.8,3.3,0.7,4.4,2.6C191.9,223.9,190.1,225.4,188.8,226.5z M225.6,140.2
		c-1.5,1.9-3.4,3.8-5.6,4.7c-2.8,1.2-6.6,2.1-6.8-2.2c-0.1-2.5,0.3-4.3,1.4-6.6c1.6-3.3,3.2-4.1,6.3-5.7c1.2,0.1,2.4,0.4,3.2,0.7
		c1.8,0.6,3.4,2.1,3.7,4C228.1,137,226.7,138.7,225.6,140.2z M259.9,121.7c-1.4,4.3-3.2,8.4-5.1,12.5c-2.3,5-2.6,10.1-3.7,15.4
		c-0.7,3-2.1,6.2-5,7.4c-1.3,0.5-2.5,0.4-3.9,0.4c-1.3,0-3.6,0.5-3.5,1.6c-0.7-2.1-2-4.8-2.5-7.2c-0.5-2.6-0.7-5.4-1.2-7.9
		c-0.4-2.7-0.6-5.4-0.9-8.2c-0.2-2.6-0.7-5.2-0.7-7.8c0.1-8.5,4.8-19.1,12.8-23c2.4-1.2,4.9-1.7,7.5-1.3c3.1,0.5,4.9,1.3,6.3,4.3
		C262,111.9,261.2,117.4,259.9,121.7z"/>
	
		<linearGradient id="SVGID_00000081618735482267468750000007061598272515884703_" gradientUnits="userSpaceOnUse" x1="218.921" y1="130.064" x2="222.0497" y2="130.064">
		<stop  offset="0" style="stop-color:#E8DDFF"/>
		<stop  offset="1" style="stop-color:#AA8AD8"/>
	</linearGradient>
	
		<path style="opacity:0.4;fill-rule:evenodd;clip-rule:evenodd;fill:url(#SVGID_00000081618735482267468750000007061598272515884703_);" d="
		M222,129.8c-0.4,0.2-0.8,0.4-1.2,0.6c-0.7-0.1-1.4-0.1-2-0.1L222,129.8z"/>
	
		<linearGradient id="SVGID_00000138536836206391683960000004856824279421642430_" gradientUnits="userSpaceOnUse" x1="58.2144" y1="187.8789" x2="58.8642" y2="187.8789">
		<stop  offset="0" style="stop-color:#E8DDFF"/>
		<stop  offset="1" style="stop-color:#AA8AD8"/>
	</linearGradient>
	
		<path style="opacity:0.4;fill-rule:evenodd;clip-rule:evenodd;fill:url(#SVGID_00000138536836206391683960000004856824279421642430_);" d="
		M58.8,188c-0.2,0-0.4,0-0.6,0.1C58.7,187.7,58.9,187.7,58.8,188z"/>
	
		<linearGradient id="SVGID_00000066483190425251517070000007697009887721098933_" gradientUnits="userSpaceOnUse" x1="205.0215" y1="75.8141" x2="288.4781" y2="75.8141">
		<stop  offset="0" style="stop-color:#7F72FF"/>
		<stop  offset="1" style="stop-color:#9A00B3"/>
	</linearGradient>
	<path style="fill-rule:evenodd;clip-rule:evenodd;fill:url(#SVGID_00000066483190425251517070000007697009887721098933_);" d="
		M205,52.4l22.8-9c0,0,36.3,14.1,59.2,45l1.4,19.7C288.5,108.2,245.2,91.6,205,52.4z"/>
	
		<linearGradient id="SVGID_00000077323486752381245690000011282437184503300488_" gradientUnits="userSpaceOnUse" x1="223.9779" y1="276.1552" x2="266.3119" y2="146.9146">
		<stop  offset="0" style="stop-color:#280077"/>
		<stop  offset="1" style="stop-color:#812CFF"/>
	</linearGradient>
	<path style="fill-rule:evenodd;clip-rule:evenodd;fill:url(#SVGID_00000077323486752381245690000011282437184503300488_);" d="
		M288,253.2c0,0-19.1,20.8-33.6,25.4l-11.9,3.6c0,0-54.1-19.5-57.1-53.4c-2.5-28.5,46.2-72.2,59.4-77.4c13.2-5.2,28.6-2.3,28.6-2.3
		L288,253.2z"/>
	
		<linearGradient id="SVGID_00000137121263102093460500000006241582410769842343_" gradientUnits="userSpaceOnUse" x1="290.7571" y1="276.5661" x2="290.7571" y2="146.8374" gradientTransform="matrix(0.9503 0.3113 -0.3113 0.9503 45.885 -79.8074)">
		<stop  offset="0" style="stop-color:#7A00B3"/>
		<stop  offset="1" style="stop-color:#B136FF"/>
	</linearGradient>
	<path style="fill-rule:evenodd;clip-rule:evenodd;fill:url(#SVGID_00000137121263102093460500000006241582410769842343_);" d="
		M273.4,149.2c-11.4-3.6-60.8,19.1-74,70.1c-2.7,10.3,22.3,49.7,52.3,59.3c9.9,3.2,55.4-36.6,57.3-63.5
		C310.9,188.2,290.4,154.6,273.4,149.2z"/>
	
		<linearGradient id="SVGID_00000061445458850587781150000005524785244521864338_" gradientUnits="userSpaceOnUse" x1="250.0087" y1="238.1599" x2="250.0087" y2="148.8621">
		<stop  offset="0" style="stop-color:#8E00B3"/>
		<stop  offset="1" style="stop-color:#E05CFF"/>
	</linearGradient>
	<path style="fill-rule:evenodd;clip-rule:evenodd;fill:url(#SVGID_00000061445458850587781150000005524785244521864338_);" d="
		M202.6,225.3c7-57.8,59.6-76.6,71-72.9c8.2,2.6,20.4,14.7,27.3,26.7c-7.2-14.7-17.9-26.8-27.4-29.8c-11.4-3.6-60.8,19.1-74,70.1
		c-0.9,3.6,1.5,10.7,6.3,18.8C203,232.6,202.2,228.1,202.6,225.3z"/>
	<path class="st7" d="M106,287.2c0,0,11.8,4.3,20.4,2c0,0,3.3-27.8-7.2-45.6c-10.5-17.8-28.3,9.1-28.3,9.1l-4.1,17
		C86.8,269.7,96.7,281.6,106,287.2z"/>
	
		<linearGradient id="SVGID_00000030472129714712018730000013208768842205123503_" gradientUnits="userSpaceOnUse" x1="92.102" y1="274.7896" x2="109.589" y2="221.4038">
		<stop  offset="0" style="stop-color:#280077"/>
		<stop  offset="1" style="stop-color:#812CFF"/>
	</linearGradient>
	<path style="fill-rule:evenodd;clip-rule:evenodd;fill:url(#SVGID_00000030472129714712018730000013208768842205123503_);" d="
		M116.2,282.7l7.5-2c0,0,3.6-15.4-2.7-32.8c-7.2-19.7-33.5-34.5-37.4-34.8c-3.9-0.3-7.7,8.6-7.7,8.6L116.2,282.7z"/>
	
		<linearGradient id="SVGID_00000013895879647643002400000014291470955428607920_" gradientUnits="userSpaceOnUse" x1="199.0258" y1="321.0698" x2="199.0258" y2="297.9438">
		<stop  offset="0" style="stop-color:#7A00B3"/>
		<stop  offset="0.9162" style="stop-color:#7006FC"/>
		<stop  offset="1" style="stop-color:#7006F9"/>
	</linearGradient>
	<path style="fill-rule:evenodd;clip-rule:evenodd;fill:url(#SVGID_00000013895879647643002400000014291470955428607920_);" d="
		M235,297.9l-12.5,16.3c0,0-21.8,10.5-43.6,5.4L163,309L235,297.9z"/>
	
		<linearGradient id="SVGID_00000085248272614246152870000011681581661805426067_" gradientUnits="userSpaceOnUse" x1="93.1509" y1="283.321" x2="93.1509" y2="216.8489">
		<stop  offset="0" style="stop-color:#7A00B3"/>
		<stop  offset="1" style="stop-color:#B136FF"/>
	</linearGradient>
	<path style="fill-rule:evenodd;clip-rule:evenodd;fill:url(#SVGID_00000085248272614246152870000011681581661805426067_);" d="
		M70.3,233.8c1.3-6,6.6-15.9,11.3-16.9s27.1,20.3,32.3,33.9c5.2,13.7,2.6,28.8,2.3,31.9c-0.3,3.1-25.6-5.5-38.4-16
		C65,256.1,70.3,233.8,70.3,233.8z"/>
	
		<linearGradient id="SVGID_00000077314248799904002230000014527691027503668917_" gradientUnits="userSpaceOnUse" x1="96.6349" y1="283.295" x2="96.6349" y2="216.8489">
		<stop  offset="0" style="stop-color:#8E00B3"/>
		<stop  offset="1" style="stop-color:#E05CFF"/>
	</linearGradient>
	<path style="fill-rule:evenodd;clip-rule:evenodd;fill:url(#SVGID_00000077314248799904002230000014527691027503668917_);" d="
		M113.9,250.8c-5.2-13.7-27.5-34.9-32.3-33.9c-1.8,0.4-3.7,2.1-5.5,4.4c1.1-1,2.1-1.6,3.2-1.9c4.7-1,27.5,15.9,32.6,29.6
		c6.2,16.8,2.8,29,2.2,34.3c1.2,0.1,2-0.1,2-0.6C116.5,279.6,119.1,264.5,113.9,250.8z"/>
	
		<linearGradient id="SVGID_00000083772109760828652350000011825679785224148890_" gradientUnits="userSpaceOnUse" x1="192.5397" y1="195.5574" x2="203.6646" y2="161.5944">
		<stop  offset="0" style="stop-color:#5B008B"/>
		<stop  offset="1" style="stop-color:#8E00FF"/>
	</linearGradient>
	<path style="fill-rule:evenodd;clip-rule:evenodd;fill:url(#SVGID_00000083772109760828652350000011825679785224148890_);" d="
		M184.5,192.8c-5.6-2.6,0.8-27.3,6.3-32.6c5.5-5.4,19.9,7.2,21.8,17.4C214.5,187.8,197.4,198.8,184.5,192.8z"/>
	
		<linearGradient id="SVGID_00000103255912935102791040000014724723867092210090_" gradientUnits="userSpaceOnUse" x1="196.4161" y1="193.1044" x2="205.6177" y2="165.0128">
		<stop  offset="0" style="stop-color:#A400CA"/>
		<stop  offset="1" style="stop-color:#B136FF"/>
	</linearGradient>
	<path style="fill-rule:evenodd;clip-rule:evenodd;fill:url(#SVGID_00000103255912935102791040000014724723867092210090_);" d="
		M190.1,190.9c-4.5-2.2,0.6-22.6,5-27.1c4.4-4.4,15.9,5.9,17.5,14.4C214.1,186.8,200.4,195.9,190.1,190.9z"/>
	
		<linearGradient id="SVGID_00000003789536611312308210000004279975212895927947_" gradientUnits="userSpaceOnUse" x1="242.5461" y1="93.144" x2="255.8257" y2="52.6028">
		<stop  offset="0" style="stop-color:#5B008B"/>
		<stop  offset="1" style="stop-color:#8E00FF"/>
	</linearGradient>
	<path style="fill-rule:evenodd;clip-rule:evenodd;fill:url(#SVGID_00000003789536611312308210000004279975212895927947_);" d="
		M227.8,43.4c0,0,1.1,13.9,16.7,30.8c15.6,17,42.5,14.2,42.5,14.2l1.4,19.7c0,0-57.1-25.3-83.5-55.8L227.8,43.4z"/>
	<g>
		<path class="st23" d="M272.7,166.2c-0.6,0.5-2.1,1.6-0.9,2.3c0.3,0.2,0.6,0.1,0.9,0.2c0.3,0.1,0.3,0.3,0.6,0.2
			c0.9-0.3,0.5-2.9-0.5-2.4L272.7,166.2z"/>
		<path class="st23" d="M326.5,143c-0.6,0.5-2.1,1.6-0.9,2.3c0.3,0.2,0.6,0.1,0.9,0.2c0.3,0.1,0.3,0.3,0.6,0.2
			c0.9-0.3,0.5-2.9-0.5-2.4L326.5,143z"/>
		<path class="st23" d="M302.9,238.7c-0.6,0.5-2.1,1.6-0.9,2.3c0.3,0.2,0.6,0.1,0.9,0.2c0.3,0.1,0.3,0.3,0.6,0.2
			c0.9-0.3,0.5-2.9-0.5-2.4L302.9,238.7z"/>
		<path class="st23" d="M277.4,175.7c0.4-0.2,0.8-0.4,1.3-0.4c0.1,0.6,0.6,1.7-0.2,2.1c-0.7,0.4-0.5-0.8-0.8-1.1L277.4,175.7z"/>
		<path class="st23" d="M191.8,181.4c0.9,0.3,1.7,0.7,2.6,1.1c0.3-0.2,0.7-0.2,1-0.4c0.4-0.3,0.8-0.9,0.9-1.3
			c0.2-0.7-0.1-1.3-0.5-1.9c-0.2-0.4-0.4-0.9-0.8-1.2c-0.4-0.3-1.2-0.2-1.6,0c-0.5,0.2-0.9,0.8-1.2,1.2c-0.3,0.4-0.7,1.2-0.7,1.7
			c0,0.6,0.5,1.2,0.9,1.5L191.8,181.4z"/>
		<path class="st23" d="M70.6,246.2c0.9,0.3,1.7,0.7,2.6,1.1c0.3-0.2,0.7-0.2,1-0.4c0.4-0.3,0.8-0.9,0.9-1.3
			c0.2-0.7-0.1-1.3-0.5-1.9c-0.2-0.4-0.4-0.9-0.8-1.2c-0.4-0.3-1.2-0.2-1.6,0c-0.5,0.2-0.9,0.8-1.2,1.2c-0.3,0.4-0.7,1.2-0.7,1.7
			c0,0.6,0.5,1.2,0.9,1.5L70.6,246.2z"/>
		<path class="st23" d="M306.9,280.1c0.9,0.3,1.7,0.7,2.6,1.1c0.3-0.2,0.7-0.2,1-0.4c0.4-0.3,0.8-0.9,0.9-1.3
			c0.2-0.7-0.1-1.3-0.5-1.9c-0.2-0.4-0.4-0.9-0.8-1.2c-0.4-0.3-1.2-0.2-1.6,0c-0.5,0.2-0.9,0.8-1.2,1.2c-0.3,0.4-0.7,1.2-0.7,1.7
			c0,0.6,0.5,1.2,0.9,1.5L306.9,280.1z"/>
		<path class="st23" d="M289.9,256.6c0.9,0.3,1.7,0.7,2.6,1.1c0.3-0.2,0.7-0.2,1-0.4c0.4-0.3,0.8-0.9,0.9-1.3
			c0.2-0.7-0.1-1.3-0.5-1.9c-0.2-0.4-0.4-0.9-0.8-1.2c-0.4-0.3-1.2-0.2-1.6,0c-0.5,0.2-0.9,0.8-1.2,1.2c-0.3,0.4-0.7,1.2-0.7,1.7
			c0,0.6,0.5,1.2,0.9,1.5L289.9,256.6z"/>
		<path class="st23" d="M54,92.8c2.2,0.9,4.3,1.8,6.5,2.7c0.7-0.6,1.7-0.5,2.5-1c1-0.7,2-2.2,2.4-3.4c0.6-1.8-0.3-3.3-1.2-4.7
			c-0.6-0.9-1.1-2.3-2-3c-1-0.7-3-0.5-4,0C57,84,56,85.3,55.2,86.5c-0.8,1.1-1.8,3-1.8,4.4c0,1.5,1.2,3.1,2.3,3.9L54,92.8z"/>
		<path class="st23" d="M197.3,13.9c2.2,0.9,4.3,1.8,6.5,2.7c0.7-0.6,1.7-0.5,2.5-1c1-0.7,2-2.2,2.4-3.4c0.6-1.8-0.3-3.3-1.2-4.7
			c-0.6-0.9-1.1-2.3-2-3c-1-0.7-3-0.5-4,0c-1.3,0.6-2.2,1.9-3.1,3.1c-0.8,1.1-1.8,3-1.8,4.4c0,1.5,1.2,3.1,2.3,3.9L197.3,13.9z"/>
		<path class="st23" d="M216.4,203c-0.4,0.3-0.7,0.6-0.9,1c0.4,0.4,0.5,0.9,1.1,1c0.2,0.1,0.5,0.1,0.7-0.1c0.3-0.2,0.1-0.5,0.2-0.8
			c0.2-0.6,0.3-0.7,0-1.3c-0.2-0.3-0.3-0.5-0.7-0.4c-0.2,0-0.8,0.1-0.9,0.3L216.4,203z"/>
		<path class="st23" d="M218.3,216.6c-0.1,0.1-0.7,1.8,0.1,1.3c0.4-0.2,0.3-0.9,0-1.1c0-0.1,0-0.1,0-0.2L218.3,216.6z"/>
		<path class="st23" d="M261.3,241.3c-0.6,0.8-0.6,1.1-0.9,1.8c0.2,0.2,0.7,0.4,1,0.3c0.5,0,0.5-0.2,0.5-0.7c0-0.4,0.2-0.7,0.1-1.1
			c-0.1-0.4-0.5-0.8-0.9-0.5L261.3,241.3z"/>
		<path class="st23" d="M225.1,204.6c0.3,0.3,0.5,0.7,0.6,1.1c-0.5,0.1-0.5-0.3-0.6-0.7c-0.1-0.6,0.2-0.4,0.4-0.8c0.1,0,0.1,0,0.2,0
			L225.1,204.6z"/>
		<path class="st23" d="M266.2,167.9c-0.4,0.3-0.7,0.6-0.9,1c0.2,0.3,0.1,0.8,0.6,0.7c0.4,0,0.6-0.4,0.8-0.7c0.2-0.3,0.2-0.6,0.2-1
			c0-0.2,0-1-0.3-0.5L266.2,167.9z"/>
		<path class="st23" d="M260.7,72.1c0.4-0.1,0.9-0.3,1.4-0.3c0.1,0,0.3,0.1,0.4,0.1c0.4,0,0.5-0.1,0.7,0.3c0.2,0.4,0.4,0.7,0.3,1.2
			c-0.3,1.6-2.5-0.8-1.7-1.4L260.7,72.1z"/>
		<path class="st23" d="M86,75c-0.7,0.2-1.8,0.3-1.9,1.1c-0.1,0.7,1.1,1.5,1.7,1.7c1.1,0.3,2.8,0.5,3.3-0.7c0.3-0.7,0.1-2.1-0.4-2.7
			c-0.9-1.3-2.7-0.8-4.1-0.2L86,75z"/>
		<path class="st23" d="M271.3,243.1c-0.3-2.5-0.8-4.9,1.4-6.3c1.2-0.7,3.4-1,4.6-0.1c0.8,0.6,1.5,1.7,2.1,2.6
			c0.8,1.3,0.6,1.3,0.2,2.4c-0.9,2.6-1.5,4.4-4.2,4.4c-3.5,0-4-2.7-4-6V243.1z"/>
		<path class="st23" d="M272.8,173.1c1-0.3,1.8-0.8,2.5-1.5c-0.7-0.4-2.2-1.3-2.5,0V173.1z"/>
		<path class="st23" d="M76.1,236.5c1-0.3,1.8-0.8,2.5-1.5c-0.7-0.4-2.2-1.3-2.5,0V236.5z"/>
		<path class="st23" d="M76.1,257.4c1-0.3,1.8-0.8,2.5-1.5c-0.7-0.4-2.2-1.3-2.5,0V257.4z"/>
		<path class="st23" d="M223.2,182.6c1-1.2,2.4-3.3,4.1-2.2c1,0.7,1.3,2.5,0.3,3.2c-0.9,0.7-1.7,0.9-2.7,1.1
			c-0.8,0.2-1.9-0.3-1.7-1.4V182.6z"/>
		<path class="st23" d="M255.8,236.4c1-1.2,2.4-3.3,4.1-2.2c1,0.7,1.3,2.5,0.3,3.2c-0.9,0.7-1.7,0.9-2.7,1.1
			c-0.8,0.2-1.9-0.3-1.7-1.4V236.4z"/>
		<path class="st23" d="M250.9,58.1c1.5,0.3,4.1,0.4,3.9,2.5c-0.1,1.2-1.5,2.4-2.6,1.9c-1-0.5-1.6-1.1-2.3-1.8
			c-0.6-0.6-0.7-1.8,0.4-2.2L250.9,58.1z"/>
		<path class="st23" d="M245.6,250.4c1-1.2,2.4-3.3,4.1-2.2c1,0.7,1.3,2.5,0.3,3.2c-0.9,0.7-1.7,0.9-2.7,1.1
			c-0.8,0.2-1.9-0.3-1.7-1.4V250.4z"/>
		<path class="st23" d="M201.1,180.8c-1.2,0.8-3.3,1.8-3.5,3.4c-0.1,1,0.3,1.6,1.3,2.1c0.8,0.4,2,0.4,2.7,0c1.1-0.6,2.4-1.5,2.9-2.7
			c0.4-0.9,0.3-1.5-0.1-2.3c-0.2-0.5-0.7-1-1.1-1.2c-1.6-0.5-2.5,1-3.7,1.7L201.1,180.8z"/>
		<path class="st23" d="M205.1,176.3c0.7,0.2,1.2,0.6,1.7,1.1c-0.7,0.2-1.4,0.8-2.1,0.5c-0.9-0.3-1.1-1.2-0.9-2
			c0.1-0.5,0.9-1.3,1.4-1.1c0.2,0.1,0.3,0.4,0.4,0.6c0.2,0.4,0.2,0.3-0.1,0.8H205.1z"/>
		<path class="st23" d="M239.1,168.9c-3.3,2.9-6.3,6.3-8.1,10.4c-0.9,2.1,0.7,2.2,2.6,1.8c3.7-0.7,7.3-1.7,11-2.7
			c2.1-0.5,5.2-1.7,6.7-3.5c1.1-1.4,1.6-3.8,1.4-5.6c-0.4-2.5-2.1-3.4-4.3-4c-5.1-1.4-12.3,4.1-14.2,8.8L239.1,168.9z"/>
		<path class="st23" d="M220.9,187.4c1.1,0,2,0.3,2.9,0.8c-0.3,0.3-0.2,0.7-0.3,1.1c-0.2,0.5-0.7,1.1-1.2,1.4
			c-0.8,0.5-2.2,0.7-3.1,0.4c-2.7-1,1.5-4.3,2.4-3.1L220.9,187.4z"/>
		<path class="st23" d="M68.6,291.7c-0.4,0.3-0.7,0.6-0.9,1c0.4,0.4,0.5,0.9,1.1,1c0.2,0.1,0.5,0.1,0.7-0.1c0.3-0.2,0.1-0.5,0.2-0.8
			c0.2-0.6,0.3-0.7,0-1.3c-0.2-0.3-0.3-0.5-0.7-0.4c-0.2,0-0.8,0.1-0.9,0.3L68.6,291.7z"/>
		<path class="st23" d="M70.5,305.3c-0.1,0.1-0.7,1.8,0.1,1.3c0.4-0.2,0.3-0.9,0-1.1c0-0.1,0-0.1,0-0.2L70.5,305.3z"/>
		<path class="st23" d="M77.2,293.3c0.3,0.3,0.5,0.7,0.6,1.1c-0.5,0.1-0.5-0.3-0.6-0.7c-0.1-0.6,0.2-0.4,0.4-0.8c0,0,0.1,0,0.2,0
			L77.2,293.3z"/>
		<path class="st23" d="M73.1,276.2c1.1,0,2,0.3,2.9,0.8c-0.3,0.3-0.2,0.7-0.3,1.1c-0.2,0.5-0.7,1.1-1.2,1.4
			c-0.8,0.5-2.2,0.7-3.1,0.4c-2.7-1,1.5-4.3,2.4-3.1L73.1,276.2z"/>
		<path class="st23" d="M245.6,60.5c0.9,0.6,1.9,1.1,2.6,2c0.8,1,1.6,1.9,2.2,3c0.3,0.6,1.1,1.8,0,2c-1.2,0.2-3.4-1.4-4.3-2.1
			c-1.5-1.1-3-2.1-4.1-3.6c-0.6-0.8-1.4-2.1-0.8-3.1c0.5-0.8,1.2-0.9,2-0.9c0.9,0,1.4,0.3,2.1,0.9c0.3,0.3,1.9,1.9,1.4,2.3
			L245.6,60.5z"/>
		<path class="st23" d="M257.4,164.2c-0.4,0.3-3.9,2.2-2.3,3.1c0.9,0.4,2.6,0.3,3.5-0.1c0.8-0.3,1.6-0.9,1.1-1.8
			c-1-1.9-3.5-0.8-4.9,0L257.4,164.2z"/>
		<path class="st23" d="M282.2,51.4c-1.1,0.8-9.8,5.6-5.7,7.7c2.2,1.1,6.6,0.8,8.8-0.2c2-0.8,4-2.2,2.8-4.5c-2.5-4.6-8.9-2-12.2,0.1
			L282.2,51.4z"/>
		<path class="st23" d="M77.4,247.8c0.4,2,0.8,4.2,2.5,5.6c1.8,1.4,3.9,0.8,5.7-0.2c1.3-0.8,2.6-1.6,3.9-2.4
			c0.8-0.5,1.4-0.6,1.5-1.7c0-1.2-1-2.7-1.7-3.6c-0.8-1.1-2.4-2.3-3.6-2.8c-2.7-1-7.9,0-7.8,3.7L77.4,247.8z"/>
		<path class="st23" d="M259.1,251.8c0.3,1.4,0.5,3,1.8,3.9c1.3,1,2.7,0.6,4-0.2c0.9-0.5,1.8-1.1,2.7-1.7c0.5-0.3,1-0.4,1-1.2
			c0-0.8-0.7-1.9-1.2-2.5c-0.6-0.7-1.7-1.6-2.6-1.9c-1.9-0.7-5.5,0-5.5,2.6L259.1,251.8z"/>
	</g>
	
		<radialGradient id="SVGID_00000062159611179838125180000001851723031989967523_" cx="275.4372" cy="240.0968" r="24.6148" gradientUnits="userSpaceOnUse">
		<stop  offset="0" style="stop-color:#317AFF;stop-opacity:0.5"/>
		<stop  offset="1" style="stop-color:#317AFF;stop-opacity:0"/>
	</radialGradient>
	
		<circle style="fill-rule:evenodd;clip-rule:evenodd;fill:url(#SVGID_00000062159611179838125180000001851723031989967523_);" cx="275.4" cy="240.1" r="24.6"/>
	
		<radialGradient id="SVGID_00000083054673658333670440000002696778467481229215_" cx="242.4911" cy="173.1786" r="22.8535" gradientUnits="userSpaceOnUse">
		<stop  offset="0" style="stop-color:#317AFF;stop-opacity:0.5"/>
		<stop  offset="1" style="stop-color:#317AFF;stop-opacity:0"/>
	</radialGradient>
	
		<circle style="fill-rule:evenodd;clip-rule:evenodd;fill:url(#SVGID_00000083054673658333670440000002696778467481229215_);" cx="242.5" cy="173.2" r="22.9"/>
	
		<radialGradient id="SVGID_00000037659509884467920820000013099940183389235390_" cx="260.9782" cy="97.8758" r="13.5469" gradientTransform="matrix(0.8091 0.5877 -0.3866 0.5322 72.8171 -141.7545)" gradientUnits="userSpaceOnUse">
		<stop  offset="0" style="stop-color:#317AFF;stop-opacity:0.5"/>
		<stop  offset="1" style="stop-color:#317AFF;stop-opacity:0"/>
	</radialGradient>
	<path style="fill-rule:evenodd;clip-rule:evenodd;fill:url(#SVGID_00000037659509884467920820000013099940183389235390_);" d="
		M257.1,71.7c-2.9,4-10.1,3.6-16.2-0.8c-6.1-4.4-8.6-11.2-5.7-15.2c2.9-4,10.1-3.6,16.2,0.8S260,67.7,257.1,71.7z"/>
	
		<radialGradient id="SVGID_00000054240836420974962320000007794986857164664709_" cx="84.1258" cy="247.3038" r="24.6148" gradientUnits="userSpaceOnUse">
		<stop  offset="0" style="stop-color:#317AFF;stop-opacity:0.5"/>
		<stop  offset="1" style="stop-color:#317AFF;stop-opacity:0"/>
	</radialGradient>
	
		<circle style="fill-rule:evenodd;clip-rule:evenodd;fill:url(#SVGID_00000054240836420974962320000007794986857164664709_);" cx="84.1" cy="247.3" r="24.6"/>
	
		<linearGradient id="SVGID_00000094585484328642720350000007229735349949612940_" gradientUnits="userSpaceOnUse" x1="257.6417" y1="89.1762" x2="257.6417" y2="45.6999">
		<stop  offset="0" style="stop-color:#B000D9"/>
		<stop  offset="1" style="stop-color:#E05CFF"/>
	</linearGradient>
	<path style="fill-rule:evenodd;clip-rule:evenodd;fill:url(#SVGID_00000094585484328642720350000007229735349949612940_);" d="
		M228.2,45.7c0,0,6,25.4,22.8,34.9c21.2,12.1,36.1,7.8,36.1,7.8s-19-0.7-36.5-12.6C235.9,65.8,228.2,45.7,228.2,45.7z"/>
	<path class="st9" d="M188.4,241.2l11.3-16.6c0,0,14.5,41.1,52,54l-8.2,5.3C243.4,283.9,205.2,273,188.4,241.2z"/>
	<path class="st7" d="M209.7,58.1c0,0,54.1,54.4,93,78.6c0,0-3.8-14.9-14.3-28.6C288.5,108.2,255.8,97.4,209.7,58.1z"/>
	
		<radialGradient id="SVGID_00000072259214051361938130000007002751315602371260_" cx="39.3761" cy="142.8563" r="32.7493" gradientTransform="matrix(1.3926 -0.9161 0.5873 0.8928 -11.8927 23.9862)" gradientUnits="userSpaceOnUse">
		<stop  offset="0" style="stop-color:#06FEFF;stop-opacity:0.5"/>
		<stop  offset="1" style="stop-color:#06FEFF;stop-opacity:0"/>
	</radialGradient>
	<path style="fill-rule:evenodd;clip-rule:evenodd;fill:url(#SVGID_00000072259214051361938130000007002751315602371260_);" d="
		M172.4,85.5c10.6,16.1-1.2,42.7-26.4,59.2c-25.2,16.6-54.2,16.9-64.8,0.8c-10.6-16.1,1.2-42.7,26.4-59.2
		C132.8,69.6,161.8,69.3,172.4,85.5z"/>
</g>
</svg>
