<?xml version="1.0" encoding="utf-8"?>
<!-- Generator: Adobe Illustrator 26.5.0, SVG Export Plug-In . SVG Version: 6.00 Build 0)  -->
<svg version="1.1" id="Layer_1" xmlns="http://www.w3.org/2000/svg" xmlns:xlink="http://www.w3.org/1999/xlink" x="0px" y="0px"
	 viewBox="0 0 360 360" style="enable-background:new 0 0 360 360;" xml:space="preserve">
<style type="text/css">
	.st0{fill-rule:evenodd;clip-rule:evenodd;fill:url(#SVGID_1_);}
	.st1{fill-rule:evenodd;clip-rule:evenodd;fill:url(#SVGID_00000000928056872956915970000014615983778609052601_);}
	.st2{fill-rule:evenodd;clip-rule:evenodd;fill:url(#SVGID_00000030464432512855997070000002464011178426381734_);}
	.st3{fill-rule:evenodd;clip-rule:evenodd;fill:url(#SVGID_00000176765162148695977650000017368574613972115342_);}
	.st4{fill-rule:evenodd;clip-rule:evenodd;fill:url(#SVGID_00000076604389483193496810000006641397480978099355_);}
	.st5{fill-rule:evenodd;clip-rule:evenodd;fill:url(#SVGID_00000014631537886324249830000008975855690002481839_);}
	.st6{opacity:0.3;fill-rule:evenodd;clip-rule:evenodd;fill:url(#SVGID_00000121259932293119867320000009317924485698710961_);}
	.st7{opacity:0.5;fill-rule:evenodd;clip-rule:evenodd;fill:#7D72B3;enable-background:new    ;}
	
		.st8{opacity:0.5;fill-rule:evenodd;clip-rule:evenodd;fill:url(#SVGID_00000109710576134992602100000009938395265037949318_);enable-background:new    ;}
	.st9{opacity:0.4;fill-rule:evenodd;clip-rule:evenodd;fill:#7D72B3;enable-background:new    ;}
	
		.st10{opacity:0.5;fill-rule:evenodd;clip-rule:evenodd;fill:url(#SVGID_00000108272672642733375180000000016999397822558890_);enable-background:new    ;}
	.st11{fill-rule:evenodd;clip-rule:evenodd;fill:#00C4FF;}
	.st12{fill-rule:evenodd;clip-rule:evenodd;fill:url(#SVGID_00000074429238729850100500000013526357699525333400_);}
	.st13{fill-rule:evenodd;clip-rule:evenodd;fill:url(#SVGID_00000103945737708199444510000009160022282945775771_);}
	.st14{fill-rule:evenodd;clip-rule:evenodd;fill:#FF61C7;}
	.st15{opacity:0.5;fill-rule:evenodd;clip-rule:evenodd;fill:#54469B;enable-background:new    ;}
	.st16{fill-rule:evenodd;clip-rule:evenodd;fill:#B04FE2;}
	.st17{fill-rule:evenodd;clip-rule:evenodd;fill:#8B40E0;}
	.st18{fill-rule:evenodd;clip-rule:evenodd;fill:#FF77F4;}
	.st19{fill-rule:evenodd;clip-rule:evenodd;fill:#EA9CF4;}
	.st20{fill-rule:evenodd;clip-rule:evenodd;fill:#D374F4;}
	
		.st21{opacity:0.5;fill-rule:evenodd;clip-rule:evenodd;fill:url(#SVGID_00000121997774509608062080000009885195919381056934_);enable-background:new    ;}
	
		.st22{opacity:0.5;fill-rule:evenodd;clip-rule:evenodd;fill:url(#SVGID_00000147927520148272123640000009606242977079405184_);enable-background:new    ;}
	.st23{fill-rule:evenodd;clip-rule:evenodd;fill:#FFFFF8;}
	.st24{fill-rule:evenodd;clip-rule:evenodd;fill:#F5CEFA;}
</style>
<g>
	
		<radialGradient id="SVGID_1_" cx="180" cy="629" r="180" gradientTransform="matrix(1 0 0 1 0 -449)" gradientUnits="userSpaceOnUse">
		<stop  offset="0" style="stop-color:#E213FF"/>
		<stop  offset="0.9" style="stop-color:#E213FF;stop-opacity:0"/>
	</radialGradient>
	<circle class="st0" cx="180" cy="180" r="180"/>
	
		<radialGradient id="SVGID_00000179628368461055722820000015737600610962494900_" cx="191.92" cy="639.26" r="151.7" gradientTransform="matrix(1 0 0 1 0 -449)" gradientUnits="userSpaceOnUse">
		<stop  offset="0" style="stop-color:#E213FF"/>
		<stop  offset="0.9" style="stop-color:#E213FF;stop-opacity:0"/>
	</radialGradient>
	
		<circle style="fill-rule:evenodd;clip-rule:evenodd;fill:url(#SVGID_00000179628368461055722820000015737600610962494900_);" cx="191.9" cy="190.3" r="151.7"/>
	
		<radialGradient id="SVGID_00000020370949799488247940000013679039154663543680_" cx="178.4" cy="626.38" r="144.76" gradientTransform="matrix(1 0 0 1 0 -449)" gradientUnits="userSpaceOnUse">
		<stop  offset="0" style="stop-color:#E213FF"/>
		<stop  offset="1" style="stop-color:#E213FF;stop-opacity:0"/>
	</radialGradient>
	
		<circle style="fill-rule:evenodd;clip-rule:evenodd;fill:url(#SVGID_00000020370949799488247940000013679039154663543680_);" cx="178.4" cy="177.4" r="144.8"/>
	
		<radialGradient id="SVGID_00000086677086621514541480000008184240274789643935_" cx="87.1118" cy="572.5722" r="222.0906" gradientTransform="matrix(1 0 0 1 0 -449)" gradientUnits="userSpaceOnUse">
		<stop  offset="5.586590e-03" style="stop-color:#FF9AFF"/>
		<stop  offset="9.300000e-02" style="stop-color:#FB94FF"/>
		<stop  offset="0.2093" style="stop-color:#F183FF"/>
		<stop  offset="0.3418" style="stop-color:#E068FF"/>
		<stop  offset="0.4864" style="stop-color:#C841FF"/>
		<stop  offset="0.639" style="stop-color:#A910FF"/>
		<stop  offset="0.6844" style="stop-color:#9F00FF"/>
		<stop  offset="0.7432" style="stop-color:#9900F8"/>
		<stop  offset="0.8282" style="stop-color:#8700E5"/>
		<stop  offset="0.9287" style="stop-color:#6A00C6"/>
		<stop  offset="1" style="stop-color:#5200AB"/>
	</radialGradient>
	<path style="fill-rule:evenodd;clip-rule:evenodd;fill:url(#SVGID_00000086677086621514541480000008184240274789643935_);" d="
		M317.6,210.7l-1,3.7c0,0.2-0.1,0.3-0.1,0.5c-2.8,9.6-6.6,18.9-11.2,27.6c-7.6,14.1-17.4,26.9-29.1,37.8
		c-13.6,12.6-29.5,22.7-47.2,29.4c-15.9,6.1-33.2,9.4-51.3,9.4c-2.6,0-5.2-0.1-7.7-0.2h0c-3.8-0.2-7.5-0.5-11.2-1
		c-24.3-3.2-46.7-12.4-65.7-26.1c-1.8-1.3-3.5-2.6-5.2-4c3.3-2.9,10.4-3.2,10.4-3.2l-9.8-7.8l-24.5-13.2c-4.7-5.9-9-12.3-12.7-19
		c-0.9-1.6-1.7-3.2-2.6-4.8c0-0.1-0.1-0.1-0.1-0.1c-0.9-1.7-1.7-3.5-2.5-5.2c0,0,0,0,0,0c-2.5-5.5-4.7-11.2-6.5-17.1
		c-1.3-4.2-2.5-8.5-3.4-13c-0.1,0-0.1-0.1-0.1-0.1c-0.6-3.1-1.2-6.2-1.6-9.4c-1-6.7-1.5-13.5-1.5-20.5c0-1.6,0-3.2,0.1-4.8
		c0.1-2.4,0.2-4.8,0.4-7.1c0.2-2.3,0.4-4.6,0.7-6.9c0-0.2,0-0.3,0.1-0.5c0.4-3.2,0.9-6.3,1.6-9.5c0.9-4.5,2-9,3.4-13.3
		c1.8-6.1,4-12,6.6-17.6c2.5-5.5,5.3-10.8,8.5-16c9.9-5.2,16.2-7.9,16.2-7.9s168.4-33.4,171-36.3c2.6-2.8,15.3-1.1,15.3-1.1
		c7.9,5.2,15.3,11.1,22,17.7c1.6,1.5,3.1,3.1,4.6,4.7c1,1.1,2,2.2,3,3.4c1.7,1.9,3.3,3.9,4.9,5.9c5.8,7.3,10.8,15.2,15.1,23.6
		c1.7,3.2,3.2,6.5,4.6,9.9c0,0,0,0.1,0,0.1c13,50.8-3,93.9-3,93.9C311.6,211.2,314.8,210.8,317.6,210.7z"/>
	
		<radialGradient id="SVGID_00000172399969274510057190000008328664053727426480_" cx="87.1118" cy="572.5722" r="222.0906" gradientTransform="matrix(1 0 0 1 0 -449)" gradientUnits="userSpaceOnUse">
		<stop  offset="5.586590e-03" style="stop-color:#FF9AFF"/>
		<stop  offset="9.300000e-02" style="stop-color:#FB94FF"/>
		<stop  offset="0.2093" style="stop-color:#F183FF"/>
		<stop  offset="0.3418" style="stop-color:#E068FF"/>
		<stop  offset="0.4864" style="stop-color:#C841FF"/>
		<stop  offset="0.639" style="stop-color:#A910FF"/>
		<stop  offset="0.6844" style="stop-color:#9F00FF"/>
		<stop  offset="0.7432" style="stop-color:#9900F8"/>
		<stop  offset="0.8282" style="stop-color:#8700E5"/>
		<stop  offset="0.9287" style="stop-color:#6A00C6"/>
		<stop  offset="1" style="stop-color:#5200AB"/>
	</radialGradient>
	<path style="fill-rule:evenodd;clip-rule:evenodd;fill:url(#SVGID_00000172399969274510057190000008328664053727426480_);" d="
		M317.6,210.7l-1,3.7c0,0.2-0.1,0.3-0.1,0.5c-2.8,9.6-6.6,18.9-11.2,27.6c-7.6,14.1-17.4,26.9-29.1,37.8
		c-13.6,12.6-29.5,22.7-47.2,29.4c-15.9,6.1-33.2,9.4-51.3,9.4c-2.6,0-5.2-0.1-7.7-0.2h0c-3.8-0.2-7.5-0.5-11.2-1
		c-24.3-3.2-46.7-12.4-65.7-26.1c-1.8-1.3-3.5-2.6-5.2-4c3.3-2.9,10.4-3.2,10.4-3.2l-9.8-7.8l-24.5-13.2c-4.7-5.9-9-12.3-12.7-19
		c-0.9-1.6-1.7-3.2-2.6-4.8c0-0.1-0.1-0.1-0.1-0.1c-0.9-1.7-1.7-3.5-2.5-5.2c0,0,0,0,0,0c-2.5-5.5-4.7-11.2-6.5-17.1
		c-1.3-4.2-2.5-8.5-3.4-13c-0.1,0-0.1-0.1-0.1-0.1c-0.6-3.1-1.2-6.2-1.6-9.4c-1-6.7-1.5-13.5-1.5-20.5c0-1.6,0-3.2,0.1-4.8
		c0.1-2.4,0.2-4.8,0.4-7.1c0.2-2.3,0.4-4.6,0.7-6.9c0-0.2,0-0.3,0.1-0.5c0.4-3.2,0.9-6.3,1.6-9.5c0.9-4.5,2-9,3.4-13.3
		c1.8-6.1,4-12,6.6-17.6c2.5-5.5,5.3-10.8,8.5-16c9.9-5.2,16.2-7.9,16.2-7.9s168.4-33.4,171-36.3c2.6-2.8,15.3-1.1,15.3-1.1
		c7.9,5.2,15.3,11.1,22,17.7c1.6,1.5,3.1,3.1,4.6,4.7c1,1.1,2,2.2,3,3.4c1.7,1.9,3.3,3.9,4.9,5.9c5.8,7.3,10.8,15.2,15.1,23.6
		c1.7,3.2,3.2,6.5,4.6,9.9c0,0,0,0.1,0,0.1c13,50.8-3,93.9-3,93.9C311.6,211.2,314.8,210.8,317.6,210.7z"/>
	
		<radialGradient id="SVGID_00000049926570861079244870000007265824650121834124_" cx="93.4098" cy="559.7214" r="218.3126" gradientTransform="matrix(1 0 0 1 0 -449)" gradientUnits="userSpaceOnUse">
		<stop  offset="5.586590e-03" style="stop-color:#FF9AFF"/>
		<stop  offset="9.300000e-02" style="stop-color:#FB94FF"/>
		<stop  offset="0.2093" style="stop-color:#F183FF"/>
		<stop  offset="0.3418" style="stop-color:#E068FF"/>
		<stop  offset="0.4864" style="stop-color:#C841FF"/>
		<stop  offset="0.639" style="stop-color:#A910FF"/>
		<stop  offset="0.6844" style="stop-color:#9F00FF"/>
		<stop  offset="0.7432" style="stop-color:#9900F8"/>
		<stop  offset="0.8282" style="stop-color:#8700E5"/>
		<stop  offset="0.9287" style="stop-color:#6A00C6"/>
		<stop  offset="1" style="stop-color:#5200AB"/>
	</radialGradient>
	<path style="fill-rule:evenodd;clip-rule:evenodd;fill:url(#SVGID_00000049926570861079244870000007265824650121834124_);" d="
		M313.5,174.3c0,5.1-0.3,10.2-0.9,15.1c-0.8,7.7-2.3,15.2-4.4,22.5c0,0.2-0.1,0.3-0.1,0.5c-2.6,9.1-6.2,17.7-10.6,25.9
		c-7.1,13.3-16.4,25.2-27.3,35.5c-12.7,11.9-27.8,21.3-44.3,27.6c-15,5.7-31.2,8.8-48.3,8.8c-2.4,0-4.8-0.1-7.2-0.2h0
		c-3.6-0.2-7.1-0.5-10.6-0.9c-22.8-3-43.9-11.6-61.7-24.6c-2.7-1.9-5.2-3.9-7.7-6c-0.7-0.6-1.4-1.1-2-1.8
		c-6.5-5.6-12.4-11.8-17.6-18.6c-4.4-5.6-8.4-11.5-11.9-17.8c-0.8-1.5-1.6-3-2.4-4.5c0-0.1,0-0.1-0.1-0.1c-0.8-1.6-1.6-3.3-2.4-4.9
		c0,0,0,0,0,0c-2.4-5.2-4.4-10.6-6.1-16.1c-1.3-4-2.3-8-3.2-12.2c0,0,0-0.1,0-0.1c-0.6-2.9-1.1-5.8-1.5-8.8
		c-0.9-6.3-1.4-12.7-1.4-19.3c0-1.5,0-3,0.1-4.5c0.1-2.2,0.2-4.5,0.4-6.7c0.2-2.2,0.4-4.4,0.7-6.5c0-0.2,0-0.3,0.1-0.5
		c0.4-3,0.9-6,1.5-8.9c0.8-4.2,1.9-8.4,3.2-12.5c1.7-5.7,3.8-11.2,6.2-16.6c2.6-5.8,5.7-11.4,9.1-16.8c2.4-3.7,4.9-7.3,7.6-10.8
		c3.8-4.9,7.9-9.5,12.3-13.8c24.5-23.8,57.9-38.5,94.7-38.5c1.4,0,2.9,0,4.3,0.1c1.5,0.1,3,0.1,4.6,0.2c4.2,0.3,8.4,0.7,12.5,1.4
		c0.1,0,0.1,0,0.1,0c3.4,0.5,6.8,1.2,10.2,2c4.3,1,8.5,2.2,12.7,3.7c2.8,0.9,5.6,2,8.3,3.2c2,0.9,4,1.7,6,2.7c0.3,0.2,0.7,0.3,1,0.5
		c13.2,6.5,25.2,14.9,35.5,25.1c1.5,1.4,2.9,2.9,4.4,4.4c0.9,1,1.9,2.1,2.8,3.2c1.6,1.8,3.1,3.6,4.6,5.5
		c5.4,6.9,10.2,14.3,14.2,22.1c4.7,9.1,8.3,18.8,10.8,29c1.6,6.4,2.7,13,3.4,19.8C313.3,165.6,313.5,169.9,313.5,174.3z"/>
	
		<radialGradient id="SVGID_00000040539041677337451180000004727331180032082092_" cx="122.119" cy="536.6324" r="48.8156" gradientTransform="matrix(1 0 0 1 0 -449)" gradientUnits="userSpaceOnUse">
		<stop  offset="0" style="stop-color:#FFFFFF"/>
		<stop  offset="1" style="stop-color:#623964"/>
	</radialGradient>
	
		<path style="opacity:0.3;fill-rule:evenodd;clip-rule:evenodd;fill:url(#SVGID_00000040539041677337451180000004727331180032082092_);" d="
		M111.2,120.1c0,0-3.6,8-0.6,16.2s11.4,2.7,21.5,0s20.4-13.3,26.9-19.8c6.5-6.5,12.8-15.5,12.2-24.2c-0.5-8.7-9.7-14.4-9.7-14.4
		s3.3-4.3,0.5,12.8s-6.6,23.1-10.3,25.8s-14.7,9.2-20.8,12.8c-6.1,3.6-12.8,7.4-16.8,6.5C110.1,134.8,108,125.8,111.2,120.1z"/>
	<path class="st7" d="M129.6,114.3c0,0-5.1,4.6-3.8,8.3s11.1,1.3,17.4-6.6s1.3-14.3,1.3-14.3s-2.3,13.2-8.4,15.5s-8.1,1.3-8.1,1.3
		S127.2,117.4,129.6,114.3z"/>
	<path class="st7" d="M114,120c0,0,5-5.7,10.7-11s15.6-7.4,15.6-7.4s-5.8-3.1-13.2,1.2C119.8,107.1,114,120,114,120z"/>
	<path class="st7" d="M93.6,120.1c0,0,11.6-12.9,25.8-18.5s19-7.2,25.3-12.4c6.3-5.2,13.3-9.3,13.3-9.3s-13.8,0.7-34.8,14
		S93.5,115.7,93.6,120.1z"/>
	<path class="st7" d="M65.2,117.5c0,0,20.1-20.1,35.9-28s26.4-13,40.5-16.6s36-9.7,36-9.7l3.9-2c0,0-44.9,0.9-74.4,18.7
		S65.2,117.5,65.2,117.5z"/>
	
		<linearGradient id="SVGID_00000070099989612734600950000009598426526600593824_" gradientUnits="userSpaceOnUse" x1="86.7436" y1="568.451" x2="224.78" y2="568.451" gradientTransform="matrix(1 0 0 1 0 -449)">
		<stop  offset="0" style="stop-color:#BDFFE8"/>
		<stop  offset="1" style="stop-color:#BDFFE8;stop-opacity:0"/>
	</linearGradient>
	
		<path style="opacity:0.5;fill-rule:evenodd;clip-rule:evenodd;fill:url(#SVGID_00000070099989612734600950000009598426526600593824_);enable-background:new    ;" d="
		M89.4,140.7c0,0,3.4,27.8,8.2,29c4.8,1.2,22.1,1.1,47.9-12c25.7-13.2,31-10.1,45.4-24.8s20.3-31.3,24.7-42.3
		c4.5-11,5.8-23.5,4.4-27.4c0,0,4.9,2.9,4.9,13.8s-3.3,29.1-7.9,39.7c-4.6,10.6-16.6,27.1-31,35.3s-43.2,23.8-71.5,23.6
		c-28.3-0.2-23.8-2.3-26.7-7.9C84.8,162.1,89.4,140.7,89.4,140.7z"/>
	<path class="st7" d="M45.3,164.4c0,0,5.1,11.2,7.9,21.4s2.3,27.6,14,30.3c11.7,2.7,28,10.3,34.2,8.4c6.3-1.9,29.3-6,42.1-3.5
		c12.8,2.5,36.1,1.1,44.3-3c8.2-4.1,25.7-14.5,34.1-17.7c8.3-3.2,19.9-12.3,29.8-22.4c9.9-10.1,9.8-21.6,12.2-27.3
		c2.4-5.7,7.3-28.5,6.8-38.9s-6.8-29.6-6.8-29.6l-5.8-6.1c0,0,7.2,26.5,3.9,45.3c-3.3,18.8-0.3,26.4-13.3,44.3
		c-13,17.9-31.3,32.1-51.6,38.9s-33.4,6-54.6,7.9c-19.8,1.8-44.3,0.4-54.1-2.1c-8.8-2.3-20.6-8.2-29.6-22.5
		C49.7,173.5,45.3,164.4,45.3,164.4z"/>
	<path class="st9" d="M90.2,135c0,0,1.9,30.2,5.7,32.7c3.8,2.6,12,3.7,19.6,1.1s33.7-11.1,38.2-13.9s32-16.4,37.4-20.5
		c5.4-4.1,12.6-18.6,15.1-21.6s9.1-20.9,11-27.7c1.9-6.8,3.3-14.9,3.3-14.9s0.5-3.8-2.7-5c-3.3-1.2-3.8,0-3.8,0s-0.7,4.5-3.5,17.4
		c-2.9,12.9-41.3,57.2-60.7,68.8s-37.9,12-44.6,11.1C98.4,161.7,90.1,140.2,90.2,135z"/>
	<path class="st9" d="M89.4,140.7c0,0,0.8-18.8,5.6-25.1s21.1-19.3,30.7-24.2c9.6-4.9,23.6-11.8,28.5-12.9c4.9-1,8.3,0,8.3,0
		s-5.9-3.2-19.3,0.2s-28.7,15.9-36,19.8c-7.3,3.9-18.8,13.2-21.5,18C83,121.3,89.4,140.7,89.4,140.7z"/>
	<path class="st9" d="M56.3,120.9L98,84.4l25.8-11.7c0,0,25.5-8.7,37.2-11.4s37.9-3.5,37.9-3.5l13.7,1.5c0,0-23.9-13-59.3-3.5
		c-35.3,9.5-58.8,21.4-69.1,31.1S58.3,116.1,56.3,120.9z"/>
	
		<linearGradient id="SVGID_00000168080127335428720680000014432769075808171686_" gradientUnits="userSpaceOnUse" x1="34.7339" y1="591.3918" x2="277.8807" y2="591.3918" gradientTransform="matrix(1 0 0 1 0 -449)">
		<stop  offset="0" style="stop-color:#BDFFE8"/>
		<stop  offset="1" style="stop-color:#BDFFE8;stop-opacity:0"/>
	</linearGradient>
	
		<path style="opacity:0.5;fill-rule:evenodd;clip-rule:evenodd;fill:url(#SVGID_00000168080127335428720680000014432769075808171686_);enable-background:new    ;" d="
		M55.1,122.5c0,0-22.4,27-11.5,43.7c10.9,16.6,15.7,40.6,18.8,46.2c3.2,5.6,39.2,14,46.7,12.2s25.5-6.4,37.2-1.9
		c0,0,20.8-1.8,26.8-1.8s16.8-5.1,19.4-6.3c2.5-1.3,16.7-5.8,23.9-8.7c7.2-2.9,18.8-12,23.6-15.6s17-18.3,19.4-22.8
		c2.4-4.5,9.4-31,11.2-43.5c1.8-12.5-3.5-36.6-7.6-44.9S246.2,63,246.2,63l0.7-3.8l10-5.9c0,0,17.4,22.8,19,42.4
		c1,11.5,3.6,36.1,0.6,46.7c-2.4,8.5-10.7,33.4-18,42.3c-7.2,8.9-29,31.6-40.6,36c-11.6,4.4-45.8,10.3-66,10.7
		c-14.9,0.3-47.6-2.4-63.6-2.9s-27.6-10.6-34-15.7c-6.4-5.1-4.2-19-10.7-30s-10.1-25.6-8.5-33.5C36.7,141.4,55.1,122.5,55.1,122.5z"
		/>
	<path class="st11" d="M94.5,225.5c-3.4-0.8-6.5-2.7-10-3.6c-1.9-0.5-3.8-0.7-5.7-1.3c-1.9-0.5-4-0.9-6-1c-4-0.1-8.1-1.1-10.6-4.4
		c-2.2-3-3.6-6.1-4.6-9.7c-1.3-4.8-2.6-9.6-4.1-14.5c-1.4-4.4-3.3-8.4-5.7-12.3c-1-1.6-1.8-3.2-2.9-4.7c-1-1.4-2.3-2.7-3.1-4.2l0,0
		c-1.9-4-2.6-8.5-2.4-12.8c0.1-2.4,0.7-4.6,1.2-6.9c0.7-2.9,1.4-5.5,2.9-8.1c1.4-2.4,2.7-4.8,4.1-7.3c3.1-5.4,6.3-10.8,10.1-15.6
		c4.9-6.2,10.4-12,15.9-17.6c3.2-3.3,6.9-6.1,10.5-8.9c3.1-2.3,6-4.8,9-7.1c5.3-4,11.3-6.6,17.2-9.5c7.1-3.4,14.3-6.8,21.7-9.5
		c8.8-3.2,17.9-5.8,27.1-7.6c10.5-2.1,21.5-2.6,32.2-2.5c5.9,0,12.1-0.7,17.7,1.5c3.2,1.2,6.8,2.5,9.6,4.4c0.6,0.4,0.9,0.5,1.3,1.1
		c0.3,0.3,0.4,0.8,0.5,1.2c0.4,1,0.9,2.7,0.9,3.7c0,1.2-0.5,2.2-0.5,3.4c0,1.7-0.4,3.3-0.5,5c-0.1,2-0.6,3.5-0.9,5.5
		c-0.6,3.6-1.1,7-2.5,10.3c-2,4.8-3.3,10-5.5,14.7c-0.7,1.5-1.8,2.6-2.5,4c-0.6,1.3-1.2,2.4-2,3.7c-1.4,2.4-2.6,4.8-4.2,7
		c-3.3,4.6-6.7,9.5-11.1,13.1c-5.3,4.4-11.1,7.9-17.2,11.2c-4,2.1-8.1,3.8-12.1,5.8c-3.6,1.8-7.2,3.6-10.8,5.3
		c-9.3,4.3-19.2,7.5-28.9,10.6c-2.8,0.9-5.5,1.8-8.3,2.2c-2.6,0.4-5.7,1.2-8.4,1.2c-2.9-0.1-5.9-0.7-8.6-1.7
		c-4.6-1.5-5.1-6.6-5.5-10.8c-0.3-3-0.6-6.3-1.2-9.3c-0.5-2.5-0.7-5-1.2-7.5c-0.6-2.6-0.9-5.2-1-7.8c-0.1-3.3,1.2-6.5,2-9.7
		c0.5-2.1,0.7-4.2,1.6-6.3c1.2-2.9,3.6-5.5,5.9-7.5c2.4-2.1,4.7-4.2,7.1-6.4c1.4-1.3,3.1-2.3,4.6-3.5c2.6-2.1,5.5-3.7,8.5-5.2
		c2.4-1.2,4.1-3.2,6.3-4.6c2.2-1.5,4.8-3,7.2-4.2c2.1-1,4.4-1.7,6.5-2.6c1.8-0.7,3.4-1.7,5.2-2.3c1.7-0.6,3.4-0.7,5-1.4
		c1.6-0.7,3.1-1.3,4.8-1.7c1.9-0.5,4-1.2,5.9-1.3c3.7-0.1,5.6,1.8,6.5,5.4c1.3,4.9-0.2,9.1-2,13.7c-1.4,3.7-3,7.3-4.4,11
		c-1.9,5-6.3,7.6-10,11c-3.9,3.6-8.8,6.7-13.6,8.9c-1.5,0.7-3.2,1.1-4.6,1.7c-1.3,0.6-2.6,1.3-3.8,2c-0.8,0.5-1.4,1.1-2.2,1.6
		c-0.7,0.5-1.5,0.7-2.2,1.2c-1.7,1.1-3.5,2.3-5.4,3.1c-1.8,0.8-5.5,1.3-6.7-0.8c-0.6-1.1-0.5-2.6-0.8-3.8c-0.3-1.5-0.4-2.8-0.4-4.3
		c0-1.5,0.3-2.6,0.5-4.1c0.2-1.4,0.9-2.5,1.3-3.9c1.4-3.9,4.1-6.8,6.5-10c1.5-2,2.8-4,4.5-5.9c2.6-2.8,6.2-4.1,9.9-5
		c3.3-0.8,8.1-1.8,11.2,0.1c2.6,1.6,0.8,5-0.1,7.2c-0.5,1.2-0.9,2.4-1.3,3.6c-0.3,0.9-0.4,1.9-0.9,2.8c-1.1,1.8-3.2,3-4.7,4.4
		c-0.7,0.6-1.9,1.5-2.7,1.7c-1.1,0.3-2.3,0.3-3.4,0.6c-0.5,0.1-0.8,0.8-1.5,0.5c-0.6-0.2-0.6-0.9-0.5-1.5c0.1-0.6,0.4-1.1,0.5-1.7
		c0-0.1-0.1-0.3-0.1-0.5c0.5-1.7,2.6-3.8,3.6-5.3c1.5,0.6,0.5,1.5,0.2,2.2c-0.2,0.6-0.2,1.1-0.3,1.7c-0.1,0.5-0.9,1.4-0.3,1.9
		c0.4,0.4,1.6-0.3,2-0.4c3.3-1.2,5.5-4.8,6.5-8.1c0.7-2.2,0.5-5.9-1.8-6.8c-1.8-0.7-3.9-0.3-5.8-0.3c-6.7-0.1-10.7,7.1-14.3,11.7
		c-2.4,3.2-4.3,6.7-5.7,10.5c-1,2.6-1.4,5.3-2.1,7.9c-0.5,1.9-1.1,4.9,1.8,4.5c1.7-0.3,3.6-1.2,5.2-1.7c1.4-0.5,2.7-1,4-1.7
		c2.1-1.1,4.5-1.5,6.7-2.4c1.7-0.8,3.5-1.7,5.2-2.6c4.4-2.2,8.8-6.5,11.9-10.3c2.1-2.6,5-4.5,7.4-6.8c2.5-2.4,3.8-5.5,5.5-8.5
		c1.7-3,2.6-6,3.3-9.3c0.7-3,2.5-6.4,1.5-9.5c-1-3.2-5.1-3.3-7.8-2.8c-2.2,0.4-4.6,0.7-6.7,1.6c-3.9,1.5-7.7,3.2-11.6,4.8
		c-6.1,2.5-11.2,6.7-16.8,10.1c-2.8,1.7-5.9,3-8.5,5.1c-2,1.5-3.8,3.3-5.7,5c-1.3,1.2-2.4,2.5-3.9,3.5c-1.9,1.3-3.8,2.8-5.3,4.7
		c-1.2,1.5-2.5,3.3-3.2,5.2c-0.5,1.5,0,2.8,0.1,4.3c0.1,2-0.5,3.9-0.5,5.9c-0.1,2.1,0,4.3,0,6.4c0,4.2-0.6,8.2-0.5,12.4
		c0.1,2.6,0.6,5.3,1.1,7.9c0.4,2,1.2,3.8,1.4,5.9c0.1,1.3,0.3,3.1,1.5,4c0.6,0.4,1.3,0.5,2,0.8c0.6,0.2,1.1,0.4,1.7,0.6
		c0.3,0.1,0.7,0.2,1,0.3c0.3,0.1,0.5,0.5,0.7,0.6c0.7,0.3,1.7,0.1,2.4,0c1.7-0.3,3.3-0.7,5-1c4.2-0.7,8.4-0.6,12.3-2.1
		c4.6-1.7,8.8-4.2,13.3-6c6.7-2.8,14-4.8,20.4-8.2c2.9-1.6,5.9-3,8.9-4.4c7.1-3.2,14.5-5.8,20.7-10.6c2.4-1.8,4.2-3.9,6.2-6.1
		c1.1-1.2,2.4-2.3,3.4-3.7c3-4,6-8.3,8.3-12.7c1-1.9,1.6-3.9,2.6-5.8c1.6-2.9,3.6-5.5,5-8.4c1.5-2.9,2.3-5.9,3.3-9
		c0.6-1.9,1-3.4,1-5.5c-0.1-4,0.4-7.5,2-11.2c0.9-2,2.2-5,1.5-7.3c-0.3-1.1-2-1.4-2.9-1.7c-2.3-0.8-4.7-1.3-6.9-2.3
		c-2-0.9-3.5-2-5.7-2.4c-0.9-0.2-1.6-0.3-2.5-0.3c-2.2,0.1-4,1.6-6.2,1.5c-0.7,0-1.2-0.3-2-0.4c-1.1-0.2-2.3-0.1-3.4-0.1
		c-2.5-0.1-4.8-0.5-7.3-0.5c-2.9,0-5.8,0.3-8.7,0.5c-2.7,0.1-5.5-0.1-8.2,0c-1.7,0.1-2.8,0.9-4.4,1.5c-1.4,0.6-3,0.9-4.4,1.4
		c-1.3,0.5-2.5,1-3.9,1c-1.9,0-3.8-0.3-5.7,0.1c-2.2,0.5-4.7,1.5-6.8,2.4c-6.1,2.6-12,5.9-18.4,7.9c-3.1,0.9-6.2,1.4-9.2,2.6
		c-1.1,0.5-2.1,1.3-3.1,1.9c-2,1.3-4.1,2.6-6.2,3.9c-4.6,2.9-9,6.1-13.4,9.4c-5.2,3.8-10.1,7.7-14.4,12.6
		c-7.5,8.6-15.2,17.2-21.7,26.6c-3.1,4.4-6.5,9.2-8.7,14.1c-0.1,0.1-0.1,0.2-0.1,0.3c-1.2,2.8-1.8,5.8-1.4,8.9c0,0.1,0,0.1,0,0.2
		c0.3,2.5,1.4,5.5,2.4,7.8s1.8,4.7,3.1,6.9c1.4,2.4,3.4,4.4,4.4,6.9c1.2,3.2,2.4,6.6,3.3,9.9c1.2,4.2,2.2,8.5,3,12.7
		c0.5,2.6,0.9,5.3,2.2,7.7c1.8,3.4,5.5,4.6,8.5,6.6c1.6,1.1,2.7,1.4,4.7,1.5c2.7,0.1,5.3,0.8,7.9,1.6c5.6,1.7,11.1,3,17,2.9
		c3.5,0,6.8-1,10.2-1.4c3.2-0.4,6.4-0.7,9.5-1.2c2.9-0.5,5.7-1.3,8.6-1.3c2.8,0,5.9,0.5,8.6,1.2c4.8,1.3,9.5,2.4,14.5,2.2
		c3-0.1,6-0.8,9-1c2.8-0.2,5.5,0.3,8.3,0.5c5,0.3,9.8-0.9,14.4-2.4c3.2-1,5.8-2.6,8.7-4.2c2.3-1.3,4.5-1.7,7-2.4
		c4.9-1.3,9.8-3.1,14.3-5.7c5.9-3.3,10.7-8.2,16.4-11.8c3.2-2,6.8-3.3,10-5.5c2.6-1.7,5-3.8,7.2-6c2.6-2.6,5-5.3,7.5-7.9
		c2-2,2.7-4.4,3.9-6.9c1.7-3.6,2.3-7.4,3-11.4c0.7-3.9,2.4-7.3,4.1-11c2.2-4.6,4-9,4.4-14.1c0.4-3.9,0.9-7.8,0.9-11.7
		c0-2.5-0.4-4.9-0.7-7.4c-0.3-2.3-0.8-4.5-1.3-6.8c-0.6-2.8-0.5-5.7-1.1-8.5c-0.5-2.4-1.2-5-1.9-7.3c-0.5-1.7-1.1-3.4-1.8-5
		c-1.3-2.8-2.9-5.8-5-8.2c-0.9-1-2-1.3-2.9-2c-0.7-0.6-0.9-1.1-1.8-1.5c-1.2-0.6-2.4-1.2-3.6-1.9c-1.9-1.1-4-1.4-5.9-2.4
		c-1.8-1-3.4-2.3-5.2-3.4c-2-1.2-3.9-2.1-5.6-3.7c-1.7-1.6-2.8-3.6-4.4-5.2c-1.6-1.7-4-2.8-5.9-4.2c-3.2-2.5-7.1-2.7-10.7-4.3
		c-1.9-0.8-3.6-0.9-5.6-1.3c-2.2-0.5-3.7-1.8-6.1-2.1c-2.1-0.2-4.2-0.3-6.2-0.8c-1.2-0.3-2.4-0.6-3.6-0.7c-2.4-0.2-4.8,0.1-7.2,0.4
		c-2.1,0.2-4.3,0.1-6.4,0.1c-1.8,0-3.6,0.2-5.4-0.1c-5-0.8-10.6-0.7-15.7-0.3c-4.9,0.3-9.6,0.7-14.3,2.3c-3.9,1.3-7.8,2.5-11.6,4.1
		c-2.6,1.1-4.9,2.5-7.4,3.9c-5.9,3.3-11.4,7.4-17,11.2c-6.3,4.2-12.2,8.8-18.3,13.4c-4,3-8,5.9-11.9,9c-1.7,1.3-3.3,2.8-4.9,4.2
		c3.8-4.9,7.9-9.5,12.3-13.8c24.5-23.8,57.9-38.5,94.7-38.5c1.4,0,2.9,0,4.3,0.1c1.5,0.1,3,0.1,4.6,0.2c4.2,0.3,8.4,0.7,12.5,1.4
		c0.1,0,0.1,0,0.1,0c4.7,1.3,9.3,2.6,14,4c3.9,1.2,7.8,2.2,11.6,3.6c2.5,0.9,5,2,7.4,3c2.2,0.9,4.6,1.7,6.7,2.9
		c3.4,1.9,6.5,4.4,9.6,6.7c2.1,1.5,4,3.3,5.9,5.1c2.6,2.6,5,5.4,6.9,8.4c4.6,7.2,8.3,15.3,10.1,23.7c1.5,7.1,1.3,14.7,1,21.9
		c-0.1,3.8-0.8,8.1-1.6,11.8c-0.9,4.2-2.3,8-2.8,12.3c-0.2,2.1,0.1,4.2-0.2,6.3c-0.3,1.7-0.9,3.3-1.3,5c-0.7,3.6-1.8,7.1-3.4,10.4
		c-2.2,4.5-5.3,8.2-8.5,12.1c-3.6,4.3-7.5,8.5-11.3,12.7c-3.8,4.3-8.4,7.7-13.3,10.6c-3.8,2.3-7.7,5-11.9,6.7
		c-3.9,1.5-8.3,3.8-12.5,4.2c-3.2,0.3-5.8,1.5-8.4,3.5c-1.6,1.1-2.8,2.7-4.2,3.9c-1.3,1.1-2.9,1.5-4.4,2c-3.8,1.3-7.4,1-11.4,1
		c-5.6,0-11.1,0.5-16.7,1.1c-2.8,0.3-5.6,0.5-8.4,0.3c-2.5-0.1-5-0.8-7.5-1.1c-2.8-0.3-5.6-0.4-8.3-0.8c-2.2-0.4-3.9-0.4-6.1-0.1
		c-1.8,0.2-3.6,0-5.3,0.1c-1.8,0.2-3.6,0.6-5.5,0.8C110.8,223.6,103,227.5,94.5,225.5z"/>
	<path class="st7" d="M87.7,287.6c0,0,31.8,5.6,46.3,5.2c21.9-0.6,47.1,2.1,66.6,2.6s53.8-15.5,60-18.4c6.3-2.9,21.3-11.6,34.5-26.2
		s18.4-38.4,18.4-38.4H308c0,0-2.1,10.3-10,21.9c-4.8,6.9-11.8,13-21.3,21.3c-13.8,11.9-31.7,21-49.7,25.5c-24,6-45.4,4.3-60.2,6.5
		c-21.3,3.2-68.7-4.4-68.7-4.4L87.7,287.6z"/>
	
		<radialGradient id="SVGID_00000035503125616884317330000006382097163255734195_" cx="82.8914" cy="725.0776" r="14.0336" gradientTransform="matrix(1 0 0 1 0 -449)" gradientUnits="userSpaceOnUse">
		<stop  offset="0" style="stop-color:#6D00C2"/>
		<stop  offset="0.3995" style="stop-color:#6600BC"/>
		<stop  offset="0.976" style="stop-color:#5300AC"/>
		<stop  offset="1" style="stop-color:#5200AB"/>
	</radialGradient>
	<path style="fill-rule:evenodd;clip-rule:evenodd;fill:url(#SVGID_00000035503125616884317330000006382097163255734195_);" d="
		M79.3,271.9c0,0,5.1,13.2,8.4,15.8c0,0,7,0.4,10.4-3.2l-9.8-7.8L79.3,271.9z"/>
	
		<radialGradient id="SVGID_00000145043764641012354450000012470391061652795808_" cx="309.8598" cy="643.4792" r="14.658" gradientTransform="matrix(1 0 0 1 0 -449)" gradientUnits="userSpaceOnUse">
		<stop  offset="0" style="stop-color:#1F0081"/>
		<stop  offset="0.73" style="stop-color:#260087"/>
		<stop  offset="1" style="stop-color:#2A008B"/>
	</radialGradient>
	<path style="fill-rule:evenodd;clip-rule:evenodd;fill:url(#SVGID_00000145043764641012354450000012470391061652795808_);" d="
		M313.9,187.8c0,0,3.4,14.9,3.7,22.9c0,0-5.3,3.3-9.6,1.7C308,212.4,313,194.2,313.9,187.8z"/>
	<path class="st14" d="M221.9,45.8c0,0,28.4,2.8,35,7.5c0,0-4.7,5.3-10,5.9C246.9,59.2,223.9,46.5,221.9,45.8z"/>
	<path class="st14" d="M54.3,98.6l11.6-1.8l4.6-6.1C70.5,90.6,62.2,94.3,54.3,98.6z"/>
	<path class="st15" d="M63.8,263.5c0,0,55,16,98,16.8s59.1-8.7,77.6-15.9c18.6-7.2,49.1-23.6,58.2-35.8
		c9.2-12.2,16.3-40.8,16.3-40.8s-8.8,42.9-16.5,50.5c-7.6,7.6-41.7,30.6-47.7,33.6c-6,3-22.2,15.3-51.6,11.9c0,0-19.8,2.8-26.9,2.2
		s-18.2,6.7-38.6,0.1c0,0-28.4-1.4-34.6-2.8C91.9,281.9,63.8,263.5,63.8,263.5z"/>
	<path class="st16" d="M77.1,205.8c0,0,45.6,7.9,78.6,4.5s50.9-11.6,60.3-17.8c9.4-6.2,27.9-25.9,34.8-34.9s10.4-31.4,10.4-31.4
		s1.2,21.9-4.4,31.4c-5.6,9.5-25,27.6-32.9,32.8s-30.6,17.7-42.4,19.8c-11.8,2.1-31.4,8.1-45.5,5.5
		C121.9,213.2,87.6,213.7,77.1,205.8z"/>
	<path class="st17" d="M140.3,278.8c0,0,47.5-3.3,63.8-6.9c16.3-3.6,37.7-12.4,52.7-17.9c15-5.5,26.3-16.4,34.6-22.4
		c8.3-6,18.9-31.2,18.9-31.2s-6.8,24.9-17.1,33c-10.4,8.1-37,23-67,36.3C192.8,284.5,166.9,280.3,140.3,278.8z"/>
	<path class="st11" d="M305.7,219.2c0.7-2.3,1.5-4.5,2.3-6.7c-2.6,9.1-6.2,17.7-10.6,25.9l-0.1,0.1c-1.3,1.2-2.8,2.2-4,3.6
		c-1.2,1.3-2.3,2.7-3.6,4c-6.2,6.1-13.3,11.4-20.6,16.2c-7.5,4.9-15,9.6-23.3,13.1c-6.3,2.8-12.8,5.1-19.5,6.8
		c-5.4,1.4-11.1,2-16.6,2.2c-2.8,0.1-5.6,0.6-8.3,0.9c-3.5,0.4-7,0.3-10.4,0.9c-5.9,1.1-12,1.9-18,2.2c-5.1,0.3-10.2,1-15.4,1
		c-6.6,0-13.1-1.1-19.7-1c-6.4,0.1-12.9-0.2-19.2-0.8c-3.8-0.4-7.5-1.1-11.3-1.5c-3.2-0.4-6.3-1.1-9.4-1.4c-2.7-1.9-5.2-3.9-7.7-6
		c-0.7-0.6-1.4-1.1-2-1.8c3.6,1.1,7.2,2.4,10.8,3.5c5.1,1.6,10.8,2.6,16.2,3.2c4.4,0.5,9.6,0.9,13.9-0.1c4.5-1.1,7.8,0.3,11.9,2
		c1.9,0.8,3.8,1.1,5.8,1.7c2.8,0.8,4.8,0.6,7.7,0.3c2.5-0.3,5.1-0.7,7.6-1.3c2.1-0.5,4.2-1.3,6.3-1.6c3.7-0.5,7.7-1,11.4-0.3
		c4.3,0.7,8.6,1.2,12.9,0.5c4.5-0.7,8.7-1.2,13.3-1.2c1.5,0,2.8,0.1,4.3,0.4c1.7,0.3,3.2-0.2,4.8-0.3c3-0.3,5.6-0.7,8.5-1.6
		c2.6-0.8,5.2-2,7.7-3c5-1.9,9.6-3.8,14.1-6.8c3.8-2.5,7.9-4.3,11.7-6.7c3.6-2.4,6.9-5.3,10.6-7.5c3.9-2.4,7.5-5.3,11.3-8
		c2.4-1.7,4.5-3.7,6.9-5.4c2.1-1.5,4.3-2.7,6.3-4.4c3.3-2.8,6.4-5.9,8.5-9.7C302.8,226.7,304.5,223,305.7,219.2z"/>
	<path class="st18" d="M160.1,143.6c0,0,32.8-26.8,46.6-53C206.7,90.6,168.5,129.9,160.1,143.6z"/>
	<path class="st19" d="M125.6,175.6c0,0,20.7,0.1,43.6-9.4s34.4-29.3,34.4-29.3s-15.5,14.8-32.4,23.1
		C154.4,168.3,141.6,170.4,125.6,175.6z"/>
	<path class="st19" d="M207.5,132.2c0,0,2.3-5.9,6.7-16.3s7.8-15.9,7.8-15.9S220.5,115.8,207.5,132.2z"/>
	<path class="st20" d="M118.5,230.2c0,0,28.8,7,66.3,0c37.5-7,39.1-9.3,49.5-17.4c10.3-8.1,17.7-18.5,21.7-22.4
		c4.1-3.9,9.2-17.5,9.2-17.5s-10.6,19.1-25.8,31.8s-27.7,19-53.2,22.8C160.6,231.4,131.3,231,118.5,230.2z"/>
	<path class="st20" d="M143.8,292.7c0,0,26.1,2.3,36.7,4.4c10.6,2.2,31,2.1,42.7-2.2c11.7-4.3,34.8-16.7,34.8-16.7
		s-21.6,12.1-47.3,14.8C184.9,295.8,169.2,291.4,143.8,292.7z"/>
	<path class="st20" d="M265.6,274.4c0,0,16.6-11.1,24.7-18.5C290.2,255.9,281.6,267.8,265.6,274.4z"/>
	<path class="st7" d="M139.7,132.9c0,0,18.9-14.2,24.9-24.5s6.6-16.1,6.6-16.1s2.7,10-8.7,22.7C151.2,127.7,139.7,132.9,139.7,132.9
		z"/>
	
		<linearGradient id="SVGID_00000043428961315020152100000011357766915294294427_" gradientUnits="userSpaceOnUse" x1="93.6446" y1="581.649" x2="112.6355" y2="581.649" gradientTransform="matrix(1 0 0 1 0 -449)">
		<stop  offset="0" style="stop-color:#BDFFE8"/>
		<stop  offset="1" style="stop-color:#BDFFE8;stop-opacity:0"/>
	</linearGradient>
	
		<path style="opacity:0.5;fill-rule:evenodd;clip-rule:evenodd;fill:url(#SVGID_00000043428961315020152100000011357766915294294427_);enable-background:new    ;" d="
		M95.6,122.9c-1.5,6.9-3.1,14-0.7,20.7c2.4,6.7,6,11,9.4,11.4s8.5-7.8,8.3-10.1c-0.2-2.4-5.6-8.5-6-14.7s6.4-15.2,6-18.7
		C112.3,108.1,98.1,111.5,95.6,122.9z"/>
	
		<linearGradient id="SVGID_00000101786098162793967700000013463497288075291533_" gradientUnits="userSpaceOnUse" x1="48.4082" y1="599.9244" x2="132.4075" y2="599.9244" gradientTransform="matrix(1 0 0 1 0 -449)">
		<stop  offset="0" style="stop-color:#BDFFE8"/>
		<stop  offset="1" style="stop-color:#BDFFE8;stop-opacity:0"/>
	</linearGradient>
	
		<path style="opacity:0.5;fill-rule:evenodd;clip-rule:evenodd;fill:url(#SVGID_00000101786098162793967700000013463497288075291533_);enable-background:new    ;" d="
		M98.7,94.6c-2.3-2.4-17.5,11.9-28.2,22.9s-21.1,25.6-22,34.8c-0.9,9.2,6.7,23.2,20.5,35.5c13.8,12.3,49.6,23.5,58.2,18.5
		c8.6-5.1,5.4-20.8-1.6-24.6c-7-3.8-29.8,3.9-40.5-7.4s-5.9-26.3-4.5-39c1.6-15.5,6.5-28.6,11.1-32.6C96.1,98.7,98.7,94.6,98.7,94.6
		z"/>
	<path class="st23" d="M51.8,142.4c-3,10-3.3,20.7,2.9,29c6.2,8.2,10.8,2.1,13-18s0.9-33.8,0.9-33.8S55.5,129.8,51.8,142.4z"/>
	<path class="st24" d="M61.9,177.2c-4.2,3.9,5.8,11.5,7.4,7.8C70.9,181.4,64.6,174.7,61.9,177.2z"/>
	<path class="st24" d="M50.9,207.5c-0.4,6.4,3.2,13.6,14.4,17.8s19.8,3,19.8,3s-13-2.6-20.2-7.6C57.7,215.7,50.9,207.5,50.9,207.5z"
		/>
	<path class="st23" d="M96.5,123.9c-3.7-4.9,1.1-11.5,7.8-15.6s7.5-2.9,6.1,0.7s-3.6,11.1-6.8,14.9
		C100.5,127.7,98.7,126.8,96.5,123.9z"/>
	<path class="st23" d="M120.7,115.5c-1.4-2.4,1.4-9.3,5.3-8.7c3.8,0.6,2.9,2.2,1.1,4.7C125.7,113.4,122,117.7,120.7,115.5z"/>
	<path class="st23" d="M148.6,127.4c-1.3-2.7,9.4-11,10.9-10.1c1.5,0.9,0.5,5.2-2,6.9C154.9,125.8,149,128.3,148.6,127.4z"/>
</g>
</svg>
