<?xml version="1.0" encoding="utf-8"?>
<!-- Generator: Adobe Illustrator 26.4.1, SVG Export Plug-In . SVG Version: 6.00 Build 0)  -->
<svg version="1.1" id="Layer_1" xmlns="http://www.w3.org/2000/svg" xmlns:xlink="http://www.w3.org/1999/xlink" x="0px" y="0px"
	 viewBox="0 0 180 180" style="enable-background:new 0 0 180 180;" xml:space="preserve">
<style type="text/css">
	.st0{fill-rule:evenodd;clip-rule:evenodd;fill:url(#SVGID_1_);}
	.st1{fill-rule:evenodd;clip-rule:evenodd;fill:url(#SVGID_00000048460584704785856030000013303485881742216103_);}
	.st2{fill-rule:evenodd;clip-rule:evenodd;fill:url(#SVGID_00000101808621783390057750000005840262231089139358_);}
	.st3{fill-rule:evenodd;clip-rule:evenodd;fill:url(#SVGID_00000008862519261022107940000000698182336223113614_);}
	.st4{fill-rule:evenodd;clip-rule:evenodd;fill:url(#SVGID_00000044873285927729257120000011510999747183694219_);}
	.st5{fill-rule:evenodd;clip-rule:evenodd;fill:url(#SVGID_00000080903767473724587590000003641545438057363614_);}
	.st6{opacity:0.5;fill-rule:evenodd;clip-rule:evenodd;fill:url(#SVGID_00000147218050697889820490000001522973977928526728_);}
	.st7{fill-rule:evenodd;clip-rule:evenodd;fill:url(#SVGID_00000168100652636358047550000014961685365805983913_);}
	.st8{fill-rule:evenodd;clip-rule:evenodd;fill:url(#SVGID_00000101788325885428104350000011369509385957732004_);}
	
		.st9{opacity:0.3;fill-rule:evenodd;clip-rule:evenodd;fill:url(#SVGID_00000125593555648709517400000003580628526400857265_);enable-background:new    ;}
	
		.st10{opacity:0.3;fill-rule:evenodd;clip-rule:evenodd;fill:url(#SVGID_00000140693938167273693230000005893166469020627386_);enable-background:new    ;}
	
		.st11{opacity:0.3;fill-rule:evenodd;clip-rule:evenodd;fill:url(#SVGID_00000078736996206954237930000008351538240795482300_);enable-background:new    ;}
	
		.st12{opacity:0.3;fill-rule:evenodd;clip-rule:evenodd;fill:url(#SVGID_00000183951973315177578920000002721276458561303187_);enable-background:new    ;}
	
		.st13{opacity:0.3;fill-rule:evenodd;clip-rule:evenodd;fill:url(#SVGID_00000107550132869738283000000008373242052700688548_);enable-background:new    ;}
	.st14{fill-rule:evenodd;clip-rule:evenodd;fill:url(#SVGID_00000011019599287001988690000009133345394028173185_);}
	.st15{fill-rule:evenodd;clip-rule:evenodd;fill:url(#SVGID_00000023988468774174528070000008334141084905709481_);}
	.st16{fill-rule:evenodd;clip-rule:evenodd;fill:url(#SVGID_00000145016854601067695820000002733383460611150465_);}
	.st17{fill-rule:evenodd;clip-rule:evenodd;fill:#FFFFFF;}
	.st18{fill-rule:evenodd;clip-rule:evenodd;fill:url(#SVGID_00000067201777589833803130000004729502609092387473_);}
	.st19{fill-rule:evenodd;clip-rule:evenodd;fill:url(#SVGID_00000029735900846514262350000005236755476532712091_);}
</style>
<g>
	<radialGradient id="SVGID_1_" cx="90" cy="90" r="90" gradientTransform="matrix(1 0 0 -1 0 180)" gradientUnits="userSpaceOnUse">
		<stop  offset="0" style="stop-color:#FF3600"/>
		<stop  offset="1" style="stop-color:#FF3600;stop-opacity:0"/>
	</radialGradient>
	<circle class="st0" cx="90" cy="90" r="90"/>
	
		<radialGradient id="SVGID_00000034795718585005080810000007390779472444731580_" cx="90" cy="90" r="75.44" gradientTransform="matrix(1 0 0 -1 0 180)" gradientUnits="userSpaceOnUse">
		<stop  offset="0" style="stop-color:#FF7300"/>
		<stop  offset="1" style="stop-color:#FF7300;stop-opacity:0"/>
	</radialGradient>
	
		<circle style="fill-rule:evenodd;clip-rule:evenodd;fill:url(#SVGID_00000034795718585005080810000007390779472444731580_);" cx="90" cy="90" r="75.44"/>
	
		<radialGradient id="SVGID_00000032612450888661452830000015188365607806745740_" cx="90" cy="90" r="68.38" gradientTransform="matrix(1 0 0 -1 0 180)" gradientUnits="userSpaceOnUse">
		<stop  offset="0" style="stop-color:#FF7900"/>
		<stop  offset="0.8874" style="stop-color:#FF7900;stop-opacity:0.1126"/>
		<stop  offset="1" style="stop-color:#FF7900;stop-opacity:0"/>
	</radialGradient>
	
		<circle style="fill-rule:evenodd;clip-rule:evenodd;fill:url(#SVGID_00000032612450888661452830000015188365607806745740_);" cx="90" cy="90" r="68.38"/>
	
		<radialGradient id="SVGID_00000110452653739944472380000016715603666995607948_" cx="49.7322" cy="121.0465" r="114.9211" gradientTransform="matrix(1 0 0 -1 0 180)" gradientUnits="userSpaceOnUse">
		<stop  offset="5.586590e-03" style="stop-color:#FF7263"/>
		<stop  offset="0.2092" style="stop-color:#FC6F63"/>
		<stop  offset="0.3674" style="stop-color:#F46562"/>
		<stop  offset="0.5102" style="stop-color:#E55560"/>
		<stop  offset="0.6441" style="stop-color:#D03D5D"/>
		<stop  offset="0.7704" style="stop-color:#B6205A"/>
		<stop  offset="0.8771" style="stop-color:#9A0057"/>
		<stop  offset="0.986" style="stop-color:#9A00AE"/>
	</radialGradient>
	<path style="fill-rule:evenodd;clip-rule:evenodd;fill:url(#SVGID_00000110452653739944472380000016715603666995607948_);" d="
		M155.02,89.37c0,6.24-0.88,12.3-2.54,18.01c-3.29,11.49-9.68,21.66-18.2,29.59c-6.09,5.68-13.28,10.2-21.2,13.2
		c-7.18,2.73-14.95,4.21-23.08,4.21c-1.15,0-2.32-0.03-3.46-0.1h-0.01c-1.7-0.08-3.39-0.25-5.05-0.45
		c-12.56-1.65-23.96-6.86-33.21-14.63c-3.47-2.9-6.63-6.16-9.41-9.73c-2.11-2.68-4.02-5.52-5.7-8.52c-0.4-0.71-0.78-1.44-1.17-2.17
		c0-0.03-0.01-0.04-0.03-0.07c-0.4-0.78-0.77-1.56-1.13-2.36c-0.01,0-0.01,0-0.01,0c-1.13-2.48-2.11-5.05-2.91-7.69
		c-0.6-1.89-1.11-3.84-1.52-5.82c-0.01-0.01-0.01-0.04-0.01-0.05c-0.29-1.39-0.54-2.79-0.73-4.2c-0.44-3.02-0.66-6.09-0.66-9.22
		c0-1.8,0.07-3.6,0.23-5.35c0.08-1.13,0.21-2.24,0.36-3.35c0.84-6.4,2.62-12.49,5.2-18.16c1.26-2.79,2.72-5.46,4.35-8.03
		c2.72-4.28,5.93-8.21,9.55-11.73C56.39,31.36,72.37,24.35,90,24.35c0.69,0,1.37,0.01,2.04,0.03c0.73,0.03,1.45,0.05,2.18,0.11
		c3.73,0.25,7.38,0.8,10.91,1.65c2.06,0.49,4.08,1.07,6.05,1.76c1.34,0.45,2.66,0.96,3.97,1.51c0.97,0.41,1.92,0.84,2.87,1.29
		c0.16,0.08,0.33,0.15,0.49,0.23c6.31,3.09,12.04,7.15,17,12.02c0.71,0.69,1.4,1.4,2.09,2.13c0.45,0.49,0.91,1,1.34,1.51
		c0.75,0.85,1.48,1.74,2.2,2.63c2.59,3.29,4.87,6.83,6.78,10.59c2.24,4.36,3.99,9.02,5.19,13.89
		C154.36,78.72,155.02,83.96,155.02,89.37z"/>
	
		<linearGradient id="SVGID_00000016037016071513888320000008620231734751866800_" gradientUnits="userSpaceOnUse" x1="24.93" y1="108.48" x2="118.51" y2="108.48" gradientTransform="matrix(1 0 0 -1 0 180)">
		<stop  offset="0.0112" style="stop-color:#FF9D85"/>
		<stop  offset="0.2899" style="stop-color:#FF9A84"/>
		<stop  offset="0.4943" style="stop-color:#FF917F"/>
		<stop  offset="0.6749" style="stop-color:#FF8178"/>
		<stop  offset="0.8407" style="stop-color:#FF6A6E"/>
		<stop  offset="0.9968" style="stop-color:#FF4E61"/>
		<stop  offset="1" style="stop-color:#FF4D61"/>
	</linearGradient>
	<path style="fill-rule:evenodd;clip-rule:evenodd;fill:url(#SVGID_00000016037016071513888320000008620231734751866800_);" d="
		M118.51,30.92c-0.21,0.02-0.43,0.05-0.64,0.09c-0.73,0.14-1.31,0.07-2.03-0.14c-0.52-0.15-0.89-0.36-1.44-0.45
		c-0.79-0.12-1.52-0.46-2.31-0.56c-0.83-0.11-1.56-0.44-2.35-0.72c-0.62-0.23-0.95-0.15-1.55,0c-0.6,0.16-1.02-0.09-1.55-0.32
		c-0.6-0.26-1.2-0.3-1.83-0.43c-1.65-0.34-3.28-0.87-4.92-1.29c-1.02-0.26-1.95-0.26-2.99-0.27c-0.81-0.01-1.55,0.23-2.36,0.23
		c-0.54,0-1-0.09-1.55-0.17c-0.55-0.1-1.12,0.01-1.67-0.07c-0.82-0.12-1.26-0.25-2.1,0.01c-0.62,0.2-1.11,0.18-1.73,0.21
		c-0.69,0.03-1.47,0.21-2.14,0.37c-1.22,0.28-2.55,0.51-3.8,0.48c-0.77,0-1.89-0.21-2.63,0.05c-0.47,0.17-0.71,0.68-1.04,1.02
		c-0.63,0.65-1.41,1.24-1.94,1.97s-1.13,1.49-1.08,2.41c0.05,0.8,0.42,1.74,0.77,2.47c0.36,0.78,0.48,1.49-0.32,2.01
		c-1,0.67-2.17,1.27-3.32,1.6c-0.77,0.23-1.45,0.36-2.1-0.19c-0.24-0.2-0.38-0.6-0.68-0.76s-0.62,0-0.95,0.1
		c-0.81,0.24-1.6,0.51-2.42,0.64c-0.51,0.08-0.95,0.35-1.44,0.44c-0.6,0.11-1.03-0.33-1.65-0.18c-0.87,0.2-1.74,0.56-2.64,0.61
		c-0.64,0.03-1.45-0.25-2-0.58c-0.32-0.18-0.39-0.36-0.76-0.26c-0.29,0.07-0.73,0.43-0.89,0.65c-0.21,0.3-0.29,0.7-0.51,1.02
		c-0.23,0.35-0.44,0.69-0.64,1.06c-0.37,0.72-0.81,1.4-1.29,2.04c-0.34,0.45-0.58,1.06-0.95,1.48c-0.19,0.23-0.61,0.38-0.86,0.55
		c-0.68,0.47-1.39,0.9-2.04,1.41c-1.26,0.99-2.46,2.09-3.74,3.05c-0.98,0.73-2.36,1.16-3.47,1.62c-0.7,0.28-1.42,0.48-2.12,0.78
		c-0.23,0.09-0.64,0.19-0.83,0.36c-0.25,0.21-0.38,0.61-0.61,0.9c-0.61,0.74-1.25,1.49-1.71,2.35c-0.28,0.5-0.45,1-0.63,1.55
		c-0.25,0.73-0.64,1.41-0.89,2.14c-0.51,1.53-0.61,3.14-1.17,4.66c-0.33,0.89-0.8,1.7-1.21,2.52c-0.7,1.38-0.8,3.01-1,4.53
		c-0.11,0.89-0.07,1.92,0.09,2.79c0.17,0.94,0.12,1.91,0.11,2.86c-0.01,1.02-0.65,2.01-1.3,2.77c-0.59,0.71-1.48,0.98-2.13,1.61
		c-0.55,0.54-1.22,1.16-1.45,1.93c-0.1,0.34-0.01,0.72-0.07,1.08c-0.15,0.8-0.35,1.56-0.46,2.37c-0.12,1-0.15,1.95-0.15,2.97
		c0,0.51-0.03,1.03-0.01,1.53c0.02,0.49,0.2,0.94,0.24,1.42c0.02,0.34-0.05,0.68,0,1.02c0.07,0.38,0.21,0.78,0.3,1.15
		c0.23,0.9,0.39,1.78,0.56,2.68c0.16,0.83,0.49,1.66,0.74,2.47c0.36,1.11,0.6,2.24,0.81,3.39c0.17,0.86,0.16,1.75,0.28,2.62
		c0.1,0.7,0.26,1.41,0.29,2.11c0.03,1.06-0.23,2.12-0.24,3.19c-0.01,1.8,0.71,3.61,1.13,5.35c0.12,0.49,0.25,0.98,0.38,1.47
		c-4.47-8.82-6.98-18.79-6.98-29.35c0-12.83,3.72-24.8,10.14-34.88c2.73-4.29,5.93-8.21,9.55-11.73
		C56.39,31.36,72.37,24.35,90,24.35c1.42,0,2.82,0.05,4.22,0.14C102.89,25.03,111.1,27.29,118.51,30.92z"/>
	<g>
		
			<linearGradient id="SVGID_00000099636574654452284680000001001193367829144233_" gradientUnits="userSpaceOnUse" x1="181.7834" y1="-146.0265" x2="187.3272" y2="-146.0265" gradientTransform="matrix(-0.7071 0.7071 0.7071 0.7071 295.5944 79.7263)">
			<stop  offset="0.0112" style="stop-color:#FF9D85"/>
			<stop  offset="0.2899" style="stop-color:#FF9A84"/>
			<stop  offset="0.4943" style="stop-color:#FF917F"/>
			<stop  offset="0.6749" style="stop-color:#FF8178"/>
			<stop  offset="0.8407" style="stop-color:#FF6A6E"/>
			<stop  offset="0.9968" style="stop-color:#FF4E61"/>
			<stop  offset="1" style="stop-color:#FF4D61"/>
		</linearGradient>
		<path style="fill-rule:evenodd;clip-rule:evenodd;fill:url(#SVGID_00000099636574654452284680000001001193367829144233_);" d="
			M63.45,112.5c-0.9-3.27-2.04-7.15-3.22-11.06C61.18,105.3,62.26,109.03,63.45,112.5z"/>
		
			<linearGradient id="SVGID_00000080187989183390198040000005568303939725967542_" gradientUnits="userSpaceOnUse" x1="88.0979" y1="-141.5965" x2="214.1127" y2="-141.5965" gradientTransform="matrix(-0.7071 0.7071 0.7071 0.7071 295.5944 79.7263)">
			<stop  offset="0.0112" style="stop-color:#FF9D85"/>
			<stop  offset="0.2899" style="stop-color:#FF9A84"/>
			<stop  offset="0.4943" style="stop-color:#FF917F"/>
			<stop  offset="0.6749" style="stop-color:#FF8178"/>
			<stop  offset="0.8407" style="stop-color:#FF6A6E"/>
			<stop  offset="0.9968" style="stop-color:#FF4E61"/>
			<stop  offset="1" style="stop-color:#FF4D61"/>
		</linearGradient>
		
			<path style="opacity:0.5;fill-rule:evenodd;clip-rule:evenodd;fill:url(#SVGID_00000080187989183390198040000005568303939725967542_);" d="
			M61.51,147.97c0,0,2.58-19.88,4.54-19.88c1.53,0,4.13,3,9.39,7l0,0l0,0c1.47,1.12,3.14,2.31,5.06,3.53
			c1.64,1.05,3.72,2.15,6.02,3.24l0,0l0,0c3.87,1.84,8.36,3.66,12.4,5.2l0,0l0,0c6.39,2.43,11.66,4.16,11.66,4.16l1.02-0.74
			c0,0-4.49-0.94-10.63-3.03c0,0,6.34-10.33,14.45-19.65s39.26-31.22,39.26-31.22l0.26-3.09c0,0-8.89,7.35-18.74,15.17
			c0-0.02,6.59-45.29,8.68-52.52l-2.08-0.86c0,0-4.89,44.66-10.35,56.35c-9.4,7.37-18.77,14.39-21.47,15.27
			c-5.93,1.93-27.65-15.52-27.68-15.54c-0.56-17.96-0.15-37.98,1.34-43.21C106.79,47.18,128,36.72,128,36.72l-1.01-1.01
			c0,0-21.15,14.87-21.77,12.02s13.33-17.19,13.33-17.19l-1.58-0.23c0,0-15.52,19.9-36.94,40.95
			c-15.06,14.81-20.11,19.3-21.78,20.66c-2.72-15.57-2.9-31.89,1.67-42.43c8.57-19.75,20.44-24.26,20.44-24.26
			c-1.94-0.06-6.09,0.98-6.09,0.98s-5.95,7.05-8.46,11.15c-2.51,4.11-5.89,12.13-7.91,10.85c-2.01-1.28-8.19-9.85-8.19-9.85
			l-0.75,0.75c0,0,5.96,5.57,6.98,9.9s0.12,30.83-2.57,29.85c-2.7-0.98-21.98-17.43-21.98-17.43l-0.65,1.4
			c0,0,20.12,13.76,22.65,18.6c1.25,2.39,4.19,11.24,6.85,19.98c-0.3-1.24-1.29-5.58-0.86-7.48c6.78-10.03,14.38-15.09,21.99-22.64
			c1.65,9.29,1.59,42.08,1.45,58.37l-7.48,3.72c-2.2-2.05-4.12-4.31-5.6-6.79c-2.25-3.77-4.39-8.63-6.28-14.13
			c1.16,4.21,1.94,7.42,1.96,8.34c0.05,3.23-4.94,26.61-4.94,26.61L61.51,147.97z M136.04,108.79c-1.14,0.91-2.3,1.82-3.45,2.72
			L136.04,108.79z M83.31,112.11l0.04,1.3C83.34,112.98,83.32,112.55,83.31,112.11z M83.36,113.56
			c0.02,0.01,20.83,12.96,24.29,15.31c3.2,2.18-7.01,15.92-8.53,17.94c-4.02-1.45-8.57-3.36-12.97-5.77
			C84.75,137.25,83.81,126.1,83.36,113.56z M82.81,129.88v-0.12C82.81,129.8,82.81,129.84,82.81,129.88z M82.8,130.96
			c-0.05,4.91-0.1,8.05-0.1,8.06c-2.25-1.42-4.4-2.98-6.36-4.69C77.71,133.21,80.42,131.25,82.8,130.96z"/>
		
			<linearGradient id="SVGID_00000026879656691649842620000009996799688013789093_" gradientUnits="userSpaceOnUse" x1="195.944" y1="-160.4552" x2="217.3017" y2="-160.4552" gradientTransform="matrix(-0.7071 0.7071 0.7071 0.7071 295.5944 79.7263)">
			<stop  offset="0.0112" style="stop-color:#FF9D85"/>
			<stop  offset="0.2899" style="stop-color:#FF9A84"/>
			<stop  offset="0.4943" style="stop-color:#FF917F"/>
			<stop  offset="0.6749" style="stop-color:#FF8178"/>
			<stop  offset="0.8407" style="stop-color:#FF6A6E"/>
			<stop  offset="0.9968" style="stop-color:#FF4E61"/>
			<stop  offset="1" style="stop-color:#FF4D61"/>
		</linearGradient>
		<path style="fill-rule:evenodd;clip-rule:evenodd;fill:url(#SVGID_00000026879656691649842620000009996799688013789093_);" d="
			M45.46,107.26c-2.99-4.42-20.38-20.07-20.38-20.07l-0.02,4.13c0,0,15.76,9.32,20.03,17.04c4.28,7.73-0.23,27.94-0.23,27.94
			l1.69,1.69C46.55,137.99,49.81,113.69,45.46,107.26z"/>
	</g>
	
		<radialGradient id="SVGID_00000145035521338143715450000010087664990741721267_" cx="42.4849" cy="134.8908" r="85.5783" gradientTransform="matrix(1 0 0 -1 0 180)" gradientUnits="userSpaceOnUse">
		<stop  offset="0" style="stop-color:#FFFFFF"/>
		<stop  offset="1" style="stop-color:#FFFFFF;stop-opacity:0"/>
	</radialGradient>
	<path style="fill-rule:evenodd;clip-rule:evenodd;fill:url(#SVGID_00000145035521338143715450000010087664990741721267_);" d="
		M51.44,140.14c-6.72-5.63-12.29-12.6-16.3-20.49c-2.52-4.96-4.41-10.29-5.58-15.87c-0.01-0.01-0.01-0.03-0.01-0.06
		c-0.9-4.33-1.39-8.82-1.39-13.42c0-12.83,3.72-24.8,10.14-34.88c2.73-4.29,5.93-8.21,9.55-11.73
		c11.72-11.39,27.7-18.41,45.33-18.41c1.42,0,2.82,0.05,4.22,0.14c4.41,0.28,8.69,1.01,12.82,2.13c-5.08-1.66-10.44-2.72-16-3.07
		c-1.4-0.09-2.8-0.14-4.22-0.14c-17.63,0-33.61,7.01-45.33,18.41c-3.62,3.52-6.82,7.44-9.55,11.73
		C28.7,64.56,24.98,76.53,24.98,89.36c0,4.6,0.49,9.09,1.39,13.42c0,0.02,0,0.05,0.01,0.06c1.17,5.58,3.07,10.91,5.58,15.87
		c4,7.89,9.57,14.86,16.3,20.49c7.12,5.98,15.53,10.44,24.76,12.93C65.04,149.53,57.74,145.43,51.44,140.14z"/>
	
		<radialGradient id="SVGID_00000121248941456132215250000014328354977726474904_" cx="118.8231" cy="89.6967" r="47.0482" gradientTransform="matrix(1 0 0 -1 0 180)" gradientUnits="userSpaceOnUse">
		<stop  offset="0" style="stop-color:#FFFFFF"/>
		<stop  offset="1" style="stop-color:#623964;stop-opacity:0"/>
	</radialGradient>
	
		<path style="opacity:0.3;fill-rule:evenodd;clip-rule:evenodd;fill:url(#SVGID_00000121248941456132215250000014328354977726474904_);enable-background:new    ;" d="
		M75.68,25.9c0,0,5.51,58.98,7.13,63.99c1.62,5.01,16.31,14.21,22.32,15.34s21.24,6.67,25.22,6.51c3.97-0.16,21.27-1.59,21.27-1.59
		l2.39-9.26c0,0-32.27-24.94-43.7-47.76C98.87,30.31,99.13,24.97,99.13,24.97l-4.91-0.49c0,0,12.39,23.85,16,35.46
		s18.97,23.07,25.82,29.74c6.85,6.67,4.87,18.41-3.45,17.84c-8.32-0.57-36.78,1.05-43.81-20.42c-3.06-9.35-5.77-18.44-7.85-33.99
		S75.68,25.9,75.68,25.9z"/>
	
		<radialGradient id="SVGID_00000172400977174040201860000013991921976922097573_" cx="91.9049" cy="62.8773" r="48.0507" gradientTransform="matrix(1 0 0 -1 0 180)" gradientUnits="userSpaceOnUse">
		<stop  offset="0" style="stop-color:#FFFFFF"/>
		<stop  offset="1" style="stop-color:#623964;stop-opacity:0"/>
	</radialGradient>
	
		<path style="opacity:0.3;fill-rule:evenodd;clip-rule:evenodd;fill:url(#SVGID_00000172400977174040201860000013991921976922097573_);enable-background:new    ;" d="
		M27.57,71.15c0,0,22.24,8.54,30.73,14.29s31.38,12.37,36.23,17.38c4.85,5.01,13.01,14.43,12.31,18.88
		c-0.7,4.45-29.54,1.29-41.03-2.99c-11.49-4.29-30.74-13.1-33.34-17.27c-2.6-4.18-7.28-6.75-7.28-6.75l0.74,5.84
		c0,0,28.72,18.88,32.54,20.46c3.81,1.58,43.11,8.86,54.13,6.87c0,0,5.16-4.42-13.91-23.3c-7.66-7.59-21.41-13.75-34.11-19.55
		C45.66,76.38,28.03,69.7,28.03,69.7L27.57,71.15z"/>
	
		<radialGradient id="SVGID_00000071526701613516306300000016945830792752450453_" cx="129.9183" cy="99.5887" r="35.3157" gradientTransform="matrix(1 0 0 -1 0 180)" gradientUnits="userSpaceOnUse">
		<stop  offset="9.920635e-04" style="stop-color:#FFFFFF"/>
		<stop  offset="1" style="stop-color:#623964;stop-opacity:0"/>
	</radialGradient>
	
		<path style="opacity:0.3;fill-rule:evenodd;clip-rule:evenodd;fill:url(#SVGID_00000071526701613516306300000016945830792752450453_);enable-background:new    ;" d="
		M106.52,26.48c0,0,1.5,16.85,7.02,30.72c5.53,13.87,16.13,16.22,20.76,21.34c4.63,5.12,16.79,11.94,20.71,9.22l-0.34,10.71
		c0,0-43.45-17.32-55.55-73.5L106.52,26.48z"/>
	
		<radialGradient id="SVGID_00000008831353961789964730000009015287454100199861_" cx="83.4898" cy="39.5322" r="46.4409" gradientTransform="matrix(1 0 0 -1 0 180)" gradientUnits="userSpaceOnUse">
		<stop  offset="0" style="stop-color:#FFFFFF"/>
		<stop  offset="1" style="stop-color:#623964;stop-opacity:0"/>
	</radialGradient>
	
		<path style="opacity:0.3;fill-rule:evenodd;clip-rule:evenodd;fill:url(#SVGID_00000008831353961789964730000009015287454100199861_);enable-background:new    ;" d="
		M37.86,128.2c0,0,18.47-5.02,41.08-1.63c29.27,4.39,35.36,6.57,37.96,9.69s3.56,10.55,3.56,10.55l3.19-1.83
		c0,0-1.63-14.44-5.15-16.78c-3.52-2.34-31.08,2.48-60.03-7.21l-24.26,1.79L37.86,128.2z"/>
	
		<radialGradient id="SVGID_00000162311640460707877620000000260000628436960384_" cx="119.1765" cy="57.5913" r="13.9127" gradientTransform="matrix(1 0 0 -1 0 180)" gradientUnits="userSpaceOnUse">
		<stop  offset="0" style="stop-color:#FFFFFF"/>
		<stop  offset="1" style="stop-color:#623964"/>
	</radialGradient>
	
		<path style="opacity:0.3;fill-rule:evenodd;clip-rule:evenodd;fill:url(#SVGID_00000162311640460707877620000000260000628436960384_);enable-background:new    ;" d="
		M124.39,110.65c-1.25-3.33-19.41-7.77-22.4-5.35c-2.48,1.99,13.72,20.77,17.69,21.26S125.64,113.98,124.39,110.65z M117.77,120.99
		c-4.68-0.88-15.36-11.81-13-14.03c1.95-1.84,16.47,2.95,17.51,5.66C123.31,115.33,122.45,121.88,117.77,120.99z"/>
	
		<linearGradient id="SVGID_00000133513564093533542480000015778565383446714553_" gradientUnits="userSpaceOnUse" x1="25.94" y1="94.565" x2="151.61" y2="94.565" gradientTransform="matrix(1 0 0 -1 0 180)">
		<stop  offset="0.0112" style="stop-color:#FFBB85"/>
		<stop  offset="0.2124" style="stop-color:#FEB887"/>
		<stop  offset="0.36" style="stop-color:#F9AF8C"/>
		<stop  offset="0.4905" style="stop-color:#F19F95"/>
		<stop  offset="0.6111" style="stop-color:#E588A2"/>
		<stop  offset="0.7249" style="stop-color:#D76BB2"/>
		<stop  offset="0.8337" style="stop-color:#C547C7"/>
		<stop  offset="0.9364" style="stop-color:#B01EDE"/>
		<stop  offset="1" style="stop-color:#A100EF"/>
	</linearGradient>
	<path style="fill-rule:evenodd;clip-rule:evenodd;fill:url(#SVGID_00000133513564093533542480000015778565383446714553_);" d="
		M84.57,90.84c-1.43-4.98-8.89-64.94-8.89-64.94l-1.41,0.33c0,0,11.78,58.73,1.9,60.4c-7.77,1.31-47.7-18.32-47.7-18.32l-0.89,2.84
		c0,0,49.71,15.45,68.23,31.67c6.31,5.53,11.73,11.87,16.07,17.94c2.03,2.84,0.03,6.77-3.46,6.79c-51,0.4-82.48-27.02-82.48-27.02
		l0.43,2.25c0,0,31.15,16.45,28.04,18.21c-3.12,1.76-21.26-0.06-21.26-0.06l1.07,1.85c0,0,14.6-1.22,33.38,1.39
		c15.85,2.18,42.64,5.5,50.63,6.49c4.16,7.36,6.12,13.04,5.43,14.31l3.1-1.99c-5.13-14.33-3.97-30.4,3.58-31.25
		c7.53-0.85,20.02,1.83,20.02,1.83l1.25-3.42C109.96,112.13,86,95.84,84.57,90.84z M82.58,92.75c-1.22,0.04-5.85-3.39-5.3-3.94
		c0.48-0.48,3.47-6.99,4.43-6.11C82.65,83.56,83.79,92.71,82.58,92.75z M56.13,120.99c0,0,0.26-0.93,0.7-1.11
		c0.43-0.18,8.92,2.77,8.41,3.12C64.72,123.35,56.13,122.05,56.13,120.99z M120.72,124.7c-3.13-0.25-22-17.91-18.73-19.41
		c2.36-1.08,19.34,2.95,20.81,6.22C124.27,114.79,123.83,124.93,120.72,124.7z"/>
	
		<linearGradient id="SVGID_00000002363668692803704000000007808543282954693781_" gradientUnits="userSpaceOnUse" x1="97.4" y1="116.93" x2="154.68" y2="116.93" gradientTransform="matrix(1 0 0 -1 0 180)">
		<stop  offset="0.0112" style="stop-color:#FF9D85"/>
		<stop  offset="0.2264" style="stop-color:#FD9A87"/>
		<stop  offset="0.3842" style="stop-color:#F8918D"/>
		<stop  offset="0.5237" style="stop-color:#EE8198"/>
		<stop  offset="0.6527" style="stop-color:#E16AA7"/>
		<stop  offset="0.7744" style="stop-color:#CF4DBB"/>
		<stop  offset="0.889" style="stop-color:#BA2AD3"/>
		<stop  offset="0.999" style="stop-color:#A100EF"/>
		<stop  offset="1" style="stop-color:#A100EF"/>
	</linearGradient>
	<path style="fill-rule:evenodd;clip-rule:evenodd;fill:url(#SVGID_00000002363668692803704000000007808543282954693781_);" d="
		M97.4,25.42c0,0,4.49,19.32,22.23,43.33C137.37,92.77,154,100.89,154,100.89l0.68-4.29c0,0-15.24-2.46-33.12-26.18
		c-20.9-27.74-20.74-45.17-20.74-45.17L97.4,25.42z"/>
	
		<linearGradient id="SVGID_00000104702941609007651670000003616861789182057875_" gradientUnits="userSpaceOnUse" x1="22.0194" y1="184.2703" x2="105.0733" y2="126.1153" gradientTransform="matrix(0.9511 0.1414 0.1471 -0.9891 4.0059 216.7405)">
		<stop  offset="0" style="stop-color:#FF9346;stop-opacity:0.5"/>
		<stop  offset="1" style="stop-color:#FF9346;stop-opacity:0"/>
	</linearGradient>
	<path style="fill-rule:evenodd;clip-rule:evenodd;fill:url(#SVGID_00000104702941609007651670000003616861789182057875_);" d="
		M26.78,83.17c0.88,13.24,30.87-8.38,59.82-18.07c33.99-11.38,59.57,12.9,63.33,11.54c5.89-2.12-17.99-50.44-56.66-49.6
		C49.7,28,25.37,61.81,26.78,83.17z"/>
	<path class="st17" d="M31.68,75.78c-2.92-0.05-3.96,5.44-2.64,8.15s3.82,2.06,4.93-2.71C34.67,78.29,34.09,75.82,31.68,75.78z"/>
	
		<radialGradient id="SVGID_00000128448983120386240720000014742205431435972757_" cx="-46.4746" cy="-28.1118" r="31.4415" gradientTransform="matrix(0.3279 0.5679 0.9659 -0.5577 166.0422 143)" gradientUnits="userSpaceOnUse">
		<stop  offset="0" style="stop-color:#0092FF;stop-opacity:0.3"/>
		<stop  offset="1" style="stop-color:#0092FF;stop-opacity:0"/>
	</radialGradient>
	<path style="fill-rule:evenodd;clip-rule:evenodd;fill:url(#SVGID_00000128448983120386240720000014742205431435972757_);" d="
		M133.96,150.14c-16.77,9.68-34.98,9.54-40.68-0.32c-5.69-9.86,3.29-25.71,20.06-35.39s34.98-9.54,40.68,0.32
		S150.74,140.46,133.96,150.14z"/>
	
		<radialGradient id="SVGID_00000147942159321634551000000008669584138627957894_" cx="-78.0589" cy="27.6243" r="22.3471" gradientTransform="matrix(1.3688 -0.9513 -0.6099 -0.8776 174.6351 6.4456)" gradientUnits="userSpaceOnUse">
		<stop  offset="0" style="stop-color:#FFBB00"/>
		<stop  offset="1" style="stop-color:#FFBB00;stop-opacity:0"/>
	</radialGradient>
	<path style="fill-rule:evenodd;clip-rule:evenodd;fill:url(#SVGID_00000147942159321634551000000008669584138627957894_);" d="
		M81.53,35.2c7.53,10.83-0.07,29.13-16.96,40.87s-36.69,12.48-44.22,1.65s0.07-29.13,16.96-40.87C54.2,25.1,74,24.37,81.53,35.2z"/>
	<path class="st17" d="M33.92,70.62c-0.31,2.46,5.98,0.88,12.41-5.77c6.44-6.65,12.35-22.67,10.74-24.73
		C55.47,38.05,36.09,53.58,33.92,70.62z"/>
</g>
</svg>
