<?xml version="1.0" encoding="utf-8"?>
<!-- Generator: Adobe Illustrator 26.5.0, SVG Export Plug-In . SVG Version: 6.00 Build 0)  -->
<svg version="1.1" id="Layer_1" xmlns="http://www.w3.org/2000/svg" xmlns:xlink="http://www.w3.org/1999/xlink" x="0px" y="0px"
	 viewBox="0 0 360 360" style="enable-background:new 0 0 360 360;" xml:space="preserve">
<style type="text/css">
	.st0{fill-rule:evenodd;clip-rule:evenodd;fill:url(#SVGID_1_);}
	.st1{fill-rule:evenodd;clip-rule:evenodd;fill:url(#SVGID_00000073710725240854457320000016142230382415152027_);}
	.st2{fill-rule:evenodd;clip-rule:evenodd;fill:url(#SVGID_00000028316734395121332270000002800297520266928536_);}
	.st3{fill-rule:evenodd;clip-rule:evenodd;fill:url(#SVGID_00000118360502599478143280000004476721770744674185_);}
	.st4{fill-rule:evenodd;clip-rule:evenodd;fill:url(#SVGID_00000166674217171789797470000008277967082052881568_);}
	.st5{fill-rule:evenodd;clip-rule:evenodd;fill:url(#SVGID_00000082368617357685087820000012901615471925447810_);}
	.st6{fill-rule:evenodd;clip-rule:evenodd;fill:url(#SVGID_00000079459497234621917070000013086785126886651327_);}
	.st7{fill-rule:evenodd;clip-rule:evenodd;fill:url(#SVGID_00000101064045928481298500000012862082539644466075_);}
	.st8{fill-rule:evenodd;clip-rule:evenodd;fill:url(#SVGID_00000171717550487783415260000018082792453689726885_);}
	.st9{fill-rule:evenodd;clip-rule:evenodd;fill:url(#SVGID_00000077307533779845370730000000547717883082174112_);}
	.st10{fill-rule:evenodd;clip-rule:evenodd;fill:url(#SVGID_00000168075618971386124260000014838401233359349392_);}
	.st11{fill-rule:evenodd;clip-rule:evenodd;fill:url(#SVGID_00000126291695718324050230000004322130296118511761_);}
	.st12{fill-rule:evenodd;clip-rule:evenodd;fill:url(#SVGID_00000023281913533836416300000002152086627752306360_);}
	.st13{fill-rule:evenodd;clip-rule:evenodd;fill:url(#SVGID_00000090265127966466036240000017044555629194300341_);}
	.st14{fill-rule:evenodd;clip-rule:evenodd;fill:url(#SVGID_00000129884347267257782330000006039738017644676258_);}
	.st15{fill-rule:evenodd;clip-rule:evenodd;fill:url(#SVGID_00000059290126613538225210000010058400822037917079_);}
	.st16{fill-rule:evenodd;clip-rule:evenodd;fill:#FFFF45;}
	.st17{opacity:0.3;fill-rule:evenodd;clip-rule:evenodd;fill:url(#SVGID_00000147905206486768029790000003122730307552450489_);}
	.st18{fill-rule:evenodd;clip-rule:evenodd;fill:url(#SVGID_00000152970834070434131060000007611644485182099097_);}
	.st19{opacity:0.3;fill-rule:evenodd;clip-rule:evenodd;fill:url(#SVGID_00000098912796033024061800000008722437681122399914_);}
	.st20{opacity:0.3;fill-rule:evenodd;clip-rule:evenodd;fill:url(#SVGID_00000063629657316442613530000002554017268087796666_);}
	.st21{fill-rule:evenodd;clip-rule:evenodd;fill:url(#SVGID_00000018225084162874417080000007527534500891279514_);}
	.st22{fill-rule:evenodd;clip-rule:evenodd;fill:#FFC445;}
	.st23{fill-rule:evenodd;clip-rule:evenodd;fill:#FFD32F;}
	.st24{fill-rule:evenodd;clip-rule:evenodd;fill:#FFBA00;}
	.st25{fill-rule:evenodd;clip-rule:evenodd;fill:url(#SVGID_00000075879697334144220370000008904730339755726494_);}
	.st26{fill-rule:evenodd;clip-rule:evenodd;fill:#FFFF59;}
</style>
<g>
	<radialGradient id="SVGID_1_" cx="180" cy="180" r="180" gradientUnits="userSpaceOnUse">
		<stop  offset="0" style="stop-color:#FF9F00;stop-opacity:0.5"/>
		<stop  offset="1" style="stop-color:#FF9F00;stop-opacity:0"/>
	</radialGradient>
	<circle class="st0" cx="180" cy="180" r="180"/>
	
		<radialGradient id="SVGID_00000062910044426729043490000000373972653506354351_" cx="180" cy="180" r="143.3186" gradientUnits="userSpaceOnUse">
		<stop  offset="0" style="stop-color:#FF7300;stop-opacity:0.5"/>
		<stop  offset="1" style="stop-color:#FF7300;stop-opacity:0"/>
	</radialGradient>
	
		<circle style="fill-rule:evenodd;clip-rule:evenodd;fill:url(#SVGID_00000062910044426729043490000000373972653506354351_);" cx="180" cy="180" r="143.3"/>
	
		<radialGradient id="SVGID_00000096779659611621778630000009753609927714813860_" cx="180" cy="180" r="136.7655" gradientUnits="userSpaceOnUse">
		<stop  offset="9.920635e-04" style="stop-color:#FF7900;stop-opacity:0.5"/>
		<stop  offset="0.8876" style="stop-color:#FF7900;stop-opacity:5.627698e-02"/>
		<stop  offset="1" style="stop-color:#FF7900;stop-opacity:0"/>
	</radialGradient>
	
		<circle style="fill-rule:evenodd;clip-rule:evenodd;fill:url(#SVGID_00000096779659611621778630000009753609927714813860_);" cx="180" cy="180" r="136.8"/>
	
		<radialGradient id="SVGID_00000060744087518476321280000011829193080623975867_" cx="99.4637" cy="123.2798" r="208.8828" gradientUnits="userSpaceOnUse">
		<stop  offset="5.586590e-03" style="stop-color:#FFB80B"/>
		<stop  offset="0.258" style="stop-color:#FFB60C"/>
		<stop  offset="0.384" style="stop-color:#FEAE10"/>
		<stop  offset="0.4821" style="stop-color:#FCA117"/>
		<stop  offset="0.5656" style="stop-color:#FA8E21"/>
		<stop  offset="0.6392" style="stop-color:#F7762E"/>
		<stop  offset="0.662" style="stop-color:#F66D33"/>
		<stop  offset="0.7209" style="stop-color:#EF6836"/>
		<stop  offset="0.8061" style="stop-color:#DC593D"/>
		<stop  offset="0.9068" style="stop-color:#BD4049"/>
		<stop  offset="0.9832" style="stop-color:#A02A54"/>
	</radialGradient>
	<path style="fill-rule:evenodd;clip-rule:evenodd;fill:url(#SVGID_00000060744087518476321280000011829193080623975867_);" d="
		M310,184.1c0,37.6-15.9,71.5-41.5,95.2c-12.2,11.4-26.6,20.4-42.4,26.4c-14.3,5.5-29.9,8.4-46.1,8.4c-5.8,0-11.5-0.4-17.1-1.1
		c-25.1-3.3-47.9-13.7-66.4-29.3c-13.4-11.3-24.6-25.2-32.6-41c-5-9.9-8.8-20.6-11.2-31.7c0,0,0-0.1,0-0.1
		c-1.8-8.7-2.8-17.6-2.8-26.8c0-25.7,7.4-49.6,20.3-69.8c5.5-8.6,11.9-16.4,19.1-23.5c23.4-22.8,55.4-36.8,90.7-36.8
		c2.8,0,5.6,0.1,8.4,0.3c14.8,0.9,28.9,4.4,41.9,9.8c2.3,0.9,4.5,2,6.7,3c12.6,6.2,24.1,14.3,34,24C295.1,114.8,310,147.7,310,184.1
		z"/>
	
		<linearGradient id="SVGID_00000047060694812839013510000006642651485837175471_" gradientUnits="userSpaceOnUse" x1="60.854" y1="222.3524" x2="123.8157" y2="222.3524">
		<stop  offset="1.117320e-02" style="stop-color:#FFA90B"/>
		<stop  offset="0.3713" style="stop-color:#FFA60E"/>
		<stop  offset="0.6354" style="stop-color:#FF9D16"/>
		<stop  offset="0.868" style="stop-color:#FF8D25"/>
		<stop  offset="1" style="stop-color:#FF8031"/>
	</linearGradient>
	<path style="fill-rule:evenodd;clip-rule:evenodd;fill:url(#SVGID_00000047060694812839013510000006642651485837175471_);" d="
		M111.3,270.3c-10.9,0-31-15.9-40.5-36.4c-11.9-25.6-12-52.4-6.3-57.4c1.7-1.4,3.9-2.2,6.6-2.2c1.8,0,3.8,0.3,5.9,0.9
		c13.8,4,32.9,23.1,41.1,42.2c8.1,18.7,5.7,33.6,3.4,42.6C119.6,268.5,114.9,270.3,111.3,270.3L111.3,270.3L111.3,270.3z"/>
	
		<linearGradient id="SVGID_00000023257881438392620280000013455996094562588085_" gradientUnits="userSpaceOnUse" x1="63.0747" y1="222.3524" x2="120.4896" y2="222.3524">
		<stop  offset="1.117320e-02" style="stop-color:#FFE00B"/>
		<stop  offset="0.3061" style="stop-color:#FFDD0D"/>
		<stop  offset="0.5224" style="stop-color:#FFD412"/>
		<stop  offset="0.7136" style="stop-color:#FFC41B"/>
		<stop  offset="0.8891" style="stop-color:#FFAD27"/>
		<stop  offset="1" style="stop-color:#FF9B31"/>
	</linearGradient>
	<path style="fill-rule:evenodd;clip-rule:evenodd;fill:url(#SVGID_00000023257881438392620280000013455996094562588085_);" d="
		M119.4,259.6c-1.3,5.2-3.9,8.4-8.1,8.5c-9.4,0-29.1-14.9-38.5-35.1c-12-25.6-11.3-50.9-6.8-54.7c2.3-2,6-2.1,10.4-0.8
		c14,4,35,22,39.6,40.5C119.9,233.8,121.8,250,119.4,259.6z"/>
	
		<linearGradient id="SVGID_00000109726885519807803270000016899219436071783604_" gradientUnits="userSpaceOnUse" x1="66.1018" y1="151.4316" x2="91.1833" y2="151.4316" gradientTransform="matrix(0.9995 -3.170000e-02 3.170000e-02 0.9995 -1.4843 -2.046)">
		<stop  offset="1.117320e-02" style="stop-color:#FFA90B"/>
		<stop  offset="0.3713" style="stop-color:#FFA60E"/>
		<stop  offset="0.6354" style="stop-color:#FF9D16"/>
		<stop  offset="0.868" style="stop-color:#FF8D25"/>
		<stop  offset="1" style="stop-color:#FF8031"/>
	</linearGradient>
	<path style="fill-rule:evenodd;clip-rule:evenodd;fill:url(#SVGID_00000109726885519807803270000016899219436071783604_);" d="
		M74.6,165.9c-1.4,0-2.7-0.5-3.6-1.5c-3.5-4.2,1.6-18.6,3.9-23.7c3.7-8.3,7.3-12.6,10.8-12.7c1.3,0,2.6,0.4,3.7,1.3l0.1,0l0.7,0.7
		c4,4,5.8,13,2.2,20.1c-2.6,5.1-10.8,14.2-16.3,15.7C75.6,165.8,75.1,165.8,74.6,165.9z"/>
	
		<linearGradient id="SVGID_00000147927317049613796110000013287003867131002753_" gradientUnits="userSpaceOnUse" x1="67.6468" y1="151.4316" x2="89.5838" y2="151.4316" gradientTransform="matrix(0.9995 -3.170000e-02 3.170000e-02 0.9995 -1.4843 -2.046)">
		<stop  offset="1.117320e-02" style="stop-color:#FFE00B"/>
		<stop  offset="0.3061" style="stop-color:#FFDD0D"/>
		<stop  offset="0.5224" style="stop-color:#FFD412"/>
		<stop  offset="0.7136" style="stop-color:#FFC41B"/>
		<stop  offset="0.8891" style="stop-color:#FFAD27"/>
		<stop  offset="1" style="stop-color:#FF9B31"/>
	</linearGradient>
	<path style="fill-rule:evenodd;clip-rule:evenodd;fill:url(#SVGID_00000147927317049613796110000013287003867131002753_);" d="
		M90.9,149.1c-2.5,5-10.7,14-15.7,15.3c-1.3,0.4-2.3,0.2-3.1-0.6c-3.7-4.4,7-34.4,13.9-34.7c1,0,2.1,0.5,3,1.4l0,0
		C92.3,133.9,94.3,142.3,90.9,149.1z"/>
	
		<linearGradient id="SVGID_00000114785334491974043500000017356192324697956275_" gradientUnits="userSpaceOnUse" x1="276.5435" y1="266.9487" x2="276.5435" y2="177.745">
		<stop  offset="1.117320e-02" style="stop-color:#FF8E0B"/>
		<stop  offset="0.3475" style="stop-color:#FD8B0D"/>
		<stop  offset="0.5941" style="stop-color:#F98215"/>
		<stop  offset="0.8113" style="stop-color:#F17221"/>
		<stop  offset="1" style="stop-color:#E65D31"/>
	</linearGradient>
	<path style="fill-rule:evenodd;clip-rule:evenodd;fill:url(#SVGID_00000114785334491974043500000017356192324697956275_);" d="
		M258.5,266.9c-4.4,0-7.6-1.7-9.1-4.8c-2.9-6.1-1.4-28.2,7.4-47.7c13-29,30.9-36.7,38.5-36.7c0.5,0,1,0,1.5,0.1
		c0.3,0,0.5,0.1,0.8,0.2c2,0.5,3.7,2.1,5,4.7c5.1,10.7,2.2,37.1-6.2,55.3C288.5,255.1,270.1,266.9,258.5,266.9z"/>
	
		<linearGradient id="SVGID_00000134950195117392003620000018229509159152840114_" gradientUnits="userSpaceOnUse" x1="250.2658" y1="222.3465" x2="302.7681" y2="222.3465">
		<stop  offset="1.117320e-02" style="stop-color:#FFE00B"/>
		<stop  offset="0.3061" style="stop-color:#FFDD0D"/>
		<stop  offset="0.5224" style="stop-color:#FFD412"/>
		<stop  offset="0.7136" style="stop-color:#FFC41B"/>
		<stop  offset="0.8891" style="stop-color:#FFAD27"/>
		<stop  offset="1" style="stop-color:#FF9B31"/>
	</linearGradient>
	<path style="fill-rule:evenodd;clip-rule:evenodd;fill:url(#SVGID_00000134950195117392003620000018229509159152840114_);" d="
		M294.3,237.1c-10.3,22.4-38.2,33.8-42.9,24c-2.4-5-1.4-26.2,7.4-45.8c13.2-29.5,31.4-36.2,37.6-35.3c0.1,0,0.3,0,0.4,0.1
		C305.7,182.4,304.4,215.1,294.3,237.1z"/>
	
		<linearGradient id="SVGID_00000100348546980697781450000001387717330982271148_" gradientUnits="userSpaceOnUse" x1="293.3329" y1="175.6667" x2="293.3329" y2="141.2393">
		<stop  offset="1.117320e-02" style="stop-color:#FFA90B"/>
		<stop  offset="0.3713" style="stop-color:#FFA60E"/>
		<stop  offset="0.6354" style="stop-color:#FF9D16"/>
		<stop  offset="0.868" style="stop-color:#FF8D25"/>
		<stop  offset="1" style="stop-color:#FF8031"/>
	</linearGradient>
	<path style="fill-rule:evenodd;clip-rule:evenodd;fill:url(#SVGID_00000100348546980697781450000001387717330982271148_);" d="
		M292.4,175.7c-1,0-1.9-0.2-2.7-0.7c-5.4-3.2-9-24.4-5.3-31c1-1.8,2.4-2.4,3.3-2.6c0.4-0.1,0.8-0.1,1.3-0.1
		c6.1,0,12.2,7.1,14.2,16.6c1.4,6.6-1.4,12-4.6,14.9C296.8,174.6,294.5,175.7,292.4,175.7z"/>
	
		<linearGradient id="SVGID_00000060738572555272018490000015057357005767377328_" gradientUnits="userSpaceOnUse" x1="293.3143" y1="173.4105" x2="293.3143" y2="143.4957">
		<stop  offset="1.117320e-02" style="stop-color:#FFE00B"/>
		<stop  offset="0.3061" style="stop-color:#FFDD0D"/>
		<stop  offset="0.5224" style="stop-color:#FFD412"/>
		<stop  offset="0.7136" style="stop-color:#FFC41B"/>
		<stop  offset="0.8891" style="stop-color:#FFAD27"/>
		<stop  offset="1" style="stop-color:#FF9B31"/>
	</linearGradient>
	<path style="fill-rule:evenodd;clip-rule:evenodd;fill:url(#SVGID_00000060738572555272018490000015057357005767377328_);" d="
		M297.2,171.1c-2.2,2.1-4.8,2.9-6.3,1.9c-4.3-2.6-7.6-22.3-4.4-27.9c0.5-0.8,1-1.4,1.8-1.5c4.4-0.9,10.8,5,12.9,14.7
		C302.3,163.8,300.1,168.5,297.2,171.1z"/>
	
		<linearGradient id="SVGID_00000129900448784358590510000011155376174838545595_" gradientUnits="userSpaceOnUse" x1="186.37" y1="312.4721" x2="186.37" y2="292.4163">
		<stop  offset="1.117320e-02" style="stop-color:#FFA90B"/>
		<stop  offset="0.3713" style="stop-color:#FFA60E"/>
		<stop  offset="0.6354" style="stop-color:#FF9D16"/>
		<stop  offset="0.868" style="stop-color:#FF8D25"/>
		<stop  offset="1" style="stop-color:#FF8031"/>
	</linearGradient>
	<path style="fill-rule:evenodd;clip-rule:evenodd;fill:url(#SVGID_00000129900448784358590510000011155376174838545595_);" d="
		M188.2,312.5c-0.8,0-1.6,0-2.5,0c-13.3-0.4-23.5-6.1-25.4-11.1c-0.7-1.9-0.2-3.8,1.2-5c4.2-3.7,21.5-3.9,25-3.9
		c11.2,0,24.9,1.1,26.1,6.3c0.3,1.3,0.2,3.4-1.9,5.7C207.6,307.8,203.4,312.5,188.2,312.5z"/>
	
		<linearGradient id="SVGID_00000181072506074625814220000000172893630574992054_" gradientUnits="userSpaceOnUse" x1="186.3674" y1="310.2166" x2="186.3674" y2="294.6719">
		<stop  offset="1.117320e-02" style="stop-color:#FFE00B"/>
		<stop  offset="0.3061" style="stop-color:#FFDD0D"/>
		<stop  offset="0.5224" style="stop-color:#FFD412"/>
		<stop  offset="0.7136" style="stop-color:#FFC41B"/>
		<stop  offset="0.8891" style="stop-color:#FFAD27"/>
		<stop  offset="1" style="stop-color:#FF9B31"/>
	</linearGradient>
	<path style="fill-rule:evenodd;clip-rule:evenodd;fill:url(#SVGID_00000181072506074625814220000000172893630574992054_);" d="
		M209.1,302.9c-3.2,3.5-7.1,7.8-23.3,7.3c-15.7-0.5-26.5-8.8-22.7-12.2c5.1-4.5,45.9-4.8,47.3,1.3
		C210.7,300.4,210.2,301.7,209.1,302.9z"/>
	
		<linearGradient id="SVGID_00000180328255245916868050000007382459251625139344_" gradientUnits="userSpaceOnUse" x1="249.2448" y1="185.9559" x2="260.4949" y2="101.2172">
		<stop  offset="1.117320e-02" style="stop-color:#FFA90B"/>
		<stop  offset="0.3713" style="stop-color:#FFA60E"/>
		<stop  offset="0.6354" style="stop-color:#FF9D16"/>
		<stop  offset="0.868" style="stop-color:#FF8D25"/>
		<stop  offset="1" style="stop-color:#FF8031"/>
	</linearGradient>
	<path style="fill-rule:evenodd;clip-rule:evenodd;fill:url(#SVGID_00000180328255245916868050000007382459251625139344_);" d="
		M251.1,186c-8.7,0-15.4-4.1-18.8-11.6c-8.3-18-8.3-53.2-2.2-67.4c1.5-3.6,3.3-5.8,5.5-6.6c2.2-0.9,4.5-1.4,6.8-1.4
		c7.7,0,15.7,5.1,23,14.9c12.1,15.9,20.5,41.8,17.4,53.2c-1,3.7-4.2,7.6-9,11C267,183,258.5,186,251.1,186z"/>
	
		<linearGradient id="SVGID_00000149355079609732793080000007034357830169596058_" gradientUnits="userSpaceOnUse" x1="249.5356" y1="183.7224" x2="260.1925" y2="103.4518">
		<stop  offset="1.117320e-02" style="stop-color:#FFE00B"/>
		<stop  offset="0.3061" style="stop-color:#FFDD0D"/>
		<stop  offset="0.5224" style="stop-color:#FFD412"/>
		<stop  offset="0.7136" style="stop-color:#FFC41B"/>
		<stop  offset="0.8891" style="stop-color:#FFAD27"/>
		<stop  offset="1" style="stop-color:#FF9B31"/>
	</linearGradient>
	<path style="fill-rule:evenodd;clip-rule:evenodd;fill:url(#SVGID_00000149355079609732793080000007034357830169596058_);" d="
		M280.6,166.5c-0.9,3.3-3.9,6.8-8.1,9.8c-11.4,8.2-31,12.6-38.1-2.9c-8-17.5-8-51.9-2.2-65.5c1.2-2.8,2.6-4.8,4.3-5.4
		C261,92.3,285.3,149.4,280.6,166.5z"/>
	<path class="st16" d="M119.4,259.6c-12.7,4.5-32.3-11.3-42.6-37.2c-9-22.7-2.2-40.8-0.4-44.8c14,4,35,22,39.6,40.5
		C119.9,233.8,121.8,250,119.4,259.6z"/>
	<path class="st16" d="M209.1,302.9c-26.9,8.3-46-4.9-46-4.9c5.1-4.5,45.9-4.8,47.3,1.3C210.7,300.4,210.2,301.7,209.1,302.9z"/>
	<path class="st16" d="M290,235.1c-18.4,30-38.6,26-38.6,26c-2.4-5-1.4-26.2,7.4-45.8c13.2-29.5,31.4-36.2,37.6-35.3
		c0.1,0,0.3,0,0.4,0.1C300.4,191.1,303.2,213.5,290,235.1z"/>
	<path class="st16" d="M272.5,176.3c-11.4,8.2-31,12.6-38.1-2.9c-8-17.5-8-51.9-2.2-65.5c5.1-0.7,14.4,1,25.4,17
		C272.5,146.8,277.5,163.7,272.5,176.3z"/>
	<path class="st16" d="M297.2,171.1c-2.2,2.1-4.8,2.9-6.3,1.9c-4.3-2.6-7.6-22.3-4.4-27.9c3.4,2,8.5,6,9.8,13.4
		C297.1,163,297.3,167.4,297.2,171.1z"/>
	<path class="st16" d="M90.9,149.1c-2.5,5-10.7,14-15.7,15.3c0.3-2,4.1-25.3,13.8-33.9l0,0C92.3,133.9,94.3,142.3,90.9,149.1z"/>
	
		<linearGradient id="SVGID_00000170973396509615351900000005940345643526881451_" gradientUnits="userSpaceOnUse" x1="49.9655" y1="175.0461" x2="249.9615" y2="175.0461">
		<stop  offset="1.117320e-02" style="stop-color:#FFE00B"/>
		<stop  offset="0.3061" style="stop-color:#FFDD0D"/>
		<stop  offset="0.5224" style="stop-color:#FFD412"/>
		<stop  offset="0.7136" style="stop-color:#FFC41B"/>
		<stop  offset="0.8891" style="stop-color:#FFAD27"/>
		<stop  offset="1" style="stop-color:#FF9B31"/>
	</linearGradient>
	
		<path style="opacity:0.3;fill-rule:evenodd;clip-rule:evenodd;fill:url(#SVGID_00000170973396509615351900000005940345643526881451_);" d="
		M247.3,214.8c-1.3,3.1-2.7,5.7-4.7,8.4c-1.5,2-3.5,3.6-4.7,5.8c-4.1,7.7-3.2,16.4-5.6,24.5c-1.3,4.4-4.6,7.9-6,12.4
		c-0.6,2-0.3,3.9-0.3,6c-0.1,2.4-1.3,4.1-2.8,6c-1.6,2.1-3.8,3.7-6.2,4.6c-2,0.8-4.1,0.5-6.2,0.5c-4.7,0-9.2-0.6-13.7-1.9
		c-4.1-1.2-8-3.1-12.1-4.3c-2.9-0.8-4.8-0.5-7.7,0c-2.4,0.5-5.2,0.2-7.7,0.2c-4.4-0.1-8.5,2.4-12.4,4.3c-2.9,1.4-4.7,3-5.8,6.2
		c-1.3,3.5-1.2,6.8-5.5,8.2c-2.5,0.8-5.5,0-7.9-0.5c-2.2-0.5-4.6-0.2-6.9-0.2c-4.4,0-8.6-1.3-12.5-3.4c-4.6-2.4-8.7-6.2-12.4-9.7
		c-2-1.9-4.6-3-6.7-4.9c-2.9-2.5-5.7-4.8-8.4-7.5c-4.1-4.1-8.5-8.3-13-12c-3.2-2.5-6-5.7-8.7-8.7c-2.3-2.5-3.6-6.1-5.3-9
		c-3.3-5.7-6-12.5-7.6-18.8c-1.9-7.4-4-15.4-3.9-23.1c0.1-6.5-0.8-12.7-0.8-19.2c-0.6,12.3,0.1,22.6,1.2,32.2
		c-1.8-8.7-2.8-17.6-2.8-26.8c0-25.7,7.4-49.6,20.3-69.8c5.5-8.6,11.9-16.4,19.1-23.5c23.4-22.8,55.4-36.8,90.7-36.8
		c2.8,0,5.6,0.1,8.4,0.3c14.8,0.9,28.9,4.4,41.9,9.8c3.3,3.7,6.7,7.6,9.1,11.8c1,1.7,1.8,3.6,2.8,5.3c0.9,1.5,1.8,2.3,1.6,4.2
		c-0.2,1.1-0.9,2.5-1.4,3.5c-1.4,3.5-5.5,6-8.6,7.9c-4.3,2.7-9.3,3.8-13.9,6.2c-3,1.5-3.9,2.9-6,5.4c-1,1.3-2.4,2.3-3.2,3.6
		c-2.5,3.9-3.8,9.3-3.7,13.8c0.3,8.7,7.1,15.1,8.7,23.3c1.4,7.2,0.4,14.7,2.7,21.8c2.5,7.8,9.4,14.3,15.9,18.9
		c2.7,1.9,5.3,3.5,7.7,5.8c2.2,2.1,5.3,3.3,6.9,6C251.4,206,249,210.7,247.3,214.8z"/>
	
		<linearGradient id="SVGID_00000108289197146857979190000005963292179896295097_" gradientUnits="userSpaceOnUse" x1="49.9655" y1="148.4206" x2="237.0211" y2="148.4206">
		<stop  offset="1.117320e-02" style="stop-color:#FFE00B"/>
		<stop  offset="0.3061" style="stop-color:#FFDD0D"/>
		<stop  offset="0.5224" style="stop-color:#FFD412"/>
		<stop  offset="0.7136" style="stop-color:#FFC41B"/>
		<stop  offset="0.8891" style="stop-color:#FFAD27"/>
		<stop  offset="1" style="stop-color:#FF9B31"/>
	</linearGradient>
	<path style="fill-rule:evenodd;clip-rule:evenodd;fill:url(#SVGID_00000108289197146857979190000005963292179896295097_);" d="
		M237,67.2c-0.4,0-0.9,0.1-1.3,0.2c-1.5,0.3-2.6,0.1-4.1-0.3c-1-0.3-1.8-0.7-2.9-0.9c-1.6-0.2-3-0.9-4.6-1.1
		c-1.7-0.2-3.1-0.9-4.7-1.4c-1.2-0.5-1.9-0.3-3.1,0c-1.2,0.3-2-0.2-3.1-0.6c-1.2-0.5-2.4-0.6-3.7-0.9c-3.3-0.7-6.6-1.7-9.8-2.6
		c-2-0.5-3.9-0.5-6-0.5c-1.6,0-3.1,0.5-4.7,0.5c-1.1,0-2-0.2-3.1-0.3c-1.1-0.2-2.2,0-3.3-0.1c-1.6-0.2-2.5-0.5-4.2,0
		c-1.2,0.4-2.2,0.4-3.5,0.4c-1.4,0.1-2.9,0.4-4.3,0.7c-2.4,0.6-5.1,1-7.6,1c-1.5,0-3.8-0.4-5.3,0.1c-0.9,0.3-1.4,1.4-2.1,2
		c-1.3,1.3-2.8,2.5-3.9,3.9c-1.1,1.5-2.3,3-2.2,4.8c0.1,1.6,0.8,3.5,1.5,4.9c0.7,1.6,1,3-0.6,4c-2,1.3-4.3,2.5-6.6,3.2
		c-1.5,0.5-2.9,0.7-4.2-0.4c-0.5-0.4-0.8-1.2-1.4-1.5c-0.6-0.3-1.2,0-1.9,0.2c-1.6,0.5-3.2,1-4.8,1.3c-1,0.2-1.9,0.7-2.9,0.9
		c-1.2,0.2-2.1-0.7-3.3-0.4c-1.7,0.4-3.5,1.1-5.3,1.2c-1.3,0.1-2.9-0.5-4-1.2c-0.6-0.4-0.8-0.7-1.5-0.5c-0.6,0.1-1.5,0.9-1.8,1.3
		c-0.4,0.6-0.6,1.4-1,2c-0.5,0.7-0.9,1.4-1.3,2.1c-0.7,1.4-1.6,2.8-2.6,4.1c-0.7,0.9-1.2,2.1-1.9,3c-0.4,0.5-1.2,0.8-1.7,1.1
		c-1.4,0.9-2.8,1.8-4.1,2.8c-2.5,2-4.9,4.2-7.5,6.1c-2,1.5-4.7,2.3-6.9,3.2c-1.4,0.6-2.8,1-4.2,1.6c-0.5,0.2-1.3,0.4-1.7,0.7
		c-0.5,0.4-0.8,1.2-1.2,1.8c-1.2,1.5-2.5,3-3.4,4.7c-0.6,1-0.9,2-1.3,3.1c-0.5,1.5-1.3,2.8-1.8,4.3c-1,3.1-1.2,6.3-2.3,9.3
		c-0.7,1.8-1.6,3.4-2.4,5c-1.4,2.8-1.6,6-2,9.1c-0.2,1.8-0.1,3.8,0.2,5.6c0.3,1.9,0.2,3.8,0.2,5.7c0,2-1.3,4-2.6,5.5
		c-1.2,1.4-3,2-4.3,3.2c-1.1,1.1-2.4,2.3-2.9,3.9c-0.2,0.7,0,1.4-0.1,2.2c-0.3,1.6-0.7,3.1-0.9,4.7c-0.2,2-0.3,3.9-0.3,5.9
		c0,1-0.1,2.1,0,3.1c0,1,0.4,1.9,0.5,2.8c0,0.7-0.1,1.4,0,2c0.1,0.8,0.4,1.6,0.6,2.3c0.5,1.8,0.8,3.6,1.1,5.4c0.3,1.7,1,3.3,1.5,4.9
		c0.7,2.2,1.2,4.5,1.6,6.8c0.3,1.7,0.3,3.5,0.6,5.2c0.2,1.4,0.5,2.8,0.6,4.2c0.1,2.1-0.5,4.2-0.5,6.4c0,3.6,1.4,7.2,2.3,10.7
		c0.2,1,0.5,2,0.8,2.9c-8.9-17.6-14-37.6-14-58.7c0-25.7,7.4-49.6,20.3-69.8c5.5-8.6,11.9-16.4,19.1-23.5
		c23.4-22.8,55.4-36.8,90.7-36.8c2.8,0,5.6,0.1,8.4,0.3C205.8,55.4,222.2,59.9,237,67.2z"/>
	
		<linearGradient id="SVGID_00000179637068629021122450000018327802844218832514_" gradientUnits="userSpaceOnUse" x1="223.3113" y1="286.2377" x2="257.6118" y2="286.2377">
		<stop  offset="1.117320e-02" style="stop-color:#FFE00B"/>
		<stop  offset="0.3061" style="stop-color:#FFDD0D"/>
		<stop  offset="0.5224" style="stop-color:#FFD412"/>
		<stop  offset="0.7136" style="stop-color:#FFC41B"/>
		<stop  offset="0.8891" style="stop-color:#FFAD27"/>
		<stop  offset="1" style="stop-color:#FF9B31"/>
	</linearGradient>
	
		<path style="opacity:0.3;fill-rule:evenodd;clip-rule:evenodd;fill:url(#SVGID_00000179637068629021122450000018327802844218832514_);" d="
		M225.6,283c2.6-1.5,5-3.2,7.6-4.6c2.8-1.5,5.6-2.6,8.5-3.7c2.2-0.9,2.4-0.9,4.2,0.5c1.6,1.3,3.6,1.6,5.6,1.6c2.8,0,5.8,0.2,6.1,3.8
		c0.4,4.9-7,9.1-10.4,11c-2.8,1.6-5.8,2.6-8.8,4c-2.5,1.1-5.3,2.4-8,2.8c-2.3,0.3-3.9-0.8-5.4-2.5c-1.8-2.1-1.7-4.1-1.7-6.7
		C223.3,286.1,223.2,284,225.6,283z"/>
	
		<linearGradient id="SVGID_00000057121366006553056510000011650805090215829685_" gradientUnits="userSpaceOnUse" x1="264.0381" y1="104.6885" x2="280.9198" y2="104.6885">
		<stop  offset="1.117320e-02" style="stop-color:#FFE00B"/>
		<stop  offset="0.3061" style="stop-color:#FFDD0D"/>
		<stop  offset="0.5224" style="stop-color:#FFD412"/>
		<stop  offset="0.7136" style="stop-color:#FFC41B"/>
		<stop  offset="0.8891" style="stop-color:#FFAD27"/>
		<stop  offset="1" style="stop-color:#FF9B31"/>
	</linearGradient>
	
		<path style="opacity:0.3;fill-rule:evenodd;clip-rule:evenodd;fill:url(#SVGID_00000057121366006553056510000011650805090215829685_);" d="
		M264.3,101.2c2,3.9,3.3,9.1,6.3,12.3c1.6,1.7,2.8,2,4.9,2c1.1,0,3,0.4,4,0c1.4-0.5,1.3-2.1,1.3-3.4c-0.2-5.1-3.7-9.9-6.9-13.6
		c-2.1-2.4-5.6-5.3-9-4.7C264,96.2,263.8,98.7,264.3,101.2L264.3,101.2z"/>
	
		<radialGradient id="SVGID_00000067213094897160605380000006882598490056815277_" cx="84.9747" cy="95.585" r="171.1566" gradientUnits="userSpaceOnUse">
		<stop  offset="0" style="stop-color:#FFFFD9;stop-opacity:0.5"/>
		<stop  offset="1" style="stop-color:#FFFFD9;stop-opacity:0"/>
	</radialGradient>
	<path style="fill-rule:evenodd;clip-rule:evenodd;fill:url(#SVGID_00000067213094897160605380000006882598490056815277_);" d="
		M102.9,285.7c-13.4-11.3-24.6-25.2-32.6-41c-5-9.9-8.8-20.6-11.2-31.7c0,0,0-0.1,0-0.1c-1.8-8.7-2.8-17.6-2.8-26.8
		c0-25.7,7.4-49.6,20.3-69.8c5.5-8.6,11.9-16.4,19.1-23.5c23.4-22.8,55.4-36.8,90.7-36.8c2.8,0,5.6,0.1,8.4,0.3
		c8.8,0.6,17.4,2,25.6,4.3c-10.2-3.3-20.9-5.4-32-6.1c-2.8-0.2-5.6-0.3-8.4-0.3c-35.3,0-67.2,14-90.7,36.8
		c-7.2,7-13.6,14.9-19.1,23.5C57.4,134.5,50,158.4,50,184.1c0,9.2,1,18.2,2.8,26.8c0,0,0,0.1,0,0.1c2.3,11.2,6.1,21.8,11.2,31.7
		c8,15.8,19.1,29.7,32.6,41c14.2,12,31.1,20.9,49.5,25.9C130.1,304.4,115.5,296.2,102.9,285.7z"/>
	<path class="st16" d="M192.8,305.9c-0.4,0.5-1,1-0.5,1.5c0.3,0.3,0.8,0.5,1.1,0.6c0.6,0.2,1.7,0.1,2.2-0.3c0.5-0.4,0.4-0.9,0.1-1.3
		c-0.6-0.9-1.3-1-2.3-0.6L192.8,305.9z"/>
	<path class="st16" d="M107.7,87.6c-1.4,0.4-1.9,0.6-3.3,1.7c-1.1,0.9-2.3,1.7-3.3,2.7c-1.4,1.3-1.8,2.7-2.3,4.2
		c-0.4,1.4-0.8,3-0.2,3.8c0.3,0.4,1.2,0.4,1.9,0.2c1-0.3,2.1-1,3.2-1.7c1.4-0.9,2.6-2.2,3.6-3.7c0.7-1,1.1-2.2,1.6-3.2
		c0.3-0.7,0.5-1.4,0.7-2c0.2-0.6,0.2-1,0.1-1.4C109.6,87.6,109.2,87.6,107.7,87.6z"/>
	<g>
		<path class="st16" d="M123.1,85.3c-0.6,0.5-1.8,1.3-0.8,2c0.3,0.2,0.5,0.1,0.8,0.2c0.2,0.1,0.3,0.2,0.5,0.1
			c0.8-0.3,0.5-2.5-0.4-2.1L123.1,85.3z"/>
		<path class="st16" d="M127.2,93.3c0.4-0.2,0.7-0.3,1.1-0.3c0.1,0.5,0.5,1.4-0.2,1.8c-0.6,0.3-0.4-0.7-0.7-1L127.2,93.3z"/>
		<path class="st16" d="M135,93.5c0.7,0.3,1.5,0.6,2.2,0.9c0.2-0.2,0.6-0.2,0.9-0.3c0.4-0.2,0.7-0.7,0.8-1.1
			c0.2-0.6-0.1-1.1-0.4-1.6c-0.2-0.3-0.4-0.8-0.7-1c-0.3-0.3-1-0.2-1.4,0c-0.4,0.2-0.8,0.7-1.1,1.1c-0.3,0.4-0.6,1-0.6,1.5
			c0,0.5,0.4,1,0.8,1.3L135,93.5z"/>
		<path class="st16" d="M141.6,244c0.7,0.3,1.5,0.6,2.2,0.9c0.2-0.2,0.6-0.2,0.9-0.3c0.4-0.2,0.7-0.7,0.8-1.1
			c0.2-0.6-0.1-1.1-0.4-1.6c-0.2-0.3-0.4-0.8-0.7-1c-0.3-0.3-1-0.2-1.4,0c-0.4,0.2-0.8,0.7-1.1,1.1c-0.3,0.4-0.6,1-0.6,1.5
			c0,0.5,0.4,1,0.8,1.3L141.6,244z"/>
		<path class="st16" d="M114,100.6c-0.3,0.2-0.6,0.5-0.8,0.8c0.3,0.4,0.4,0.7,1,0.9c0.2,0.1,0.4,0.1,0.6-0.1
			c0.2-0.2,0.1-0.4,0.2-0.6c0.1-0.5,0.3-0.6,0-1.1c-0.2-0.3-0.3-0.4-0.6-0.4c-0.2,0-0.7,0.1-0.8,0.3L114,100.6z"/>
		<path class="st16" d="M115.7,112.3c-0.1,0.1-0.6,1.6,0.1,1.1c0.4-0.2,0.2-0.8,0-0.9c0,0,0-0.1,0-0.1L115.7,112.3z"/>
		<path class="st16" d="M104.9,132.1c-0.5,0.6-0.6,0.9-0.8,1.6c0.2,0.2,0.6,0.3,0.9,0.3c0.4,0,0.5-0.2,0.5-0.6
			c0-0.3,0.1-0.6,0.1-0.9c-0.1-0.3-0.4-0.7-0.8-0.5L104.9,132.1z"/>
		<path class="st16" d="M121.5,102c0.3,0.3,0.5,0.6,0.5,1c-0.4,0.1-0.4-0.3-0.5-0.6c-0.1-0.5,0.1-0.3,0.4-0.7c0,0,0.1,0,0.1,0
			L121.5,102z"/>
		<path class="st16" d="M117.6,86.6c-0.3,0.2-0.6,0.5-0.8,0.8c0.2,0.2,0.1,0.6,0.5,0.6c0.3,0,0.6-0.3,0.7-0.6
			c0.2-0.3,0.2-0.5,0.2-0.8c0-0.2,0-0.8-0.3-0.4L117.6,86.6z"/>
		<path class="st16" d="M167.4,78.7c0.1-0.4,0.2-0.8,0.3-1.2c0.1-0.1,0.2-0.2,0.3-0.3c0.2-0.3,0.1-0.4,0.5-0.4c0.4,0,0.7,0,1,0.3
			c1.1,0.9-1.7,1.5-1.8,0.7L167.4,78.7z"/>
		<path class="st16" d="M176.8,82.1c-0.1,0.6-0.5,1.5,0,1.9c0.5,0.4,1.6-0.2,2-0.6c0.7-0.6,1.6-1.9,0.9-2.8
			c-0.4-0.5-1.5-0.9-2.2-0.9c-1.3,0.1-1.7,1.7-1.9,3L176.8,82.1z"/>
		<path class="st16" d="M180.8,69.3c-0.1-1.1-0.3-2.2,0.6-2.7c0.5-0.3,1.5-0.4,2-0.1c0.4,0.3,0.7,0.8,0.9,1.1
			c0.3,0.5,0.2,0.6,0.1,1.1c-0.4,1.2-0.7,1.9-1.8,1.9c-1.5,0-1.7-1.2-1.8-2.6V69.3z"/>
		<path class="st16" d="M194.8,88.4c0.8-0.2,1.5-0.7,2.1-1.3c-0.6-0.4-1.9-1.1-2.1,0V88.4z"/>
		<path class="st22" d="M146.7,261.3c0.8-0.2,1.5-0.7,2.1-1.3c-0.6-0.4-1.9-1.1-2.1,0V261.3z"/>
		<path class="st22" d="M236,280c0.8-0.2,1.5-0.7,2.1-1.3c-0.6-0.4-1.9-1.1-2.1,0V280z"/>
		<path class="st16" d="M205.6,105.1c0.8-1,2-2.9,3.5-1.8c0.9,0.6,1.1,2.1,0.3,2.8c-0.8,0.6-1.5,0.7-2.3,1c-0.7,0.2-1.7-0.3-1.5-1.2
			V105.1z"/>
		<path class="st22" d="M147.8,129.2c0.8-1,2-2.9,3.5-1.8c0.9,0.6,1.1,2.1,0.3,2.8c-0.8,0.6-1.5,0.7-2.3,1c-0.7,0.2-1.7-0.3-1.5-1.2
			V129.2z"/>
		<path class="st22" d="M243.7,86.5c0.8-1,2-2.9,3.5-1.8c0.9,0.6,1.1,2.1,0.3,2.8c-0.8,0.6-1.5,0.7-2.3,1c-0.7,0.2-1.7-0.3-1.5-1.2
			V86.5z"/>
		<path class="st22" d="M190,175.1c0.8-1,2-2.9,3.5-1.8c0.9,0.6,1.1,2.1,0.3,2.8c-0.8,0.6-1.5,0.7-2.3,1c-0.7,0.2-1.7-0.3-1.5-1.2
			V175.1z"/>
		<path class="st16" d="M143,93c-1.1,0.7-2.8,1.5-3,2.9c-0.1,0.9,0.3,1.4,1.1,1.8c0.7,0.3,1.7,0.4,2.4,0c1-0.5,2.1-1.3,2.5-2.3
			c0.3-0.7,0.3-1.3-0.1-2c-0.2-0.4-0.6-0.9-1-1c-1.3-0.5-2.2,0.9-3.2,1.5L143,93z"/>
		<path class="st16" d="M146.4,89.2c0.6,0.2,1.1,0.5,1.5,1c-0.6,0.2-1.2,0.6-1.8,0.4c-0.8-0.3-0.9-1-0.7-1.7
			c0.1-0.4,0.8-1.1,1.2-0.9c0.2,0.1,0.2,0.4,0.3,0.5c0.1,0.4,0.2,0.3-0.1,0.7H146.4z"/>
		<path class="st16" d="M88.5,113.3c-1.1,1-2.2,2.2-2.8,3.6c-0.3,0.7,0.2,0.8,0.9,0.6c1.3-0.2,2.6-0.6,3.8-0.9
			c0.7-0.2,1.8-0.6,2.3-1.2c0.4-0.5,0.6-1.3,0.5-1.9c-0.1-0.9-0.7-1.2-1.5-1.4c-1.8-0.5-4,0.7-4.7,2.3L88.5,113.3z"/>
		<path class="st16" d="M89.3,119.3c0.9,0,1.7,0.2,2.5,0.7c-0.2,0.3-0.2,0.6-0.3,0.9c-0.2,0.5-0.6,0.9-1,1.2
			c-0.7,0.4-1.8,0.6-2.6,0.3c-2.3-0.9,1.2-3.7,2-2.7L89.3,119.3z"/>
		<path class="st16" d="M163.7,67c0.9-0.4,1.7-1,2.6-1.1c1.1-0.2,2.1-0.4,3.2-0.4c0.6,0,1.8,0,1.4,0.9c-0.4,1-2.5,1.9-3.3,2.3
			c-1.4,0.7-2.8,1.4-4.4,1.5c-0.8,0.1-2.2,0.1-2.6-0.7c-0.4-0.7-0.2-1.3,0.2-1.9c0.4-0.7,0.8-0.9,1.5-1.2c0.3-0.1,2.2-0.6,2.3,0
			L163.7,67z"/>
		<path class="st16" d="M149.2,67.4c-0.4,0.3-3.3,1.9-1.9,2.6c0.8,0.4,2.2,0.3,3-0.1c0.7-0.3,1.4-0.7,0.9-1.5c-0.9-1.6-3-0.7-4.2,0
			L149.2,67.4z"/>
		<path class="st23" d="M108.3,175.1c0.2,1.2,0.5,2.5,1.5,3.3c1.1,0.8,2.3,0.5,3.4-0.1c0.8-0.5,1.5-1,2.3-1.5c0.5-0.3,0.9-0.3,0.9-1
			c0-0.7-0.6-1.6-1-2.2c-0.5-0.6-1.4-1.4-2.2-1.7c-1.6-0.6-4.7,0-4.7,2.2L108.3,175.1z"/>
		<path class="st24" d="M201.5,176.4c0.2,1.2,0.5,2.5,1.5,3.3c1.1,0.8,2.3,0.5,3.4-0.1c0.8-0.5,1.5-1,2.3-1.5c0.5-0.3,0.9-0.3,0.9-1
			c0-0.7-0.6-1.6-1-2.2c-0.5-0.6-1.4-1.4-2.2-1.7c-1.6-0.6-4.7,0-4.7,2.2L201.5,176.4z"/>
	</g>
	
		<radialGradient id="SVGID_00000073003342279904251530000006696912789905308801_" cx="46.7024" cy="156.3604" r="44.6946" gradientTransform="matrix(1.5376 -0.6436 0.4127 0.9858 0.5372 -19.6854)" gradientUnits="userSpaceOnUse">
		<stop  offset="0" style="stop-color:#FFBB00;stop-opacity:0.5"/>
		<stop  offset="1" style="stop-color:#FFBB00;stop-opacity:0"/>
	</radialGradient>
	<path style="fill-rule:evenodd;clip-rule:evenodd;fill:url(#SVGID_00000073003342279904251530000006696912789905308801_);" d="
		M205.6,75.6c10.2,24.3-12.3,56.9-50.3,72.8c-38,15.9-77,9-87.2-15.3C58,108.8,80.5,76.2,118.4,60.3
		C156.4,44.4,195.4,51.3,205.6,75.6z"/>
	<path class="st26" d="M68.6,223.4c0,0-1.1,4.7,2.2,10.6c3.3,5.9,5.7,5.6,5.7,5.6S73.7,228.6,68.6,223.4z"/>
	<path class="st26" d="M280.9,159.2c0,0-3.8,11-4.4,12.6C276.5,171.8,282.6,170.1,280.9,159.2z"/>
	<path class="st26" d="M301.4,162.7c0,0-2.6,2-4.1,7.1C297.2,169.8,300.5,171.3,301.4,162.7z"/>
	<path class="st26" d="M259.5,264.6c0,0,12.3-8,19.4-8.6C278.9,256.1,270.8,266,259.5,264.6z"/>
</g>
</svg>
