<?xml version="1.0" encoding="utf-8"?>
<!-- Generator: Adobe Illustrator 26.5.0, SVG Export Plug-In . SVG Version: 6.00 Build 0)  -->
<svg version="1.1" id="Layer_1" xmlns="http://www.w3.org/2000/svg" xmlns:xlink="http://www.w3.org/1999/xlink" x="0px" y="0px"
	 viewBox="0 0 360 360" style="enable-background:new 0 0 360 360;" xml:space="preserve">
<style type="text/css">
	.st0{fill-rule:evenodd;clip-rule:evenodd;fill:url(#SVGID_1_);}
	.st1{fill-rule:evenodd;clip-rule:evenodd;fill:url(#SVGID_00000080187285345560176110000015742092849211084718_);}
	.st2{fill-rule:evenodd;clip-rule:evenodd;fill:url(#SVGID_00000039130248376225796180000015528044117648929948_);}
	.st3{fill-rule:evenodd;clip-rule:evenodd;fill:url(#SVGID_00000008129209512114375940000005834594476370343045_);}
	.st4{fill-rule:evenodd;clip-rule:evenodd;fill:url(#SVGID_00000158027485880936546740000002750690250306331838_);}
	.st5{fill-rule:evenodd;clip-rule:evenodd;fill:url(#SVGID_00000105421114555671560150000009281166203954696856_);}
	
		.st6{opacity:0.5;fill-rule:evenodd;clip-rule:evenodd;fill:url(#SVGID_00000004545000504463226050000011851257221840359596_);enable-background:new    ;}
	.st7{fill-rule:evenodd;clip-rule:evenodd;fill:url(#SVGID_00000012452088856102778750000006137390492569701279_);}
	.st8{fill-rule:evenodd;clip-rule:evenodd;fill:url(#SVGID_00000018223344823077309700000017875623474359702958_);}
	
		.st9{opacity:0.3;fill-rule:evenodd;clip-rule:evenodd;fill:url(#SVGID_00000102507814933423664990000016472768147435925923_);enable-background:new    ;}
	
		.st10{opacity:0.3;fill-rule:evenodd;clip-rule:evenodd;fill:url(#SVGID_00000014604694391566071000000012967494885717121451_);enable-background:new    ;}
	
		.st11{opacity:0.3;fill-rule:evenodd;clip-rule:evenodd;fill:url(#SVGID_00000084521109146563107190000012371477036768845234_);enable-background:new    ;}
	
		.st12{opacity:0.3;fill-rule:evenodd;clip-rule:evenodd;fill:url(#SVGID_00000140009797520457367720000007969536602360509338_);enable-background:new    ;}
	
		.st13{opacity:0.3;fill-rule:evenodd;clip-rule:evenodd;fill:url(#SVGID_00000016788028717837373470000009068390651270496431_);enable-background:new    ;}
	.st14{fill-rule:evenodd;clip-rule:evenodd;fill:url(#SVGID_00000136406141780464326840000015289049604561440167_);}
	.st15{fill-rule:evenodd;clip-rule:evenodd;fill:url(#SVGID_00000171691526786270005330000013849953111893251503_);}
	.st16{fill-rule:evenodd;clip-rule:evenodd;fill:url(#SVGID_00000002344968574246829100000015276263365783653537_);}
	.st17{fill-rule:evenodd;clip-rule:evenodd;fill:#FFFFFF;}
	.st18{fill-rule:evenodd;clip-rule:evenodd;fill:url(#SVGID_00000082363392764354337940000015639995438497932432_);}
	.st19{fill-rule:evenodd;clip-rule:evenodd;fill:url(#SVGID_00000070836367120826417180000012975301031978994088_);}
</style>
<g>
	
		<radialGradient id="SVGID_1_" cx="180" cy="630" r="180" gradientTransform="matrix(1 0 0 1 0 -450)" gradientUnits="userSpaceOnUse">
		<stop  offset="0" style="stop-color:#FF3600"/>
		<stop  offset="1" style="stop-color:#FF3600;stop-opacity:0"/>
	</radialGradient>
	<circle class="st0" cx="180" cy="180" r="180"/>
	
		<radialGradient id="SVGID_00000131360081223636632080000011700492427905142205_" cx="180" cy="630" r="150.88" gradientTransform="matrix(1 0 0 1 0 -450)" gradientUnits="userSpaceOnUse">
		<stop  offset="0" style="stop-color:#FF7300"/>
		<stop  offset="1" style="stop-color:#FF7300;stop-opacity:0"/>
	</radialGradient>
	
		<circle style="fill-rule:evenodd;clip-rule:evenodd;fill:url(#SVGID_00000131360081223636632080000011700492427905142205_);" cx="180" cy="180" r="150.9"/>
	
		<radialGradient id="SVGID_00000058585412085097617030000011243382507534780320_" cx="180" cy="630" r="136.76" gradientTransform="matrix(1 0 0 1 0 -450)" gradientUnits="userSpaceOnUse">
		<stop  offset="0" style="stop-color:#FF7900"/>
		<stop  offset="0.8874" style="stop-color:#FF7900;stop-opacity:0.1126"/>
		<stop  offset="1" style="stop-color:#FF7900;stop-opacity:0"/>
	</radialGradient>
	
		<circle style="fill-rule:evenodd;clip-rule:evenodd;fill:url(#SVGID_00000058585412085097617030000011243382507534780320_);" cx="180" cy="180" r="136.8"/>
	
		<radialGradient id="SVGID_00000090984314761167072110000011231686918180862595_" cx="99.4644" cy="567.907" r="229.8422" gradientTransform="matrix(1 0 0 1 0 -450)" gradientUnits="userSpaceOnUse">
		<stop  offset="5.586590e-03" style="stop-color:#FF7263"/>
		<stop  offset="0.2092" style="stop-color:#FC6F63"/>
		<stop  offset="0.3674" style="stop-color:#F46562"/>
		<stop  offset="0.5102" style="stop-color:#E55560"/>
		<stop  offset="0.6441" style="stop-color:#D03D5D"/>
		<stop  offset="0.7704" style="stop-color:#B6205A"/>
		<stop  offset="0.8771" style="stop-color:#9A0057"/>
		<stop  offset="0.986" style="stop-color:#9A00AE"/>
	</radialGradient>
	<path style="fill-rule:evenodd;clip-rule:evenodd;fill:url(#SVGID_00000090984314761167072110000011231686918180862595_);" d="
		M310,178.7c0,12.5-1.8,24.6-5.1,36c-6.6,23-19.4,43.3-36.4,59.2c-12.2,11.4-26.6,20.4-42.4,26.4c-14.4,5.5-29.9,8.4-46.2,8.4
		c-2.3,0-4.6-0.1-6.9-0.2h0c-3.4-0.2-6.8-0.5-10.1-0.9c-25.1-3.3-47.9-13.7-66.4-29.3c-6.9-5.8-13.3-12.3-18.8-19.5
		c-4.2-5.4-8-11-11.4-17c-0.8-1.4-1.6-2.9-2.3-4.3c0-0.1,0-0.1-0.1-0.1c-0.8-1.6-1.5-3.1-2.3-4.7c0,0,0,0,0,0
		c-2.3-5-4.2-10.1-5.8-15.4c-1.2-3.8-2.2-7.7-3-11.6c0,0,0-0.1,0-0.1c-0.6-2.8-1.1-5.6-1.5-8.4c-0.9-6-1.3-12.2-1.3-18.4
		c0-3.6,0.1-7.2,0.5-10.7c0.2-2.3,0.4-4.5,0.7-6.7c1.7-12.8,5.2-25,10.4-36.3c2.5-5.6,5.4-10.9,8.7-16.1
		c5.4-8.6,11.9-16.4,19.1-23.5c23.4-22.8,55.4-36.8,90.6-36.8c1.4,0,2.7,0,4.1,0.1c1.5,0.1,2.9,0.1,4.4,0.2
		c7.5,0.5,14.8,1.6,21.8,3.3c4.1,1,8.2,2.1,12.1,3.5c2.7,0.9,5.3,1.9,7.9,3c1.9,0.8,3.8,1.7,5.7,2.6c0.3,0.2,0.7,0.3,1,0.5
		c12.6,6.2,24.1,14.3,34,24c1.4,1.4,2.8,2.8,4.2,4.3c0.9,1,1.8,2,2.7,3c1.5,1.7,3,3.5,4.4,5.3c5.2,6.6,9.7,13.7,13.6,21.2
		c4.5,8.7,8,18,10.4,27.8C308.7,157.4,310,167.9,310,178.7z"/>
	
		<linearGradient id="SVGID_00000113353253573650217510000013324306317223868042_" gradientUnits="userSpaceOnUse" x1="49.86" y1="593.04" x2="237.02" y2="593.04" gradientTransform="matrix(1 0 0 1 0 -450)">
		<stop  offset="1.120000e-02" style="stop-color:#FF9D85"/>
		<stop  offset="0.2899" style="stop-color:#FF9A84"/>
		<stop  offset="0.4943" style="stop-color:#FF917F"/>
		<stop  offset="0.6749" style="stop-color:#FF8178"/>
		<stop  offset="0.8407" style="stop-color:#FF6A6E"/>
		<stop  offset="0.9968" style="stop-color:#FF4E61"/>
		<stop  offset="1" style="stop-color:#FF4D61"/>
	</linearGradient>
	<path style="fill-rule:evenodd;clip-rule:evenodd;fill:url(#SVGID_00000113353253573650217510000013324306317223868042_);" d="
		M237,61.8c-0.4,0-0.9,0.1-1.3,0.2c-1.5,0.3-2.6,0.1-4.1-0.3c-1-0.3-1.8-0.7-2.9-0.9c-1.6-0.2-3-0.9-4.6-1.1
		c-1.7-0.2-3.1-0.9-4.7-1.4c-1.2-0.5-1.9-0.3-3.1,0c-1.2,0.3-2-0.2-3.1-0.6c-1.2-0.5-2.4-0.6-3.7-0.9c-3.3-0.7-6.6-1.7-9.8-2.6
		c-2-0.5-3.9-0.5-6-0.5c-1.6,0-3.1,0.5-4.7,0.5c-1.1,0-2-0.2-3.1-0.3c-1.1-0.2-2.2,0-3.3-0.1c-1.6-0.2-2.5-0.5-4.2,0
		c-1.2,0.4-2.2,0.4-3.5,0.4c-1.4,0.1-2.9,0.4-4.3,0.7c-2.4,0.6-5.1,1-7.6,1c-1.5,0-3.8-0.4-5.3,0.1c-0.9,0.3-1.4,1.4-2.1,2
		c-1.3,1.3-2.8,2.5-3.9,3.9s-2.3,3-2.2,4.8c0.1,1.6,0.8,3.5,1.5,4.9c0.7,1.6,1,3-0.6,4c-2,1.3-4.3,2.5-6.6,3.2
		c-1.5,0.5-2.9,0.7-4.2-0.4c-0.5-0.4-0.8-1.2-1.4-1.5s-1.2,0-1.9,0.2c-1.6,0.5-3.2,1-4.8,1.3c-1,0.2-1.9,0.7-2.9,0.9
		c-1.2,0.2-2.1-0.7-3.3-0.4c-1.7,0.4-3.5,1.1-5.3,1.2c-1.3,0.1-2.9-0.5-4-1.2c-0.6-0.4-0.8-0.7-1.5-0.5c-0.6,0.1-1.5,0.9-1.8,1.3
		c-0.4,0.6-0.6,1.4-1,2c-0.5,0.7-0.9,1.4-1.3,2.1c-0.7,1.4-1.6,2.8-2.6,4.1c-0.7,0.9-1.2,2.1-1.9,3c-0.4,0.5-1.2,0.8-1.7,1.1
		c-1.4,0.9-2.8,1.8-4.1,2.8c-2.5,2-4.9,4.2-7.5,6.1c-2,1.5-4.7,2.3-6.9,3.2c-1.4,0.6-2.8,1-4.2,1.6c-0.5,0.2-1.3,0.4-1.7,0.7
		c-0.5,0.4-0.8,1.2-1.2,1.8c-1.2,1.5-2.5,3-3.4,4.7c-0.6,1-0.9,2-1.3,3.1c-0.5,1.5-1.3,2.8-1.8,4.3c-1,3.1-1.2,6.3-2.3,9.3
		c-0.7,1.8-1.6,3.4-2.4,5c-1.4,2.8-1.6,6-2,9.1c-0.2,1.8-0.1,3.8,0.2,5.6c0.3,1.9,0.2,3.8,0.2,5.7c0,2-1.3,4-2.6,5.5
		c-1.2,1.4-3,2-4.3,3.2c-1.1,1.1-2.4,2.3-2.9,3.9c-0.2,0.7,0,1.4-0.1,2.2c-0.3,1.6-0.7,3.1-0.9,4.7c-0.2,2-0.3,3.9-0.3,5.9
		c0,1-0.1,2.1,0,3.1c0,1,0.4,1.9,0.5,2.8c0,0.7-0.1,1.4,0,2c0.1,0.8,0.4,1.6,0.6,2.3c0.5,1.8,0.8,3.6,1.1,5.4c0.3,1.7,1,3.3,1.5,4.9
		c0.7,2.2,1.2,4.5,1.6,6.8c0.3,1.7,0.3,3.5,0.6,5.2c0.2,1.4,0.5,2.8,0.6,4.2c0.1,2.1-0.5,4.2-0.5,6.4c0,3.6,1.4,7.2,2.3,10.7
		c0.2,1,0.5,2,0.8,2.9c-8.9-17.6-14-37.6-14-58.7c0-25.7,7.4-49.6,20.3-69.8c5.5-8.6,11.9-16.4,19.1-23.5
		c23.5-22.7,55.5-36.8,90.8-36.8c2.8,0,5.6,0.1,8.4,0.3C205.8,50.1,222.2,54.6,237,61.8z"/>
	<g>
		
			<linearGradient id="SVGID_00000090976216041831062100000006727868874290714288_" gradientUnits="userSpaceOnUse" x1="-345.9636" y1="-22.0154" x2="-334.876" y2="-22.0154" gradientTransform="matrix(-0.7071 0.7071 -0.7071 -0.7071 -132.5979 439.0838)">
			<stop  offset="1.120000e-02" style="stop-color:#FF9D85"/>
			<stop  offset="0.2899" style="stop-color:#FF9A84"/>
			<stop  offset="0.4943" style="stop-color:#FF917F"/>
			<stop  offset="0.6749" style="stop-color:#FF8178"/>
			<stop  offset="0.8407" style="stop-color:#FF6A6E"/>
			<stop  offset="0.9968" style="stop-color:#FF4E61"/>
			<stop  offset="1" style="stop-color:#FF4D61"/>
		</linearGradient>
		<path style="fill-rule:evenodd;clip-rule:evenodd;fill:url(#SVGID_00000090976216041831062100000006727868874290714288_);" d="
			M126.9,225c-1.8-6.5-4.1-14.3-6.4-22.1C122.4,210.6,124.5,218.1,126.9,225z"/>
		
			<linearGradient id="SVGID_00000085935743043567210520000004556945633850309283_" gradientUnits="userSpaceOnUse" x1="-533.3345" y1="-30.8755" x2="-281.3051" y2="-30.8755" gradientTransform="matrix(-0.7071 0.7071 -0.7071 -0.7071 -132.5979 439.0838)">
			<stop  offset="1.120000e-02" style="stop-color:#FF9D85"/>
			<stop  offset="0.2899" style="stop-color:#FF9A84"/>
			<stop  offset="0.4943" style="stop-color:#FF917F"/>
			<stop  offset="0.6749" style="stop-color:#FF8178"/>
			<stop  offset="0.8407" style="stop-color:#FF6A6E"/>
			<stop  offset="0.9968" style="stop-color:#FF4E61"/>
			<stop  offset="1" style="stop-color:#FF4D61"/>
		</linearGradient>
		
			<path style="opacity:0.5;fill-rule:evenodd;clip-rule:evenodd;fill:url(#SVGID_00000085935743043567210520000004556945633850309283_);enable-background:new    ;" d="
			M123,295.9c0,0,5.2-39.8,9.1-39.8c3.1,0,8.3,6,18.8,14l0,0l0,0c2.9,2.2,6.3,4.6,10.1,7.1c3.3,2.1,7.4,4.3,12,6.5l0,0l0,0
			c7.7,3.7,16.7,7.3,24.8,10.4l0,0l0,0c12.8,4.9,23.3,8.3,23.3,8.3l2-1.5c0,0-9-1.9-21.3-6.1c0,0,12.7-20.7,28.9-39.3
			s78.5-62.4,78.5-62.4l0.5-6.2c0,0-17.8,14.7-37.5,30.3c0,0,13.2-90.6,17.4-105l-4.2-1.7c0,0-9.8,89.3-20.7,112.7
			C246.1,238,227.4,252,222,253.8c-11.9,3.9-55.3-31-55.4-31.1c-1.1-35.9-0.3-76,2.7-86.4C213.6,94.4,256,73.4,256,73.4l-2-2
			c0,0-42.3,29.7-43.5,24s26.7-34.4,26.7-34.4l-3.2-0.5c0,0-31,39.8-73.9,81.9c-30.1,29.6-40.2,38.6-43.6,41.3
			c-5.4-31.1-5.8-63.8,3.3-84.9c17.1-39.5,40.9-48.5,40.9-48.5c-3.9-0.1-12.2,2-12.2,2s-11.9,14.1-16.9,22.3
			c-5,8.2-11.8,24.3-15.8,21.7c-4-2.6-16.4-19.7-16.4-19.7l-1.5,1.5c0,0,11.9,11.1,14,19.8s0.2,61.7-5.1,59.7
			c-5.4-2-44-34.9-44-34.9l-1.3,2.8c0,0,40.2,27.5,45.3,37.2c2.5,4.8,8.4,22.5,13.7,40c-0.6-2.5-2.6-11.2-1.7-15
			c13.6-20.1,28.8-30.2,44-45.3c3.3,18.6,3.2,84.2,2.9,116.7l-15,7.4c-4.4-4.1-8.2-8.6-11.2-13.6c-4.5-7.5-8.8-17.3-12.6-28.3
			c2.3,8.4,3.9,14.8,3.9,16.7c0.1,6.5-9.9,53.2-9.9,53.2L123,295.9z M272.1,217.6c-2.3,1.8-4.6,3.6-6.9,5.4L272.1,217.6z
			 M166.6,224.2l0.1,2.6C166.7,226,166.6,225.1,166.6,224.2z M166.7,227.1c0,0,41.7,25.9,48.6,30.6c6.4,4.4-14,31.8-17.1,35.9
			c-8-2.9-17.1-6.7-25.9-11.5C169.5,274.5,167.6,252.2,166.7,227.1z M165.6,259.8v-0.2C165.6,259.6,165.6,259.7,165.6,259.8z
			 M165.6,261.9c-0.1,9.8-0.2,16.1-0.2,16.1c-4.5-2.8-8.8-6-12.7-9.4C155.4,266.4,160.8,262.5,165.6,261.9z"/>
		
			<linearGradient id="SVGID_00000031206467412747365980000012019354936817668262_" gradientUnits="userSpaceOnUse" x1="-317.6424" y1="6.8419" x2="-274.9269" y2="6.8419" gradientTransform="matrix(-0.7071 0.7071 -0.7071 -0.7071 -132.5979 439.0838)">
			<stop  offset="1.120000e-02" style="stop-color:#FF9D85"/>
			<stop  offset="0.2899" style="stop-color:#FF9A84"/>
			<stop  offset="0.4943" style="stop-color:#FF917F"/>
			<stop  offset="0.6749" style="stop-color:#FF8178"/>
			<stop  offset="0.8407" style="stop-color:#FF6A6E"/>
			<stop  offset="0.9968" style="stop-color:#FF4E61"/>
			<stop  offset="1" style="stop-color:#FF4D61"/>
		</linearGradient>
		<path style="fill-rule:evenodd;clip-rule:evenodd;fill:url(#SVGID_00000031206467412747365980000012019354936817668262_);" d="
			M90.9,214.5c-6-8.8-40.8-40.1-40.8-40.1l0,8.3c0,0,31.5,18.6,40.1,34.1c8.6,15.5-0.5,55.9-0.5,55.9l3.4,3.4
			C93.1,276,99.6,227.4,90.9,214.5z"/>
	</g>
	
		<radialGradient id="SVGID_00000151535793862684896960000001815412959306337969_" cx="84.9698" cy="540.2184" r="171.1566" gradientTransform="matrix(1 0 0 1 0 -450)" gradientUnits="userSpaceOnUse">
		<stop  offset="0" style="stop-color:#FFFFFF"/>
		<stop  offset="1" style="stop-color:#FFFFFF;stop-opacity:0"/>
	</radialGradient>
	<path style="fill-rule:evenodd;clip-rule:evenodd;fill:url(#SVGID_00000151535793862684896960000001815412959306337969_);" d="
		M102.9,280.3c-13.4-11.3-24.6-25.2-32.6-41c-5-9.9-8.8-20.6-11.2-31.7c0,0,0-0.1,0-0.1c-1.8-8.7-2.8-17.6-2.8-26.8
		c0-25.7,7.4-49.6,20.3-69.8c5.5-8.6,11.9-16.4,19.1-23.5c23.4-22.8,55.4-36.8,90.7-36.8c2.8,0,5.6,0.1,8.4,0.3
		c8.8,0.6,17.4,2,25.6,4.3c-10.2-3.3-20.9-5.4-32-6.1c-2.8-0.2-5.6-0.3-8.4-0.3c-35.3,0-67.2,14-90.7,36.8
		c-7.2,7-13.6,14.9-19.1,23.5C57.4,129.1,50,153.1,50,178.7c0,9.2,1,18.2,2.8,26.8c0,0,0,0.1,0,0.1c2.3,11.2,6.1,21.8,11.2,31.7
		c8,15.8,19.1,29.7,32.6,41c14.2,12,31.1,20.9,49.5,25.9C130.1,299.1,115.5,290.9,102.9,280.3z"/>
	
		<radialGradient id="SVGID_00000034809903415269573130000001337975282525324944_" cx="237.6462" cy="630.6066" r="94.0964" gradientTransform="matrix(1 0 0 1 0 -450)" gradientUnits="userSpaceOnUse">
		<stop  offset="0" style="stop-color:#FFFFFF"/>
		<stop  offset="1" style="stop-color:#623964;stop-opacity:0"/>
	</radialGradient>
	
		<path style="opacity:0.3;fill-rule:evenodd;clip-rule:evenodd;fill:url(#SVGID_00000034809903415269573130000001337975282525324944_);enable-background:new    ;" d="
		M151.4,51.8c0,0,11,118,14.3,128c3.2,10,32.6,28.4,44.6,30.7s42.5,13.3,50.4,13c7.9-0.3,42.5-3.2,42.5-3.2l4.8-18.5
		c0,0-64.5-49.9-87.4-95.5c-22.9-45.6-22.4-56.3-22.4-56.3l-9.8-1c0,0,24.8,47.7,32,70.9s37.9,46.1,51.6,59.5
		c13.7,13.3,9.7,36.8-6.9,35.7c-16.6-1.1-73.6,2.1-87.6-40.8c-6.1-18.7-11.5-36.9-15.7-68S151.4,51.8,151.4,51.8z"/>
	
		<radialGradient id="SVGID_00000072992710876501541650000008530392871344664716_" cx="183.8098" cy="684.2454" r="96.1014" gradientTransform="matrix(1 0 0 1 0 -450)" gradientUnits="userSpaceOnUse">
		<stop  offset="0" style="stop-color:#FFFFFF"/>
		<stop  offset="1" style="stop-color:#623964;stop-opacity:0"/>
	</radialGradient>
	
		<path style="opacity:0.3;fill-rule:evenodd;clip-rule:evenodd;fill:url(#SVGID_00000072992710876501541650000008530392871344664716_);enable-background:new    ;" d="
		M55.1,142.3c0,0,44.5,17.1,61.5,28.6s62.8,24.7,72.5,34.8c9.7,10,26,28.9,24.6,37.8c-1.4,8.9-59.1,2.6-82.1-6
		c-23-8.6-61.5-26.2-66.7-34.5c-5.2-8.4-14.6-13.5-14.6-13.5l1.5,11.7c0,0,57.4,37.8,65.1,40.9c7.6,3.2,86.2,17.7,108.3,13.7
		c0,0,10.3-8.8-27.8-46.6c-15.3-15.2-42.8-27.5-68.2-39.1c-37.8-17.3-73.1-30.6-73.1-30.6L55.1,142.3z"/>
	
		<radialGradient id="SVGID_00000145774936691017812170000005354934561301496755_" cx="259.8366" cy="610.8226" r="70.6314" gradientTransform="matrix(1 0 0 1 0 -450)" gradientUnits="userSpaceOnUse">
		<stop  offset="9.920635e-04" style="stop-color:#FFFFFF"/>
		<stop  offset="1" style="stop-color:#623964;stop-opacity:0"/>
	</radialGradient>
	
		<path style="opacity:0.3;fill-rule:evenodd;clip-rule:evenodd;fill:url(#SVGID_00000145774936691017812170000005354934561301496755_);enable-background:new    ;" d="
		M213,53c0,0,3,33.7,14,61.4c11.1,27.7,32.3,32.4,41.5,42.7c9.3,10.2,33.6,23.9,41.4,18.4l-0.7,21.4c0,0-86.9-34.6-111.1-147L213,53
		z"/>
	
		<radialGradient id="SVGID_00000016772162118934395320000004923815754477031046_" cx="166.9796" cy="730.9356" r="92.8818" gradientTransform="matrix(1 0 0 1 0 -450)" gradientUnits="userSpaceOnUse">
		<stop  offset="0" style="stop-color:#FFFFFF"/>
		<stop  offset="1" style="stop-color:#623964;stop-opacity:0"/>
	</radialGradient>
	
		<path style="opacity:0.3;fill-rule:evenodd;clip-rule:evenodd;fill:url(#SVGID_00000016772162118934395320000004923815754477031046_);enable-background:new    ;" d="
		M75.7,256.4c0,0,36.9-10,82.2-3.3c58.5,8.8,70.7,13.1,75.9,19.4s7.1,21.1,7.1,21.1l6.4-3.7c0,0-3.3-28.9-10.3-33.6
		c-7-4.7-62.2,5-120.1-14.4l-48.5,3.6L75.7,256.4z"/>
	
		<radialGradient id="SVGID_00000140694419935359732290000013064663635481421964_" cx="238.353" cy="694.8174" r="27.8254" gradientTransform="matrix(1 0 0 1 0 -450)" gradientUnits="userSpaceOnUse">
		<stop  offset="0" style="stop-color:#FFFFFF"/>
		<stop  offset="1" style="stop-color:#623964"/>
	</radialGradient>
	
		<path style="opacity:0.3;fill-rule:evenodd;clip-rule:evenodd;fill:url(#SVGID_00000140694419935359732290000013064663635481421964_);enable-background:new    ;" d="
		M248.8,221.3c-2.5-6.7-38.8-15.5-44.8-10.7c-5,4,27.4,41.5,35.4,42.5S251.3,228,248.8,221.3z M235.5,242
		c-9.4-1.8-30.7-23.6-26-28.1c3.9-3.7,32.9,5.9,35,11.3C246.6,230.7,244.9,243.8,235.5,242z"/>
	
		<linearGradient id="SVGID_00000018197834810759275730000006414912082959780007_" gradientUnits="userSpaceOnUse" x1="51.88" y1="620.87" x2="303.22" y2="620.87" gradientTransform="matrix(1 0 0 1 0 -450)">
		<stop  offset="1.120000e-02" style="stop-color:#FFBB85"/>
		<stop  offset="0.2124" style="stop-color:#FEB887"/>
		<stop  offset="0.36" style="stop-color:#F9AF8C"/>
		<stop  offset="0.4905" style="stop-color:#F19F95"/>
		<stop  offset="0.6111" style="stop-color:#E588A2"/>
		<stop  offset="0.7249" style="stop-color:#D76BB2"/>
		<stop  offset="0.8337" style="stop-color:#C547C7"/>
		<stop  offset="0.9364" style="stop-color:#B01EDE"/>
		<stop  offset="1" style="stop-color:#A100EF"/>
	</linearGradient>
	<path style="fill-rule:evenodd;clip-rule:evenodd;fill:url(#SVGID_00000018197834810759275730000006414912082959780007_);" d="
		M169.1,181.7c-2.9-10-17.8-129.9-17.8-129.9l-2.8,0.7c0,0,23.6,117.5,3.8,120.8c-15.5,2.6-95.4-36.6-95.4-36.6l-1.8,5.7
		c0,0,99.4,30.9,136.5,63.3c12.6,11.1,23.5,23.7,32.1,35.9c4.1,5.7,0.1,13.5-6.9,13.6c-102,0.8-165-54-165-54l0.9,4.5
		c0,0,62.3,32.9,56.1,36.4c-6.2,3.5-42.5-0.1-42.5-0.1l2.1,3.7c0,0,29.2-2.4,66.8,2.8c31.7,4.4,85.3,11,101.3,13
		c8.3,14.7,12.2,26.1,10.9,28.6l6.2-4c-10.3-28.7-7.9-60.8,7.2-62.5c15.1-1.7,40,3.7,40,3.7l2.5-6.8
		C219.9,224.3,172,191.7,169.1,181.7z M165.2,185.5c-2.4,0.1-11.7-6.8-10.6-7.9c1-1,6.9-14,8.9-12.2
		C165.3,167.1,167.6,185.4,165.2,185.5z M112.3,242c0,0,0.5-1.9,1.4-2.2c0.9-0.4,17.8,5.5,16.8,6.2
		C129.4,246.7,112.3,244.1,112.3,242z M241.4,249.4c-6.3-0.5-44-35.8-37.5-38.8c4.7-2.2,38.7,5.9,41.6,12.4
		C248.5,229.6,247.7,249.9,241.4,249.4z"/>
	
		<linearGradient id="SVGID_00000081637632171720372260000017501851278320864657_" gradientUnits="userSpaceOnUse" x1="194.8" y1="576.14" x2="309.36" y2="576.14" gradientTransform="matrix(1 0 0 1 0 -450)">
		<stop  offset="1.120000e-02" style="stop-color:#FF9D85"/>
		<stop  offset="0.2264" style="stop-color:#FD9A87"/>
		<stop  offset="0.3842" style="stop-color:#F8918D"/>
		<stop  offset="0.5237" style="stop-color:#EE8198"/>
		<stop  offset="0.6527" style="stop-color:#E16AA7"/>
		<stop  offset="0.7744" style="stop-color:#CF4DBB"/>
		<stop  offset="0.889" style="stop-color:#BA2AD3"/>
		<stop  offset="0.999" style="stop-color:#A100EF"/>
		<stop  offset="1" style="stop-color:#A100EF"/>
	</linearGradient>
	<path style="fill-rule:evenodd;clip-rule:evenodd;fill:url(#SVGID_00000081637632171720372260000017501851278320864657_);" d="
		M194.8,50.8c0,0,9,38.6,44.5,86.7c35.5,48,68.7,64.3,68.7,64.3l1.4-8.6c0,0-30.5-4.9-66.2-52.4c-41.8-55.5-41.5-90.3-41.5-90.3
		L194.8,50.8z"/>
	
		<linearGradient id="SVGID_00000110451011926447462160000007986531841465319057_" gradientUnits="userSpaceOnUse" x1="127.5989" y1="411.2118" x2="293.7067" y2="527.5217" gradientTransform="matrix(0.9511 0.1414 -0.1471 0.9891 43.2394 -349.5875)">
		<stop  offset="0" style="stop-color:#FF9346;stop-opacity:0.5"/>
		<stop  offset="1" style="stop-color:#FF9346;stop-opacity:0"/>
	</linearGradient>
	<path style="fill-rule:evenodd;clip-rule:evenodd;fill:url(#SVGID_00000110451011926447462160000007986531841465319057_);" d="
		M53.6,166.3c1.8,26.5,61.7-16.8,119.6-36.1c68-22.8,119.1,25.8,126.7,23.1c11.8-4.2-36-100.9-113.3-99.2
		C99.4,56,50.7,123.6,53.6,166.3z"/>
	<path class="st17" d="M63.4,151.6c-5.8-0.1-7.9,10.9-5.3,16.3s7.6,4.1,9.9-5.4C69.3,156.6,68.2,151.6,63.4,151.6z"/>
	
		<radialGradient id="SVGID_00000137128634636372361680000013831507381828647083_" cx="418.8126" cy="172.4985" r="62.883" gradientTransform="matrix(0.3279 0.5679 -0.9659 0.5577 276.5877 -69.4761)" gradientUnits="userSpaceOnUse">
		<stop  offset="0" style="stop-color:#0092FF;stop-opacity:0.3"/>
		<stop  offset="1" style="stop-color:#0092FF;stop-opacity:0"/>
	</radialGradient>
	<path style="fill-rule:evenodd;clip-rule:evenodd;fill:url(#SVGID_00000137128634636372361680000013831507381828647083_);" d="
		M267.9,300.3c-33.5,19.4-70,19.1-81.4-0.6c-11.4-19.7,6.6-51.4,40.1-70.8s70-19.1,81.4,0.6S301.5,280.9,267.9,300.3z"/>
	
		<radialGradient id="SVGID_00000021806893566067075190000017368345988376358784_" cx="-361.5705" cy="844.8185" r="44.6941" gradientTransform="matrix(1.3688 -0.9513 0.6099 0.8776 81.5429 -972.4547)" gradientUnits="userSpaceOnUse">
		<stop  offset="0" style="stop-color:#FFBB00"/>
		<stop  offset="1" style="stop-color:#FFBB00;stop-opacity:0"/>
	</radialGradient>
	<path style="fill-rule:evenodd;clip-rule:evenodd;fill:url(#SVGID_00000021806893566067075190000017368345988376358784_);" d="
		M163.1,70.4c15.1,21.7-0.1,58.3-33.9,81.7s-73.4,25-88.4,3.3s0.1-58.3,33.9-81.7C108.4,50.2,148,48.7,163.1,70.4z"/>
	<path class="st17" d="M67.8,141.2c-0.6,4.9,12,1.8,24.8-11.5c12.9-13.3,24.7-45.3,21.5-49.5C110.9,76.1,72.2,107.2,67.8,141.2z"/>
</g>
</svg>
