<?xml version="1.0" encoding="utf-8"?>
<!-- Generator: Adobe Illustrator 26.3.1, SVG Export Plug-In . SVG Version: 6.00 Build 0)  -->
<svg version="1.1" id="Layer_1" xmlns="http://www.w3.org/2000/svg" xmlns:xlink="http://www.w3.org/1999/xlink" x="0px" y="0px"
	 viewBox="0 0 180 180" style="enable-background:new 0 0 180 180;" xml:space="preserve">
<style type="text/css">
	.st0{fill-rule:evenodd;clip-rule:evenodd;fill:url(#SVGID_1_);}
	.st1{fill-rule:evenodd;clip-rule:evenodd;fill:url(#SVGID_00000036236134821034543260000001193705255613714365_);}
	.st2{fill-rule:evenodd;clip-rule:evenodd;fill:url(#SVGID_00000020361355160920814470000015810829781678056883_);}
	.st3{fill-rule:evenodd;clip-rule:evenodd;fill:url(#SVGID_00000100344844326849224320000005559759307113885101_);}
	.st4{fill-rule:evenodd;clip-rule:evenodd;fill:url(#SVGID_00000097463411648258599080000011919631077581593782_);}
	.st5{fill-rule:evenodd;clip-rule:evenodd;fill:url(#SVGID_00000059300823348002288160000006485949261668095679_);}
	.st6{fill-rule:evenodd;clip-rule:evenodd;fill:url(#SVGID_00000080920597853656387170000001502854629037793172_);}
	.st7{fill-rule:evenodd;clip-rule:evenodd;fill:url(#SVGID_00000088833557599179517380000017911502900759607480_);}
	.st8{fill-rule:evenodd;clip-rule:evenodd;fill:url(#SVGID_00000117654240565413399540000009500735633234327708_);}
	.st9{fill-rule:evenodd;clip-rule:evenodd;fill:url(#SVGID_00000155854595030881304050000006094540857234883733_);}
	.st10{fill-rule:evenodd;clip-rule:evenodd;fill:url(#SVGID_00000106841456671226574220000007565918972258044820_);}
	.st11{fill-rule:evenodd;clip-rule:evenodd;fill:url(#SVGID_00000161605031206206791250000013120173208469565569_);}
	.st12{opacity:0.5;fill-rule:evenodd;clip-rule:evenodd;fill:#7D72B3;enable-background:new    ;}
	.st13{opacity:0.4;fill-rule:evenodd;clip-rule:evenodd;fill:#7D72B3;enable-background:new    ;}
	.st14{fill-rule:evenodd;clip-rule:evenodd;fill:url(#SVGID_00000107589798384428658970000010608302177938819203_);}
	.st15{fill-rule:evenodd;clip-rule:evenodd;fill:#00C4FF;}
	.st16{fill-rule:evenodd;clip-rule:evenodd;fill:url(#SVGID_00000177482038019380713100000017341113028452756404_);}
	.st17{fill-rule:evenodd;clip-rule:evenodd;fill:url(#SVGID_00000067216369258260600140000004267139116000882326_);}
	.st18{fill-rule:evenodd;clip-rule:evenodd;fill:url(#SVGID_00000132792601739925118110000012856666345861422493_);}
	.st19{fill-rule:evenodd;clip-rule:evenodd;fill:#FF61C7;}
	.st20{opacity:0.5;fill-rule:evenodd;clip-rule:evenodd;fill:#54469B;enable-background:new    ;}
	.st21{fill-rule:evenodd;clip-rule:evenodd;fill:#B04FE2;}
	.st22{fill-rule:evenodd;clip-rule:evenodd;fill:#8B40E0;}
	.st23{fill-rule:evenodd;clip-rule:evenodd;fill:#FF77F4;}
	.st24{fill-rule:evenodd;clip-rule:evenodd;fill:#EA9CF4;}
	.st25{fill-rule:evenodd;clip-rule:evenodd;fill:#D374F4;}
	.st26{fill-rule:evenodd;clip-rule:evenodd;fill:#F2C4F8;}
	
		.st27{opacity:0.5;fill-rule:evenodd;clip-rule:evenodd;fill:url(#SVGID_00000026156268425982016180000012477188217274400175_);enable-background:new    ;}
	
		.st28{opacity:0.5;fill-rule:evenodd;clip-rule:evenodd;fill:url(#SVGID_00000075872388795142046040000011313063141612561036_);enable-background:new    ;}
	.st29{fill-rule:evenodd;clip-rule:evenodd;fill:#FFFFF8;}
	.st30{fill-rule:evenodd;clip-rule:evenodd;fill:#F5CEFA;}
</style>
<g>
	<radialGradient id="SVGID_1_" cx="90" cy="91" r="90" gradientTransform="matrix(1 0 0 -1 0 181)" gradientUnits="userSpaceOnUse">
		<stop  offset="0" style="stop-color:#E213FF"/>
		<stop  offset="0.9" style="stop-color:#E213FF;stop-opacity:0"/>
	</radialGradient>
	<circle class="st0" cx="90" cy="90" r="90"/>
	
		<radialGradient id="SVGID_00000041998291129378735600000015381487562183598762_" cx="95.96" cy="85.87" r="75.85" gradientTransform="matrix(1 0 0 -1 0 181)" gradientUnits="userSpaceOnUse">
		<stop  offset="0" style="stop-color:#E213FF"/>
		<stop  offset="0.9" style="stop-color:#E213FF;stop-opacity:0"/>
	</radialGradient>
	
		<circle style="fill-rule:evenodd;clip-rule:evenodd;fill:url(#SVGID_00000041998291129378735600000015381487562183598762_);" cx="95.96" cy="95.13" r="75.85"/>
	
		<radialGradient id="SVGID_00000058589476377631340410000012782375811961308577_" cx="89.2" cy="92.31" r="72.38" gradientTransform="matrix(1 0 0 -1 0 181)" gradientUnits="userSpaceOnUse">
		<stop  offset="0" style="stop-color:#E213FF"/>
		<stop  offset="1" style="stop-color:#E213FF;stop-opacity:0"/>
	</radialGradient>
	
		<circle style="fill-rule:evenodd;clip-rule:evenodd;fill:url(#SVGID_00000058589476377631340410000012782375811961308577_);" cx="89.2" cy="88.69" r="72.38"/>
	
		<radialGradient id="SVGID_00000100382129770951194360000002861495434562512316_" cx="43.5559" cy="119.2139" r="111.0453" gradientTransform="matrix(1 0 0 -1 0 181)" gradientUnits="userSpaceOnUse">
		<stop  offset="5.586590e-03" style="stop-color:#FF9AFF"/>
		<stop  offset="0.093" style="stop-color:#FB94FF"/>
		<stop  offset="0.2093" style="stop-color:#F183FF"/>
		<stop  offset="0.3418" style="stop-color:#E068FF"/>
		<stop  offset="0.4864" style="stop-color:#C841FF"/>
		<stop  offset="0.639" style="stop-color:#A910FF"/>
		<stop  offset="0.6844" style="stop-color:#9F00FF"/>
		<stop  offset="0.7432" style="stop-color:#9900F8"/>
		<stop  offset="0.8282" style="stop-color:#8700E5"/>
		<stop  offset="0.9287" style="stop-color:#6A00C6"/>
		<stop  offset="1" style="stop-color:#5200AB"/>
	</radialGradient>
	<path style="fill-rule:evenodd;clip-rule:evenodd;fill:url(#SVGID_00000100382129770951194360000002861495434562512316_);" d="
		M158.81,105.33l-0.52,1.85c-0.01,0.09-0.04,0.16-0.07,0.26c-1.41,4.82-3.3,9.44-5.62,13.78c-3.79,7.07-8.71,13.44-14.54,18.88
		c-6.78,6.31-14.77,11.33-23.6,14.69c-7.97,3.03-16.62,4.68-25.67,4.68c-1.28,0-2.58-0.03-3.84-0.1h-0.01
		c-1.89-0.1-3.77-0.27-5.62-0.5c-12.15-1.59-23.35-6.2-32.83-13.07c-0.89-0.65-1.76-1.31-2.61-1.98c1.66-1.43,5.18-1.58,5.18-1.58
		l-4.89-3.89l-12.26-6.6c-2.35-2.97-4.48-6.14-6.34-9.48c-0.44-0.79-0.87-1.59-1.29-2.41c0-0.03-0.03-0.04-0.04-0.07
		c-0.43-0.87-0.85-1.75-1.25-2.62c-0.01,0-0.01,0-0.01,0c-1.25-2.77-2.35-5.62-3.24-8.55c-0.66-2.11-1.23-4.27-1.69-6.48
		C18,102.12,18,102.09,18,102.08c-0.32-1.53-0.59-3.1-0.8-4.68c-0.49-3.36-0.73-6.77-0.73-10.26c0-0.8,0.01-1.62,0.04-2.41
		c0.03-1.19,0.1-2.38,0.22-3.54c0.09-1.16,0.22-2.32,0.36-3.47c0-0.09,0.01-0.16,0.03-0.26c0.22-1.61,0.47-3.17,0.8-4.73
		c0.44-2.25,1-4.48,1.68-6.64c0.9-3.04,2.01-5.98,3.31-8.82c1.25-2.75,2.67-5.42,4.26-7.99c4.93-2.61,8.09-3.97,8.09-3.97
		s84.2-16.71,85.5-18.14c1.29-1.42,7.67-0.53,7.67-0.53c3.94,2.6,7.63,5.57,11,8.86c0.79,0.76,1.55,1.56,2.32,2.37
		c0.5,0.55,1,1.12,1.49,1.68c0.83,0.95,1.65,1.94,2.44,2.93c2.88,3.67,5.42,7.62,7.54,11.79c0.83,1.61,1.59,3.26,2.29,4.93
		c0,0.01,0.01,0.03,0.01,0.04c6.5,25.42-1.52,46.97-1.52,46.97C155.8,105.61,157.42,105.38,158.81,105.33z"/>
	
		<radialGradient id="SVGID_00000083053094850138600520000013605135451959819432_" cx="43.5559" cy="119.2139" r="111.0453" gradientTransform="matrix(1 0 0 -1 0 181)" gradientUnits="userSpaceOnUse">
		<stop  offset="5.586590e-03" style="stop-color:#FF9AFF"/>
		<stop  offset="0.093" style="stop-color:#FB94FF"/>
		<stop  offset="0.2093" style="stop-color:#F183FF"/>
		<stop  offset="0.3418" style="stop-color:#E068FF"/>
		<stop  offset="0.4864" style="stop-color:#C841FF"/>
		<stop  offset="0.639" style="stop-color:#A910FF"/>
		<stop  offset="0.6844" style="stop-color:#9F00FF"/>
		<stop  offset="0.7432" style="stop-color:#9900F8"/>
		<stop  offset="0.8282" style="stop-color:#8700E5"/>
		<stop  offset="0.9287" style="stop-color:#6A00C6"/>
		<stop  offset="1" style="stop-color:#5200AB"/>
	</radialGradient>
	<path style="fill-rule:evenodd;clip-rule:evenodd;fill:url(#SVGID_00000083053094850138600520000013605135451959819432_);" d="
		M158.81,105.33l-0.52,1.85c-0.01,0.09-0.04,0.16-0.07,0.26c-1.41,4.82-3.3,9.44-5.62,13.78c-3.79,7.07-8.71,13.44-14.54,18.88
		c-6.78,6.31-14.77,11.33-23.6,14.69c-7.97,3.03-16.62,4.68-25.67,4.68c-1.28,0-2.58-0.03-3.84-0.1h-0.01
		c-1.89-0.1-3.77-0.27-5.62-0.5c-12.15-1.59-23.35-6.2-32.83-13.07c-0.89-0.65-1.76-1.31-2.61-1.98c1.66-1.43,5.18-1.58,5.18-1.58
		l-4.89-3.89l-12.26-6.6c-2.35-2.97-4.48-6.14-6.34-9.48c-0.44-0.79-0.87-1.59-1.29-2.41c0-0.03-0.03-0.04-0.04-0.07
		c-0.43-0.87-0.85-1.75-1.25-2.62c-0.01,0-0.01,0-0.01,0c-1.25-2.77-2.35-5.62-3.24-8.55c-0.66-2.11-1.23-4.27-1.69-6.48
		C18,102.12,18,102.09,18,102.08c-0.32-1.53-0.59-3.1-0.8-4.68c-0.49-3.36-0.73-6.77-0.73-10.26c0-0.8,0.01-1.62,0.04-2.41
		c0.03-1.19,0.1-2.38,0.22-3.54c0.09-1.16,0.22-2.32,0.36-3.47c0-0.09,0.01-0.16,0.03-0.26c0.22-1.61,0.47-3.17,0.8-4.73
		c0.44-2.25,1-4.48,1.68-6.64c0.9-3.04,2.01-5.98,3.31-8.82c1.25-2.75,2.67-5.42,4.26-7.99c4.93-2.61,8.09-3.97,8.09-3.97
		s84.2-16.71,85.5-18.14c1.29-1.42,7.67-0.53,7.67-0.53c3.94,2.6,7.63,5.57,11,8.86c0.79,0.76,1.55,1.56,2.32,2.37
		c0.5,0.55,1,1.12,1.49,1.68c0.83,0.95,1.65,1.94,2.44,2.93c2.88,3.67,5.42,7.62,7.54,11.79c0.83,1.61,1.59,3.26,2.29,4.93
		c0,0.01,0.01,0.03,0.01,0.04c6.5,25.42-1.52,46.97-1.52,46.97C155.8,105.61,157.42,105.38,158.81,105.33z"/>
	
		<radialGradient id="SVGID_00000152236653954403545690000007565068519218262207_" cx="46.7049" cy="125.6393" r="109.1563" gradientTransform="matrix(1 0 0 -1 0 181)" gradientUnits="userSpaceOnUse">
		<stop  offset="5.586590e-03" style="stop-color:#FF9AFF"/>
		<stop  offset="0.093" style="stop-color:#FB94FF"/>
		<stop  offset="0.2093" style="stop-color:#F183FF"/>
		<stop  offset="0.3418" style="stop-color:#E068FF"/>
		<stop  offset="0.4864" style="stop-color:#C841FF"/>
		<stop  offset="0.639" style="stop-color:#A910FF"/>
		<stop  offset="0.6844" style="stop-color:#9F00FF"/>
		<stop  offset="0.7432" style="stop-color:#9900F8"/>
		<stop  offset="0.8282" style="stop-color:#8700E5"/>
		<stop  offset="0.9287" style="stop-color:#6A00C6"/>
		<stop  offset="1" style="stop-color:#5200AB"/>
	</radialGradient>
	<path style="fill-rule:evenodd;clip-rule:evenodd;fill:url(#SVGID_00000152236653954403545690000007565068519218262207_);" d="
		M156.74,87.15c0,2.57-0.14,5.09-0.43,7.57c-0.42,3.86-1.16,7.62-2.22,11.25c-0.01,0.09-0.04,0.16-0.07,0.24
		c-1.32,4.53-3.1,8.86-5.28,12.95c-3.56,6.64-8.19,12.62-13.67,17.73c-6.37,5.94-13.88,10.66-22.16,13.8
		c-7.5,2.85-15.62,4.4-24.13,4.4c-1.2,0-2.42-0.03-3.61-0.1h-0.01c-1.78-0.09-3.54-0.26-5.28-0.47
		c-11.42-1.49-21.93-5.82-30.84-12.28c-1.33-0.95-2.62-1.96-3.87-3.01c-0.34-0.29-0.69-0.57-1.02-0.88
		c-3.23-2.8-6.18-5.92-8.82-9.29c-2.21-2.8-4.2-5.77-5.95-8.91c-0.42-0.75-0.82-1.51-1.22-2.27c0-0.03-0.01-0.04-0.03-0.07
		c-0.42-0.82-0.8-1.64-1.18-2.47c-0.01,0-0.01,0-0.01,0c-1.18-2.6-2.21-5.28-3.04-8.03c-0.63-1.98-1.16-4.02-1.59-6.08
		c-0.01-0.01-0.01-0.04-0.01-0.06c-0.3-1.45-0.56-2.91-0.76-4.39c-0.46-3.16-0.69-6.37-0.69-9.64c0-0.76,0.01-1.52,0.04-2.27
		c0.03-1.12,0.1-2.24,0.2-3.33c0.09-1.09,0.2-2.18,0.34-3.26c0-0.09,0.01-0.16,0.03-0.24c0.2-1.51,0.44-2.98,0.75-4.45
		c0.42-2.12,0.95-4.2,1.58-6.24c0.85-2.85,1.89-5.62,3.11-8.29c1.32-2.91,2.84-5.71,4.55-8.39c1.18-1.86,2.45-3.66,3.82-5.38
		c1.89-2.44,3.96-4.73,6.17-6.88c12.23-11.9,28.95-19.23,47.36-19.23c0.72,0,1.43,0.01,2.14,0.03c0.76,0.03,1.52,0.06,2.28,0.11
		c2.11,0.14,4.2,0.37,6.25,0.7c0.03,0,0.04,0.01,0.07,0.01c1.72,0.26,3.41,0.6,5.08,1c2.15,0.52,4.26,1.12,6.33,1.84
		c1.41,0.47,2.78,1,4.15,1.58c1.02,0.43,2.01,0.87,3,1.35c0.17,0.09,0.34,0.16,0.52,0.24c6.6,3.23,12.58,7.47,17.77,12.57
		c0.75,0.72,1.46,1.46,2.18,2.22c0.47,0.52,0.95,1.05,1.41,1.58c0.79,0.89,1.55,1.82,2.29,2.75c2.71,3.44,5.09,7.14,7.09,11.07
		c2.34,4.56,4.17,9.42,5.42,14.52c0.8,3.21,1.36,6.51,1.68,9.88C156.64,82.79,156.74,84.95,156.74,87.15z"/>
	
		<radialGradient id="SVGID_00000046320362347960630470000005870675593981587389_" cx="61.0595" cy="137.1838" r="24.4078" gradientTransform="matrix(1 0 0 -1 0 181)" gradientUnits="userSpaceOnUse">
		<stop  offset="0" style="stop-color:#FFFFFF"/>
		<stop  offset="1" style="stop-color:#623964"/>
	</radialGradient>
	<path style="fill-rule:evenodd;clip-rule:evenodd;fill:url(#SVGID_00000046320362347960630470000005870675593981587389_);" d="
		M55.61,60.07c0,0-1.8,4.01-0.3,8.08s5.71,1.37,10.74,0s10.19-6.65,13.45-9.92c3.26-3.27,6.39-7.75,6.11-12.1
		c-0.27-4.35-4.86-7.2-4.86-7.2s1.67-2.13,0.27,6.39s-3.31,11.56-5.13,12.91s-7.37,4.59-10.4,6.39c-3.03,1.81-6.41,3.69-8.41,3.25
		C55.07,67.42,54.02,62.92,55.61,60.07z"/>
	
		<radialGradient id="SVGID_00000028320809661621496390000004382806034827004820_" cx="64.9427" cy="128.3607" r="8.4911" gradientTransform="matrix(1 0 0 -1 0 181)" gradientUnits="userSpaceOnUse">
		<stop  offset="0" style="stop-color:#FFFFFF"/>
		<stop  offset="1" style="stop-color:#623964"/>
	</radialGradient>
	<path style="fill-rule:evenodd;clip-rule:evenodd;fill:url(#SVGID_00000028320809661621496390000004382806034827004820_);" d="
		M64.82,57.13c0,0-2.57,2.29-1.89,4.13s5.57,0.66,8.7-3.3s0.66-7.16,0.66-7.16s-1.15,6.61-4.19,7.77s-4.03,0.67-4.03,0.67
		S63.58,58.72,64.82,57.13z"/>
	
		<radialGradient id="SVGID_00000140007715736055001920000007351021449830933632_" cx="59.7207" cy="129.1466" r="8.9474" gradientTransform="matrix(1 0 0 -1 0 181)" gradientUnits="userSpaceOnUse">
		<stop  offset="0" style="stop-color:#FFFFFF"/>
		<stop  offset="1" style="stop-color:#623964"/>
	</radialGradient>
	<path style="fill-rule:evenodd;clip-rule:evenodd;fill:url(#SVGID_00000140007715736055001920000007351021449830933632_);" d="
		M57.02,59.99c0,0,2.51-2.84,5.36-5.5s7.79-3.68,7.79-3.68s-2.88-1.53-6.58,0.62C59.9,53.57,57.02,59.99,57.02,59.99z"/>
	
		<radialGradient id="SVGID_00000183947420699321336810000012437062250433259914_" cx="53.392" cy="137.7639" r="20.6683" gradientTransform="matrix(1 0 0 -1 0 181)" gradientUnits="userSpaceOnUse">
		<stop  offset="0" style="stop-color:#FFFFFF"/>
		<stop  offset="1" style="stop-color:#623964"/>
	</radialGradient>
	<path style="fill-rule:evenodd;clip-rule:evenodd;fill:url(#SVGID_00000183947420699321336810000012437062250433259914_);" d="
		M46.79,60.04c0,0,5.81-6.46,12.88-9.24s9.51-3.6,12.64-6.18c3.13-2.58,6.65-4.65,6.65-4.65s-6.88,0.35-17.39,7.01
		S46.76,57.87,46.79,60.04z"/>
	
		<radialGradient id="SVGID_00000113341455285947825210000003427856962007670659_" cx="44.5578" cy="145.7973" r="35.0422" gradientTransform="matrix(1 0 0 -1 0 181)" gradientUnits="userSpaceOnUse">
		<stop  offset="0" style="stop-color:#FFFFFF"/>
		<stop  offset="1" style="stop-color:#623964"/>
	</radialGradient>
	<path style="fill-rule:evenodd;clip-rule:evenodd;fill:url(#SVGID_00000113341455285947825210000003427856962007670659_);" d="
		M32.62,58.75c0,0,10.06-10.05,17.94-13.99s13.18-6.52,20.25-8.29s17.99-4.85,17.99-4.85l1.97-0.99c0,0-22.47,0.45-37.22,9.34
		S32.62,58.75,32.62,58.75z"/>
	
		<radialGradient id="SVGID_00000139986241002533769730000001099556874131156893_" cx="57.5457" cy="140.247" r="48.8269" gradientTransform="matrix(1 0 0 -1 0 181)" gradientUnits="userSpaceOnUse">
		<stop  offset="0" style="stop-color:#FFFFFF"/>
		<stop  offset="1" style="stop-color:#623964"/>
	</radialGradient>
	<path style="fill-rule:evenodd;clip-rule:evenodd;fill:url(#SVGID_00000139986241002533769730000001099556874131156893_);" d="
		M44.68,70.34c0,0,1.68,13.88,4.09,14.51c2.41,0.62,11.07,0.56,23.94-6.02c12.87-6.58,15.48-5.06,22.69-12.39
		s10.13-15.65,12.37-21.13c2.23-5.48,2.89-11.74,2.19-13.68c0,0,2.43,1.45,2.43,6.89s-1.63,14.57-3.94,19.85
		c-2.31,5.29-8.29,13.57-15.49,17.65s-21.61,11.9-35.74,11.8c-14.13-0.11-11.9-1.13-13.36-3.95C42.4,81.04,44.68,70.34,44.68,70.34z
		"/>
	<path class="st12" d="M22.65,82.2c0,0,2.53,5.6,3.94,10.71s1.14,13.81,6.99,15.17c5.84,1.36,14,5.16,17.12,4.21
		c3.13-0.95,14.67-3.02,21.06-1.77c6.4,1.25,18.07,0.54,22.15-1.49c4.08-2.04,12.85-7.27,17.03-8.87c4.17-1.6,9.94-6.14,14.9-11.18
		c4.97-5.05,4.9-10.79,6.12-13.65c1.22-2.85,3.67-14.27,3.4-19.43s-3.4-14.81-3.4-14.81l-2.91-3.07c0,0,3.59,13.26,1.96,22.64
		c-1.63,9.38-0.14,13.18-6.66,22.15c-6.52,8.97-15.63,16.03-25.82,19.43s-16.72,2.99-27.31,3.97c-9.88,0.92-22.17,0.22-27.06-1.06
		c-4.39-1.14-10.3-4.08-14.79-11.24C24.87,86.75,22.65,82.2,22.65,82.2z"/>
	<path class="st13" d="M45.12,67.52c0,0,0.94,15.08,2.85,16.37c1.92,1.3,5.98,1.83,9.78,0.54s16.85-5.57,19.09-6.93
		s15.98-8.22,18.68-10.26c2.71-2.04,6.32-9.29,7.54-10.79s4.55-10.47,5.5-13.87c0.95-3.4,1.63-7.47,1.63-7.47s0.27-1.9-1.36-2.51
		c-1.63-0.61-1.9,0-1.9,0s-0.34,2.24-1.77,8.7c-1.43,6.45-20.65,28.6-30.37,34.38s-18.96,5.98-22.29,5.57
		C49.2,80.84,45.05,70.1,45.12,67.52z"/>
	<path class="st13" d="M44.68,70.34c0,0,0.4-9.39,2.82-12.54s10.56-9.65,15.37-12.09c4.81-2.45,11.81-5.91,14.25-6.43
		c2.44-0.52,4.16,0,4.16,0s-2.93-1.59-9.66,0.11s-14.34,7.95-18,9.89c-3.67,1.93-9.38,6.62-10.73,9
		C41.52,60.66,44.68,70.34,44.68,70.34z"/>
	<path class="st13" d="M28.14,60.45l20.85-18.27l12.91-5.84c0,0,12.77-4.34,18.61-5.7s18.96-1.77,18.96-1.77l6.87,0.75
		c0,0-11.96-6.52-29.64-1.77C59.04,32.6,47.3,38.54,42.13,43.42S29.17,58.06,28.14,60.45z"/>
	
		<radialGradient id="SVGID_00000116236019286137618080000013997218643140842424_" cx="42.3205" cy="139.8877" r="82.4909" gradientTransform="matrix(1 0 0 -1 0 181)" gradientUnits="userSpaceOnUse">
		<stop  offset="0" style="stop-color:#FFFFFF"/>
		<stop  offset="1" style="stop-color:#623964"/>
	</radialGradient>
	<path style="fill-rule:evenodd;clip-rule:evenodd;fill:url(#SVGID_00000116236019286137618080000013997218643140842424_);" d="
		M27.56,61.26c0,0-11.2,13.52-5.77,21.84c5.44,8.32,7.84,20.32,9.41,23.11c1.58,2.79,19.61,6.98,23.36,6.12s12.73-3.22,18.61-0.95
		c0,0,10.41-0.9,13.4-0.9s8.42-2.54,9.69-3.17c1.27-0.63,8.33-2.9,11.96-4.35c3.62-1.45,9.42-5.98,11.78-7.79s8.52-9.15,9.69-11.41
		c1.18-2.26,4.7-15.49,5.62-21.74c0.91-6.25-1.77-18.3-3.8-22.47s-8.42-8.06-8.42-8.06l0.37-1.88l4.98-2.97
		c0,0,8.69,11.39,9.5,21.22c0.48,5.77,1.81,18.07,0.3,23.35c-1.22,4.24-5.37,16.7-8.99,21.15c-3.62,4.45-14.49,15.81-20.29,18.01
		c-5.8,2.2-22.9,5.17-32.98,5.37c-7.43,0.15-23.78-1.18-31.82-1.45s-13.79-5.31-16.98-7.86c-3.2-2.55-2.11-9.51-5.37-15
		s-5.06-12.8-4.25-16.77C18.35,70.68,27.56,61.26,27.56,61.26z"/>
	<path class="st15" d="M47.23,112.74c-1.72-0.4-3.27-1.35-4.98-1.78c-0.96-0.23-1.91-0.37-2.85-0.65c-0.95-0.27-2.02-0.46-3-0.5
		c-1.98-0.07-4.03-0.53-5.29-2.21c-1.12-1.51-1.81-3.06-2.32-4.86c-0.67-2.41-1.32-4.82-2.07-7.23c-0.69-2.22-1.64-4.19-2.87-6.17
		c-0.49-0.79-0.9-1.58-1.43-2.34c-0.49-0.69-1.16-1.35-1.53-2.12l-0.01-0.01c-0.95-2.01-1.28-4.23-1.22-6.41
		c0.03-1.18,0.36-2.28,0.62-3.43C20.62,73.58,21,72.3,21.74,71c0.69-1.19,1.36-2.41,2.05-3.63c1.53-2.7,3.14-5.39,5.05-7.82
		c2.45-3.08,5.19-6.02,7.96-8.82c1.61-1.64,3.43-3.07,5.26-4.43c1.55-1.15,2.98-2.41,4.52-3.57c2.64-2.01,5.65-3.31,8.61-4.75
		c3.57-1.72,7.14-3.38,10.86-4.75c4.4-1.61,8.94-2.88,13.53-3.82c5.24-1.06,10.76-1.28,16.09-1.25c2.93,0.01,6.05-0.36,8.85,0.73
		c1.58,0.62,3.41,1.23,4.79,2.18c0.32,0.22,0.46,0.26,0.66,0.55c0.13,0.17,0.2,0.4,0.27,0.6c0.22,0.5,0.47,1.33,0.47,1.86
		c0,0.59-0.26,1.1-0.26,1.72c0.01,0.87-0.22,1.66-0.24,2.52c-0.04,0.99-0.29,1.76-0.43,2.73c-0.29,1.78-0.54,3.49-1.23,5.16
		c-1,2.42-1.66,4.98-2.77,7.37c-0.33,0.73-0.92,1.29-1.25,2.02c-0.32,0.66-0.6,1.2-0.98,1.84c-0.7,1.18-1.28,2.4-2.08,3.51
		c-1.66,2.3-3.36,4.75-5.55,6.57c-2.65,2.21-5.55,3.97-8.59,5.59c-1.98,1.05-4.04,1.89-6.05,2.9c-1.79,0.89-3.59,1.81-5.39,2.65
		c-4.65,2.17-9.58,3.77-14.46,5.29c-1.41,0.44-2.73,0.92-4.17,1.12c-1.32,0.19-2.85,0.62-4.19,0.59c-1.43-0.04-2.94-0.37-4.29-0.83
		c-2.32-0.77-2.55-3.3-2.73-5.39c-0.13-1.52-0.3-3.17-0.6-4.66c-0.23-1.25-0.33-2.48-0.62-3.74c-0.29-1.28-0.47-2.58-0.49-3.89
		c-0.03-1.66,0.62-3.23,0.99-4.85c0.24-1.05,0.36-2.12,0.79-3.13c0.62-1.46,1.79-2.73,2.95-3.77c1.19-1.06,2.37-2.11,3.54-3.18
		c0.7-0.66,1.53-1.15,2.28-1.75c1.31-1.05,2.75-1.86,4.25-2.62c1.18-0.62,2.04-1.59,3.13-2.31c1.12-0.73,2.4-1.51,3.59-2.11
		c1.05-0.52,2.18-0.87,3.27-1.31c0.89-0.34,1.71-0.86,2.61-1.16c0.83-0.29,1.69-0.37,2.51-0.72c0.8-0.33,1.56-0.63,2.4-0.85
		c0.93-0.23,1.98-0.62,2.93-0.65c1.86-0.03,2.78,0.9,3.26,2.71c0.66,2.47-0.1,4.55-0.99,6.83c-0.72,1.84-1.51,3.66-2.21,5.52
		c-0.93,2.48-3.14,3.79-5.01,5.48c-1.97,1.78-4.39,3.37-6.8,4.45c-0.76,0.34-1.58,0.55-2.32,0.86c-0.65,0.29-1.28,0.65-1.92,0.99
		c-0.42,0.23-0.72,0.56-1.1,0.82c-0.34,0.23-0.75,0.36-1.1,0.59c-0.86,0.57-1.76,1.13-2.71,1.55c-0.92,0.42-2.74,0.66-3.34-0.42
		c-0.32-0.54-0.27-1.31-0.42-1.92c-0.17-0.73-0.2-1.39-0.2-2.15c0-0.76,0.14-1.32,0.26-2.05c0.11-0.7,0.43-1.26,0.66-1.95
		c0.69-1.95,2.04-3.4,3.23-5.01c0.75-1.02,1.39-2.02,2.27-2.97c1.29-1.38,3.11-2.07,4.93-2.52c1.64-0.4,4.07-0.89,5.58,0.06
		c1.28,0.79,0.39,2.52-0.03,3.59c-0.23,0.59-0.47,1.19-0.67,1.79c-0.14,0.44-0.2,0.95-0.46,1.38c-0.53,0.89-1.58,1.51-2.37,2.19
		c-0.36,0.3-0.93,0.73-1.36,0.87c-0.55,0.17-1.13,0.16-1.68,0.29c-0.27,0.06-0.42,0.4-0.75,0.27c-0.3-0.1-0.3-0.44-0.24-0.76
		c0.06-0.29,0.19-0.57,0.24-0.85c0.01-0.06-0.06-0.16-0.04-0.23c0.23-0.85,1.31-1.91,1.79-2.63c0.77,0.32,0.24,0.77,0.1,1.12
		c-0.1,0.29-0.09,0.56-0.16,0.86c-0.06,0.24-0.43,0.69-0.16,0.95c0.19,0.19,0.82-0.14,1.02-0.22c1.66-0.59,2.74-2.41,3.26-4.06
		c0.33-1.08,0.27-2.94-0.92-3.41c-0.89-0.34-1.97-0.16-2.9-0.17c-3.37-0.06-5.36,3.54-7.16,5.87c-1.22,1.58-2.15,3.37-2.84,5.24
		c-0.49,1.29-0.69,2.63-1.03,3.93c-0.26,0.96-0.57,2.44,0.9,2.24c0.86-0.13,1.79-0.59,2.61-0.86c0.72-0.24,1.35-0.5,2.02-0.86
		c1.06-0.57,2.25-0.73,3.36-1.22c0.86-0.39,1.74-0.86,2.6-1.28c2.22-1.08,4.39-3.27,5.94-5.16c1.03-1.28,2.51-2.24,3.69-3.4
		c1.23-1.22,1.89-2.74,2.74-4.23c0.85-1.52,1.28-2.98,1.65-4.66c0.34-1.49,1.23-3.18,0.77-4.73c-0.49-1.61-2.55-1.64-3.89-1.41
		c-1.1,0.19-2.32,0.37-3.37,0.79c-1.95,0.77-3.87,1.61-5.81,2.4c-3.06,1.26-5.59,3.34-8.39,5.05c-1.42,0.86-2.95,1.52-4.27,2.55
		c-0.98,0.76-1.91,1.65-2.84,2.48c-0.66,0.6-1.22,1.25-1.95,1.76c-0.96,0.67-1.92,1.42-2.64,2.35c-0.59,0.76-1.26,1.66-1.59,2.58
		c-0.24,0.73-0.01,1.42,0.03,2.17c0.06,1.02-0.23,1.97-0.27,2.97c-0.04,1.06,0,2.15,0.01,3.21c0,2.08-0.32,4.1-0.27,6.21
		c0.03,1.29,0.32,2.65,0.57,3.93c0.2,1.02,0.62,1.89,0.69,2.94c0.03,0.66,0.14,1.56,0.73,1.99c0.29,0.22,0.66,0.27,0.99,0.4
		c0.3,0.11,0.57,0.22,0.86,0.3c0.16,0.06,0.33,0.09,0.5,0.14c0.13,0.07,0.23,0.26,0.36,0.32c0.34,0.14,0.86,0.06,1.22-0.01
		c0.83-0.16,1.65-0.36,2.48-0.5c2.08-0.36,4.19-0.32,6.17-1.06c2.28-0.86,4.4-2.09,6.66-3.01c3.37-1.38,6.99-2.38,10.21-4.12
		c1.45-0.79,2.95-1.52,4.45-2.19c3.54-1.59,7.26-2.88,10.37-5.28c1.19-0.92,2.09-1.97,3.11-3.04c0.57-0.62,1.19-1.16,1.71-1.84
		c1.52-1.98,2.98-4.13,4.15-6.34c0.5-0.93,0.8-1.95,1.32-2.88c0.8-1.45,1.78-2.73,2.52-4.22c0.73-1.46,1.16-2.93,1.65-4.48
		c0.3-0.95,0.52-1.72,0.49-2.73c-0.03-2.01,0.19-3.74,0.99-5.58c0.44-1,1.08-2.5,0.75-3.63c-0.17-0.56-0.98-0.7-1.46-0.86
		c-1.15-0.39-2.34-0.67-3.44-1.16c-1.02-0.46-1.75-0.99-2.87-1.19c-0.43-0.09-0.82-0.14-1.25-0.13c-1.08,0.06-2.01,0.8-3.08,0.76
		c-0.36-0.01-0.6-0.13-0.98-0.2c-0.56-0.1-1.16-0.03-1.71-0.04c-1.23-0.04-2.42-0.27-3.67-0.26c-1.46,0.01-2.9,0.14-4.36,0.23
		c-1.36,0.07-2.74-0.04-4.1,0c-0.87,0.03-1.42,0.43-2.19,0.77c-0.7,0.32-1.49,0.44-2.22,0.72c-0.65,0.26-1.25,0.49-1.94,0.52
		c-0.96,0.01-1.92-0.13-2.85,0.07c-1.12,0.26-2.34,0.73-3.39,1.18c-3.06,1.31-6.02,2.94-9.19,3.94c-1.53,0.47-3.11,0.69-4.6,1.29
		c-0.56,0.23-1.05,0.63-1.55,0.96c-1,0.67-2.05,1.29-3.08,1.94c-2.31,1.46-4.5,3.07-6.7,4.7c-2.58,1.92-5.05,3.84-7.19,6.28
		c-3.73,4.29-7.62,8.62-10.84,13.31c-1.53,2.21-3.26,4.59-4.35,7.06c-0.03,0.06-0.04,0.1-0.07,0.16c-0.6,1.42-0.92,2.91-0.72,4.45
		c0,0.03,0,0.06,0.01,0.09c0.17,1.26,0.72,2.75,1.22,3.9s0.92,2.37,1.56,3.46c0.7,1.19,1.68,2.18,2.19,3.47
		c0.62,1.59,1.18,3.3,1.65,4.95c0.62,2.08,1.09,4.23,1.48,6.35c0.26,1.32,0.47,2.65,1.09,3.86c0.88,1.69,2.74,2.32,4.26,3.31
		c0.8,0.53,1.36,0.7,2.34,0.75c1.36,0.07,2.65,0.4,3.96,0.79c2.78,0.86,5.57,1.49,8.49,1.45c1.74-0.01,3.39-0.49,5.09-0.7
		c1.59-0.2,3.18-0.36,4.76-0.62c1.43-0.23,2.84-0.63,4.3-0.63c1.38,0,2.95,0.23,4.29,0.6c2.4,0.66,4.73,1.19,7.23,1.09
		c1.52-0.04,3.01-0.39,4.52-0.49c1.42-0.09,2.77,0.13,4.17,0.23c2.5,0.16,4.89-0.46,7.21-1.22c1.59-0.52,2.91-1.28,4.33-2.12
		c1.15-0.67,2.25-0.87,3.51-1.2c2.47-0.66,4.92-1.56,7.16-2.83c2.93-1.66,5.34-4.12,8.18-5.9c1.61-1,3.41-1.66,4.98-2.74
		c1.29-0.87,2.51-1.89,3.6-3c1.28-1.29,2.48-2.64,3.76-3.93c0.98-0.99,1.36-2.22,1.94-3.46c0.86-1.82,1.16-3.7,1.48-5.68
		c0.33-1.95,1.19-3.67,2.04-5.48c1.08-2.31,1.99-4.48,2.22-7.06c0.19-1.94,0.44-3.89,0.44-5.84c0-1.25-0.22-2.47-0.37-3.7
		c-0.16-1.15-0.39-2.25-0.63-3.39c-0.32-1.39-0.27-2.83-0.53-4.23c-0.23-1.2-0.6-2.48-0.93-3.67c-0.23-0.85-0.55-1.72-0.89-2.52
		c-0.63-1.42-1.46-2.9-2.48-4.09c-0.43-0.5-0.98-0.66-1.46-1.02c-0.37-0.29-0.46-0.53-0.89-0.75c-0.6-0.3-1.2-0.6-1.79-0.93
		c-0.95-0.55-2.02-0.7-2.97-1.22c-0.9-0.49-1.72-1.13-2.58-1.68c-0.98-0.62-1.97-1.03-2.81-1.84c-0.83-0.8-1.38-1.82-2.18-2.62
		c-0.82-0.83-1.99-1.38-2.93-2.09c-1.62-1.26-3.53-1.36-5.35-2.14c-0.93-0.4-1.82-0.46-2.8-0.66c-1.1-0.23-1.85-0.9-3.03-1.03
		c-1.05-0.11-2.08-0.13-3.1-0.42c-0.62-0.16-1.19-0.3-1.81-0.36c-1.22-0.11-2.4,0.06-3.6,0.19c-1.06,0.11-2.14,0.06-3.2,0.06
		c-0.89,0-1.82,0.09-2.71-0.06c-2.52-0.39-5.29-0.34-7.85-0.17c-2.44,0.17-4.82,0.34-7.13,1.15c-1.97,0.67-3.9,1.25-5.82,2.04
		c-1.32,0.53-2.47,1.26-3.7,1.95c-2.97,1.66-5.69,3.7-8.52,5.59c-3.16,2.09-6.12,4.42-9.17,6.7c-1.98,1.49-3.99,2.97-5.94,4.5
		c-0.85,0.67-1.66,1.38-2.47,2.09c1.89-2.44,3.96-4.73,6.17-6.88c12.23-11.9,28.95-19.23,47.36-19.23c0.72,0,1.43,0.01,2.14,0.03
		c0.76,0.03,1.52,0.06,2.28,0.11c2.11,0.14,4.2,0.37,6.25,0.7c0.03,0,0.04,0.01,0.07,0.01c2.34,0.63,4.66,1.31,6.99,2.01
		c1.94,0.59,3.89,1.12,5.79,1.78c1.26,0.43,2.5,0.99,3.71,1.49c1.1,0.47,2.32,0.87,3.36,1.46c1.68,0.95,3.24,2.21,4.79,3.36
		c1.03,0.77,1.99,1.66,2.93,2.57c1.31,1.28,2.48,2.7,3.47,4.22c2.32,3.6,4.17,7.67,5.05,11.86c0.75,3.53,0.65,7.36,0.5,10.96
		c-0.07,1.92-0.42,4.03-0.8,5.92c-0.43,2.08-1.16,4.02-1.38,6.17c-0.1,1.05,0.07,2.12-0.1,3.16c-0.14,0.85-0.46,1.66-0.63,2.51
		c-0.36,1.79-0.89,3.53-1.72,5.18c-1.12,2.25-2.64,4.12-4.26,6.05c-1.82,2.17-3.77,4.25-5.67,6.37c-1.91,2.14-4.2,3.86-6.66,5.32
		c-1.91,1.15-3.86,2.52-5.94,3.33c-1.95,0.77-4.16,1.88-6.27,2.11c-1.61,0.16-2.88,0.76-4.19,1.74c-0.79,0.57-1.38,1.35-2.11,1.97
		c-0.66,0.56-1.43,0.73-2.22,1c-1.88,0.63-3.71,0.49-5.68,0.49c-2.8,0-5.55,0.27-8.33,0.56c-1.41,0.14-2.8,0.26-4.2,0.17
		c-1.26-0.07-2.51-0.4-3.76-0.56c-1.39-0.17-2.78-0.2-4.16-0.42c-1.09-0.19-1.95-0.2-3.06-0.06c-0.89,0.1-1.78,0-2.67,0.07
		c-0.92,0.09-1.82,0.29-2.74,0.42C55.41,111.82,51.49,113.74,47.23,112.74z"/>
	
		<radialGradient id="SVGID_00000034065264770569728660000011422806424153195194_" cx="67.0474" cy="68.045" r="65.0149" gradientTransform="matrix(1 0 0 -1 0 181)" gradientUnits="userSpaceOnUse">
		<stop  offset="0" style="stop-color:#FFFF4A"/>
		<stop  offset="1" style="stop-color:#360038"/>
	</radialGradient>
	<path style="fill-rule:evenodd;clip-rule:evenodd;fill:url(#SVGID_00000034065264770569728660000011422806424153195194_);" d="
		M43.86,143.82c0,0,15.91,2.79,23.14,2.58c10.93-0.32,23.53,1.04,33.31,1.31s26.88-7.75,30.01-9.22
		c3.13-1.47,10.67-5.78,17.26-13.08s9.19-19.21,9.19-19.21h-2.75c0,0-1.04,5.15-5.01,10.94c-2.38,3.47-5.88,6.51-10.67,10.64
		c-6.88,5.94-15.84,10.52-24.87,12.77c-12.02,3-22.71,2.17-30.08,3.27c-10.67,1.59-34.36-2.18-34.36-2.18L43.86,143.82z"/>
	
		<radialGradient id="SVGID_00000063602127831694391230000018002392282566585257_" cx="41.4457" cy="42.9612" r="7.0168" gradientTransform="matrix(1 0 0 -1 0 181)" gradientUnits="userSpaceOnUse">
		<stop  offset="0" style="stop-color:#6D00C2"/>
		<stop  offset="0.3995" style="stop-color:#6600BC"/>
		<stop  offset="0.976" style="stop-color:#5300AC"/>
		<stop  offset="1" style="stop-color:#5200AB"/>
	</radialGradient>
	<path style="fill-rule:evenodd;clip-rule:evenodd;fill:url(#SVGID_00000063602127831694391230000018002392282566585257_);" d="
		M39.66,135.94c0,0,2.54,6.6,4.2,7.88c0,0,3.49,0.21,5.18-1.58l-4.89-3.89L39.66,135.94z"/>
	
		<radialGradient id="SVGID_00000035533368079924009290000003188644332198357650_" cx="154.9299" cy="83.7604" r="7.329" gradientTransform="matrix(1 0 0 -1 0 181)" gradientUnits="userSpaceOnUse">
		<stop  offset="0" style="stop-color:#1F0081"/>
		<stop  offset="0.73" style="stop-color:#260087"/>
		<stop  offset="1" style="stop-color:#2A008B"/>
	</radialGradient>
	<path style="fill-rule:evenodd;clip-rule:evenodd;fill:url(#SVGID_00000035533368079924009290000003188644332198357650_);" d="
		M156.97,93.91c0,0,1.7,7.46,1.84,11.43c0,0-2.65,1.67-4.79,0.87C154.02,106.21,156.52,97.09,156.97,93.91z"/>
	<path class="st19" d="M110.93,22.89c0,0,14.18,1.42,17.5,3.74c0,0-2.35,2.63-4.98,2.97C123.45,29.6,111.95,23.23,110.93,22.89z"/>
	<path class="st19" d="M27.16,49.28l5.81-0.92l2.28-3.06C35.25,45.31,31.08,47.14,27.16,49.28z"/>
	<path class="st20" d="M31.88,131.76c0,0,27.51,7.99,48.98,8.39s29.54-4.37,38.82-7.96c9.28-3.59,24.53-11.82,29.12-17.9
		c4.6-6.08,8.17-20.38,8.17-20.38s-4.41,21.45-8.23,25.25c-3.82,3.8-20.86,15.28-23.85,16.78c-2.99,1.49-11.11,7.66-25.8,5.95
		c0,0-9.88,1.39-13.45,1.12s-9.12,3.33-19.31,0.04c0,0-14.18-0.71-17.28-1.39C45.94,140.97,31.88,131.76,31.88,131.76z"/>
	<path class="st21" d="M38.56,102.89c0,0,22.8,3.95,39.31,2.26s25.45-5.81,30.16-8.89c4.71-3.08,13.94-12.94,17.39-17.43
		s5.19-15.71,5.19-15.71s0.62,10.96-2.2,15.71c-2.82,4.75-12.51,13.78-16.46,16.4s-15.29,8.85-21.2,9.92
		c-5.92,1.07-15.68,4.07-22.76,2.77C60.93,106.62,43.78,106.84,38.56,102.89z"/>
	<path class="st22" d="M70.17,139.38c0,0,23.73-1.63,31.89-3.44c8.15-1.81,18.87-6.22,26.37-8.97c7.5-2.75,13.16-8.19,17.29-11.22
		c4.13-3.02,9.43-15.58,9.43-15.58s-3.38,12.45-8.57,16.52c-5.19,4.06-18.48,11.51-33.49,18.17
		C96.41,142.25,83.44,140.15,70.17,139.38z"/>
	<path class="st15" d="M152.87,109.58c0.37-1.13,0.77-2.25,1.15-3.37c-1.32,4.53-3.1,8.86-5.28,12.95l-0.04,0.04
		c-0.63,0.62-1.41,1.1-1.99,1.78c-0.6,0.67-1.13,1.35-1.78,1.98c-3.1,3.07-6.64,5.71-10.3,8.09c-3.76,2.45-7.52,4.78-11.63,6.57
		c-3.16,1.38-6.38,2.55-9.73,3.4c-2.68,0.69-5.55,0.99-8.32,1.12c-1.41,0.07-2.78,0.3-4.17,0.43c-1.74,0.19-3.51,0.16-5.22,0.46
		c-2.95,0.55-6,0.93-8.99,1.09c-2.57,0.14-5.12,0.5-7.69,0.5c-3.3-0.01-6.57-0.53-9.87-0.52c-3.2,0.03-6.43-0.11-9.61-0.4
		c-1.91-0.19-3.77-0.55-5.65-0.76c-1.59-0.19-3.13-0.53-4.7-0.7c-1.33-0.95-2.62-1.96-3.87-3.01c-0.34-0.29-0.69-0.57-1.02-0.88
		c1.81,0.57,3.6,1.19,5.42,1.76c2.55,0.8,5.42,1.28,8.09,1.61c2.18,0.27,4.81,0.47,6.96-0.07c2.24-0.56,3.9,0.16,5.94,0.99
		c0.95,0.39,1.91,0.57,2.9,0.86c1.39,0.4,2.42,0.32,3.84,0.13c1.25-0.16,2.55-0.37,3.8-0.65c1.06-0.23,2.08-0.66,3.16-0.8
		c1.86-0.23,3.84-0.5,5.71-0.17c2.15,0.37,4.29,0.59,6.45,0.24c2.25-0.37,4.35-0.59,6.63-0.6c0.77,0,1.41,0.07,2.15,0.2
		c0.83,0.14,1.61-0.09,2.42-0.17c1.49-0.16,2.8-0.37,4.25-0.82c1.32-0.42,2.58-1,3.87-1.49c2.52-0.95,4.8-1.88,7.04-3.4
		c1.88-1.26,3.96-2.15,5.87-3.37c1.82-1.18,3.44-2.65,5.31-3.77c1.97-1.19,3.76-2.65,5.64-3.99c1.19-0.85,2.25-1.85,3.44-2.71
		c1.03-0.75,2.17-1.33,3.13-2.18c1.65-1.41,3.18-2.93,4.26-4.83C151.42,113.35,152.25,111.5,152.87,109.58z"/>
	<path class="st23" d="M80.05,71.81c0,0,16.4-13.42,23.29-26.5C103.34,45.31,84.23,64.94,80.05,71.81z"/>
	<path class="st24" d="M62.81,87.81c0,0,10.36,0.07,21.82-4.71s17.2-14.63,17.2-14.63s-7.75,7.41-16.19,11.55
		C77.19,84.17,70.8,85.18,62.81,87.81z"/>
	<path class="st24" d="M103.75,66.1c0,0,1.16-2.96,3.33-8.14s3.89-7.96,3.89-7.96S110.27,57.91,103.75,66.1z"/>
	<path class="st25" d="M59.26,115.11c0,0,14.39,3.5,33.15,0c18.75-3.5,19.57-4.64,24.73-8.69c5.16-4.05,8.83-9.24,10.87-11.19
		c2.04-1.96,4.6-8.76,4.6-8.76s-5.3,9.53-12.9,15.91s-13.85,9.51-26.62,11.41C80.32,115.69,65.64,115.49,59.26,115.11z"/>
	<path class="st25" d="M71.89,146.36c0,0,13.04,1.13,18.34,2.21c5.3,1.09,15.49,1.05,21.33-1.11c5.84-2.15,17.42-8.35,17.42-8.35
		s-10.8,6.06-23.67,7.42C92.45,147.9,84.62,145.72,71.89,146.36z"/>
	<path class="st25" d="M132.78,137.22c0,0,8.28-5.56,12.34-9.25C145.12,127.97,140.79,133.9,132.78,137.22z"/>
	<path class="st26" d="M69.87,66.44c0,0,9.45-7.11,12.45-12.25s3.3-8.07,3.3-8.07s1.34,5-4.34,11.35
		C75.61,63.83,69.87,66.44,69.87,66.44z"/>
	
		<linearGradient id="SVGID_00000139255876926259384640000018355263025442867105_" gradientUnits="userSpaceOnUse" x1="46.8223" y1="114.6755" x2="56.3178" y2="114.6755" gradientTransform="matrix(1 0 0 -1 0 181)">
		<stop  offset="0" style="stop-color:#BDFFE8"/>
		<stop  offset="0.2005" style="stop-color:#8BBBAA"/>
		<stop  offset="0.4155" style="stop-color:#5A796E"/>
		<stop  offset="0.6108" style="stop-color:#33453F"/>
		<stop  offset="0.7795" style="stop-color:#171F1D"/>
		<stop  offset="0.9148" style="stop-color:#060808"/>
		<stop  offset="1" style="stop-color:#000000"/>
	</linearGradient>
	
		<path style="opacity:0.5;fill-rule:evenodd;clip-rule:evenodd;fill:url(#SVGID_00000139255876926259384640000018355263025442867105_);enable-background:new    ;" d="
		M47.79,61.47c-0.77,3.47-1.54,6.99-0.36,10.34c1.18,3.34,2.99,5.52,4.71,5.7s4.26-3.9,4.17-5.07c-0.09-1.18-2.81-4.26-2.99-7.34
		s3.18-7.61,2.99-9.33C56.13,54.05,49.05,55.77,47.79,61.47z"/>
	
		<linearGradient id="SVGID_00000084497033857117439400000014178087845034154422_" gradientUnits="userSpaceOnUse" x1="24.2041" y1="105.5378" x2="66.2038" y2="105.5378" gradientTransform="matrix(1 0 0 -1 0 181)">
		<stop  offset="0" style="stop-color:#BDFFE8"/>
		<stop  offset="0.2005" style="stop-color:#8BBBAA"/>
		<stop  offset="0.4155" style="stop-color:#5A796E"/>
		<stop  offset="0.6108" style="stop-color:#33453F"/>
		<stop  offset="0.7795" style="stop-color:#171F1D"/>
		<stop  offset="0.9148" style="stop-color:#060808"/>
		<stop  offset="1" style="stop-color:#000000"/>
	</linearGradient>
	
		<path style="opacity:0.5;fill-rule:evenodd;clip-rule:evenodd;fill:url(#SVGID_00000084497033857117439400000014178087845034154422_);enable-background:new    ;" d="
		M49.33,47.29c-1.14-1.22-8.77,5.93-14.08,11.46s-10.56,12.78-11.01,17.4c-0.45,4.62,3.35,11.6,10.24,17.76
		c6.88,6.16,24.81,11.77,29.12,9.24c4.31-2.54,2.72-10.42-0.79-12.32c-3.51-1.9-14.92,1.93-20.27-3.69s-2.93-13.16-2.26-19.51
		c0.82-7.76,3.26-14.31,5.53-16.31C48.07,49.34,49.33,47.29,49.33,47.29z"/>
	<path class="st29" d="M25.92,71.2c-1.48,5.01-1.65,10.36,1.43,14.48c3.08,4.11,5.41,1.04,6.49-9s0.46-16.91,0.46-16.91
		S27.77,64.9,25.92,71.2z"/>
	<path class="st30" d="M30.95,88.61c-2.08,1.93,2.89,5.77,3.7,3.92C35.47,90.69,32.31,87.36,30.95,88.61z"/>
	<path class="st30" d="M25.43,103.77c-0.2,3.18,1.62,6.8,7.18,8.88s9.92,1.52,9.92,1.52s-6.51-1.29-10.1-3.8
		C28.86,107.86,25.43,103.77,25.43,103.77z"/>
	<path class="st29" d="M48.25,61.97c-1.84-2.43,0.55-5.76,3.92-7.81s3.77-1.43,3.05,0.36s-1.82,5.56-3.4,7.44
		C50.25,63.85,49.34,63.41,48.25,61.97z"/>
	<path class="st29" d="M60.36,57.74c-0.7-1.19,0.71-4.67,2.63-4.35c1.92,0.32,1.45,1.09,0.55,2.36
		C62.87,56.69,61.02,58.86,60.36,57.74z"/>
	<path class="st29" d="M74.28,63.7c-0.66-1.35,4.71-5.48,5.43-5.05c0.73,0.43,0.26,2.62-1,3.44C77.46,62.9,74.51,64.17,74.28,63.7z"
		/>
</g>
</svg>
