<?xml version="1.0" encoding="utf-8"?>
<!-- Generator: Adobe Illustrator 26.5.0, SVG Export Plug-In . SVG Version: 6.00 Build 0)  -->
<svg version="1.1" id="Layer_1" xmlns="http://www.w3.org/2000/svg" xmlns:xlink="http://www.w3.org/1999/xlink" x="0px" y="0px"
	 viewBox="0 0 360 360" style="enable-background:new 0 0 360 360;" xml:space="preserve">
<style type="text/css">
	.st0{opacity:0.3;fill-rule:evenodd;clip-rule:evenodd;fill:url(#SVGID_1_);}
	.st1{fill-rule:evenodd;clip-rule:evenodd;fill:url(#SVGID_00000027583115629879801410000000385605071044314020_);}
	.st2{fill-rule:evenodd;clip-rule:evenodd;fill:url(#SVGID_00000080923311160483546810000014314545989472883876_);}
	.st3{opacity:0.3;fill-rule:evenodd;clip-rule:evenodd;fill:url(#SVGID_00000121252053457098449870000016426399417774063020_);}
	.st4{opacity:0.3;fill-rule:evenodd;clip-rule:evenodd;fill:url(#SVGID_00000088851251948096688080000003058269035586500229_);}
	.st5{fill-rule:evenodd;clip-rule:evenodd;fill:url(#SVGID_00000001638593573217258480000008911352572856838587_);}
	.st6{fill-rule:evenodd;clip-rule:evenodd;fill:url(#SVGID_00000152252194735060304800000014917656273272998835_);}
	.st7{fill-rule:evenodd;clip-rule:evenodd;fill:url(#SVGID_00000139981030160664245500000009361975672296067512_);}
	.st8{fill-rule:evenodd;clip-rule:evenodd;fill:url(#SVGID_00000160170697445050143670000007658835666361667254_);}
	.st9{fill-rule:evenodd;clip-rule:evenodd;fill:url(#SVGID_00000156584056593972451500000006366241778146741647_);}
	.st10{opacity:0.5;}
	.st11{opacity:0.4;}
	.st12{fill-rule:evenodd;clip-rule:evenodd;fill:url(#SVGID_00000059271543634095759350000016584553545391403193_);}
	.st13{fill-rule:evenodd;clip-rule:evenodd;fill:url(#SVGID_00000038386563425103751430000005942907699810277784_);}
	.st14{fill-rule:evenodd;clip-rule:evenodd;fill:url(#SVGID_00000016042839904459782630000007727651069536968341_);}
	.st15{fill-rule:evenodd;clip-rule:evenodd;fill:url(#SVGID_00000087384397442227450670000017130533229493927810_);}
	.st16{fill-rule:evenodd;clip-rule:evenodd;fill:url(#SVGID_00000044163210887012056660000013947658891840432816_);}
	.st17{fill-rule:evenodd;clip-rule:evenodd;fill:url(#SVGID_00000169530222887260399240000011424733837387297668_);}
	.st18{opacity:0.4;fill-rule:evenodd;clip-rule:evenodd;fill:url(#SVGID_00000133528396011337101250000017893954125279009165_);}
	.st19{opacity:0.5;fill-rule:evenodd;clip-rule:evenodd;fill:url(#SVGID_00000175323232856241568960000013981993991894692273_);}
	.st20{opacity:0.5;fill-rule:evenodd;clip-rule:evenodd;fill:url(#SVGID_00000129194999160349959560000011488548389880304298_);}
	.st21{fill:url(#SVGID_00000034809794278728168380000011657109698985911205_);}
	.st22{opacity:0.5;fill-rule:evenodd;clip-rule:evenodd;fill:url(#SVGID_00000147922487007225913910000017164749105038654344_);}
	.st23{fill-rule:evenodd;clip-rule:evenodd;fill:#FFFFFF;}
	.st24{fill-rule:evenodd;clip-rule:evenodd;fill:#BFFFFF;}
	.st25{fill-rule:evenodd;clip-rule:evenodd;fill:url(#SVGID_00000070824603287210042170000002939715149612748161_);}
	.st26{fill-rule:evenodd;clip-rule:evenodd;fill:url(#SVGID_00000014632843687571853010000009135061598164134278_);}
	.st27{opacity:0.5;fill-rule:evenodd;clip-rule:evenodd;fill:url(#SVGID_00000156549572575622089540000013447515401347900320_);}
	.st28{opacity:0.5;fill-rule:evenodd;clip-rule:evenodd;fill:url(#SVGID_00000045601014077527925590000009383706443337171347_);}
</style>
<g>
	<radialGradient id="SVGID_1_" cx="186.4502" cy="209.8732" r="222.2645" gradientUnits="userSpaceOnUse">
		<stop  offset="0" style="stop-color:#31D1F9"/>
		<stop  offset="1" style="stop-color:#31D1F9;stop-opacity:0"/>
	</radialGradient>
	<path class="st0" d="M129.3,281.9c-36.4-30.7-35.4-25.1-52.8-54.2s-42-36.8-42-69.3c0-37.8,67.7-63,85.3-80.4s65-62.1,104.5-53.8
		c39.5,8.3,51.7,66.6,65.7,86.1c14,19.5,34.4,18.6,44.6,48c10.2,29.3-32.7,56.2-47.7,83.1C272,268.2,184.8,328.8,129.3,281.9z"/>
	
		<radialGradient id="SVGID_00000178907573190529038920000014211901800746488501_" cx="179.9992" cy="177.0468" r="177.0468" gradientUnits="userSpaceOnUse">
		<stop  offset="0" style="stop-color:#31D1F9"/>
		<stop  offset="1" style="stop-color:#31D1F9;stop-opacity:0"/>
	</radialGradient>
	
		<circle style="fill-rule:evenodd;clip-rule:evenodd;fill:url(#SVGID_00000178907573190529038920000014211901800746488501_);" cx="180" cy="177" r="177"/>
	
		<radialGradient id="SVGID_00000016035901364972413170000009213869138474820483_" cx="179.9991" cy="177.0466" r="150.543" gradientUnits="userSpaceOnUse">
		<stop  offset="0" style="stop-color:#31D1F9"/>
		<stop  offset="1" style="stop-color:#31D1F9;stop-opacity:0"/>
	</radialGradient>
	
		<circle style="fill-rule:evenodd;clip-rule:evenodd;fill:url(#SVGID_00000016035901364972413170000009213869138474820483_);" cx="180" cy="177" r="150.5"/>
	
		<radialGradient id="SVGID_00000053539756243553326760000016239306862438713748_" cx="192.023" cy="218.6196" r="187.6486" gradientUnits="userSpaceOnUse">
		<stop  offset="0" style="stop-color:#31D1F9"/>
		<stop  offset="1" style="stop-color:#31D1F9;stop-opacity:0"/>
	</radialGradient>
	
		<path style="opacity:0.3;fill-rule:evenodd;clip-rule:evenodd;fill:url(#SVGID_00000053539756243553326760000016239306862438713748_);" d="
		M89.8,260.9C44.4,226.6,89.1,197,71.4,138C40.9,36.4,126.7,57.7,175.8,59.3c49.1,1.5,107.7,2,127.8,42.8s18.8,118.2-10.8,150.4
		C263.3,284.6,178.7,327.9,89.8,260.9z"/>
	
		<radialGradient id="SVGID_00000106129742126753400820000016911217296993844371_" cx="264.0085" cy="191.3433" r="187.6465" gradientTransform="matrix(0.6456 0.7637 -0.7637 0.6456 116.2486 -65.7086)" gradientUnits="userSpaceOnUse">
		<stop  offset="0" style="stop-color:#31D1F9"/>
		<stop  offset="1" style="stop-color:#31D1F9;stop-opacity:0"/>
	</radialGradient>
	
		<path style="opacity:0.3;fill-rule:evenodd;clip-rule:evenodd;fill:url(#SVGID_00000106129742126753400820000016911217296993844371_);" d="
		M53.3,168c-3.2-56.8,48.3-41.8,81.9-93.4c57.9-88.9,97-9.6,127.5,28.9c30.5,38.5,68,83.5,49.8,125.2
		c-18.2,41.7-78.2,90.7-121.8,88.9C147.2,315.8,59.5,279.2,53.3,168z"/>
	
		<radialGradient id="SVGID_00000016798082794082423200000002036830283733776782_" cx="179.9992" cy="180.7091" r="140.967" gradientUnits="userSpaceOnUse">
		<stop  offset="0" style="stop-color:#FFFFF9"/>
		<stop  offset="1" style="stop-color:#FFFFF9;stop-opacity:0"/>
	</radialGradient>
	
		<circle style="fill-rule:evenodd;clip-rule:evenodd;fill:url(#SVGID_00000016798082794082423200000002036830283733776782_);" cx="180" cy="180.7" r="141"/>
	
		<radialGradient id="SVGID_00000142863737557699670420000006465607284734079874_" cx="117.6966" cy="102.5759" r="214.4128" gradientUnits="userSpaceOnUse">
		<stop  offset="5.586590e-03" style="stop-color:#B1FFFF"/>
		<stop  offset="0.2928" style="stop-color:#B1FDFF"/>
		<stop  offset="0.4362" style="stop-color:#AFF5FF"/>
		<stop  offset="0.5473" style="stop-color:#ACE8FF"/>
		<stop  offset="0.6173" style="stop-color:#A9DBFF"/>
		<stop  offset="0.6508" style="stop-color:#A2D7FE"/>
		<stop  offset="0.6994" style="stop-color:#8FCAFC"/>
		<stop  offset="0.757" style="stop-color:#6FB5F9"/>
		<stop  offset="0.8216" style="stop-color:#4399F4"/>
		<stop  offset="0.8913" style="stop-color:#0C75EE"/>
		<stop  offset="0.905" style="stop-color:#006DED"/>
	</radialGradient>
	<path style="fill-rule:evenodd;clip-rule:evenodd;fill:url(#SVGID_00000142863737557699670420000006465607284734079874_);" d="
		M307.9,181.1c0,37-15.7,70.3-40.8,93.6c-12,11.2-26.1,20.1-41.7,26c-10.1,3.8-20.7,6.4-31.8,7.6l0,0c-2.8,0.3-5.6,0.5-8.5,0.6
		c-1.7,0.1-3.4,0.1-5.1,0.1c-5.7,0-11.3-0.4-16.8-1.1c-19.4-2.6-37.5-9.4-53.2-19.8c-1.5-0.9-3-1.9-4.4-3c-2.6-1.9-5.2-3.9-7.7-6
		c-13.2-11.1-24.2-24.8-32-40.3c-5-9.7-8.7-20.2-11-31.2c0,0,0-0.1,0-0.1c-1.2-5.6-2-11.3-2.4-17.1c-0.2-3.1-0.4-6.2-0.4-9.3
		c0-25.2,7.3-48.8,20-68.6c5.4-8.4,11.7-16.1,18.8-23.1C113.9,67,145.3,53.2,180,53.2c2.8,0,5.6,0.1,8.3,0.3
		c11.1,0.7,21.8,2.8,31.9,6.2c0.1,0,0.1,0,0.1,0c3.1,1,6.2,2.2,9.2,3.5c2.2,0.9,4.4,1.9,6.6,3c12.4,6,23.7,14.1,33.4,23.6
		c4.9,4.8,9.4,9.9,13.4,15.4c12.7,17.2,21.2,37.7,24,60v0C307.6,170.4,307.9,175.7,307.9,181.1z"/>
	
		<linearGradient id="SVGID_00000036243331078324796010000009296558431643860906_" gradientUnits="userSpaceOnUse" x1="52.0984" y1="145.9854" x2="236.0848" y2="145.9854">
		<stop  offset="1.117320e-02" style="stop-color:#B0E1FF"/>
		<stop  offset="0.2926" style="stop-color:#ADDEFF"/>
		<stop  offset="0.499" style="stop-color:#A5D5FF"/>
		<stop  offset="0.6813" style="stop-color:#98C5FF"/>
		<stop  offset="0.8488" style="stop-color:#85AEFF"/>
		<stop  offset="1" style="stop-color:#6D93FF"/>
	</linearGradient>
	<path style="fill-rule:evenodd;clip-rule:evenodd;fill:url(#SVGID_00000036243331078324796010000009296558431643860906_);" d="
		M236.1,66.1c-0.4,0-0.8,0.1-1.3,0.2c-1.4,0.3-2.6,0.1-4-0.3c-1-0.3-1.8-0.7-2.8-0.9c-1.6-0.2-3-0.9-4.5-1.1
		c-1.6-0.2-3.1-0.9-4.6-1.4c-1.2-0.4-1.9-0.3-3,0c-1.2,0.3-2-0.2-3-0.6c-1.2-0.5-2.4-0.6-3.6-0.8c-3.2-0.7-6.5-1.7-9.7-2.5
		c-2-0.5-3.8-0.5-5.9-0.5c-1.6,0-3,0.4-4.6,0.4c-1.1,0-2-0.2-3-0.3c-1.1-0.2-2.2,0-3.3-0.1c-1.6-0.2-2.5-0.5-4.1,0
		c-1.2,0.4-2.2,0.4-3.4,0.4c-1.4,0.1-2.9,0.4-4.2,0.7c-2.4,0.6-5,1-7.5,1c-1.5,0-3.7-0.4-5.2,0.1c-0.9,0.3-1.4,1.3-2,2
		c-1.2,1.3-2.8,2.4-3.8,3.9c-1,1.4-2.2,2.9-2.1,4.7c0.1,1.6,0.8,3.4,1.5,4.9c0.7,1.5,1,2.9-0.6,3.9c-2,1.3-4.3,2.5-6.5,3.2
		c-1.5,0.4-2.9,0.7-4.1-0.4c-0.5-0.4-0.8-1.2-1.3-1.5c-0.6-0.3-1.2,0-1.9,0.2c-1.6,0.5-3.2,1-4.8,1.3c-1,0.2-1.9,0.7-2.8,0.9
		c-1.2,0.2-2-0.6-3.2-0.4c-1.7,0.4-3.4,1.1-5.2,1.2c-1.3,0.1-2.9-0.5-3.9-1.1c-0.6-0.4-0.8-0.7-1.5-0.5c-0.6,0.1-1.4,0.8-1.8,1.3
		c-0.4,0.6-0.6,1.4-1,2c-0.4,0.7-0.9,1.4-1.3,2.1c-0.7,1.4-1.6,2.8-2.5,4c-0.7,0.9-1.1,2.1-1.9,2.9c-0.4,0.4-1.2,0.8-1.7,1.1
		c-1.3,0.9-2.7,1.8-4,2.8c-2.5,2-4.8,4.1-7.4,6c-1.9,1.4-4.6,2.3-6.8,3.2c-1.4,0.6-2.8,1-4.2,1.5c-0.4,0.2-1.3,0.4-1.6,0.7
		c-0.5,0.4-0.8,1.2-1.2,1.8c-1.2,1.5-2.5,2.9-3.4,4.6c-0.6,1-0.9,2-1.2,3c-0.5,1.4-1.3,2.8-1.8,4.2c-1,3-1.2,6.2-2.3,9.2
		c-0.6,1.8-1.6,3.4-2.4,4.9c-1.4,2.7-1.6,5.9-2,8.9c-0.2,1.8-0.1,3.8,0.2,5.5c0.3,1.8,0.2,3.7,0.2,5.6c0,2-1.3,3.9-2.6,5.5
		c-1.2,1.4-2.9,1.9-4.2,3.2c-1.1,1.1-2.4,2.3-2.9,3.8c-0.2,0.7,0,1.4-0.1,2.1c-0.3,1.6-0.7,3.1-0.9,4.7c-0.2,2-0.3,3.8-0.3,5.8
		c0,1-0.1,2,0,3c0,1,0.4,1.8,0.5,2.8c0,0.7-0.1,1.3,0,2c0.1,0.8,0.4,1.5,0.6,2.3c0.4,1.8,0.8,3.5,1.1,5.3c0.3,1.6,1,3.3,1.5,4.9
		c0.7,2.2,1.2,4.4,1.6,6.7c0.3,1.7,0.3,3.4,0.6,5.1c0.2,1.4,0.5,2.8,0.6,4.1c0.1,2.1-0.4,4.2-0.5,6.3c0,3.5,1.4,7.1,2.2,10.5
		c0.2,1,0.5,1.9,0.8,2.9c-8.8-17.3-13.7-37-13.7-57.7c0-25.2,7.3-48.8,19.9-68.6c5.4-8.4,11.7-16.2,18.8-23.1
		C113.9,67,145.3,53.2,180,53.2c2.8,0,5.5,0.1,8.3,0.3C205.4,54.5,221.5,59,236.1,66.1z"/>
	
		<radialGradient id="SVGID_00000052062980668767263750000010969885015176143539_" cx="86.5331" cy="94.0166" r="168.3483" gradientUnits="userSpaceOnUse">
		<stop  offset="0" style="stop-color:#FFFFD9;stop-opacity:0.5"/>
		<stop  offset="1" style="stop-color:#FFFFD9;stop-opacity:0"/>
	</radialGradient>
	<path style="fill-rule:evenodd;clip-rule:evenodd;fill:url(#SVGID_00000052062980668767263750000010969885015176143539_);" d="
		M104.2,281c-13.2-11.1-24.2-24.8-32.1-40.3c-4.9-9.8-8.7-20.2-11-31.2c0,0,0-0.1,0-0.1c-1.8-8.5-2.7-17.3-2.7-26.4
		c0-25.2,7.3-48.8,19.9-68.6c5.4-8.4,11.7-16.2,18.8-23.1C120.1,68.8,151.6,55,186.3,55c2.8,0,5.5,0.1,8.3,0.3
		c8.7,0.6,17.1,2,25.2,4.2c-10-3.3-20.5-5.3-31.5-6c-2.8-0.2-5.5-0.3-8.3-0.3c-34.7,0-66.1,13.8-89.2,36.2
		C83.7,96.3,77.4,104,72,112.5c-12.6,19.8-19.9,43.4-19.9,68.6c0,9.1,1,17.9,2.7,26.4c0,0,0,0.1,0,0.1c2.3,11,6,21.5,11,31.2
		c7.9,15.5,18.8,29.2,32.1,40.3c14,11.8,30.6,20.5,48.7,25.4C130.9,299.4,116.5,291.4,104.2,281z"/>
	
		<radialGradient id="SVGID_00000160888828550405762480000001591704631090707856_" cx="27.6237" cy="170.411" r="43.8605" gradientTransform="matrix(1.4323 -0.8527 0.5467 0.9183 4.6097 -13.9759)" gradientUnits="userSpaceOnUse">
		<stop  offset="0" style="stop-color:#FFFFFF"/>
		<stop  offset="1" style="stop-color:#FFFFFF;stop-opacity:0"/>
	</radialGradient>
	<path style="fill-rule:evenodd;clip-rule:evenodd;fill:url(#SVGID_00000160888828550405762480000001591704631090707856_);" d="
		M200.2,81.6c13.2,22.2-4.1,57-38.8,77.7c-34.7,20.7-73.6,19.4-86.8-2.9s4.1-57,38.8-77.7C148.1,58,186.9,59.3,200.2,81.6z"/>
	<g class="st10">
		<g class="st11">
			
				<linearGradient id="SVGID_00000083072950596204828360000013087469207799718018_" gradientUnits="userSpaceOnUse" x1="165.1917" y1="217.6529" x2="166.8925" y2="217.6529">
				<stop  offset="0" style="stop-color:#E8DDFF"/>
				<stop  offset="1" style="stop-color:#AA8AD8"/>
			</linearGradient>
			<path style="fill-rule:evenodd;clip-rule:evenodd;fill:url(#SVGID_00000083072950596204828360000013087469207799718018_);" d="
				M165.2,216.7c0-0.1-0.1-0.2-0.1-0.3c0.8,0.8,1.5,1.7,1.7,2.6C166.2,218.9,165.4,217.4,165.2,216.7z"/>
			
				<linearGradient id="SVGID_00000015312849013406690460000016928559099916694150_" gradientUnits="userSpaceOnUse" x1="123.3045" y1="214.171" x2="307.8997" y2="214.171">
				<stop  offset="0" style="stop-color:#E8DDFF"/>
				<stop  offset="1" style="stop-color:#AA8AD8"/>
			</linearGradient>
			<path style="fill-rule:evenodd;clip-rule:evenodd;fill:url(#SVGID_00000015312849013406690460000016928559099916694150_);" d="
				M306.9,165.2L306.9,165.2c-0.5-1-1.1-2-1.8-2.8c-1.5-1.8-3.2-2.6-5.3-3.3c-1.5-0.5-3.3-1.2-4.6,0c-1.3,1.2-2.4,3.2-3.2,4.7
				c-0.6,1.1-1.4,3.2-2.8,3.5s-3.1-1.7-4-2.6c-1.3-1.3-2-3.6-3.6-4.7c-1.1-0.8-2.8-1.5-3.9-2c-2.5-1-5.1-1.3-7.7-1.5
				c-1.9-0.1-3.2-1.1-4.9-1.9c-1.7-0.8-3.7-1-5.5-1.3c-1.6-0.4-3.2-0.7-4.8-1c-1.6-0.4-3.1-0.7-4.2-1.9c-1.5-1.6-2.5-3.7-4.1-5.2
				c-2.9-2.7-6.3-0.9-9.9-0.9c-3,0-5.3-1.9-8.4-2.6c-3.5-0.8-6.5-1.3-8.7-4.4c-2-2.7-1.4-6-2.5-9c-2.2-5.9-10.3-7.7-15.8-8
				c-4.5-0.2-8.5,1.3-12.9,1.4c-3.8,0.1-7.1-0.9-9.6,2.5c-2.6,3.6-5.3,7.4-7.5,11.1c-1.7,2.9-4.2,6-5.3,9.3
				c-0.6,1.8-0.5,3.8-0.9,5.6c-0.5,2-2.1,5.3-3.4,6.9c-1.5,1.9-4.1,3.1-6.2,4.2c-1.9,1-3.2,2.5-4.8,4c-1.9,1.9-3.7,3.9-5.2,6
				c-0.7,1-1.2,2.1-2.1,2.9c-0.9,0.7-2,1.1-2.8,1.9c-0.7,0.6-1.2,1.5-2,2.1c-1.2,1-3.1,2-4.7,2.1c-2.8,0.1-5.3-2.1-7.6,0.7
				c-1.4,1.7-3.1,4.6-2.7,6.8c0.3,1.9,1.9,3.5,3.1,5c2,2.5,5.9,6.6,5,10.3c-0.4,1.4-1.5,2.2-1.2,3.8c0.3,1.5,0.6,2.7,0.6,4.3
				c0,1-0.4,3,0.1,3.9c0.7,1.2,3.3,2.1,4.5,2.6c2.8,1.2,5,2.9,7.7,4.2c1.8,0.9,2.9,2.3,4.9,2.9c1.8,0.6,3.5,0.3,5.3,0.6
				c1.1,0.2,2.5,0.4,3.6,0.6c0.8,0.2,1.6,0.9,2.4,1.1c3.2,0.8,7.1,0.1,10.4,0.1c2.1,0,4.4,0.4,6.1-0.7c2.2-1.4,2.7-2.9,2.7-5.5
				c0-2.2-1.2-4-1.9-6.2c-0.4-1.2-0.6-2.6-1.3-3.6c-0.6-0.8-1.3-0.8-2.1-1.3c-1.1-0.7-1.3-1.7-2.9-1.9c-1.2-0.2-2.3,0.2-3.3,0.9
				c-1.4,1-3.9,3.3-3.4,5.1c0.2,0.8,0.8,1.5,1.5,2.2c-0.1-0.9,0.4-1.7,0.5-2.7c2.7,0.6,6.7,1.4,8.7,3.5c-0.4,1.9-2.9,3.2-4.6,3.2
				c-3.3,0.1-6.3,0.5-8.9-1.9c-2.1-1.9-2.3-4.5-3.5-7c-0.7-1.3-1.2-2.4-2.2-3.4c-0.8-0.9-1.3-1.5-1.9-2.6c-1-1.6-2.1-4.2-0.6-5.8
				c1.5-1.6,4.7-2.8,6.6-3.9c3.1-1.8,6.2-3.3,9.3-5c4.3-2.4,7.7-5.6,12.9-6c3.9-0.3,9,0.6,12.2,3.2c2.2,1.8,2.7,4,3.8,6.5
				c0.9,2,2.6,3.9,4.4,5.2c2.3,1.7,4.7,3.3,7.1,5c3.1,2.2,5.4,2.9,7.5,6.2c3.3,5.4,4.7,11.5,6.6,17.4c1,3,1.6,6,2.2,9.1
				c0.5,2.3,1.8,4.4,2.6,6.6c0.8,2,1.5,3.8,2.7,5.6c0.6,0.9,1.2,1.7,1.4,2.8c0.8,3.8-2.9,6.6-4.9,9.4c-2.1,3.1-4.5,6-5.6,9.7
				c-0.9,2.9,0.2,4.3,0.7,7c0.9,4.6-1.2,7.4-4.1,10.6c-1.6,1.7-3.2,3.1-5.3,4c-5.7,2.5-10.7,6.9-15,11.2c-0.6,1.5-3,3.1-4.1,3.9
				c11.1-1.2,21.8-3.8,31.8-7.6c15.6-5.9,29.7-14.8,41.7-26c25.1-23.4,40.8-56.6,40.8-93.6C307.9,175.7,307.6,170.4,306.9,165.2z
				 M164.2,166.8c-0.6,1.6-4.6,2.5-6.1,3c-0.6,0.2-1.4,0.4-1.9,0c-1.4-1.1,3.3-4.7,3.3-4.7l-1.4-0.7c1.2,0,1.6-1.5,2.8-1.5
				c0.3,0,1.4,0.7,1.6,0.8C163.4,164.5,164.8,165.5,164.2,166.8z M207.2,137.1c-1.1,5.8-7.5,9.9-12.6,11.7c-2.6,0.9-5.1,1.3-7.9,1.3
				c-2.4,0-5.2,0.5-7.5-0.1c-4.3-1.1-5.5-4-4-6c-0.8-2.1-2-4-1-6.1c0.7-1.5,1.8-3.1,2.7-4.5c1.8-2.7,4.6-2.8,7.5-3.7
				c6.1-2,12.3-4.1,18.3-0.7C205.5,130.6,207.8,133.7,207.2,137.1z M264.6,257.1c-2.4,7.3-8.7,10.7-15.4,13.1
				c-3.6,1.3-6.8,3.2-10.3,4.7c-2.3,1-3.9,1.7-6.3,0.8c-3.1-1.2-3.9-4.1-2.3-7c1.8-3.2,5.5-6,4.7-10.1c-0.5-2.6-0.7-4.9-0.4-7.6
				c0.5-4.1,0.5-8.1,0.5-12.2c-2.6,5.2-2.9,0.8-2.8-2.1c0.1-2.3,0.9-3.6,2.9-5c6.6-4.6,15.8-0.1,21.8,3.6c3.8,2.3,6.5,6.4,8,10.4
				C266.5,249.6,265.8,253.3,264.6,257.1z M262.5,180.9c-2,0.1-4.8-2.3-6.2-3.5c-1.4-1.2-2.4-2.6-3.6-4c-1.1-1.2-2.4-2.3-3.3-3.7
				c-0.9-1.6-1.4-3.6-2-5.3c-1-2.7-1.9-4.9-3.4-7.5c-0.5,1.7-0.7,0,0.6-0.6c1-0.5,2.6-0.1,3.6,0.1c2.9,0.5,4.7,1.8,6.6,3.9
				c2.1,2.3,4.5,4.3,6.5,6.7c1.6,1.9,5.1,5.6,5.2,8.2C266.7,177.1,264.6,180.8,262.5,180.9z"/>
			
				<linearGradient id="SVGID_00000029026853617643976180000016271051040772570552_" gradientUnits="userSpaceOnUse" x1="201.6955" y1="95.3694" x2="282.9541" y2="95.3694">
				<stop  offset="0" style="stop-color:#E8DDFF"/>
				<stop  offset="1" style="stop-color:#AA8AD8"/>
			</linearGradient>
			<path style="fill-rule:evenodd;clip-rule:evenodd;fill:url(#SVGID_00000029026853617643976180000016271051040772570552_);" d="
				M283,105.2c-1.1,1.1-2.6,1.7-4.1,2.7c-1.1,0.7-2.3,2.2-3.4,2.6c-1.5,0.6-3.7,0-5.1-0.5c-3.5-1.4-5.7-2.8-9.4-1.4
				c-1.2,0.4-2.1,0.4-3.3,0.6c-0.9,0.2-1.2,0.7-2.3,0.7c-2.2,0-4.2-2.1-5.6-3.6c-1.7-1.8-2.5-1.8-4.9-1.8c-2.3,0-5,0.6-5.5,3.4
				c-0.6,3.3,3.4,5.9,5.6,7.5c3.1,2.5-0.4,3.1-1.6,5.4c-1.2,2.3,1.2,3.5-0.6,5.5c-3.5,3.8-11.8,6.6-16.4,3.9c-3.2-1.9-4.8-5.4-7.3-8
				c-1.4-1.5-3.2-2.7-4.6-4.2c-2.1-2.2-3.7-5.3-4.9-8c1.1,3-0.8-1.2-1.4-4.8c-0.3-1.6,0.5-2.6,0.8-4.1c0.3-1.5-0.6-2.2-1.2-3.4
				c-1.2-2.3-3.3-4.3-1.4-6.8c1.1-1.5,2.5-3,3.9-4.3c1.4-1.4,2.9-3.2,4.8-4.1c0.2-1.1-3.2-4.5-4-5.4c-1.8-2.3-3.5-4.8-5.7-6.7
				c-0.9-0.8-2.5-1.5-3.1-2.5c-1.2-2.3,2.3-5.1,3.9-6.2c2.7-1.9,5.1-2.2,8.2-2.2c2,0,4,0.1,6.1,0.2c0.1,0,0.1,0,0.1,0
				c3.1,1,6.2,2.2,9.2,3.5c2.2,0.9,4.4,1.9,6.6,3c12.4,6,23.7,14.1,33.4,23.6C274.4,94.5,278.9,99.7,283,105.2z"/>
			
				<linearGradient id="SVGID_00000176725353231032239520000003606544245517233543_" gradientUnits="userSpaceOnUse" x1="244.0105" y1="135.5482" x2="254.1855" y2="135.5482">
				<stop  offset="0" style="stop-color:#E8DDFF"/>
				<stop  offset="1" style="stop-color:#AA8AD8"/>
			</linearGradient>
			<path style="fill-rule:evenodd;clip-rule:evenodd;fill:url(#SVGID_00000176725353231032239520000003606544245517233543_);" d="
				M246.1,132.4c2.7,0.6,5.3,1.4,7.8,2.3c-0.4,0.6-0.1,1.2,0.2,1.6c-0.9,0.9-2.4,1.9-3.6,2.2c-1.7,0.4-2.4-0.1-3.7-0.8
				c-1.3-0.7-2.9-0.8-2.8-2.5c0.1-1.9,1.9-2.5,3.5-2.7H246.1z"/>
			
				<linearGradient id="SVGID_00000045608632707915537080000016788509838842187944_" gradientUnits="userSpaceOnUse" x1="91.2729" y1="283.189" x2="103.4487" y2="283.189">
				<stop  offset="0" style="stop-color:#E8DDFF"/>
				<stop  offset="1" style="stop-color:#AA8AD8"/>
			</linearGradient>
			<path style="fill-rule:evenodd;clip-rule:evenodd;fill:url(#SVGID_00000045608632707915537080000016788509838842187944_);" d="
				M100.7,284.3c0.9,0.5,1.8,1,2.7,1.5c-1.8,0.5-3.6,0.7-5.4,0.8c-0.4-1.7-1.3-3.6-6.8-6.9C94.9,281.3,97.5,282.5,100.7,284.3z"/>
			
				<linearGradient id="SVGID_00000035497925120248028440000004099303077762972091_" gradientUnits="userSpaceOnUse" x1="110.0361" y1="267.9895" x2="218.255" y2="267.9895">
				<stop  offset="0" style="stop-color:#E8DDFF"/>
				<stop  offset="1" style="stop-color:#AA8AD8"/>
			</linearGradient>
			<path style="fill-rule:evenodd;clip-rule:evenodd;fill:url(#SVGID_00000035497925120248028440000004099303077762972091_);" d="
				M216.1,265.1c-1,1.8-1.4,3.7-1.3,5.8c0,1.9,0.1,3.9,0,5.8c-0.1,2.6-1.8,4.4-3.4,6.3c-1.9,2.3-4.2,4-6.4,5.9
				c-1.1,1-1.8,2.4-2.8,3.5c-1,1.1-2.3,1.9-3.1,3.1c-1,1.3-1.3,2-2.7,3.1c-1.6,1.1-2.7,2.5-4.1,3.8c-2.3,2.2-4.6,4.5-7.2,6.6
				c-1.7,0.1-3.4,0.1-5.1,0.1c-5.7,0-11.3-0.4-16.8-1.1c-19.4-2.6-37.5-9.4-53.2-19.8c1.5,0.4,3,0.8,4.5,1.1
				c1.7,0.3,3.2,0.9,4.8,1.4c2.9,0.8,6.7,0.2,9.7,0.1c4.6,0,9,0.8,13.5,1.4c3.2,0.5,5.7,0.9,8.9-0.1c2.7-0.8,5.3-1.9,7.6-3.2
				c5-2.9,11-2.8,16.2-5.6c2.2-1.2,4-3.1,6.2-4.5c1.1-0.7,2.8-1.9,4-2.3c1.1-0.4,2-0.4,3.1-0.8c2.6-1,5.4-1.5,8-2.6
				c2.3-0.9,5.8-2.4,7.6-4.1c2.3-2.2,5.6-5.7,6.6-8.7c0.7-2.1,0.7-3.9,0.7-6.1c0-0.9,0-1.9,0-2.8c0-1.2-0.3-1.6-0.5-2.5
				c-0.6-2.3,0.6-3.2,1.1-5c0.5-1.7,1.2-3.2,1.6-5c0.6-2.4,0.5-3.7-0.3-6.1c-0.3-0.9-0.9-2.1-1-2.9c-0.2-0.9-0.1-1.8-0.2-2.8
				c0,1.2,1.3,3.7,1.7,4.7c0.8,2,2.3,3.6,2.4,5.8c0.1,2.1-0.6,3.9-1,5.8c-0.5,2.2,0.4,3.6,0.3,5.8c0,0.9-0.1,1.8,0.2,2.7
				c0.3,1.1,0.4,2,0.6,3.1c0.4,1.8,1.6,3.4,2,5.1C218.7,262,217,263.6,216.1,265.1z"/>
		</g>
		
			<linearGradient id="SVGID_00000021114996553336608960000011758772054233006464_" gradientUnits="userSpaceOnUse" x1="52.4507" y1="237.0507" x2="117.5661" y2="237.0507">
			<stop  offset="0" style="stop-color:#E8DDFF"/>
			<stop  offset="1" style="stop-color:#AA8AD8"/>
		</linearGradient>
		
			<path style="opacity:0.4;fill-rule:evenodd;clip-rule:evenodd;fill:url(#SVGID_00000021114996553336608960000011758772054233006464_);" d="
			M117.5,267.2c0.4,6.6-3.6,12.2-8.7,16c-1,0.8-2.1,1.4-3.3,1.8c-2.6-1.9-5.2-3.9-7.7-6c-13.2-11.1-24.2-24.8-32-40.3
			c-5-9.7-8.7-20.2-11-31.2c0,0,0-0.1,0-0.1c-1.2-5.6-2-11.3-2.4-17.1c0.4-0.4,0.9-0.9,1.3-1.4c-0.1,4.2,1.5,7.6,2.7,11.7
			c0.9,3,1.9,6,2.7,9c0.6,2.5,1.2,4.7,2.8,6.7c1,1.3,1.9,1.9,3.5,2.5c1.2,0.5,2.1,1.5,3.2,1.9c2.5,0.9,5.7,1.5,8.4,1.5
			c1.4,0,2.2,0,3.4,0.7c0.8,0.5,1.6,1.2,2.4,1.7c1.8,1.3,3.6,2.7,5.1,4.4c2.3,2.6,2.2,6.3,4.1,9.2c1.5,2.4,3.8,3.2,6.7,3.2
			c5.6,0,10.5,6.6,13.4,10.9C114.8,256.5,117.3,262.4,117.5,267.2z"/>
	</g>
	
		<linearGradient id="SVGID_00000085947409497636695550000013400431785007313324_" gradientUnits="userSpaceOnUse" x1="8.4803" y1="113.5172" x2="345.5096" y2="113.5172">
		<stop  offset="0" style="stop-color:#A4FFE8"/>
		<stop  offset="1" style="stop-color:#A4FFE8;stop-opacity:0"/>
	</linearGradient>
	
		<path style="opacity:0.5;fill-rule:evenodd;clip-rule:evenodd;fill:url(#SVGID_00000085947409497636695550000013400431785007313324_);" d="
		M15.3,120.1c0,0-14.8,61.5-0.8,77.1c20.1,22.5,102.9-50.5,192.8-81.5s129.9,15.7,137.3,12.7c7.3-3-28-93.2-150.7-101.9
		C71.1,17.8,34.7,72.3,15.3,120.1z"/>
	
		<radialGradient id="SVGID_00000145750076103608265160000008849806031677860501_" cx="179.9997" cy="189.0359" r="173.3747" gradientUnits="userSpaceOnUse">
		<stop  offset="0.8855" style="stop-color:#008BAB;stop-opacity:0"/>
		<stop  offset="1" style="stop-color:#008BAB"/>
	</radialGradient>
	
		<path style="opacity:0.5;fill-rule:evenodd;clip-rule:evenodd;fill:url(#SVGID_00000145750076103608265160000008849806031677860501_);" d="
		M357,167.4c0,105.7-98.9,200-199.1,190.6C52.7,348.1,3,275.1,3,169.3C3,63.6,61.4,19.4,167.1,19.4C272.9,19.4,357,61.6,357,167.4z"
		/>
	<g class="st10">
		
			<radialGradient id="SVGID_00000128474190966763149630000012988655314875590050_" cx="180" cy="189.0309" r="174.7221" gradientUnits="userSpaceOnUse">
			<stop  offset="0.8855" style="stop-color:#008BAB;stop-opacity:0"/>
			<stop  offset="1" style="stop-color:#008BAB"/>
		</radialGradient>
		<path style="fill:url(#SVGID_00000128474190966763149630000012988655314875590050_);" d="M171.8,360c-4.6,0-9.3-0.2-13.9-0.6
			c-100.8-9.5-156.3-77-156.3-190C1.6,67.5,55.8,18.1,167.1,18.1c121.5,0,191.3,54.4,191.3,149.3c0,52.6-24.1,104.7-66.2,143
			C257.1,342.3,213.9,360,171.8,360z M167.1,20.8C57.6,20.8,4.3,69.4,4.3,169.3c0,111.5,54.6,178,153.8,187.3
			c45.7,4.3,93.9-13.3,132.3-48.3c41.5-37.8,65.3-89.2,65.3-141C355.7,74.2,287,20.8,167.1,20.8z"/>
	</g>
	
		<linearGradient id="SVGID_00000111912610436377812550000010136181490805693864_" gradientUnits="userSpaceOnUse" x1="39.0474" y1="71.1286" x2="180.7064" y2="170.3194">
		<stop  offset="0" style="stop-color:#BDFFE8;stop-opacity:0.5"/>
		<stop  offset="1" style="stop-color:#BDFFE8;stop-opacity:0"/>
	</linearGradient>
	
		<path style="opacity:0.5;fill-rule:evenodd;clip-rule:evenodd;fill:url(#SVGID_00000111912610436377812550000010136181490805693864_);" d="
		M13,138c0,0,33.5,53.6,99.8,86.4l59.8-42.7c0,0-40.1-99.3-44.9-153.7C127.8,28.1,18.6,39.7,13,138z"/>
	<path class="st23" d="M15.3,146c6.6,9.4,26.8-13.2,43.8-36.8c17-23.6,26.4-37.4,24-50.9c-2.4-13.5-40.4,10.8-53.9,29.4
		S9.2,137.3,15.3,146z"/>
	<path class="st23" d="M16.3,149.7c0,0-8.8,9.4-3.8,16.8c5,7.5,11.6,2.4,10.6-3C22.1,158.2,20.1,150.7,16.3,149.7z"/>
	<path class="st24" d="M264.9,314.7c0,0-10.7,1.4-18.6,10.5c-7.9,9.2,3.7,7.7,10.2,2.2C263.1,322,265,317.2,264.9,314.7z"/>
	
		<radialGradient id="SVGID_00000083767898687972815030000012826265423654555800_" cx="142.8258" cy="343.6035" r="53.5041" gradientTransform="matrix(0.9766 -0.2149 0.2149 0.9766 -28.1819 27.7872)" gradientUnits="userSpaceOnUse">
		<stop  offset="0" style="stop-color:#2C63D9"/>
		<stop  offset="1" style="stop-color:#2C63D9;stop-opacity:0"/>
	</radialGradient>
	<path style="fill-rule:evenodd;clip-rule:evenodd;fill:url(#SVGID_00000083767898687972815030000012826265423654555800_);" d="
		M258.4,326.4c0,0-77.9,34.3-148.9,2.3C109.6,328.7,160.2,384.1,258.4,326.4z"/>
	
		<radialGradient id="SVGID_00000098901200957140829490000010782449075944542123_" cx="176.2513" cy="52.225" r="102.2706" gradientUnits="userSpaceOnUse">
		<stop  offset="0" style="stop-color:#2C63D9"/>
		<stop  offset="1" style="stop-color:#2C63D9;stop-opacity:0"/>
	</radialGradient>
	<path style="fill-rule:evenodd;clip-rule:evenodd;fill:url(#SVGID_00000098901200957140829490000010782449075944542123_);" d="
		M34.4,80.6c0,0,21.3-40.5,109.7-54.1c88.4-13.6,151.2,27.7,174,49.1c0,0-59.9-48.1-157.9-39.5C62.1,44.6,34.4,80.6,34.4,80.6z"/>
	
		<linearGradient id="SVGID_00000102521170285697955050000013047497680649061033_" gradientUnits="userSpaceOnUse" x1="182.713" y1="300.3317" x2="182.713" y2="100.6734">
		<stop  offset="0" style="stop-color:#BDFFE8"/>
		<stop  offset="1" style="stop-color:#BDFFE8;stop-opacity:0"/>
	</linearGradient>
	
		<path style="opacity:0.5;fill-rule:evenodd;clip-rule:evenodd;fill:url(#SVGID_00000102521170285697955050000013047497680649061033_);" d="
		M318.1,148.2c2.7-18.7,33-25.8,33-25.8c-2.2-8.8-8.4-21.7-8.4-21.7s-11,1.8-47.8,24.4c-36.7,22.6-132.3,107.7-206.8,115.8
		c-74.5,8.1-79.7-13.2-79.7-13.2l2.4,9c0,0,81.9,23.8,70.3,41.1c-14.1,21-55.7-2.3-55.7-2.3l2.3,4.3c0,0,59.9,26.8,154.9,19.2
		c95-7.5,153-47.1,153-47.1c16.8-26.9,21.2-80.3,21.2-80.3S315.3,166.9,318.1,148.2z M144.1,268c-29,7.7-61.2-5.9-62.5-12.8
		c-1.8-9.3,79.4-33.8,88.2-33.1C178.6,222.8,185.3,257,144.1,268z M308,157.8c9.7,0.7,23,17.3,18.6,23.4
		c-4.5,6.2-20.8,14.8-26.8,8.6C293.9,183.5,297.2,157.1,308,157.8z M318.1,257c-17.4,15.7-77.6,29.2-88.5,22.7
		c-13.6-8.1,86.1-96.7,106.6-94.2C356.6,188.2,335.5,241.4,318.1,257z"/>
	
		<linearGradient id="SVGID_00000181051740857356256110000011919106100493185925_" gradientUnits="userSpaceOnUse" x1="57.8394" y1="316.1135" x2="320.9662" y2="316.1135">
		<stop  offset="0" style="stop-color:#BDFFE8"/>
		<stop  offset="1" style="stop-color:#BDFFE8;stop-opacity:0"/>
	</linearGradient>
	
		<path style="opacity:0.5;fill-rule:evenodd;clip-rule:evenodd;fill:url(#SVGID_00000181051740857356256110000011919106100493185925_);" d="
		M57.8,317.7c0,0,28.5,19.8,126.2,9.9c97.6-9.9,137-51.6,137-51.6l-10.8,13.9c0,0-23.5,16.4-56,28.8
		c-32.5,12.4-96.7,11.7-110.1,37.6C144.1,356.3,90.9,348.3,57.8,317.7z"/>
</g>
</svg>
