<?xml version="1.0" encoding="utf-8"?>
<!-- Generator: Adobe Illustrator 26.5.0, SVG Export Plug-In . SVG Version: 6.00 Build 0)  -->
<svg version="1.1" id="Layer_1" xmlns="http://www.w3.org/2000/svg" xmlns:xlink="http://www.w3.org/1999/xlink" x="0px" y="0px"
	 viewBox="0 0 360 360" style="enable-background:new 0 0 360 360;" xml:space="preserve">
<style type="text/css">
	.st0{fill-rule:evenodd;clip-rule:evenodd;fill:url(#SVGID_1_);}
	.st1{fill-rule:evenodd;clip-rule:evenodd;fill:url(#SVGID_00000089548295490092064010000017893878786357665955_);}
	.st2{fill-rule:evenodd;clip-rule:evenodd;fill:url(#SVGID_00000111892436521027084710000001577686291839896238_);}
	.st3{opacity:0.4;}
	.st4{opacity:0.3;fill-rule:evenodd;clip-rule:evenodd;}
	.st5{fill-rule:evenodd;clip-rule:evenodd;fill:url(#SVGID_00000034800794617563885590000014921611007598423989_);}
	.st6{fill-rule:evenodd;clip-rule:evenodd;fill:url(#SVGID_00000131358220522586563120000006708990773884287384_);}
	.st7{fill-rule:evenodd;clip-rule:evenodd;fill:url(#SVGID_00000024688638014202005030000003839355928269523621_);}
	.st8{fill-rule:evenodd;clip-rule:evenodd;fill:url(#SVGID_00000121268236625008015560000009723357338820022193_);}
	.st9{fill-rule:evenodd;clip-rule:evenodd;fill:url(#SVGID_00000107580093625889190630000009636631145914240930_);}
	.st10{fill-rule:evenodd;clip-rule:evenodd;fill:url(#SVGID_00000148652107894405246120000000236220283333551026_);}
	.st11{fill-rule:evenodd;clip-rule:evenodd;fill:url(#SVGID_00000139253428431326829850000009253520039210499200_);}
	.st12{fill-rule:evenodd;clip-rule:evenodd;fill:#004A59;}
	.st13{fill-rule:evenodd;clip-rule:evenodd;fill:url(#SVGID_00000083786417820435549100000009568476256068277690_);}
	.st14{fill-rule:evenodd;clip-rule:evenodd;fill:url(#SVGID_00000148633511281988551320000004526686179262449596_);}
	.st15{fill-rule:evenodd;clip-rule:evenodd;fill:#00777A;}
	.st16{fill-rule:evenodd;clip-rule:evenodd;fill:url(#SVGID_00000091699680961874775060000014797026672643434137_);}
	.st17{fill-rule:evenodd;clip-rule:evenodd;fill:#006D7A;}
	.st18{fill-rule:evenodd;clip-rule:evenodd;fill:url(#SVGID_00000173131042886708839210000014689458423667324544_);}
	.st19{fill-rule:evenodd;clip-rule:evenodd;fill:url(#SVGID_00000169516219780252573270000000108542296944350892_);}
	.st20{fill-rule:evenodd;clip-rule:evenodd;fill:url(#SVGID_00000066495044263333033360000017437819167683111849_);}
	.st21{fill-rule:evenodd;clip-rule:evenodd;fill:url(#SVGID_00000031898544185674060580000007119281113197227142_);}
	.st22{fill-rule:evenodd;clip-rule:evenodd;fill:url(#SVGID_00000147189823202864244320000018082763363374157235_);}
	.st23{fill-rule:evenodd;clip-rule:evenodd;fill:url(#SVGID_00000122707406694999047200000007995253477481867915_);}
	.st24{fill-rule:evenodd;clip-rule:evenodd;fill:url(#SVGID_00000154393379992315257510000011869920213702444969_);}
	.st25{fill-rule:evenodd;clip-rule:evenodd;fill:url(#SVGID_00000146479484265491366150000005276771101615674784_);}
	.st26{fill-rule:evenodd;clip-rule:evenodd;fill:url(#SVGID_00000080178671867326707840000012621321502570769301_);}
	.st27{fill-rule:evenodd;clip-rule:evenodd;fill:url(#SVGID_00000176735327630272042280000017237368158273765015_);}
	.st28{fill-rule:evenodd;clip-rule:evenodd;fill:url(#SVGID_00000065048944917472973740000004606316125609420674_);}
	.st29{fill-rule:evenodd;clip-rule:evenodd;fill:url(#SVGID_00000154394650573104814200000010035841989790215309_);}
	.st30{fill-rule:evenodd;clip-rule:evenodd;fill:url(#SVGID_00000067210223827828836370000015097203996836784559_);}
	.st31{fill-rule:evenodd;clip-rule:evenodd;fill:url(#SVGID_00000026150223381936373010000016984411332622810538_);}
	.st32{fill-rule:evenodd;clip-rule:evenodd;fill:url(#SVGID_00000150786171315954217800000017388130233565263527_);}
	.st33{fill-rule:evenodd;clip-rule:evenodd;fill:url(#SVGID_00000158731595197667566940000004384963527021545640_);}
	.st34{fill-rule:evenodd;clip-rule:evenodd;fill:url(#SVGID_00000155839598718389653280000014985139679667709089_);}
	.st35{fill-rule:evenodd;clip-rule:evenodd;fill:#FFFF8D;}
	.st36{fill-rule:evenodd;clip-rule:evenodd;fill:url(#SVGID_00000148639776334095773550000012092500510890597033_);}
	.st37{fill-rule:evenodd;clip-rule:evenodd;fill:url(#SVGID_00000178902818160473530150000008573926018802731951_);}
	.st38{fill-rule:evenodd;clip-rule:evenodd;fill:url(#SVGID_00000134232002574464904580000012804104421562160262_);}
	.st39{fill-rule:evenodd;clip-rule:evenodd;fill:url(#SVGID_00000043439697994687218980000000584612706775664005_);}
	.st40{fill-rule:evenodd;clip-rule:evenodd;fill:url(#SVGID_00000051373199337077295470000017765264737013206954_);}
	.st41{fill-rule:evenodd;clip-rule:evenodd;fill:url(#SVGID_00000140716808385140418500000002710285721890614436_);}
	.st42{fill-rule:evenodd;clip-rule:evenodd;fill:url(#SVGID_00000091704941673104314600000012123023758433563559_);}
	.st43{fill-rule:evenodd;clip-rule:evenodd;fill:url(#SVGID_00000044160243783977375550000000330600587413453245_);}
</style>
<g>
	<radialGradient id="SVGID_1_" cx="180" cy="180" r="179.9999" gradientUnits="userSpaceOnUse">
		<stop  offset="5.586590e-03" style="stop-color:#00FF00;stop-opacity:0.5"/>
		<stop  offset="1" style="stop-color:#00FF00;stop-opacity:0"/>
	</radialGradient>
	<circle class="st0" cx="180" cy="180" r="180"/>
	
		<radialGradient id="SVGID_00000049909592602234807520000010904038637774742692_" cx="188.7301" cy="183.4422" r="139.6588" gradientUnits="userSpaceOnUse">
		<stop  offset="2.793300e-02" style="stop-color:#00FFA9;stop-opacity:0.5"/>
		<stop  offset="0.9979" style="stop-color:#00FFA9;stop-opacity:1.091748e-03"/>
		<stop  offset="1" style="stop-color:#00FFA9;stop-opacity:0"/>
	</radialGradient>
	
		<circle style="fill-rule:evenodd;clip-rule:evenodd;fill:url(#SVGID_00000049909592602234807520000010904038637774742692_);" cx="188.7" cy="183.4" r="139.7"/>
	
		<radialGradient id="SVGID_00000044895416629788227560000005654481911482883720_" cx="106.265" cy="120.7935" r="199.8234" gradientUnits="userSpaceOnUse">
		<stop  offset="5.586590e-03" style="stop-color:#0CC463"/>
		<stop  offset="0.2058" style="stop-color:#0CC163"/>
		<stop  offset="0.3613" style="stop-color:#0BB765"/>
		<stop  offset="0.5018" style="stop-color:#09A767"/>
		<stop  offset="0.6334" style="stop-color:#078F6B"/>
		<stop  offset="0.7576" style="stop-color:#04726F"/>
		<stop  offset="0.8715" style="stop-color:#004F74"/>
	</radialGradient>
	<path style="fill-rule:evenodd;clip-rule:evenodd;fill:url(#SVGID_00000044895416629788227560000005654481911482883720_);" d="
		M307.7,179c0,11.9-1.7,23.5-4.9,34.4c-6.3,22-18.5,41.4-34.8,56.6c-11.7,10.9-25.4,19.5-40.6,25.3c-13.7,5.2-28.6,8.1-44.2,8.1
		c-2.2,0-4.4-0.1-6.6-0.2h0c-3.3-0.2-6.5-0.5-9.7-0.9c-24-3.2-45.8-13.1-63.5-28c-6.6-5.5-12.7-11.8-18-18.6
		c-4-5.1-7.7-10.6-10.9-16.3c-0.8-1.4-1.5-2.8-2.2-4.1c0-0.1,0-0.1-0.1-0.1c-0.8-1.5-1.5-3-2.2-4.5c0,0,0,0,0,0
		c-2.2-4.8-4-9.7-5.6-14.7c-1.2-3.6-2.1-7.4-2.9-11.1c0,0,0-0.1,0-0.1c-0.6-2.7-1-5.3-1.4-8c-0.8-5.8-1.3-11.7-1.3-17.6
		c0-3.4,0.1-6.9,0.4-10.2c0.2-2.2,0.4-4.3,0.7-6.4c1.6-12.2,5-23.9,10-34.7c2.4-5.3,5.2-10.5,8.3-15.4c5.2-8.2,11.3-15.7,18.3-22.5
		c22.4-21.8,53-35.2,86.7-35.2c1.3,0,2.6,0,3.9,0.1c1.4,0.1,2.8,0.1,4.2,0.2c7.1,0.5,14.1,1.5,20.9,3.2c3.9,0.9,7.8,2,11.6,3.4
		c2.6,0.9,5.1,1.8,7.6,2.9c1.9,0.8,3.7,1.6,5.5,2.5c0.3,0.2,0.6,0.3,0.9,0.4c12.1,5.9,23,13.7,32.5,23c1.4,1.3,2.7,2.7,4,4.1
		c0.9,0.9,1.7,1.9,2.6,2.9c1.4,1.6,2.8,3.3,4.2,5c5,6.3,9.3,13.1,13,20.3c4.3,8.3,7.6,17.3,9.9,26.6
		C306.4,158.6,307.7,168.6,307.7,179z"/>
	<g class="st3">
		<path class="st4" d="M90.2,123.3c-2.4,4.8-4.2,8.8-4.6,14.1c-0.3,3.9-1,7.6-0.6,11.6c0.4,4.1,2,7.7,3.3,11.5
			c1.5,4.6,3.9,8.9,7.3,12.4c6,5.9,14.4,6,21.4,2.1c3.6-2,6.6-4.6,10.4-6.3c5.2-2.3,10.2-4.5,13.8-9.2c4-5.1,5.5-11.1,6.1-17.4
			c0.4-3.8,0.9-7.4,0.1-11.2c-0.7-3-1.9-6.1-3.4-8.7c-1.2-2-2.5-4.1-3.9-5.9c-2.1-2.7-4.4-3.6-7.4-5c-1.8-0.8-3.3-1.8-5.4-1.9
			c-2.3-0.1-4.9-0.1-7.2,0.2c-2.7,0.3-5.2,1.4-7.8,2.2c-2.5,0.8-5,1.3-7.4,2.3c-2.4,1-4.7,1.8-7.2,2.5c-3.2,0.9-5.8,1.8-8.2,4.2
			c-0.6,0.6-1.5,1.3-2,1.9C86.6,123.9,86.9,125.2,90.2,123.3z"/>
		<path class="st4" d="M135.3,176.4c0.7-2.3,1.1-6.7,3.4-8.3c0.9-0.7,2.2-1.2,3.3-1.5c1.8-0.4,3.1,0.2,4.6,1c3.9,2.1,3.2,8.2,1,11.5
			c-1.9,2.8-6.6,5.3-9.6,3c-2.1-1.6-3.3-4.9-2.5-7.5c0.2,0,0.4-0.1,0.6-0.1L135.3,176.4z"/>
		<path class="st4" d="M210.3,214.2c-0.2,2.5-0.9,6.2-0.5,8.9c0.4,2.6,0.9,5.1,1.5,7.7c1.1,4.5,2.8,9.7,7.6,11.4
			c4.3,1.5,9.4,0.1,13.5-1.6c4.3-1.8,9.2-3.1,13.1-5.8c3.9-2.6,7.7-5.9,10.6-9.5c3.2-4,4.5-7.6,4.7-12.8c0.2-7.4-2.9-13.9-6.7-20.1
			c-4.2-6.8-11.9-8.8-19.3-6.2c-6.2,2.2-9.4,8.9-13.9,13.3c-1.4,1.4-2.5,3-4,4.1c-1.7,1.3-2.4,2.7-3.5,4.5c-0.9,1.4-2,2.3-2.7,3.9
			C209.9,214.2,210.3,216.6,210.3,214.2z"/>
		<path class="st4" d="M267.3,210.2c0.4-0.6,3.3-7,6-6.7c1.3,0.1,2.3,1.5,2.9,2.6c1,1.7,1.8,3.2,0.5,5.1c-1.6,2.4-8.3,4.2-8.8-0.2
			c-0.2,0-0.4-0.1-0.5-0.1V210.2z"/>
		<path class="st4" d="M166.1,77.5c0.4-0.6,3.3-7,6-6.7c1.3,0.1,2.3,1.5,2.9,2.6c1,1.7,1.8,3.2,0.5,5.1c-1.6,2.4-8.3,4.2-8.8-0.2
			c-0.2,0-0.4-0.1-0.5-0.1V77.5z"/>
		<path class="st4" d="M235.2,171.2c0.4-0.6,3.3-7,6-6.7c1.3,0.1,2.3,1.5,2.9,2.6c1,1.7,1.8,3.2,0.5,5.1c-1.6,2.4-8.3,4.2-8.8-0.2
			c-0.2,0-0.4-0.1-0.5-0.1V171.2z"/>
		<path class="st4" d="M218.2,140.6c-1.5,4-3.3,6.5-2.1,10.2c0.6,1.8,0.9,3.8,1.4,5.6c1,3.6,3.8,5.8,6.4,8.4
			c3.3,3.4,6.3,4.4,10.8,2.3c1.5-0.7,2.8-1.7,4.1-2.7c2-1.5,2.8-2.5,4-4.7c1-2,1.3-3.8,2.1-5.8c0.8-2.2,1.8-3.9,1.9-6.4
			c0.1-2.3,0.2-4.9-0.4-7.1c-0.8-2.9-2.3-5.4-3.9-7.9c-1.4-2.2-3-4.3-5-6c-1.7-1.4-3.9-1.3-6-1.8c-3.6-0.8-8.9,2.2-10.8,5.1
			C218,134.1,216.5,138.9,218.2,140.6z"/>
		<path class="st4" d="M209.6,164.4c0.4,2.8,1.3,5.5,2.8,7.8c0.5-0.4,1.2-0.6,1.8-0.7c0-0.8,0.7-1.1,0.8-1.8c0.2-0.8,0-1.9,0-2.7
			c0-1.5-0.5-2.7-1-4c-0.4-1.1-1-2.9-2.3-2.7C208.9,160.9,209.2,163,209.6,164.4L209.6,164.4z"/>
		<path class="st4" d="M85.2,244c0.2,2.3,0.1,4.2,1.3,6.1c1.2,1.9,2.8,3.6,4.3,5.3c1.1,1.1,3,3.4,4.8,2.4c1.5-0.8,2-3.8,1.8-5.3
			c-0.1-1.2-0.6-2.5-0.9-3.7c-0.3-1.4-0.9-2.7-1.7-3.8c-1.4-2-4.6-5.6-7.4-3.9c-0.8,0.5-1.6,0.9-2,1.7
			C85.1,243.6,85.2,244.4,85.2,244z"/>
		<path class="st4" d="M147.7,234.1c-0.4-1.2-0.8-2.4-0.9-3.6c-0.2-0.4-0.1-0.7,0.2-1c0.4-1.3,0.9-2.6,1.5-3.8
			c1.2-2.2,2.6-4.6,4.8-5.9c0.8-0.5,1.6-0.6,2.5-0.8c0.9-0.2,1.8-0.6,2.7-0.7c1.6-0.3,3.4,0.1,4.9,0.5c1.7,0.5,3.8,1,5.4,1.8
			c1.5,0.8,2.4,2.3,3.3,3.7c1.9,2.8,2.7,6.9,0,9.6c-0.7,0.8-1.6,1.3-2.5,1.9c-0.9,0.6-1.8,1.4-2.8,1.9c-1.2,0.6-2.7,0.8-4,1
			c-2.5,0.5-5.1,0.5-7.6-0.2C152.8,237.7,150.9,235.9,147.7,234.1z"/>
	</g>
	
		<linearGradient id="SVGID_00000087393176334938838540000007684755341694725794_" gradientUnits="userSpaceOnUse" x1="268.3701" y1="204.4241" x2="268.3701" y2="134.7606">
		<stop  offset="0" style="stop-color:#007C6F"/>
		<stop  offset="0.6647" style="stop-color:#29D73B"/>
		<stop  offset="0.9888" style="stop-color:#3BFF24"/>
	</linearGradient>
	<path style="fill-rule:evenodd;clip-rule:evenodd;fill:url(#SVGID_00000087393176334938838540000007684755341694725794_);" d="
		M255.6,134.8c0,0-6.7,12.1-3.1,33.8c7.9,48.2,34.4,40.9,32.7,18.5L255.6,134.8z"/>
	
		<radialGradient id="SVGID_00000054230699844892251620000015225041128106247561_" cx="32.5738" cy="280.7196" r="26.8511" gradientTransform="matrix(1.6545 0.2028 -0.1526 1.2446 165.6351 -104.0409)" gradientUnits="userSpaceOnUse">
		<stop  offset="0" style="stop-color:#00FF00"/>
		<stop  offset="1" style="stop-color:#00FF00;stop-opacity:0"/>
	</radialGradient>
	<path style="fill-rule:evenodd;clip-rule:evenodd;fill:url(#SVGID_00000054230699844892251620000015225041128106247561_);" d="
		M221.1,257.4c-2.3,18.5-24,31-48.5,28c-24.5-3-42.6-20.4-40.3-38.9c2.3-18.5,24-31,48.5-28C205.3,221.5,223.4,238.9,221.1,257.4z"
		/>
	
		<linearGradient id="SVGID_00000088123786535414316440000012001962702964154755_" gradientUnits="userSpaceOnUse" x1="58.9079" y1="144.85" x2="237.8521" y2="144.85">
		<stop  offset="1.117320e-02" style="stop-color:#92FF2C"/>
		<stop  offset="0.2325" style="stop-color:#8FFC2D"/>
		<stop  offset="0.3947" style="stop-color:#86F332"/>
		<stop  offset="0.5382" style="stop-color:#76E33A"/>
		<stop  offset="0.6707" style="stop-color:#5FCD44"/>
		<stop  offset="0.7958" style="stop-color:#42B152"/>
		<stop  offset="0.9136" style="stop-color:#1F8E63"/>
		<stop  offset="1" style="stop-color:#007072"/>
	</linearGradient>
	<path style="fill-rule:evenodd;clip-rule:evenodd;fill:url(#SVGID_00000088123786535414316440000012001962702964154755_);" d="
		M237.9,67.2c-0.4,0-0.8,0.1-1.2,0.2c-1.4,0.3-2.5,0.1-3.9-0.3c-1-0.3-1.7-0.7-2.8-0.9c-1.5-0.2-2.9-0.9-4.4-1.1
		c-1.6-0.2-3-0.8-4.5-1.4c-1.2-0.4-1.8-0.3-3,0c-1.1,0.3-1.9-0.2-3-0.6c-1.1-0.5-2.3-0.6-3.5-0.8c-3.2-0.6-6.3-1.7-9.4-2.5
		c-1.9-0.5-3.7-0.5-5.7-0.5c-1.6,0-3,0.4-4.5,0.4c-1,0-1.9-0.2-3-0.3c-1.1-0.2-2.1,0-3.2-0.1c-1.6-0.2-2.4-0.5-4,0
		c-1.2,0.4-2.1,0.3-3.3,0.4c-1.3,0.1-2.8,0.4-4.1,0.7c-2.3,0.5-4.9,1-7.3,0.9c-1.5,0-3.6-0.4-5,0.1c-0.9,0.3-1.4,1.3-2,1.9
		c-1.2,1.3-2.7,2.4-3.7,3.8c-1,1.4-2.2,2.8-2.1,4.6c0.1,1.5,0.8,3.3,1.5,4.7c0.7,1.5,0.9,2.8-0.6,3.8c-1.9,1.3-4.1,2.4-6.3,3.1
		c-1.5,0.4-2.8,0.7-4-0.4c-0.5-0.4-0.7-1.1-1.3-1.4c-0.6-0.3-1.2,0-1.8,0.2c-1.6,0.5-3.1,1-4.6,1.2c-1,0.2-1.8,0.7-2.8,0.8
		c-1.1,0.2-2-0.6-3.2-0.3c-1.7,0.4-3.3,1.1-5,1.2c-1.2,0.1-2.8-0.5-3.8-1.1c-0.6-0.3-0.8-0.7-1.4-0.5c-0.6,0.1-1.4,0.8-1.7,1.3
		c-0.4,0.6-0.6,1.3-1,1.9c-0.4,0.7-0.8,1.3-1.2,2c-0.7,1.4-1.6,2.7-2.5,3.9c-0.6,0.9-1.1,2-1.8,2.8c-0.4,0.4-1.2,0.7-1.6,1.1
		c-1.3,0.9-2.7,1.7-3.9,2.7c-2.4,1.9-4.7,4-7.2,5.8c-1.9,1.4-4.5,2.2-6.6,3.1c-1.3,0.5-2.7,0.9-4.1,1.5c-0.4,0.2-1.2,0.4-1.6,0.7
		c-0.5,0.4-0.7,1.2-1.2,1.7c-1.2,1.4-2.4,2.8-3.3,4.5c-0.5,0.9-0.9,1.9-1.2,3c-0.5,1.4-1.2,2.7-1.7,4.1c-1,2.9-1.2,6-2.2,8.9
		c-0.6,1.7-1.5,3.3-2.3,4.8c-1.3,2.6-1.5,5.8-1.9,8.7c-0.2,1.7-0.1,3.7,0.2,5.3c0.3,1.8,0.2,3.6,0.2,5.5c0,1.9-1.3,3.8-2.5,5.3
		c-1.1,1.4-2.8,1.9-4.1,3.1c-1.1,1-2.3,2.2-2.8,3.7c-0.2,0.6,0,1.4-0.1,2.1c-0.3,1.5-0.7,3-0.9,4.5c-0.2,1.9-0.3,3.7-0.3,5.7
		c0,1-0.1,2,0,2.9c0,0.9,0.4,1.8,0.5,2.7c0,0.6-0.1,1.3,0,1.9c0.1,0.7,0.4,1.5,0.6,2.2c0.4,1.7,0.8,3.4,1.1,5.1
		c0.3,1.6,0.9,3.2,1.4,4.7c0.7,2.1,1.1,4.3,1.6,6.5c0.3,1.6,0.3,3.3,0.5,5c0.2,1.3,0.5,2.7,0.6,4c0.1,2-0.4,4.1-0.5,6.1
		c0,3.5,1.4,6.9,2.2,10.2c0.2,0.9,0.5,1.9,0.7,2.8c-8.5-16.9-13.4-35.9-13.4-56.1c0-24.6,7.1-47.4,19.4-66.7
		c5.2-8.2,11.3-15.7,18.3-22.4c22.4-21.8,53-35.2,86.7-35.2c2.7,0,5.4,0.1,8.1,0.3C208,55.9,223.7,60.2,237.9,67.2z"/>
	
		<radialGradient id="SVGID_00000134249522690772404380000012481565419808020415_" cx="-54.5706" cy="139.1029" r="10.2872" gradientTransform="matrix(2.394 1.3822 -0.7113 1.232 454.5608 24.717)" gradientUnits="userSpaceOnUse">
		<stop  offset="0" style="stop-color:#00FF00"/>
		<stop  offset="1" style="stop-color:#00FF00;stop-opacity:0"/>
	</radialGradient>
	<path style="fill-rule:evenodd;clip-rule:evenodd;fill:url(#SVGID_00000134249522690772404380000012481565419808020415_);" d="
		M249.6,134.9c-4,7-18.3,6.3-31.9-1.5c-13.6-7.9-21.4-19.9-17.3-26.9c4-7,18.3-6.3,31.9,1.5C245.9,115.8,253.6,127.9,249.6,134.9z"
		/>
	
		<radialGradient id="SVGID_00000158026023240644119360000004600664380678286237_" cx="268.4097" cy="241.8375" r="17.8606" gradientUnits="userSpaceOnUse">
		<stop  offset="1.117320e-02" style="stop-color:#3BFF24"/>
		<stop  offset="0.5336" style="stop-color:#26D832"/>
		<stop  offset="1" style="stop-color:#11B140"/>
	</radialGradient>
	<path style="fill-rule:evenodd;clip-rule:evenodd;fill:url(#SVGID_00000158026023240644119360000004600664380678286237_);" d="
		M277.3,222.3c0,0-12.4,0.2-22.5,12.8c-10.1,12.6-10,23.8-8.6,27.6C247.7,266.5,277.3,222.3,277.3,222.3z"/>
	
		<radialGradient id="SVGID_00000061470841046448047270000018315296032666520990_" cx="-81.2665" cy="136.3711" r="18.3952" gradientTransform="matrix(0.2225 1.652 -1.4099 0.1899 471.7395 274.5295)" gradientUnits="userSpaceOnUse">
		<stop  offset="0" style="stop-color:#00FF00"/>
		<stop  offset="1" style="stop-color:#00FF00;stop-opacity:0"/>
	</radialGradient>
	<path style="fill-rule:evenodd;clip-rule:evenodd;fill:url(#SVGID_00000061470841046448047270000018315296032666520990_);" d="
		M265.5,196.6c-14.3,1.9-27.8-10.1-30-26.9c-2.3-16.8,7.5-32,21.8-33.9c14.3-1.9,27.8,10.1,30,26.9
		C289.6,179.5,279.8,194.6,265.5,196.6z"/>
	
		<radialGradient id="SVGID_00000074429473665355216550000014812940297597813666_" cx="92.399" cy="94.3054" r="163.7347" gradientUnits="userSpaceOnUse">
		<stop  offset="0" style="stop-color:#FFFF4A"/>
		<stop  offset="1" style="stop-color:#FFFF4A;stop-opacity:0"/>
	</radialGradient>
	<path style="fill-rule:evenodd;clip-rule:evenodd;fill:url(#SVGID_00000074429473665355216550000014812940297597813666_);" d="
		M109.5,276.1C96.7,265.4,86,252,78.4,236.9c-4.8-9.5-8.4-19.7-10.7-30.4c0,0,0-0.1,0-0.1c-1.7-8.3-2.7-16.9-2.7-25.7
		c0-24.6,7.1-47.4,19.4-66.7c5.2-8.2,11.3-15.7,18.3-22.4c22.4-21.8,53-35.2,86.7-35.2c2.7,0,5.4,0.1,8.1,0.3
		c8.4,0.5,16.6,1.9,24.5,4.1c-9.7-3.2-20-5.2-30.6-5.9c-2.7-0.2-5.4-0.3-8.1-0.3c-33.7,0-64.3,13.4-86.7,35.2
		c-6.9,6.7-13.1,14.2-18.3,22.4C66,131.5,58.9,154.4,58.9,179c0,8.8,0.9,17.4,2.7,25.7c0,0,0,0.1,0,0.1c2.2,10.7,5.9,20.9,10.7,30.4
		c7.7,15.1,18.3,28.4,31.2,39.2c13.6,11.4,29.7,20,47.4,24.7C135.5,294.1,121.6,286.2,109.5,276.1z"/>
	<path class="st12" d="M265.7,272.1c0,0-14.2,3.4-18.9-7.2c-4.7-10.6,13.3-38.5,27.8-42.1c14.5-3.6,17.3,13.4,17.3,13.4L265.7,272.1
		z"/>
	
		<radialGradient id="SVGID_00000119113941167949345650000012991744757802268545_" cx="233.346" cy="101.7648" r="26.2124" gradientUnits="userSpaceOnUse">
		<stop  offset="1.675980e-02" style="stop-color:#B0FF24"/>
		<stop  offset="0.2859" style="stop-color:#88F72B"/>
		<stop  offset="0.8869" style="stop-color:#25E43D"/>
		<stop  offset="1" style="stop-color:#11E040"/>
	</radialGradient>
	<path style="fill-rule:evenodd;clip-rule:evenodd;fill:url(#SVGID_00000119113941167949345650000012991744757802268545_);" d="
		M180,77.2c0,0,5.8,19.6,26.6,34.3c33.5,23.8,47.4,15.2,47.4,15.2L180,77.2z"/>
	<path class="st12" d="M225.6,294.2c0,0,14.4-7.6,14.7-17.9c0.3-10.3-21.8-24.3-64.8-30.5c-39.4-5.7-69.6,3-71.5,10.6
		c-2,7.6,8.3,26.2,29.2,35.5C154.1,301.2,214.9,299.4,225.6,294.2z"/>
	
		<radialGradient id="SVGID_00000016755105294176250970000012186236881073075612_" cx="185.5378" cy="120.3727" r="10.6639" gradientUnits="userSpaceOnUse">
		<stop  offset="1.675980e-02" style="stop-color:#B0FF24"/>
		<stop  offset="0.2859" style="stop-color:#88F72B"/>
		<stop  offset="0.8869" style="stop-color:#25E43D"/>
		<stop  offset="1" style="stop-color:#11E040"/>
	</radialGradient>
	<path style="fill-rule:evenodd;clip-rule:evenodd;fill:url(#SVGID_00000016755105294176250970000012186236881073075612_);" d="
		M156.7,113.1c0,0,8.8,13.9,22.4,15.1c13.6,1.2,17.6-9.5,17.6-9.5S165.7,118.4,156.7,113.1z"/>
	<path class="st15" d="M150.9,102.1c0,0,4.7,17.8,23.2,22.6c20.3,5.2,26.3-8.1,23.3-15.4S170.5,90.8,150.9,102.1z"/>
	
		<radialGradient id="SVGID_00000093164966103121979310000016800921603127641492_" cx="144.9333" cy="80.49" r="16.0459" gradientUnits="userSpaceOnUse">
		<stop  offset="1.675980e-02" style="stop-color:#B0FF24"/>
		<stop  offset="0.2859" style="stop-color:#88F72B"/>
		<stop  offset="0.8869" style="stop-color:#25E43D"/>
		<stop  offset="1" style="stop-color:#11E040"/>
	</radialGradient>
	<path style="fill-rule:evenodd;clip-rule:evenodd;fill:url(#SVGID_00000093164966103121979310000016800921603127641492_);" d="
		M111.1,96.1c0,0,12.8,2.4,31.6-8.8c18.8-11.2,14.9-21.5,14.9-21.5L111.1,96.1z"/>
	<path class="st15" d="M106.6,87.9c0,0-4.8,6.6,4.5,8.2c9.3,1.6,40.6-13.7,46.4-25.4C163.3,59.1,132.9,52.6,106.6,87.9z"/>
	<path class="st17" d="M189.7,63.8c0,0-12.3,2.1-13,8.5c-0.7,6.4,19.5,32,41.5,45.5s43.4,9,46.8,5.6
		C268.2,120.1,236.2,67.1,189.7,63.8z"/>
	<path class="st12" d="M275.8,136.9c0,0-11.7-12.3-21-7.7c-7.7,3.8-4.4,41.4,3.6,55.7c8,14.3,18.2,13,22.2,9.9
		C284.6,191.7,285.4,149.7,275.8,136.9z"/>
	<path class="st12" d="M275,109.3c0,0-3.6-1.1-6,2.3c-2.4,3.5,14.2,27.1,21.2,29.9c7,2.8,8.4-7.2,8.4-7.2L275,109.3z"/>
	
		<radialGradient id="SVGID_00000074424725889874506850000008752536546552845194_" cx="223.4424" cy="104.9241" r="37.6116" gradientUnits="userSpaceOnUse">
		<stop  offset="1.117320e-02" style="stop-color:#00FF24"/>
		<stop  offset="0.1859" style="stop-color:#28FF1E"/>
		<stop  offset="0.5798" style="stop-color:#8DFF10"/>
		<stop  offset="1" style="stop-color:#FFFF00"/>
	</radialGradient>
	<path style="fill-rule:evenodd;clip-rule:evenodd;fill:url(#SVGID_00000074424725889874506850000008752536546552845194_);" d="
		M186,71.9c-5.5,9.4,44.4,62.8,74.6,52.7c6-2,9.2-41.2-10.9-59.8C233,49.4,197,53.3,186,71.9z"/>
	
		<radialGradient id="SVGID_00000165234149863298274550000004652078761013811124_" cx="261.2453" cy="170.3029" r="25.5362" gradientUnits="userSpaceOnUse">
		<stop  offset="1.117320e-02" style="stop-color:#00FF24"/>
		<stop  offset="0.1859" style="stop-color:#28FF1E"/>
		<stop  offset="0.5798" style="stop-color:#8DFF10"/>
		<stop  offset="1" style="stop-color:#FFFF00"/>
	</radialGradient>
	<path style="fill-rule:evenodd;clip-rule:evenodd;fill:url(#SVGID_00000165234149863298274550000004652078761013811124_);" d="
		M260.7,135.2c-9,3.8-7.6,43.8,3.6,55.4c11.3,11.6,28.5-5.3,30.2-22.9C296.2,150.2,274.9,129.3,260.7,135.2z"/>
	
		<radialGradient id="SVGID_00000111162643243092944330000004846763729748881053_" cx="283.0042" cy="127.6565" r="15.3671" gradientUnits="userSpaceOnUse">
		<stop  offset="1.117320e-02" style="stop-color:#00FF24"/>
		<stop  offset="0.1859" style="stop-color:#28FF1E"/>
		<stop  offset="0.5798" style="stop-color:#8DFF10"/>
		<stop  offset="1" style="stop-color:#FFFF00"/>
	</radialGradient>
	<path style="fill-rule:evenodd;clip-rule:evenodd;fill:url(#SVGID_00000111162643243092944330000004846763729748881053_);" d="
		M272.3,113.8c-0.5,8.1,16.9,25.6,22.3,23.8c5.4-1.8,10.5-14.7,6.9-23.8C297.8,104.7,272.9,103.9,272.3,113.8z"/>
	
		<radialGradient id="SVGID_00000082340025109278241580000013895297778861822596_" cx="168.7817" cy="292.954" r="57.0932" gradientUnits="userSpaceOnUse">
		<stop  offset="1.117320e-02" style="stop-color:#00FF24"/>
		<stop  offset="0.1859" style="stop-color:#28FF1E"/>
		<stop  offset="0.5798" style="stop-color:#8DFF10"/>
		<stop  offset="1" style="stop-color:#FFFF00"/>
	</radialGradient>
	<path style="fill-rule:evenodd;clip-rule:evenodd;fill:url(#SVGID_00000082340025109278241580000013895297778861822596_);" d="
		M113.9,252.3c-23.4,6,15.4,51.9,48.6,58c38.8,7.1,74.1-19.1,74.8-33.6C237.9,262.3,157.7,241,113.9,252.3z"/>
	
		<radialGradient id="SVGID_00000017495044302576695860000010857590657196127909_" cx="271.1621" cy="258.2372" r="21.8941" gradientUnits="userSpaceOnUse">
		<stop  offset="1.117320e-02" style="stop-color:#00FF24"/>
		<stop  offset="0.1859" style="stop-color:#28FF1E"/>
		<stop  offset="0.5798" style="stop-color:#8DFF10"/>
		<stop  offset="1" style="stop-color:#FFFF00"/>
	</radialGradient>
	<path style="fill-rule:evenodd;clip-rule:evenodd;fill:url(#SVGID_00000017495044302576695860000010857590657196127909_);" d="
		M250.5,264.3c-4.3-10.3,20.4-42.5,31.8-38.7c11.4,3.8,18.9,30.5,3.5,41.4C276.6,273.6,255,275,250.5,264.3z"/>
	
		<radialGradient id="SVGID_00000124854308477622460580000013973841235774983095_" cx="129.527" cy="81.7216" r="23.1753" gradientUnits="userSpaceOnUse">
		<stop  offset="1.117320e-02" style="stop-color:#00FF24"/>
		<stop  offset="0.1859" style="stop-color:#28FF1E"/>
		<stop  offset="0.5798" style="stop-color:#8DFF10"/>
		<stop  offset="1" style="stop-color:#FFFF00"/>
	</radialGradient>
	<path style="fill-rule:evenodd;clip-rule:evenodd;fill:url(#SVGID_00000124854308477622460580000013973841235774983095_);" d="
		M111.6,93.6c11.4,2.5,38.5-16.3,43.5-25.3c4.9-9-20.4-20.9-37.4-12.1C105.6,62.4,101.4,91.4,111.6,93.6z"/>
	
		<radialGradient id="SVGID_00000127744464674521988720000000726104627913916310_" cx="172.9474" cy="113.0072" r="21.202" gradientUnits="userSpaceOnUse">
		<stop  offset="1.117320e-02" style="stop-color:#00FF24"/>
		<stop  offset="0.1859" style="stop-color:#28FF1E"/>
		<stop  offset="0.5798" style="stop-color:#8DFF10"/>
		<stop  offset="1" style="stop-color:#FFFF00"/>
	</radialGradient>
	<path style="fill-rule:evenodd;clip-rule:evenodd;fill:url(#SVGID_00000127744464674521988720000000726104627913916310_);" d="
		M155.7,93.8c-12.8,5.9,1.7,22.6,16.4,27.5s27.6-4,25.1-13.7C194.7,97.8,178.3,83.3,155.7,93.8z"/>
	
		<radialGradient id="SVGID_00000067227823033522210710000017977637222892554646_" cx="169.6039" cy="252.8858" r="41.3395" gradientUnits="userSpaceOnUse">
		<stop  offset="1.117320e-02" style="stop-color:#3BFF24"/>
		<stop  offset="0.5336" style="stop-color:#26D832"/>
		<stop  offset="1" style="stop-color:#11B140"/>
	</radialGradient>
	<path style="fill-rule:evenodd;clip-rule:evenodd;fill:url(#SVGID_00000067227823033522210710000017977637222892554646_);" d="
		M123.3,244.9c0,0,49.2-7.1,97.4,13.2C220.7,258.1,175.4,230.2,123.3,244.9z"/>
	
		<radialGradient id="SVGID_00000052084556833380264340000004540610078121302199_" cx="280.7064" cy="125.3811" r="10.2402" gradientUnits="userSpaceOnUse">
		<stop  offset="1.117320e-02" style="stop-color:#3BFF24"/>
		<stop  offset="0.5336" style="stop-color:#26D832"/>
		<stop  offset="1" style="stop-color:#11B140"/>
	</radialGradient>
	<path style="fill-rule:evenodd;clip-rule:evenodd;fill:url(#SVGID_00000052084556833380264340000004540610078121302199_);" d="
		M269,114c0,0,3.3,15.7,16.2,23.7C285.2,137.7,273,125.4,269,114z"/>
	
		<radialGradient id="SVGID_00000074409666858321675770000006655071443501137302_" cx="95.3588" cy="107.615" r="129.7602" gradientUnits="userSpaceOnUse">
		<stop  offset="0" style="stop-color:#97FF11"/>
		<stop  offset="1" style="stop-color:#97FF11;stop-opacity:0"/>
	</radialGradient>
	<path style="fill-rule:evenodd;clip-rule:evenodd;fill:url(#SVGID_00000074409666858321675770000006655071443501137302_);" d="
		M58.9,179c0.6,6.3,3.7-27.9,15-33.4c11.3-5.5,45.7,19.1,61.5,28.9c36.6,22.6,77.7-3.1,87.9-16.8c10.2-13.8-5.1-35.4-13.7-40.2
		c-8.6-4.8-13,16.4-30.5,13.9s-31.1-22.7-32.4-29.3s15.2-16.3,22.2-17.3c7-1,14.6-20.5,9.8-25.1c-4.9-4.6-12.9,17.1-31.9,30
		c-13.6,9.3-34.9,17.5-46.1,0.8C100.5,90.6,54.2,126.5,58.9,179z"/>
	
		<linearGradient id="SVGID_00000126301478651495155420000015881003028573783960_" gradientUnits="userSpaceOnUse" x1="202.7189" y1="57.2931" x2="239.6162" y2="92.2538">
		<stop  offset="0" style="stop-color:#FFFFE8"/>
		<stop  offset="1" style="stop-color:#FFFFE8;stop-opacity:0"/>
	</linearGradient>
	<path style="fill-rule:evenodd;clip-rule:evenodd;fill:url(#SVGID_00000126301478651495155420000015881003028573783960_);" d="
		M190,73.6c-0.5,8.5,18.2,4.6,34.9,3.6c16.8-1,29.8-1,29.8-1s-12.6-14.8-33.8-17.1C199.7,56.8,190.4,68.4,190,73.6z"/>
	
		<linearGradient id="SVGID_00000044164071917842937780000002675107225122910337_" gradientUnits="userSpaceOnUse" x1="113.5301" y1="59.7909" x2="124.7545" y2="70.4262">
		<stop  offset="0" style="stop-color:#FFFFE8"/>
		<stop  offset="1" style="stop-color:#FFFFE8;stop-opacity:0"/>
	</linearGradient>
	<path style="fill-rule:evenodd;clip-rule:evenodd;fill:url(#SVGID_00000044164071917842937780000002675107225122910337_);" d="
		M109.7,84c5.1,2.3,6.3-13.1,13.3-20.2c7-7.1,15.3-8.5,15.3-8.5S124,55,115.1,59.1C106.1,63.3,105.4,82,109.7,84z"/>
	
		<linearGradient id="SVGID_00000045582672821338702710000003213837280461399714_" gradientUnits="userSpaceOnUse" x1="162.4724" y1="88.3914" x2="183.4804" y2="108.2968">
		<stop  offset="0" style="stop-color:#FFFFE8"/>
		<stop  offset="1" style="stop-color:#FFFFE8;stop-opacity:0"/>
	</linearGradient>
	<path style="fill-rule:evenodd;clip-rule:evenodd;fill:url(#SVGID_00000045582672821338702710000003213837280461399714_);" d="
		M154,97.3c0,0,8.3-6.5,19.2-6c10.9,0.5,18.9,7.8,18.9,7.8s-8.3-2.5-14.1-0.7C172.3,100.3,163.3,109.9,154,97.3z"/>
	
		<linearGradient id="SVGID_00000037657903987986664800000011193525298546609797_" gradientUnits="userSpaceOnUse" x1="260.2239" y1="137.1251" x2="290.552" y2="165.8615">
		<stop  offset="0" style="stop-color:#FFFFE8"/>
		<stop  offset="1" style="stop-color:#FFFFE8;stop-opacity:0"/>
	</linearGradient>
	<path style="fill-rule:evenodd;clip-rule:evenodd;fill:url(#SVGID_00000037657903987986664800000011193525298546609797_);" d="
		M259.7,137.7c0,0,11.6-4.4,22.4,5.7c10.8,10.1,11.6,19.2,11.6,19.2s-7-10.6-13.9-11.6c-7-1-15.5,4.2-19,1S256.6,140.8,259.7,137.7z
		"/>
	
		<linearGradient id="SVGID_00000171700117079715928070000015353453380627867795_" gradientUnits="userSpaceOnUse" x1="279.5058" y1="105.5946" x2="300.4146" y2="125.406">
		<stop  offset="0" style="stop-color:#FFFFE8"/>
		<stop  offset="1" style="stop-color:#FFFFE8;stop-opacity:0"/>
	</linearGradient>
	<path style="fill-rule:evenodd;clip-rule:evenodd;fill:url(#SVGID_00000171700117079715928070000015353453380627867795_);" d="
		M274.7,110.7c0,0,2.5-3.3,10.5-3.1c8.1,0.2,13.1,3.9,15.1,6.4c1.9,2.4,0.8,10.7,0.8,10.7s-0.7-6.6-4-9.8
		C293.8,111.7,274.6,119.3,274.7,110.7z"/>
	
		<linearGradient id="SVGID_00000165213568165788692220000000840478574748160134_" gradientUnits="userSpaceOnUse" x1="265.4612" y1="236.4582" x2="285.2693" y2="255.2268">
		<stop  offset="0" style="stop-color:#FFFFE8"/>
		<stop  offset="1" style="stop-color:#FFFFE8;stop-opacity:0"/>
	</linearGradient>
	<path style="fill-rule:evenodd;clip-rule:evenodd;fill:url(#SVGID_00000165213568165788692220000000840478574748160134_);" d="
		M254.8,250.3c0,0,14.4-23.4,24.8-21.7c10.4,1.6,14.1,17.8,14.1,17.8s-6.3-8.7-19-7.3C261.9,240.4,254.8,250.3,254.8,250.3z"/>
	
		<linearGradient id="SVGID_00000084520975557203135420000005390884823436594822_" gradientUnits="userSpaceOnUse" x1="131.1077" y1="235.4625" x2="202.2114" y2="302.8344">
		<stop  offset="0" style="stop-color:#FFFFE8"/>
		<stop  offset="1" style="stop-color:#FFFFE8;stop-opacity:0"/>
	</linearGradient>
	<path style="fill-rule:evenodd;clip-rule:evenodd;fill:url(#SVGID_00000084520975557203135420000005390884823436594822_);" d="
		M109.7,258c0,0,19.8-10,59.4-4.4s62.2,18.5,62.2,18.5s-41-8.9-65.2-4.9c-24.2,4-31.6,25.2-31.6,25.2S104.7,279.7,109.7,258z"/>
	<path class="st35" d="M173.8,308.7c0,0,27.3-3.8,41.2-10.2C215,298.5,186.2,314.7,173.8,308.7z"/>
	<path class="st35" d="M254,264.9c0,0,11,3.6,25.6,2.3C279.6,267.3,262.4,273.9,254,264.9z"/>
	<path class="st35" d="M257.7,169.6c0,0,9,16.4,18,20.6C275.7,190.2,265,194,257.7,169.6z"/>
	<path class="st35" d="M212.2,102.1c0,0,16.4,18.3,42.6,20.6L212.2,102.1z"/>
	<path class="st35" d="M158.2,109.3c0,0,8.8,11.7,25.1,12L158.2,109.3z"/>
	<path class="st35" d="M111.1,91.3c0,0,17.3-2.5,35.5-15.4L111.1,91.3z"/>
	
		<radialGradient id="SVGID_00000157990075003641447750000013535529592010849203_" cx="85.8876" cy="189.5558" r="19.3609" gradientTransform="matrix(0.9696 0.2447 -0.2447 0.9696 62.2914 -15.3854)" gradientUnits="userSpaceOnUse">
		<stop  offset="1.675980e-02" style="stop-color:#B0FF24"/>
		<stop  offset="0.2859" style="stop-color:#88F72B"/>
		<stop  offset="0.8869" style="stop-color:#25E43D"/>
		<stop  offset="1" style="stop-color:#11E040"/>
	</radialGradient>
	<path style="fill-rule:evenodd;clip-rule:evenodd;fill:url(#SVGID_00000157990075003641447750000013535529592010849203_);" d="
		M77,162.5c0,0,19.2,15,27.3,51.2C104.3,213.7,108.9,178.2,77,162.5z"/>
	<path class="st15" d="M77.5,238.8c0,0,15.6,7.6,23.8-0.4c8.2-7.9,3.2-34.8-8.1-55.1C81.9,163,68.1,154,62.3,157
		C58.3,159,37.2,209.6,77.5,238.8z"/>
	
		<radialGradient id="SVGID_00000044888461234605317910000003881417473815384489_" cx="66.8905" cy="220.963" r="30.4069" gradientTransform="matrix(0.9696 0.2447 -0.2447 0.9696 62.2914 -15.3854)" gradientUnits="userSpaceOnUse">
		<stop  offset="1.117320e-02" style="stop-color:#00FF24"/>
		<stop  offset="0.1859" style="stop-color:#28FF1E"/>
		<stop  offset="0.5798" style="stop-color:#8DFF10"/>
		<stop  offset="1" style="stop-color:#FFFF00"/>
	</radialGradient>
	<path style="fill-rule:evenodd;clip-rule:evenodd;fill:url(#SVGID_00000044888461234605317910000003881417473815384489_);" d="
		M65.1,162c-10.3-2.6-18.5,33.1-13.2,52.4c6.8,25.2,40.5,28.9,47.7,21.3C106.6,228.1,101.8,171.3,65.1,162z"/>
	
		<linearGradient id="SVGID_00000150067205006757141040000007489277508835139723_" gradientUnits="userSpaceOnUse" x1="38.6599" y1="183.4536" x2="62.7726" y2="206.3008" gradientTransform="matrix(0.9696 0.2447 -0.2447 0.9696 62.2914 -15.3854)">
		<stop  offset="0" style="stop-color:#FFFFE8"/>
		<stop  offset="1" style="stop-color:#FFFFE8;stop-opacity:0"/>
	</linearGradient>
	<path style="fill-rule:evenodd;clip-rule:evenodd;fill:url(#SVGID_00000150067205006757141040000007489277508835139723_);" d="
		M54.1,211.8c0,0-2.8-36.7,6.3-43.3c9.2-6.6,23,7.4,23,7.4s-6.6,1.8-15.3,6.6C59.4,187.2,54.1,211.8,54.1,211.8z"/>
	<path class="st35" d="M66.3,229.6c0,0,12.2,6.6,21.2,7.3C87.5,237,75.7,241.6,66.3,229.6z"/>
	
		<radialGradient id="SVGID_00000163783285084906901020000017230657753254209685_" cx="92.8387" cy="322.9664" r="11.6933" gradientTransform="matrix(1.6187 -0.3977 0.2992 1.2177 33.9311 -93.1482)" gradientUnits="userSpaceOnUse">
		<stop  offset="0" style="stop-color:#00FF00;stop-opacity:0.5"/>
		<stop  offset="1" style="stop-color:#00FF00;stop-opacity:0"/>
	</radialGradient>
	<path style="fill-rule:evenodd;clip-rule:evenodd;fill:url(#SVGID_00000163783285084906901020000017230657753254209685_);" d="
		M299.8,258.6c1.9,7.9-5,16.3-15.4,18.9c-10.5,2.6-20.5-1.7-22.4-9.6c-1.9-7.9,5-16.3,15.4-18.9
		C287.8,246.4,297.8,250.7,299.8,258.6z"/>
	
		<radialGradient id="SVGID_00000044880421601580081180000011932217617046644103_" cx="-44.8325" cy="282.4671" r="16.2265" gradientTransform="matrix(0.1357 1.6613 -1.2498 0.1021 418.8628 253.9842)" gradientUnits="userSpaceOnUse">
		<stop  offset="0" style="stop-color:#00FF00;stop-opacity:0.5"/>
		<stop  offset="1" style="stop-color:#00FF00;stop-opacity:0"/>
	</radialGradient>
	<path style="fill-rule:evenodd;clip-rule:evenodd;fill:url(#SVGID_00000044880421601580081180000011932217617046644103_);" d="
		M62,235.3c-11.2,0.9-21.3-10.4-22.5-25.3c-1.2-14.9,6.9-27.7,18.1-28.6c11.2-0.9,21.3,10.4,22.5,25.3
		C81.2,221.6,73.2,234.4,62,235.3z"/>
	
		<radialGradient id="SVGID_00000141424608118143494880000015039515050053047938_" cx="-120.5675" cy="288.7722" r="11.1919" gradientTransform="matrix(-1.0488 1.2956 -1.1057 -0.8951 319.056 478.624)" gradientUnits="userSpaceOnUse">
		<stop  offset="0" style="stop-color:#00FF00;stop-opacity:0.5"/>
		<stop  offset="1" style="stop-color:#00FF00;stop-opacity:0"/>
	</radialGradient>
	<path style="fill-rule:evenodd;clip-rule:evenodd;fill:url(#SVGID_00000141424608118143494880000015039515050053047938_);" d="
		M114.5,78.4c-6.8-5.5-7.1-16.5-0.6-24.5c6.5-8,17.3-10,24.1-4.5c6.8,5.5,7.1,16.5,0.6,24.5C132.1,82,121.3,84,114.5,78.4z"/>
	
		<radialGradient id="SVGID_00000083769759404052427690000013805782185818030488_" cx="-105.986" cy="111.7622" r="18.3953" gradientTransform="matrix(0.2225 1.652 -1.4099 0.1899 471.7395 274.5295)" gradientUnits="userSpaceOnUse">
		<stop  offset="0" style="stop-color:#00FF00;stop-opacity:0.5"/>
		<stop  offset="1" style="stop-color:#00FF00;stop-opacity:0"/>
	</radialGradient>
	<path style="fill-rule:evenodd;clip-rule:evenodd;fill:url(#SVGID_00000083769759404052427690000013805782185818030488_);" d="
		M294.7,151.1c-14.3,1.9-27.8-10.1-30-26.9c-2.3-16.8,7.5-32,21.8-33.9c14.3-1.9,27.8,10.1,30,26.9C318.8,134,309,149.1,294.7,151.1
		z"/>
	
		<radialGradient id="SVGID_00000017513897707498344930000013530901495193832127_" cx="144.8694" cy="134.3846" r="80.9644" gradientTransform="matrix(1.3836 0 0 1.3192 -40.2087 -68.0224)" gradientUnits="userSpaceOnUse">
		<stop  offset="5.586590e-03" style="stop-color:#0092FF;stop-opacity:0.5"/>
		<stop  offset="0.1129" style="stop-color:#0092FF;stop-opacity:0.446"/>
		<stop  offset="1" style="stop-color:#0092FF;stop-opacity:0"/>
	</radialGradient>
	
		<ellipse style="fill-rule:evenodd;clip-rule:evenodd;fill:url(#SVGID_00000017513897707498344930000013530901495193832127_);" cx="160.2" cy="109.3" rx="112" ry="106.8"/>
</g>
</svg>
