<?xml version="1.0" encoding="utf-8"?>
<!-- Generator: Adobe Illustrator 26.5.0, SVG Export Plug-In . SVG Version: 6.00 Build 0)  -->
<svg version="1.1" id="Layer_1" xmlns="http://www.w3.org/2000/svg" xmlns:xlink="http://www.w3.org/1999/xlink" x="0px" y="0px"
	 viewBox="0 0 360 360" style="enable-background:new 0 0 360 360;" xml:space="preserve">
<style type="text/css">
	.st0{fill-rule:evenodd;clip-rule:evenodd;fill:url(#SVGID_1_);}
	.st1{fill-rule:evenodd;clip-rule:evenodd;fill:url(#SVGID_00000157289934592469773800000007422403444573975701_);}
	.st2{opacity:0.92;fill-rule:evenodd;clip-rule:evenodd;fill:url(#SVGID_00000164489511438622971510000001276697791546142108_);}
	.st3{fill-rule:evenodd;clip-rule:evenodd;fill:url(#SVGID_00000128475665062934884900000016075686582425110171_);}
	.st4{opacity:0.2;fill-rule:evenodd;clip-rule:evenodd;fill:url(#SVGID_00000131365617554540141860000001975171230110493331_);}
	.st5{opacity:0.3;fill-rule:evenodd;clip-rule:evenodd;fill:url(#SVGID_00000011716895713955632430000003761694961378782090_);}
	.st6{opacity:0.3;fill-rule:evenodd;clip-rule:evenodd;fill:url(#SVGID_00000055673103365785521750000015415729827415856290_);}
	.st7{opacity:0.3;fill-rule:evenodd;clip-rule:evenodd;fill:url(#SVGID_00000160890954974288679730000017850749546811386033_);}
	.st8{fill-rule:evenodd;clip-rule:evenodd;fill:url(#SVGID_00000183226912614403267850000012255764129334289824_);}
	.st9{fill-rule:evenodd;clip-rule:evenodd;fill:url(#SVGID_00000105398251870194361420000008791539253684694666_);}
	.st10{opacity:0.5;fill-rule:evenodd;clip-rule:evenodd;fill:url(#SVGID_00000079448050686632805210000017838926486544641717_);}
	.st11{opacity:0.5;fill-rule:evenodd;clip-rule:evenodd;fill:url(#SVGID_00000171685522060950761210000015679425959347653003_);}
	.st12{opacity:0.5;fill-rule:evenodd;clip-rule:evenodd;fill:url(#SVGID_00000171714491838659306710000010340370815552667810_);}
	.st13{fill-rule:evenodd;clip-rule:evenodd;fill:#FFFFFF;}
	.st14{fill-rule:evenodd;clip-rule:evenodd;fill:#FF9AFF;}
	.st15{opacity:0.92;fill-rule:evenodd;clip-rule:evenodd;fill:url(#SVGID_00000098931836922101423420000013499586845806595987_);}
	.st16{opacity:0.92;fill-rule:evenodd;clip-rule:evenodd;fill:url(#SVGID_00000032634330208527176180000002646375128064862861_);}
	.st17{fill-rule:evenodd;clip-rule:evenodd;fill:url(#SVGID_00000152253854730035945280000006828532629248375990_);}
	.st18{fill-rule:evenodd;clip-rule:evenodd;fill:url(#SVGID_00000156589663535884186050000013220027103628072356_);}
	.st19{opacity:0.92;fill-rule:evenodd;clip-rule:evenodd;fill:url(#SVGID_00000004543783647471487900000008365462153555665330_);}
	.st20{fill-rule:evenodd;clip-rule:evenodd;fill:url(#SVGID_00000002344969046763485680000005814441847281703343_);}
	.st21{opacity:0.92;fill-rule:evenodd;clip-rule:evenodd;fill:url(#SVGID_00000114770852595683530670000007738147481566812321_);}
	.st22{fill-rule:evenodd;clip-rule:evenodd;fill:url(#SVGID_00000087392416982806258920000004237090144379620225_);}
	.st23{opacity:0.92;fill-rule:evenodd;clip-rule:evenodd;fill:url(#SVGID_00000137822205528292544140000012231111630325446065_);}
	.st24{fill-rule:evenodd;clip-rule:evenodd;fill:url(#SVGID_00000168076396305781020230000009500515765054918026_);}
	.st25{opacity:0.92;fill-rule:evenodd;clip-rule:evenodd;fill:url(#SVGID_00000127730457532174937990000007799569699387883648_);}
	.st26{fill-rule:evenodd;clip-rule:evenodd;fill:url(#SVGID_00000118366389634047799670000008915515516352976041_);}
</style>
<g>
	<g>
		<radialGradient id="SVGID_1_" cx="180" cy="180" r="180.0001" gradientUnits="userSpaceOnUse">
			<stop  offset="0" style="stop-color:#009BFF;stop-opacity:0.5"/>
			<stop  offset="1" style="stop-color:#009BFF;stop-opacity:0"/>
		</radialGradient>
		<circle class="st0" cx="180" cy="180" r="180"/>
		
			<radialGradient id="SVGID_00000069361321077519832130000011690667030092382633_" cx="180" cy="179.9999" r="153.3358" gradientUnits="userSpaceOnUse">
			<stop  offset="0" style="stop-color:#0092FF;stop-opacity:0.5"/>
			<stop  offset="0.9978" style="stop-color:#0092FF;stop-opacity:1.091748e-03"/>
			<stop  offset="1" style="stop-color:#0092FF;stop-opacity:0"/>
		</radialGradient>
		
			<circle style="fill-rule:evenodd;clip-rule:evenodd;fill:url(#SVGID_00000069361321077519832130000011690667030092382633_);" cx="180" cy="180" r="153.3"/>
		
			<radialGradient id="SVGID_00000123425048652505234830000011902692126671744698_" cx="180" cy="179.9999" r="133.0545" gradientUnits="userSpaceOnUse">
			<stop  offset="0.8855" style="stop-color:#008BAB;stop-opacity:0"/>
			<stop  offset="1" style="stop-color:#008BAB"/>
		</radialGradient>
		
			<path style="opacity:0.92;fill-rule:evenodd;clip-rule:evenodd;fill:url(#SVGID_00000123425048652505234830000011902692126671744698_);" d="
			M313.1,180c0,38.5-16.3,73.1-42.4,97.4c-12.5,11.6-27.2,20.8-43.4,27c-14.7,5.6-30.6,8.6-47.2,8.6c-5.9,0-11.7-0.4-17.4-1.1
			c-5.3-0.7-10.4-1.7-15.5-3c-12-3.1-23.3-7.8-33.8-13.8c-6.6-3.8-12.9-8.2-18.7-13.1c-13.8-11.5-25.2-25.8-33.4-41.9
			c-5.1-10.2-9-21.1-11.4-32.5c0,0,0-0.1,0-0.1c-1.9-8.9-2.8-18.1-2.8-27.5c0-26.3,7.6-50.8,20.8-71.4c5.6-8.8,12.1-16.8,19.5-24
			c24-23.3,56.7-37.7,92.7-37.7c2.9,0,5.8,0.1,8.7,0.3c15.1,1,29.5,4.5,42.8,10.1c2.3,1,4.6,2,6.9,3.1C248,65.1,257,71,265.2,77.8
			c2.8,2.3,5.4,4.7,8,7.2c0.9,0.9,1.8,1.8,2.7,2.8C298.9,111.7,313.1,144.2,313.1,180z"/>
		
			<radialGradient id="SVGID_00000019676851891311422180000010858374360077361301_" cx="144.8631" cy="144.8255" r="181.8737" gradientUnits="userSpaceOnUse">
			<stop  offset="5.586590e-03" style="stop-color:#00CEC0"/>
			<stop  offset="0.2576" style="stop-color:#00CCC0"/>
			<stop  offset="0.3833" style="stop-color:#00C4C1"/>
			<stop  offset="0.4811" style="stop-color:#00B7C2"/>
			<stop  offset="0.5645" style="stop-color:#00A4C4"/>
			<stop  offset="0.6387" style="stop-color:#008CC6"/>
			<stop  offset="0.7054" style="stop-color:#006EC8"/>
			<stop  offset="0.7179" style="stop-color:#0068C9"/>
			<stop  offset="0.7438" style="stop-color:#0767CB"/>
			<stop  offset="0.7813" style="stop-color:#1A66CF"/>
			<stop  offset="0.8259" style="stop-color:#3A63D6"/>
			<stop  offset="0.8759" style="stop-color:#6660E0"/>
			<stop  offset="0.9304" style="stop-color:#9E5BEC"/>
			<stop  offset="0.9879" style="stop-color:#E255FC"/>
			<stop  offset="1" style="stop-color:#F154FF"/>
		</radialGradient>
		<path style="fill-rule:evenodd;clip-rule:evenodd;fill:url(#SVGID_00000019676851891311422180000010858374360077361301_);" d="
			M304,180c0,35.9-15.2,68.1-39.5,90.8c-11.6,10.8-25.3,19.4-40.4,25.2c-13.7,5.2-28.5,8-44,8c-5.5,0-10.9-0.4-16.3-1
			c-4.9-0.6-9.7-1.6-14.4-2.8c-11.2-2.9-21.7-7.2-31.5-12.9c-6.2-3.6-12-7.7-17.5-12.2c-12.8-10.7-23.4-24-31.1-39.1
			c-4.8-9.5-8.4-19.6-10.6-30.3c0,0,0-0.1,0-0.1c-1.7-8.3-2.6-16.8-2.6-25.6c0-24.5,7.1-47.3,19.3-66.5c5.2-8.2,11.3-15.7,18.2-22.4
			C115.9,69.4,146.4,56,180,56c2.7,0,5.4,0.1,8.1,0.3c14.1,0.9,27.5,4.2,39.9,9.4c2.2,0.9,4.3,1.9,6.4,2.9c9,4.4,17.4,9.8,25,16.2
			c2.6,2.1,5.1,4.4,7.4,6.7c0.9,0.8,1.7,1.7,2.5,2.6C290.8,116.3,304,146.6,304,180z"/>
		
			<radialGradient id="SVGID_00000016044405653604251680000004040185838806300032_" cx="193.7985" cy="191.0863" r="111.5534" gradientUnits="userSpaceOnUse">
			<stop  offset="0" style="stop-color:#FFFFFF;stop-opacity:0.5"/>
			<stop  offset="1" style="stop-color:#FFFFFF"/>
		</radialGradient>
		
			<path style="opacity:0.2;fill-rule:evenodd;clip-rule:evenodd;fill:url(#SVGID_00000016044405653604251680000004040185838806300032_);" d="
			M304,180c0,35.9-15.2,68.1-39.5,90.8c-11.6,10.8-25.3,19.4-40.4,25.2c-13.7,5.2-28.5,8-44,8c-5.5,0-10.9-0.4-16.3-1
			c-16.6-2.2-32.1-7.6-45.9-15.7c4.1-1,8.1-2.5,12.3-3.5c9.9-2.5,19.3-5.4,29.4-6.5c4.1-0.5,10.4-2.1,10.5-7
			c0.1-1.4-0.2-1.8,0.6-2.5c0.9-0.8,2.1-0.4,3.2-0.7c2.9-0.6,5.2-3.6,7-5.7c3-3.5,6.2-6.7,9.7-9.8c6.6-5.8,15.4-8.5,19.7-16.9
			c1.2-2.3,1.3-4.7,1.8-7.1c0.7-2.8,2.7-4.7,5.1-6c3-1.7,6.2-2.3,8.9-4.6c2.5-2.2,3.7-5.5,4.7-8.6c1.6-5.1,1.4-10.2,2.1-15.4
			c0.4-2.6,1.1-5.2,1.2-7.8c0.1-2.5-0.9-4.5-1.8-6.9c-1.4-4-3.3-8.2-5-12.1c-0.7-1.5-1.6-2.7-2.8-3.8c-1.7-1.6-3.2-3.4-5-5
			c-1.2-1.1-2.8-1.8-4-2.9c-0.9-0.9-1.7-2.1-2.6-3c-1.6-1.7-3.2-3.5-5.3-4.6c-4.9-2.7-7.8-7.7-13.6-8.7c-7-1.2-12.7-8.7-20.2-6
			c-4.8,1.7-9.5,3.5-14.5,4.8c-3.2,0.8-6.9,0.7-9.9,1.9c-1.9,0.8-4,2.4-5.3,3.9c-2.1,2.3-2.9,5.4-4.7,7.9c-1.3,1.9-2.2,3.7-3.3,5.7
			c-2.2,4-2,7.7-2,12.2c0,2.4-0.2,4.9,0,7.3c0.3,2.9,1.7,5,3.5,7.2c1,1.3,1.8,3.6,3.1,4.7c0.7,0.5,1.3,0.4,2,0.7
			c1.3,0.5,1.7,1,2.8,1.9c3.2,2.4,6.5,4.7,10.5,5.6c2.1,0.4,4,0.8,5.9,1.6c1.5,0.7,3.5,1.2,5.3,1.3c4.2,0.4,7.8-1,10.9-3.6
			c2-1.6,3.5-2.9,5-4.9c0.8-1.2,1.4-1.9,2.6-2.6c0.8-0.5,1.7-1,2.7-0.9c0.8,0.1,1.6,1.2,2.5,0.6c0.7-0.4,1.2-2.8,1.4-3.5
			c0.5-1.3,0.8-2.8,1.4-4c1-2.1,2.7-1.6,4.7-1.7c1.4,0,3.2-0.1,4.1-1.4c0.8-1.2,0.6-3.8,0-4.9c-0.9-1.7-3.4-3.4-4.8-4.8
			c-1.1-1.1-1.9-2.3-2.8-3.6c-1.6-2.5-2.3-7-5.7-7.7c-1.4-0.3-3.2-0.1-4.6-0.1c-1.6,0-2.7-0.4-4.3-0.7c-2.4-0.5-4.6-1.3-7-1.3
			c-3.1-0.1-5.7,0.9-8.5,2.1c-1.2,0.5-2.2,0.3-3.3,0.6c-1.4,0.5-3.4,3.3-3.6,4.6c-0.5,2.8,0.6,5.6,3.3,6.7c0.9,0.4,3,0.5,3.6,1.3
			c0.9,1,0.1,2.2-0.3,3.3c-1.1,2.8-0.5,6.2,3,6.7c2.4,0.3,4.7-1.2,6.6-2.1c1.7-0.8,4.4-1,4.4-3.2c-0.1,1-1.9,0.6-2.7,0.6
			c-1.7,0-2.8,0-4.1-1.1c-1.3-1.1-1.4-2-2-3.5c-0.2-0.6-0.6-1.4-1-2c-0.3-0.4-1.2-1-1.4-1.4c-0.9-2.5,6.7-3.7,8.1-3.8
			c3.2-0.4,5.4,1.9,7.2,4.3c0.8,1.1,2.4,2.6,2.3,4c-0.1,1.3-1.1,3.4-1.6,4.6c-0.5,1.3-0.9,2.5-1.3,3.6c-0.5,1.5-1.3,1.8-2.6,2.6
			c-1.3,0.8-2.3,1.9-3.4,2.9c-1.2,1.1-2.8,1.2-4.3,1.6c-2.4,0.6-4.4-0.7-6.8-0.5c-2,0.1-3.7,1.2-5.6,1.4c-4.1,0.3-7.7-0.2-9.1-4.7
			c-0.6-1.9-0.1-2.7,1-4c1.2-1.3,0.8-2.4,0.2-4c-0.7-1.8-1.5-3.4-1.9-5.3c-0.3-1.9,0.8-4,1.1-5.9c0.3-1.6-0.5-3.8,0-5.3
			c0.5-1.3,3.2-2.7,4.3-3.6c1.5-1.2,3.5-1.7,5.2-2.5c2.1-1.1,3.6-0.8,5.7-1.1c1.8-0.3,2.7-1.7,4.3-2.3c1.7-0.7,4.1-0.3,6-0.3
			c2.1,0.1,3.2,0.7,5,1.6c1.7,0.9,3.2,2.2,5.3,2.4c2.3,0.3,4.7-0.2,7-0.1c2.3,0.1,3.1,1.3,4.9,2.5c1.9,1.3,3.2,2.1,4.7,4.1
			c0.7,0.9,1,2.1,1.7,3c0.8,1,1.3,1.6,1.8,2.8c0.7,1.7,1.5,3.2,2,4.9c0.3,1,0.6,1.9,0.5,3c-0.1,1.4-0.7,2.6-0.7,4
			c-0.1,3.2-1.2,5.5-2.6,8.4c-1.4,2.8-2.6,5.8-3.9,8.6c-0.9,1.9-1.1,5.8-3.7,6.3c-1.4,0.3-2.7,0-4,0.7c-1.4,0.7-1.5,2.3-2.6,3.3
			c-1,0.9-2.3,0.6-3.7,0.6c-2.1,0-3.9,0.3-5.8,1.2c-2.3,1-3.8,3.3-6.1,4.4c-1.8,0.9-4,1.8-6,2.2c-1.4,0.4-2.9,0-4.3,0.4
			c-3.3,1-6.2,3.2-9.4,4.4c-2.5,0.9-5.7,1.5-8.4,1.3c-1.1-0.1-2-0.5-3.1-0.9c-1.7-0.5-3.4-0.5-5.2-0.9c-1.4-0.3-2.7-0.8-4-1.3
			c-1.3-0.5-2.2-1.5-3.5-2.1c-2.9-1.4-5.7-1.2-8.4-3.4c-3.3-2.7-6.2-5.8-9.8-8.1c-1.5-1-2.5-2.3-3.5-3.7c-0.9-1.3-1.9-2-2.9-3.1
			c-1.4-1.6-2.4-3.6-3.2-5.6c-1.4-3.3-3-6.2-4.1-9.6c-1.6-4.8-3.7-9.2-4.6-14.2c-0.7-4.2,0.2-7.8,0.3-11.9c0-0.9,0.2-2.1,0-3
			c-0.3-1.5-1.6-2.6-2.6-3.7c-3.2-3.7-6.1-7.4-7.9-12c-1.8-4.7-2.7-10.5-1.2-15.4c1.4-4.4,4.2-6.9,7.8-9.6c3.5-2.6,7.6-4.6,11.5-6.6
			c1.8-0.9,3.5-2.2,5.3-2.9c1.9-0.7,4.2-1,6.2-1.6c1.8-0.5,3.2-0.7,4.8-1.8c1.6-1.2,3.4-2.4,4.8-3.7c1.8-1.6,3.2-3.3,5.6-3.9
			c3.3-0.9,6.7-1.9,10-2.5c4.1-0.9,9.2,0.3,13.2,0.7c4.1,0.4,8.1,0.5,12.2,0.5c3.5,0,6.7-0.5,10.2-0.7c1.3-0.1,2.6,0.1,3.8,0.1
			c2.1-0.1,4-1,6-1.5c3.8-1,7.4-2.9,11.1-4.1c2.9-1,5.7-0.9,8.7-1.4c3.1-0.5,6.4-1.6,9.6-1.7c2.8-0.1,5.8-1.2,8.3,0.3
			c4.7,2.9,7.6,7.8,12.3,10.6c4.9,3,10.4,5.1,15.7,7.1c1.8,0.7,3.8-0.1,5.5,0.5c0.8,0.3,1.7,1.6,2.3,2.3c0.9-0.6,0.6-1.5,0.6-2.4
			c0.1-1.3,0.7-2.3,0.7-3.7c0-1.6,0.2-3.3-0.1-4.9c-0.1-0.8-1.2-2.7-1.2-3.8c2.6,2.1,5.1,4.4,7.4,6.7C289.8,114,304,145.3,304,180z"
			/>
		
			<linearGradient id="SVGID_00000042733727618171154500000005362580498158710658_" gradientUnits="userSpaceOnUse" x1="95.3957" y1="221.1813" x2="129.1261" y2="221.1813">
			<stop  offset="0" style="stop-color:#B8C2FF"/>
			<stop  offset="1" style="stop-color:#7D72B3"/>
		</linearGradient>
		
			<path style="opacity:0.3;fill-rule:evenodd;clip-rule:evenodd;fill:url(#SVGID_00000042733727618171154500000005362580498158710658_);" d="
			M97.3,217.5c-0.7,2.7-1.2,5.5-1.3,8.3c0.7-0.2,1.8,1.5,2.6,1.8c1.5,0.6,2.9,0.5,4.3,1.4c1.2,0.9,2.6,2.5,4,3c0.9,0.3,2.2,0,3.1,0
			c2,0,3.8,0.1,5.8,0.5c2,0.4,4.7,1.1,6.8,0.9c1.4-0.1,3.6-0.9,4.7-1.8c1.1-0.9,1.6-3.7,1.7-5.2c0.2-4.5-3.1-8.8-6.5-11.5
			c-1.8-1.4-3.8-1.4-5.7-2.4c-2.3-1.2-4.4-1.9-7-2.6c-1.5-0.4-3.6-1.2-5.2-1.1c-1.5,0-3.3,1-4.8,1.4c-1.5,0.4-3,0.6-4,2
			C94.9,213.7,95.4,215.8,97.3,217.5z"/>
		
			<linearGradient id="SVGID_00000013909435275138628170000007097026280756772760_" gradientUnits="userSpaceOnUse" x1="126.8964" y1="238.6753" x2="133.8455" y2="238.6753">
			<stop  offset="0" style="stop-color:#B8C2FF"/>
			<stop  offset="1" style="stop-color:#7D72B3"/>
		</linearGradient>
		
			<path style="opacity:0.3;fill-rule:evenodd;clip-rule:evenodd;fill:url(#SVGID_00000013909435275138628170000007097026280756772760_);" d="
			M132.4,233.4c-0.8,0.9-8.1,7.3-4.5,9.8c0.2,0.2,1.7,0.5,2,0.6c1.1,0.3,1.3,0.1,2.2-0.5c1.7-1.1,2-3,1.5-4.9
			c-0.1-0.4-0.5-1.6-0.7-2c-0.3-0.7-1.1-0.9-1.3-1.7L132.4,233.4z"/>
		
			<linearGradient id="SVGID_00000100376922139848017560000004838825419747648158_" gradientUnits="userSpaceOnUse" x1="156.1096" y1="74.3289" x2="191.0383" y2="74.3289">
			<stop  offset="0" style="stop-color:#B8C2FF"/>
			<stop  offset="1" style="stop-color:#7D72B3"/>
		</linearGradient>
		
			<path style="opacity:0.3;fill-rule:evenodd;clip-rule:evenodd;fill:url(#SVGID_00000100376922139848017560000004838825419747648158_);" d="
			M174.7,72.7c1.3-0.7,5.5-3.2,7.9-3.5c0.8-0.1,1.8,0.2,2.7,0.2c1.8,0,3.3-0.3,4.7,1.1c1,1.1,1.5,2.2,0.7,3.5c-1,1.7-3.7,3-5.4,4
			c-3.9,2.3-9.2,4.5-13.9,4c-3.8-0.4-7.2-3.2-10.4-4.9c-2.4-1.3-6.8-3.7-3.9-6.6c2.4-2.4,6.1-3.7,9.4-3.8c1.5-0.1,5.1-0.6,6.3,0.3
			c1.3,1-0.1,5.2,2.6,5L174.7,72.7z"/>
		
			<linearGradient id="SVGID_00000109739166510200761570000016393116824587719592_" gradientUnits="userSpaceOnUse" x1="79.3236" y1="50.4714" x2="237.6992" y2="161.3671" gradientTransform="matrix(0.9891 0.1471 -0.1471 0.9891 32.6664 6.4337)">
			<stop  offset="1.675980e-02" style="stop-color:#B3FFE8"/>
			<stop  offset="1" style="stop-color:#B3FFE8;stop-opacity:0"/>
		</linearGradient>
		<path style="fill-rule:evenodd;clip-rule:evenodd;fill:url(#SVGID_00000109739166510200761570000016393116824587719592_);" d="
			M54.1,154.7c1.9,25.3,61.1-15.7,118.3-33.8c67.2-21.3,118.2,25.3,125.6,22.7c11.7-4-36.2-96.5-112.8-95.3
			C98.9,49.7,51.1,113.9,54.1,154.7z"/>
		
			<radialGradient id="SVGID_00000017490233807102177480000007550004608571570596_" cx="235.2845" cy="284.501" r="78.2086" gradientUnits="userSpaceOnUse">
			<stop  offset="0" style="stop-color:#97E5D9;stop-opacity:0"/>
			<stop  offset="0.3566" style="stop-color:#61938C;stop-opacity:0.5"/>
			<stop  offset="1" style="stop-color:#61938C;stop-opacity:0"/>
		</radialGradient>
		<path style="fill-rule:evenodd;clip-rule:evenodd;fill:url(#SVGID_00000017490233807102177480000007550004608571570596_);" d="
			M121.9,293.9c0,0,58.8,20.5,115-10.6c56.2-31.1,65.5-101.2,65.5-101.2s-6.9,82.4-61.2,108.7C187,317.2,146.4,309.1,121.9,293.9z"
			/>
		
			<linearGradient id="SVGID_00000071557499860514883440000017906542314458074551_" gradientUnits="userSpaceOnUse" x1="170.9134" y1="227.5519" x2="170.9134" y2="99.5564">
			<stop  offset="0" style="stop-color:#BDFFE8"/>
			<stop  offset="0.2005" style="stop-color:#8BBBAA"/>
			<stop  offset="0.4155" style="stop-color:#5A796E"/>
			<stop  offset="0.6108" style="stop-color:#33453F"/>
			<stop  offset="0.7795" style="stop-color:#171F1D"/>
			<stop  offset="0.9148" style="stop-color:#060808"/>
			<stop  offset="1" style="stop-color:#000000"/>
		</linearGradient>
		
			<path style="opacity:0.5;fill-rule:evenodd;clip-rule:evenodd;fill:url(#SVGID_00000071557499860514883440000017906542314458074551_);" d="
			M48.2,198.6l4.2,19.3c0,0,23.1,13.5,76.7,8.6c53.6-5,66.3-31.2,87.2-46.5s61.5-27.3,72.1-39.2c10.6-11.9,1.6-35.6,1.6-35.6
			l-4.1-5.6c0,0,7.5,20.3-1.5,35.3c-9,15-48.9,22-70.7,41c-21.8,19-66.1,33.8-103.8,34.1C72.2,210.3,48.2,198.6,48.2,198.6z"/>
		
			<linearGradient id="SVGID_00000083078755005312984700000008007728031247601335_" gradientUnits="userSpaceOnUse" x1="188.3271" y1="266.1379" x2="188.3271" y2="146.1788">
			<stop  offset="0" style="stop-color:#BDFFE8"/>
			<stop  offset="0.2005" style="stop-color:#8BBBAA"/>
			<stop  offset="0.4155" style="stop-color:#5A796E"/>
			<stop  offset="0.6108" style="stop-color:#33453F"/>
			<stop  offset="0.7795" style="stop-color:#171F1D"/>
			<stop  offset="0.9148" style="stop-color:#060808"/>
			<stop  offset="1" style="stop-color:#000000"/>
		</linearGradient>
		
			<path style="opacity:0.5;fill-rule:evenodd;clip-rule:evenodd;fill:url(#SVGID_00000083078755005312984700000008007728031247601335_);" d="
			M66,248.7l8.5,12.4c0,0,38.5,11.3,96.4,0c57.9-11.3,101.5-43.9,121.8-62.5c20.3-18.6,17.8-44.6,17.8-44.6l-1.8-7.8
			c0,0-3.6,27.1-26.2,52.4c-22.6,25.4-60.2,48.4-114.4,57.9C113.9,266.1,66,248.7,66,248.7z"/>
		
			<linearGradient id="SVGID_00000168827930061979644660000008959292232387301809_" gradientUnits="userSpaceOnUse" x1="160.5908" y1="149.0428" x2="160.5908" y2="69.7402">
			<stop  offset="0" style="stop-color:#BDFFE8"/>
			<stop  offset="0.2005" style="stop-color:#8BBBAA"/>
			<stop  offset="0.4155" style="stop-color:#5A796E"/>
			<stop  offset="0.6108" style="stop-color:#33453F"/>
			<stop  offset="0.7795" style="stop-color:#171F1D"/>
			<stop  offset="0.9148" style="stop-color:#060808"/>
			<stop  offset="1" style="stop-color:#000000"/>
		</linearGradient>
		
			<path style="opacity:0.5;fill-rule:evenodd;clip-rule:evenodd;fill:url(#SVGID_00000168827930061979644660000008959292232387301809_);" d="
			M56,131.7c0,0,75.6,25.8,134,14.5c58.4-11.3,74.1-49.1,75.2-68.4l-10.7-8.1c0,0,0.2,38.8-36.8,62.2c-37,23.4-131.7,9.5-157.1-10.6
			L56,131.7z"/>
		<path class="st13" d="M64.3,177.4c0.8,4.7,11.4-1.9,19.2-17.6s9.4-48.3,5.3-51.2C84.7,105.7,58.4,145.1,64.3,177.4z"/>
		<path class="st13" d="M208.5,299.6c-1.6,1.8,4.4,4.1,13.5,2.2c9-1.8,22.9-11.7,22.8-14.3C244.6,285,219.9,286.8,208.5,299.6z"/>
		<path class="st13" d="M65,184.1c-5.5,1-5.3,11.7-1.8,16.2c3.5,4.6,7.9,2.4,8.2-6.9C71.5,187.7,69.5,183.3,65,184.1z"/>
		<path class="st14" d="M280.9,261.6c0,0,22.8-29.5,27.8-66.4C308.7,195.1,311.3,230.3,280.9,261.6z"/>
		
			<radialGradient id="SVGID_00000043425497491203736150000008209726647156521130_" cx="259.4359" cy="77.1989" r="40.8897" gradientUnits="userSpaceOnUse">
			<stop  offset="0.7741" style="stop-color:#000000"/>
			<stop  offset="0.7867" style="stop-color:#060106"/>
			<stop  offset="0.8034" style="stop-color:#170416"/>
			<stop  offset="0.8224" style="stop-color:#320A31"/>
			<stop  offset="0.843" style="stop-color:#581157"/>
			<stop  offset="0.865" style="stop-color:#8A1B88"/>
			<stop  offset="0.8878" style="stop-color:#C527C2"/>
			<stop  offset="0.9078" style="stop-color:#FF32FC"/>
			<stop  offset="0.9188" style="stop-color:#FB33FB"/>
			<stop  offset="0.9303" style="stop-color:#EE38F7"/>
			<stop  offset="0.942" style="stop-color:#D93FF0"/>
			<stop  offset="0.954" style="stop-color:#BC49E7"/>
			<stop  offset="0.966" style="stop-color:#9657DB"/>
			<stop  offset="0.9781" style="stop-color:#6867CC"/>
			<stop  offset="0.9902" style="stop-color:#327ABB"/>
			<stop  offset="1" style="stop-color:#008BAB"/>
		</radialGradient>
		
			<path style="opacity:0.92;fill-rule:evenodd;clip-rule:evenodd;fill:url(#SVGID_00000043425497491203736150000008209726647156521130_);" d="
			M217.7,52.4c0,0,34.5-28,63.2-8.1c32.1,22.3,16.4,72.9,16.4,72.9S230.9,82.3,217.7,52.4z"/>
		
			<radialGradient id="SVGID_00000163772079393826725870000010088813741938977198_" cx="135.9874" cy="295.3266" r="38.8795" gradientUnits="userSpaceOnUse">
			<stop  offset="0.7741" style="stop-color:#000000"/>
			<stop  offset="0.7867" style="stop-color:#060106"/>
			<stop  offset="0.8034" style="stop-color:#170416"/>
			<stop  offset="0.8224" style="stop-color:#320A31"/>
			<stop  offset="0.843" style="stop-color:#581157"/>
			<stop  offset="0.865" style="stop-color:#8A1B88"/>
			<stop  offset="0.8878" style="stop-color:#C527C2"/>
			<stop  offset="0.9078" style="stop-color:#FF32FC"/>
			<stop  offset="0.9188" style="stop-color:#FB33FB"/>
			<stop  offset="0.9303" style="stop-color:#EE38F7"/>
			<stop  offset="0.942" style="stop-color:#D93FF0"/>
			<stop  offset="0.954" style="stop-color:#BC49E7"/>
			<stop  offset="0.966" style="stop-color:#9657DB"/>
			<stop  offset="0.9781" style="stop-color:#6867CC"/>
			<stop  offset="0.9902" style="stop-color:#327ABB"/>
			<stop  offset="1" style="stop-color:#008BAB"/>
		</radialGradient>
		
			<path style="opacity:0.92;fill-rule:evenodd;clip-rule:evenodd;fill:url(#SVGID_00000163772079393826725870000010088813741938977198_);" d="
			M91.1,278.9c0,0,4.3,39.1,33.7,53.3c27.4,13.3,52-19.2,52-19.2S170.9,261.1,91.1,278.9z"/>
		
			<linearGradient id="SVGID_00000011011226468244340610000006168534699411512238_" gradientUnits="userSpaceOnUse" x1="238.4908" y1="36.2562" x2="285.7219" y2="81.0084">
			<stop  offset="1.675980e-02" style="stop-color:#54FFE8"/>
			<stop  offset="0.2139" style="stop-color:#3EBBAA"/>
			<stop  offset="0.4253" style="stop-color:#28796E"/>
			<stop  offset="0.6174" style="stop-color:#17453F"/>
			<stop  offset="0.7832" style="stop-color:#0A1F1D"/>
			<stop  offset="0.9163" style="stop-color:#030808"/>
			<stop  offset="1" style="stop-color:#000000"/>
		</linearGradient>
		<path style="fill-rule:evenodd;clip-rule:evenodd;fill:url(#SVGID_00000011011226468244340610000006168534699411512238_);" d="
			M224.3,51.2c5.5,7.1,23.5,8.9,45.6,11.2c22.1,2.3,25.2,8.6,25.2,8.6s-7-26.1-28.5-30.4C245.1,36.4,224.3,51.2,224.3,51.2z"/>
		
			<linearGradient id="SVGID_00000018923764267135812420000010655280049844044183_" gradientUnits="userSpaceOnUse" x1="103.2951" y1="271.3095" x2="157.938" y2="323.0845">
			<stop  offset="1.675980e-02" style="stop-color:#54FFE8"/>
			<stop  offset="0.2139" style="stop-color:#3EBBAA"/>
			<stop  offset="0.4253" style="stop-color:#28796E"/>
			<stop  offset="0.6174" style="stop-color:#17453F"/>
			<stop  offset="0.7832" style="stop-color:#0A1F1D"/>
			<stop  offset="0.9163" style="stop-color:#030808"/>
			<stop  offset="1" style="stop-color:#000000"/>
		</linearGradient>
		<path style="fill-rule:evenodd;clip-rule:evenodd;fill:url(#SVGID_00000018923764267135812420000010655280049844044183_);" d="
			M93.5,281.7c0,0,3.5,23.8,13.1,28.1c9.6,4.3,15.3-17.7,39-18.2c13.2-0.3,27.8,15.2,27.8,15.2S159.2,264.5,93.5,281.7z"/>
		<path class="st14" d="M130.4,330.9c0,0,15.4,2.3,30.2-6.9C160.6,324,150.9,340.7,130.4,330.9z"/>
		<path class="st14" d="M293.6,108.4c0,0,5.2-13.1,3.4-30.2C297,78.2,306.3,96.8,293.6,108.4z"/>
		<path class="st13" d="M225.4,50.5c-2.4,2.1,15.9,1.7,21.7-2.2c5.8-3.9,8.1-6.1,6.6-8.5C252.2,37.5,234.1,42.8,225.4,50.5z"/>
		<path class="st13" d="M255.8,40.1c-0.2-1.4,5.3-1,5.2,0.3C261,41.8,256.3,42.8,255.8,40.1z"/>
		<path class="st13" d="M95.7,286.6c-3.6-1.1,1.7,16.2,9.4,22C105.2,308.6,106.3,289.7,95.7,286.6z"/>
		<g>
			
				<radialGradient id="SVGID_00000004530116956622684740000017407513701310798976_" cx="386.4373" cy="196.3584" r="18.437" gradientTransform="matrix(0.8162 -0.1748 0.2094 0.9778 -45.3968 9.8962)" gradientUnits="userSpaceOnUse">
				<stop  offset="0.7741" style="stop-color:#000000"/>
				<stop  offset="0.7867" style="stop-color:#060106"/>
				<stop  offset="0.8034" style="stop-color:#170416"/>
				<stop  offset="0.8224" style="stop-color:#320A31"/>
				<stop  offset="0.843" style="stop-color:#581157"/>
				<stop  offset="0.865" style="stop-color:#8A1B88"/>
				<stop  offset="0.8878" style="stop-color:#C527C2"/>
				<stop  offset="0.9078" style="stop-color:#FF32FC"/>
				<stop  offset="0.9188" style="stop-color:#FB33FB"/>
				<stop  offset="0.9303" style="stop-color:#EE38F7"/>
				<stop  offset="0.942" style="stop-color:#D93FF0"/>
				<stop  offset="0.954" style="stop-color:#BC49E7"/>
				<stop  offset="0.966" style="stop-color:#9657DB"/>
				<stop  offset="0.9781" style="stop-color:#6867CC"/>
				<stop  offset="0.9902" style="stop-color:#327ABB"/>
				<stop  offset="1" style="stop-color:#008BAB"/>
			</radialGradient>
			
				<path style="opacity:0.92;fill-rule:evenodd;clip-rule:evenodd;fill:url(#SVGID_00000004530116956622684740000017407513701310798976_);" d="
				M295.3,118.9c0,0,16.8-9.9,25.5,1.8c12.3,16.6-9.4,33.9-9.4,33.9S293.3,143.3,295.3,118.9z"/>
			
				<linearGradient id="SVGID_00000052073927168895054040000004881965315135811225_" gradientUnits="userSpaceOnUse" x1="300.3146" y1="114.607" x2="322.1459" y2="135.2925">
				<stop  offset="1.675980e-02" style="stop-color:#54FFE8"/>
				<stop  offset="0.2139" style="stop-color:#3EBBAA"/>
				<stop  offset="0.4253" style="stop-color:#28796E"/>
				<stop  offset="0.6174" style="stop-color:#17453F"/>
				<stop  offset="0.7832" style="stop-color:#0A1F1D"/>
				<stop  offset="0.9163" style="stop-color:#030808"/>
				<stop  offset="1" style="stop-color:#000000"/>
			</linearGradient>
			<path style="fill-rule:evenodd;clip-rule:evenodd;fill:url(#SVGID_00000052073927168895054040000004881965315135811225_);" d="
				M296.8,119c-6.7,2,12.6,6,19.2,9.3c6.6,3.3,6,7.3,6,7.3S325.5,110.4,296.8,119z"/>
			<path class="st14" d="M309.9,150.9c0,0,5.9-2.8,10.2-12.3C320.1,138.6,321.7,148.8,309.9,150.9z"/>
			<path class="st13" d="M299.4,119.4c-1.8,2.3,8.3,1.9,9.2-0.4C309.6,116.6,301.6,116.6,299.4,119.4z"/>
			<path class="st13" d="M295.1,124.7c0,0,0.2,15.6,9.6,24.4C304.7,149,296.6,134.1,295.1,124.7z"/>
			<path class="st13" d="M306.5,150.9c0,0,2.2,3.3,4,3.1C310.5,154,308.2,150.4,306.5,150.9z"/>
		</g>
		<g>
			
				<radialGradient id="SVGID_00000117673688321768840810000011996152111808478906_" cx="244.5764" cy="338.5758" r="9.6109" gradientTransform="matrix(0.3385 -0.763 0.9141 0.4055 -185.8074 98.0212)" gradientUnits="userSpaceOnUse">
				<stop  offset="0.4247" style="stop-color:#000000"/>
				<stop  offset="0.4943" style="stop-color:#000506"/>
				<stop  offset="0.5864" style="stop-color:#001217"/>
				<stop  offset="0.691" style="stop-color:#002932"/>
				<stop  offset="0.8048" style="stop-color:#004858"/>
				<stop  offset="0.9248" style="stop-color:#006F89"/>
				<stop  offset="1" style="stop-color:#008BAB"/>
			</radialGradient>
			
				<path style="opacity:0.92;fill-rule:evenodd;clip-rule:evenodd;fill:url(#SVGID_00000117673688321768840810000011996152111808478906_);" d="
				M195.6,48.3c0,0,4.7-8.4,11.5-8.4c9.7-0.1,10.3,13,10.3,13S207,56.9,195.6,48.3z"/>
			
				<linearGradient id="SVGID_00000134938133277369037270000000411582836181350568_" gradientUnits="userSpaceOnUse" x1="237.927" y1="213.3555" x2="248.1953" y2="223.0849" gradientTransform="matrix(0.7941 -0.6078 0.6078 0.7941 -119.8907 18.4955)">
				<stop  offset="1.675980e-02" style="stop-color:#54FFE8"/>
				<stop  offset="0.2139" style="stop-color:#3EBBAA"/>
				<stop  offset="0.4253" style="stop-color:#28796E"/>
				<stop  offset="0.6174" style="stop-color:#17453F"/>
				<stop  offset="0.7832" style="stop-color:#0A1F1D"/>
				<stop  offset="0.9163" style="stop-color:#030808"/>
				<stop  offset="1" style="stop-color:#000000"/>
			</linearGradient>
			<path style="fill-rule:evenodd;clip-rule:evenodd;fill:url(#SVGID_00000134938133277369037270000000411582836181350568_);" d="
				M198.7,46c-1.9,2.6,6.4-1.4,9.8-2c3.4-0.7,4.3,1,4.3,1S207,34.5,198.7,46z"/>
			<path class="st14" d="M215.5,52.4c0,0,0.6-3-1.9-7.3C213.7,45.1,218,47.3,215.5,52.4z"/>
			<path class="st13" d="M199.8,45.3c0,1.4,3.7-1.7,3.3-2.8C202.7,41.4,199.8,43.7,199.8,45.3z"/>
			<path class="st13" d="M199.7,50.9c0,0,7.8,4.1,13.7,3C213.4,53.9,203.7,53,199.7,50.9z"/>
			<path class="st13" d="M214.6,53.7c0,0,1.9,0.1,2.3-0.7C216.9,53,214.9,52.9,214.6,53.7z"/>
		</g>
		<path class="st13" d="M222.1,60c0,0,5.2,1.2,6.8,8.5C228.8,68.4,223.5,66.9,222.1,60z"/>
		<path class="st13" d="M91.1,278.9c0,0,6.7-2.2,18.1-3.7c11.4-1.5,17.8,0,17.8,0S102,277.2,91.1,278.9z"/>
		<path class="st13" d="M153.3,281.9c0,0,14.2,11.1,19.1,18.6C172.5,300.5,171,290.8,153.3,281.9z"/>
		<path class="st13" d="M125.5,62.2c0,0,3.9-4.8,11.7-6.9c6.4-1.7,10-1.4,11.2-1.6C148.5,53.8,135,63.1,125.5,62.2z"/>
		<path class="st13" d="M130.4,275.6c0,0,4.5-2,6.1,0.8C136.4,276.4,131.6,278,130.4,275.6z"/>
		<path class="st14" d="M162.9,322.8c0,0,0-3.6,5.9-5.5C168.8,317.4,169.4,322.1,162.9,322.8z"/>
	</g>
	<g>
		
			<radialGradient id="SVGID_00000008829368191202076240000009345169222816860594_" cx="61.3008" cy="48.9463" r="33.6646" gradientUnits="userSpaceOnUse">
			<stop  offset="0.7741" style="stop-color:#000000"/>
			<stop  offset="0.7863" style="stop-color:#000506"/>
			<stop  offset="0.8024" style="stop-color:#001217"/>
			<stop  offset="0.8207" style="stop-color:#002932"/>
			<stop  offset="0.8406" style="stop-color:#004858"/>
			<stop  offset="0.8616" style="stop-color:#006F89"/>
			<stop  offset="0.8748" style="stop-color:#008BAB"/>
			<stop  offset="0.9828" style="stop-color:#FF32FC"/>
		</radialGradient>
		
			<circle style="opacity:0.92;fill-rule:evenodd;clip-rule:evenodd;fill:url(#SVGID_00000008829368191202076240000009345169222816860594_);" cx="63.9" cy="51.3" r="31.5"/>
		
			<linearGradient id="SVGID_00000031887222815194516450000011763234423139029908_" gradientUnits="userSpaceOnUse" x1="34.5809" y1="38.2371" x2="88.4363" y2="38.2371">
			<stop  offset="1.675980e-02" style="stop-color:#54FFE8"/>
			<stop  offset="0.2139" style="stop-color:#3EBBAA"/>
			<stop  offset="0.4253" style="stop-color:#28796E"/>
			<stop  offset="0.6174" style="stop-color:#17453F"/>
			<stop  offset="0.7832" style="stop-color:#0A1F1D"/>
			<stop  offset="0.9163" style="stop-color:#030808"/>
			<stop  offset="1" style="stop-color:#000000"/>
		</linearGradient>
		<path style="fill-rule:evenodd;clip-rule:evenodd;fill:url(#SVGID_00000031887222815194516450000011763234423139029908_);" d="
			M34.8,51.8c0,0,5.3,9,22-3c16.7-12,24.4-18.5,31.6-15.3c0,0-16-18.7-36.8-9.5C31.4,33,34.8,51.8,34.8,51.8z"/>
		<path class="st14" d="M75,78.2c0,0,14.4-6.9,17.4-22.2C92.3,56,95.3,73.5,75,78.2z"/>
		<path class="st13" d="M34.8,45.1c0,0,1.9-14.6,16.3-19.6C51.1,25.5,44.9,45.3,34.8,45.1z"/>
		<path class="st13" d="M51.7,24.8c-1.5-0.8,4.8-3,8.4-2.8C60.1,22,53.8,25.9,51.7,24.8z"/>
		<path class="st13" d="M60.1,80.7c0,0,7.4-6,14.9-2.5C75,78.2,70.3,82.8,60.1,80.7z"/>
	</g>
	<g>
		
			<radialGradient id="SVGID_00000166676418421543234920000009292084301431573129_" cx="243.5551" cy="324.7457" r="15.677" gradientUnits="userSpaceOnUse">
			<stop  offset="0.7741" style="stop-color:#000000"/>
			<stop  offset="0.7863" style="stop-color:#000506"/>
			<stop  offset="0.8024" style="stop-color:#001217"/>
			<stop  offset="0.8207" style="stop-color:#002932"/>
			<stop  offset="0.8406" style="stop-color:#004858"/>
			<stop  offset="0.8616" style="stop-color:#006F89"/>
			<stop  offset="0.8748" style="stop-color:#008BAB"/>
			<stop  offset="0.9828" style="stop-color:#FF32FC"/>
		</radialGradient>
		
			<path style="opacity:0.92;fill-rule:evenodd;clip-rule:evenodd;fill:url(#SVGID_00000166676418421543234920000009292084301431573129_);" d="
			M259.4,325.8c0,8.1-6.6,14.7-14.7,14.7c-8.1,0-14.7-6.6-14.7-14.7c0-8.1,6.6-14.7,14.7-14.7C252.9,311.2,259.4,317.7,259.4,325.8z
			"/>
		
			<linearGradient id="SVGID_00000050632558720570392860000009221424774726276511_" gradientUnits="userSpaceOnUse" x1="231.112" y1="319.7587" x2="256.1914" y2="319.7587">
			<stop  offset="1.675980e-02" style="stop-color:#54FFE8"/>
			<stop  offset="0.2139" style="stop-color:#3EBBAA"/>
			<stop  offset="0.4253" style="stop-color:#28796E"/>
			<stop  offset="0.6174" style="stop-color:#17453F"/>
			<stop  offset="0.7832" style="stop-color:#0A1F1D"/>
			<stop  offset="0.9163" style="stop-color:#030808"/>
			<stop  offset="1" style="stop-color:#000000"/>
		</linearGradient>
		<path style="fill-rule:evenodd;clip-rule:evenodd;fill:url(#SVGID_00000050632558720570392860000009221424774726276511_);" d="
			M231.2,326.1c0,0,2.5,4.2,10.2-1.4s11.3-8.6,14.7-7.1c0,0-7.5-8.7-17.1-4.4C229.6,317.3,231.2,326.1,231.2,326.1z"/>
		<path class="st14" d="M249.9,338.4c0,0,6.7-3.2,8.1-10.3C258,328,259.4,336.2,249.9,338.4z"/>
		<path class="st13" d="M231.2,323c0,0,0.9-6.8,7.6-9.1C238.8,313.8,235.9,323.1,231.2,323z"/>
		<path class="st13" d="M239.1,313.5c-0.7-0.4,2.2-1.4,3.9-1.3C243,312.2,240.1,314,239.1,313.5z"/>
		<path class="st13" d="M243,339.5c0,0,3.5-2.8,6.9-1.2C249.9,338.4,247.7,340.5,243,339.5z"/>
	</g>
</g>
</svg>
