<?xml version="1.0" encoding="utf-8"?>
<!-- Generator: Adobe Illustrator 26.5.0, SVG Export Plug-In . SVG Version: 6.00 Build 0)  -->
<svg version="1.1" id="Layer_1" xmlns="http://www.w3.org/2000/svg" xmlns:xlink="http://www.w3.org/1999/xlink" x="0px" y="0px"
	 viewBox="0 0 1920 2460" style="enable-background:new 0 0 1920 2460;" xml:space="preserve">
<style type="text/css">
	.st0{fill-rule:evenodd;clip-rule:evenodd;fill:url(#SVGID_1_);}
	.st1{fill-rule:evenodd;clip-rule:evenodd;fill:url(#SVGID_00000147936214138968854210000014085209598223650235_);}
	.st2{fill-rule:evenodd;clip-rule:evenodd;fill:url(#SVGID_00000174595443079865721750000013280123541925162161_);}
	.st3{fill-rule:evenodd;clip-rule:evenodd;fill:url(#SVGID_00000170959003281786224540000017773237706889466531_);}
	.st4{fill-rule:evenodd;clip-rule:evenodd;fill:url(#SVGID_00000167370493788865716770000000630044777299594136_);}
	.st5{fill-rule:evenodd;clip-rule:evenodd;fill:url(#SVGID_00000129166500401105417340000006324115281214424501_);}
	.st6{fill-rule:evenodd;clip-rule:evenodd;fill:url(#SVGID_00000075861454539694251860000011965352148207422888_);}
	.st7{fill-rule:evenodd;clip-rule:evenodd;fill:url(#SVGID_00000164497893633693149480000001611458385267971459_);}
	.st8{fill-rule:evenodd;clip-rule:evenodd;fill:url(#SVGID_00000065788983664287347550000000092064228430309816_);}
	
		.st9{opacity:0.4;fill-rule:evenodd;clip-rule:evenodd;fill:url(#SVGID_00000115486813567963035320000004249408911679028874_);enable-background:new    ;}
	
		.st10{opacity:0.4;fill-rule:evenodd;clip-rule:evenodd;fill:url(#SVGID_00000107561487383988355510000010535484681337012886_);enable-background:new    ;}
	.st11{fill-rule:evenodd;clip-rule:evenodd;fill:url(#SVGID_00000090974015276531215390000000354194511047048373_);}
	.st12{opacity:0.4;fill-rule:evenodd;clip-rule:evenodd;fill:url(#SVGID_00000137123557702100544510000013899093223445870229_);}
	.st13{opacity:0.4;fill-rule:evenodd;clip-rule:evenodd;fill:url(#SVGID_00000109728822284730248290000005390453797817429168_);}
	.st14{opacity:5.000000e-02;fill:#FFFFFF;}
	.st15{opacity:0.15;fill:#FFFFFF;}
</style>
<g>
	<g>
		
			<radialGradient id="SVGID_1_" cx="960" cy="1692" r="693.512" gradientTransform="matrix(1 0 0 -1 0 2922)" gradientUnits="userSpaceOnUse">
			<stop  offset="5.586590e-03" style="stop-color:#009BFF"/>
			<stop  offset="1" style="stop-color:#009BFF;stop-opacity:0"/>
		</radialGradient>
		<circle class="st0" cx="960" cy="1230" r="693.5"/>
		
			<radialGradient id="SVGID_00000123427813442123737140000004458097248339601797_" cx="960" cy="1692" r="580.5081" gradientTransform="matrix(1 0 0 -1 0 2922)" gradientUnits="userSpaceOnUse">
			<stop  offset="5.586590e-03" style="stop-color:#009BFF"/>
			<stop  offset="1" style="stop-color:#009BFF;stop-opacity:0"/>
		</radialGradient>
		
			<circle style="fill-rule:evenodd;clip-rule:evenodd;fill:url(#SVGID_00000123427813442123737140000004458097248339601797_);" cx="960" cy="1230" r="580.5"/>
		
			<radialGradient id="SVGID_00000031897218313905155880000003380546399458220457_" cx="960" cy="1692" r="590.7952" gradientTransform="matrix(1 0 0 -1 0 2922)" gradientUnits="userSpaceOnUse">
			<stop  offset="5.586590e-03" style="stop-color:#0092FF"/>
			<stop  offset="1" style="stop-color:#0092FF;stop-opacity:0"/>
		</radialGradient>
		
			<circle style="fill-rule:evenodd;clip-rule:evenodd;fill:url(#SVGID_00000031897218313905155880000003380546399458220457_);" cx="960" cy="1230" r="590.8"/>
		
			<radialGradient id="SVGID_00000030459706376853478360000002465714485820325811_" cx="650.0779" cy="1926.0712" r="804.7868" gradientTransform="matrix(1 0 0 -1 0 2922)" gradientUnits="userSpaceOnUse">
			<stop  offset="5.586590e-03" style="stop-color:#60DBFF"/>
			<stop  offset="9.370000e-02" style="stop-color:#60D5FF"/>
			<stop  offset="0.211" style="stop-color:#5FC4FF"/>
			<stop  offset="0.3446" style="stop-color:#5DA9FF"/>
			<stop  offset="0.4903" style="stop-color:#5A82FF"/>
			<stop  offset="0.6442" style="stop-color:#5751FF"/>
			<stop  offset="0.6844" style="stop-color:#5643FF"/>
			<stop  offset="0.7432" style="stop-color:#563DF8"/>
			<stop  offset="0.8282" style="stop-color:#552EE5"/>
			<stop  offset="0.9287" style="stop-color:#5315C6"/>
			<stop  offset="1" style="stop-color:#5200AB"/>
		</radialGradient>
		<path style="fill-rule:evenodd;clip-rule:evenodd;fill:url(#SVGID_00000030459706376853478360000002465714485820325811_);" d="
			M1461.4,1230.3c0,48.1-6.8,94.7-19.6,138.7c-25.4,88.5-74.6,166.9-140.2,228c-47,43.8-102.4,78.6-163.4,101.7
			c-55.3,21-115.2,32.5-177.9,32.5c-8.9,0-17.9-0.2-26.7-0.7h-0.1c-13.1-0.6-26.1-1.9-38.9-3.5c-96.7-12.7-184.6-52.9-255.9-112.7
			c-26.7-22.3-51.1-47.5-72.5-75c-16.3-20.6-31-42.5-43.9-65.7c-3.1-5.5-6-11.1-9-16.7c0-0.2-0.1-0.3-0.2-0.5
			c-3.1-6-5.9-12.1-8.7-18.2c-0.1,0-0.1,0-0.1,0c-8.7-19.1-16.3-38.9-22.4-59.2c-4.7-14.6-8.6-29.6-11.8-44.8
			c-0.1-0.1-0.1-0.3-0.1-0.4c-2.2-10.7-4.1-21.5-5.6-32.4c-3.4-23.3-5.1-47-5.1-71.1c0-13.9,0.5-27.7,1.8-41.2
			c0.6-8.7,1.6-17.2,2.7-25.8c6.4-49.3,20.2-96.2,40.1-139.9c9.7-21.5,20.9-42.1,33.5-61.9c20.9-33,45.7-63.2,73.6-90.4
			c90.2-87.8,213.4-141.8,349.2-141.8c5.3,0,10.6,0.1,15.8,0.2c5.6,0.2,11.2,0.4,16.8,0.8c28.8,1.9,56.9,6.1,84.1,12.7
			c15.9,3.8,31.4,8.2,46.6,13.5c10.4,3.5,20.5,7.4,30.6,11.6c7.5,3.2,14.8,6.4,22.1,9.9c1.3,0.6,2.5,1.2,3.8,1.8
			c48.7,23.8,92.7,55.1,131,92.6c5.5,5.3,10.8,10.8,16.1,16.4c3.5,3.8,7,7.7,10.4,11.6c5.8,6.5,11.4,13.4,16.9,20.3
			c20,25.4,37.5,52.7,52.2,81.6c17.2,33.6,30.8,69.5,40,107C1456.3,1148.2,1461.4,1188.6,1461.4,1230.3z"/>
		
			<radialGradient id="SVGID_00000103240730213421337200000001195794238068375192_" cx="594.2333" cy="2032.7517" r="659.4398" gradientTransform="matrix(1 0 0 -1 0 2922)" gradientUnits="userSpaceOnUse">
			<stop  offset="0" style="stop-color:#FFFFFF"/>
			<stop  offset="1" style="stop-color:#FFFFFF;stop-opacity:0"/>
		</radialGradient>
		<path style="fill-rule:evenodd;clip-rule:evenodd;fill:url(#SVGID_00000103240730213421337200000001195794238068375192_);" d="
			M663.3,1621.6c-51.8-43.4-94.7-97.1-125.6-157.9c-19.4-38.2-34-79.3-43-122.3c-0.1-0.1-0.1-0.3-0.1-0.4
			c-6.9-33.4-10.7-68-10.7-103.4c0-98.9,28.7-191.1,78.1-268.8c21-33,45.7-63.3,73.6-90.4c90.3-87.8,213.4-141.8,349.3-141.8
			c10.9,0,21.7,0.3,32.5,1c34,2.2,67,7.8,98.7,16.4c-39.1-12.8-80.5-20.9-123.3-23.7c-10.8-0.7-21.5-1-32.5-1
			c-135.8,0-259,54.1-349.3,141.8c-27.9,27.1-52.6,57.4-73.6,90.4c-49.4,77.7-78.1,169.9-78.1,268.8c0,35.4,3.7,70,10.7,103.4
			c0,0.2,0,0.3,0.1,0.4c9.1,43,23.7,84,43,122.3c30.9,60.8,73.8,114.5,125.6,157.9c54.9,46,119.7,80.4,190.8,99.6
			C768,1693.9,711.8,1662.3,663.3,1621.6z"/>
		
			<linearGradient id="SVGID_00000088126265009541893330000003533597573120551320_" gradientUnits="userSpaceOnUse" x1="463.9078" y1="1971.0148" x2="1093.9917" y2="1971.0148" gradientTransform="matrix(1 0 0 -1 0 2922)">
			<stop  offset="0" style="stop-color:#FFFFFF;stop-opacity:0"/>
			<stop  offset="1" style="stop-color:#FFFFFF;stop-opacity:0.1"/>
		</linearGradient>
		<path style="fill-rule:evenodd;clip-rule:evenodd;fill:url(#SVGID_00000088126265009541893330000003533597573120551320_);" d="
			M1077,743c-27.2-6.5-55.3-10.8-84.1-12.7c-5.6-0.4-11.2-0.6-16.8-0.8c11.9,6.7,23,18.4,25.8,30.4c4.5,20.6,11.2,39.8,15,60.4
			c3.8,20.3,3.1,45.5-6.1,63.9c-5.8,11.6-12.7,21.6-21.9,31.1c-6.5,6.7-12.2,10.4-16.8,18.6c-4.7,8.1-9.1,15.9-14.4,23.5
			c-7.8,11.4-16.1,23.6-25.1,34.1c-3.2,3.8-6.7,6.4-9.5,10.9c-3.6,5.5-5.3,10.7-9.2,15c-9,10.1-23,15.6-35.3,20.2
			c-16.1,6-29.7,12.8-44.8,20.8c-21.3,11.2-38.7,25.6-63.6,26.2c-8.2,0.2-16.8-1-25.1-0.2c-10.2,0.8-19.8,5.8-29.9,7.7
			c-8.9,1.7-17.8,3.5-26.7,5c-14.6,2.2-26.7,7.2-40.7,10.6c-18.3,4.5-37.4,3.4-55.8,5.9c-16.6,2.2-31,4.2-47.5,0.2
			c-25.5-6.4-39.1-18.4-33.8-45.5c3.6-17.8,2.3-31.3-6.8-45c-19.9,43.7-33.6,90.6-40.1,139.9c12.1,5.1,25.8,7.7,36.5,8.8
			c37.1,3.8,77.1-12.8,111-25.5c17.3-6.5,35-16.1,53.7-18.2c19.6-2.1,37,0.3,56.7-4.5c67.8-16.7,134.6-40.4,195.1-76.2
			c25.1-14.8,36.2-35.9,53.6-57.4c15.3-18.7,32.6-34.3,50.9-49.9c18-15.3,33.8-30.6,44.5-52c11.3-22.6,20.9-47.5,26.1-72.3
			C1097.6,789.6,1090.8,764.3,1077,743z M1073.6,811.1c-1,5.6-1.8,11.6-3.5,16.9c-4.4,13.4-12.4,27.3-25,34.4
			c-5.8,3.3-13.5,1.3-16.9-4.5c-1.8-3.2-1.8-7.2-2.4-10.7c-1.3-6.9-2.1-13.6-2-20.7c0.2-17-0.4-33.4-2-50.4
			c1.8,9.6-0.4-14.3,14.6-20.8c7.1-3.2,17.8-0.3,23.2,5.2c6.8,6.9,8.4,18.5,10.9,27.5C1072.6,795.9,1075,802.6,1073.6,811.1z"/>
		
			<linearGradient id="SVGID_00000124160955608594673990000002106477905272964498_" gradientUnits="userSpaceOnUse" x1="566.1237" y1="1501.9778" x2="1461.3324" y2="1501.9778" gradientTransform="matrix(1 0 0 -1 0 2922)">
			<stop  offset="0" style="stop-color:#FFFFFF;stop-opacity:0"/>
			<stop  offset="1" style="stop-color:#FFFFFF;stop-opacity:0.1"/>
		</linearGradient>
		<path style="fill-rule:evenodd;clip-rule:evenodd;fill:url(#SVGID_00000124160955608594673990000002106477905272964498_);" d="
			M1001,1610.9c-1.5,0.2-2.9,0.5-4.2,0.6l9.9,1C1005.5,1612.2,1003.3,1611.4,1001,1610.9z M1001,1610.9c-1.5,0.2-2.9,0.5-4.2,0.6
			l9.9,1C1005.5,1612.2,1003.3,1611.4,1001,1610.9z M1446.7,1109.5c-0.2,13.1-3.9,26.1-4.2,39.3c-0.3,17.6-3.3,31.2-7.8,48.1
			c-3.2,11.6-9.1,20.2-13,31.4c-4.4,12.9-10.8,23.9-17.3,35.8c-13,23.7-26,47.4-31.6,74.2c-5.1,24.2-6.1,44.6-18.2,66.8
			c-11.5,21.3-29,39.1-41.3,59.9c-5.8,9.9-9.8,9.4-18.6,15.6c-9.8,7-18.8,18-28.4,25.7c-20.5,16.4-39.2,27.7-64.1,37
			c-15.5,5.9-30.7,10.6-47.2,13.1c-10.8,1.7-21.3,0-32.1,1.8c-16.9,2.7-33,7.8-49.3,13.1c-26.7,8.7-54.1,13.6-80.7,21.9
			c-18.6,5.7-36.8,9.1-55.8,13.1c-11.5,2.4-20.8,8.7-32.8,6.2c-12.1-2.5-23-6.5-34.9-10.2c-15.1-4.7-27.6-5-43.9-5
			c-21.7,0-46.9,3.3-68.2-0.8c-24.1-4.7-48.1-11.1-72.2-16.1c-14.6-3.1-25.7-9.1-39-15.3c-12.5-5.8-25.9-7.5-38.9-11.6
			c-13.8-4.4-27-10.8-41-14.3c21.5,27.5,45.8,52.7,72.5,75c71.3,59.9,159.2,100.1,255.9,112.7c12.8,1.6,25.8,2.9,38.9,3.5h0.1
			c28.4-6.4,56.1-14.8,84.6-23.6c47.5-14.8,88.5-43.5,136-57.4c17.6-5.3,33.5-11,50-19.1c12.2-6,25.1-7.6,37.3-12.9
			c44.1-18.7,77.3-61.5,97-103.5c8.9-19,17.5-40.6,33.4-54.9c6.5-5.9,14.4-11.1,20.1-17.8c6.4-7.3,10.8-16.4,16.5-24.3
			c10.1-14.2,19.8-28.4,29.8-42.7c1.3-1.7,2.4-3.4,3.4-5.2c12.8-44,19.6-90.6,19.6-138.7C1461.4,1188.6,1456.3,1148.2,1446.7,1109.5
			z M987.1,1614.5c1.8-1.2,4.7-3.6,6.7-4.1c1.9-0.6,4.8-0.1,7.3,0.5c3.7-0.5,7.4-1,10.9,0.5c2,1,5.8,2.7,6.7,5.1
			c1,2.2-0.3,3.6-1.8,5.1c-1.9,1.9-3.4,1.9-6,2.4c-5.5,1-10.9,2-16.6,1.5c-3.4-0.3-8.5-0.5-10.6-3.7
			C981.6,1618.7,984.5,1616.2,987.1,1614.5z M1020,1679.8c-3.1,3.9-6.1,7.9-10.2,10.9c-3.8,3-8.1,4.7-12.2,7.1
			c-10.2,5.7-20.6,11.8-32.1,14.8c-4.5,1.2-9.1,1-13.9,1.3c-5.7,0.5-11.3,0.6-17,0.7c-6.8,0.1-13.3,1.5-20.1,1.9
			c-6.8,0.3-13.4,0.5-20.2,1c-11.2,0.7-21.2-1.2-31.7-5c-9.5-3.5-19.3-7.9-27.9-13.6c-6-4-11.2-9.7-16.4-14.8
			c-4.9-4.5-8.8-9.4-11.5-15.6c-1-2.2-2-4.5-1.5-7c0.2-1.2,0.7-2.1,0.7-2.4c1.9-1.5,3.8-2.9,5.6-3.6c3.6-1.6,7.6-2.3,11.4-2.7
			c9.2-1.3,19.3,0.3,28.4,1c5.5,0.4,10.4,0.7,15.8-0.1c7.2-1,14.4-3.3,21.3-5.2c16.9-4.5,33.5-8.1,51-10.1c17.3-1.9,35.5-3.8,53-0.8
			c6.5,1,14.5,3,20.2,6.8c4.2,2.9,7.6,7.4,9.9,11.9C1026.8,1664.1,1025.2,1673.2,1020,1679.8z M1152.7,1636.4
			c-3.1,3.6-7.5,5.7-11.3,8.4c-5.3,3.7-10.9,6.7-16.4,9.8c-4.7,2.7-9.1,5-13.9,7.2c-4.8,2.2-9.6,4.4-14.4,6.9
			c-5.2,2.7-10.8,4.4-16.3,6.4c-4,1.5-8.4,3.3-12.7,2.5c-3.5-0.7-7.4-2.1-9.9-4.8c-3.8-4-3.2-8.4-1.9-10.2c0-3.7-1-9,0.1-12.6
			c0.7-2.1,3.3-5.3,4.4-7.4c4.4-8.1,10.8-13.9,17.5-20.2c5.8-5.6,11.4-9.8,19.3-12.6c8.8-3,18.8-3.7,27.9-4.9
			c9.9-1.2,26.7-1.9,31.2,9.5C1159.2,1622.4,1158.2,1629.7,1152.7,1636.4z M1006.7,1612.5c-1.3-0.3-3.4-1-5.7-1.6
			c-1.5,0.2-2.9,0.5-4.2,0.6L1006.7,1612.5z"/>
		
			<linearGradient id="SVGID_00000163074084223805521490000015015966855151349124_" gradientUnits="userSpaceOnUse" x1="513.3398" y1="1687.1632" x2="1406.6989" y2="1687.1632" gradientTransform="matrix(1 0 0 -1 0 2922)">
			<stop  offset="0" style="stop-color:#FFFFFF;stop-opacity:0"/>
			<stop  offset="1" style="stop-color:#FFFFFF;stop-opacity:0.1"/>
		</linearGradient>
		<path style="fill-rule:evenodd;clip-rule:evenodd;fill:url(#SVGID_00000163074084223805521490000015015966855151349124_);" d="
			M1406.7,1002.5v2c-0.6,13.9-6.2,23.4-11.2,35.9c-4,10.2-8.7,19.3-13.9,28.9c-8.8,16.1-12.9,31.2-19.3,48.4
			c-10.1,27-15.1,54.6-30.9,79.1c-14.2,21.9-17.5,48.7-29,72.1c-13,26.1-32.9,44.8-54.2,63.9c-9.5,8.6-17.5,18.8-26,28.1
			c-9.1,9.8-16.2,22.5-27.1,30.4c-23.6,17.1-49.4,31.9-72.4,50c-13.9,10.8-23.7,25.2-38.9,34.2c-15.2,9.1-31.7,15.4-46.9,24.7
			c-13.6,8.4-27.1,17.3-41.9,23.4c-16.9,6.8-31,4.7-48.3,5.6c-19.3,0.8-39.1,5.9-57.2,12.2c-15,5.3-27.6,10.7-42.9,5.3
			c-10.1-3.6-19.3-10.2-30-12.5c-24.9-5.1-53.2,0-78.5-0.6c-19.8-0.5-41.6-5.1-60.9-9c-19-3.7-34.6-17-53-22.4
			c-22.7-6.7-49.3-1-71.3-9.6c-9-3.5-17.6-10.7-25.5-15.6c-1.7-1-3.4-2.1-5.1-3.2c-3.1-5.5-6-11.1-9-16.7c5.4,2.2,10.8,4.7,16.3,7.3
			c28.8,13.8,64.6,11.6,95.6,17c34.9,6.1,69.8,15.2,105,19.3c14.3,1.6,28.7,1.5,42.8-0.1c19.9-2.2,40.5-1.9,60.1-5.3
			c34.1-6,67.3-22.1,102.6-17.6c6.5,0.8,13.9,4.4,20.5,4.2c9.8-0.3,16.6-8.9,24.5-13.9c13.9-8.8,28.7-7.1,40.9-18.6
			c12.1-11.3,25.4-18.6,40.1-26c38.3-19.5,69.3-51.1,99.3-81.1c25.2-25.1,49.6-51.6,66.8-82.9c16.9-30.8,13.5-67.3,26.2-99.3
			c9.2-22.8,16.9-44.3,31.8-64.4c7.2-9.6,16-17.9,23.6-27.1c8.1-9.8,13.1-20.5,19.3-31.5c6.9-12.3,15.5-23.6,21-36.6
			c5.2-12.5,4.7-23.5,4.5-36.5c-0.2-14.3,0-28.8,0-43C1374.5,946.2,1392,973.5,1406.7,1002.5z"/>
		
			<linearGradient id="SVGID_00000006673821647315172940000006904347765166930352_" gradientUnits="userSpaceOnUse" x1="459.2845" y1="1811.9786" x2="1337.502" y2="1811.9786" gradientTransform="matrix(1 0 0 -1 0 2922)">
			<stop  offset="0" style="stop-color:#FFFFFF;stop-opacity:0"/>
			<stop  offset="1" style="stop-color:#FFFFFF;stop-opacity:0.1"/>
		</linearGradient>
		<path style="fill-rule:evenodd;clip-rule:evenodd;fill:url(#SVGID_00000006673821647315172940000006904347765166930352_);" d="
			M1327.2,888.9c-5.3-5.6-10.6-11.1-16.1-16.4c-38.3-37.5-82.4-68.9-131-92.6c-1.3-0.6-2.5-1.2-3.8-1.8c-7.3-3.5-14.6-6.8-22.1-9.9
			c-10.1-4.2-20.2-8.1-30.6-11.6c3.3,2.1,7.1,3.8,8.4,4.4c6.2,3.2,11.3,5.3,15.6,10.9c4.2,5.5,6.1,9.6,6.4,16.6
			c0.2,6.5,1.2,13.3,2.3,19.9c1,6,4,11.8,5.3,17.8c0.6,3.6,1.2,6.8,2.3,10.4c2.7,8.4,5.4,16.6,7.2,25.3c3.2,15.4-5.1,28.2-10.6,42.3
			c-8.7,22.3-14.2,45-20.6,68c-5.1,18.2-15,36.2-28.8,49.3c-13.4,13-33.3,16-45.4,30.1c-10.6,12.4-23.6,24.1-38.5,31.1
			c-17.2,8.2-35.4,14.6-53.7,20.2c-13.1,3.9-26.9,4.2-40.1,7.7c-16.4,4.1-31.4,12.4-46.9,19c-16.4,7.1-31.7,16.2-48.2,23.3
			c-16.6,7-32.1,16.5-48.5,23.3c-8.1,3.3-16.5,4.9-24.7,7.7c-16.9,5.9-33.3,16.7-51.3,18.8c-6.2,0.7-12.6,2.2-18.7,2.2
			c-5,0.1-9.4,0.6-14.2,2.4c-15.6,6.1-25.3,23.8-43.3,23.9c-16.5,0-32.8-0.6-49.2,1.3c-7.9,1-15.9,0.4-23.8,0.5
			c-2.3,0-5.4,0.5-7.7-0.4c-2.7-1-5.6-3.6-8.2-5.1c-5.9-3.3-11.6-7.5-16.9-11.5c-10.4-8.1-24.1-3.6-36.1-6
			c-3.6-0.7-8.9-0.3-12.1-2.1c-7.4-4.4-16.7-13.5-22.7-18.6c-1.3,13.5-1.8,27.4-1.8,41.2c0,24.1,1.7,47.8,5.1,71.1
			c1.5,10.9,3.4,21.7,5.6,32.4c0,0.1,0,0.3,0.1,0.4c3.2,15.2,7.1,30.2,11.8,44.8c6.1,20.3,13.8,40.1,22.4,59.2c0,0,0,0,0.1,0
			c13.6,2.2,27.7,4,41.5,2c19.6-2.9,39-5.9,58.9-5.2c18.6,0.8,35.9,7.2,54.1,10.2c20.4,3.4,41.6,6.1,62.4,7.5
			c18.9,1.2,37.8,2.7,56.6,4.9c14.2,1.7,28.4,4.4,42.5,5.4c36.8,2.5,72.7-7.1,108.9-10.9c18.1-1.9,36.1-6.4,53.8-10.2
			c10.9-2.3,21.5-5.2,31.1-11.1c12.7-7.9,20.7-20.1,32.1-29.7c12.5-10.7,25.5-21,38.5-31c11.1-8.5,21.6-17.6,33.2-25.2
			c8.9-5.8,17.8-11.3,26.1-17.9c16.4-12.9,29.4-27.8,42.9-43.5c18.9-22,26.7-52.6,34.4-79.8c6.9-25.1,11.6-50.1,25.4-72.7
			c6.8-11,11.8-23.7,15-36.2c2-7.8,2.7-16.6,6.4-24c5.7-12.1,16.9-20.7,23.8-32.1c5.4-9,11.4-17.3,15.2-27.3
			c7.4-19.6,13-38.6,16.2-59.4c2.3-15.3,7.3-29.4,12.1-44.1c0.7-2.4,1.5-4.9,2.1-7.4C1334.1,896.7,1330.6,892.7,1327.2,888.9z
			 M675.2,1231.2c1-2.7,19.8-9.9,22.6-10.8c-0.1,0.1-0.3,0.2-0.6,0.3l-12.3,5.3c13.5-4.5,38,9.2,26.1,24.7c-3.5,4.5-12.6,6.8-18,7.6
			c-5.4,1-8.8-0.8-12.1-5.5c-2.7-4-4.8-11-5.5-15.8C675.2,1235.5,674.5,1232.9,675.2,1231.2z M526,1366.2
			c-14.6-4-24.3-9.4-33.3-21.7c-5.8-7.9-10.9-15.9-12.5-25.6c-1.3-8.1-4.4-15.2-2.5-23.3c1.5-6.4,4-13.3,7-19.3
			c3.3-6.7,8.1-13.5,8.6-15.8c14.6-1.3,28.2-1.8,42.8-1.9c16.3-0.1,32.6,2,49,2.1c7.4,0.1,14.8,0.4,22.1-1.2
			c7.1-1.4,13.9-3.3,21.2-4.4c12.5-2.1,24.1-3.6,35.8,2.7c8.9,4.7,13,14.6,17.1,23.5c2.3,5.1,3.7,8.7,3.7,14.4
			c0.1,6.9-0.3,13.6-1.2,20.5c-0.3,2.5-0.6,5.2-1,7.7c-10.2,22.4-38.5,29.8-59.5,37.6C592.4,1372.9,557.6,1374.8,526,1366.2z
			 M751.3,1414.2c-6.5,16.5-34.2,22.4-50,23c-7.8,0.3-17.2-1.3-24.1-5.4c-3.8-2.3-7.8-6.8-10.1-10.7c-1.8-3-5.8-8.5-13.9-6
			c1.7-9.1,4.5-17.8,8.4-26.1c3.6-4,7.4-7.8,11.3-11.4c7.4-6.7,15.6-12.5,24.5-17c13.9-7,28.4-1.8,41.6,4.4c9,4.1,16,10.2,17.9,20.1
			C759.1,1396.2,755.4,1404.1,751.3,1414.2z M936.7,1411c-5.1,12.2-12.2,14.9-23.4,20.6c-13.1,6.7-29.1,11.6-43.9,11.8
			c-7.6,0.1-14.7-3.5-21.6-6.2c-4.5-1.8-9.5-3-13.1-6.4c-9.9-9.1-11.5-22.4-5.4-19.7c-3.8-8.1-6.2-16.5-7.2-25.3
			c1.7-1.4,2.7-3.2,3.3-5.4c5.3-9.9,15.1-18.2,24.9-23.7c17.3-9.9,39.5-11.1,57.9-3.4c8.1,3.4,13.3,7.5,19.5,13.8
			c2.9,3,6.9,5.7,9.1,9.3C942.4,1385.6,940.7,1401.7,936.7,1411z M993.8,1409.1c-2.9,2.3-8.4,6.9-12.1,6.1
			c-3.1-0.6-8.9-6.9-7.9-10.1l-2-2c4.4-6.9,8.9-13.9,13.2-20.9c6.8,3,12.8,2.5,16.9,9.9C1005.7,1398.9,998.8,1405,993.8,1409.1z
			 M1135.5,1076.5c-5.6,7.5-13,14.6-21.7,18.2c-10.9,4.5-25.5,7.9-26-8.5c-0.4-9.6,1.2-16.6,5.5-25.5c6.2-12.6,12.2-15.8,24.2-22
			c4.4,0.5,9.1,1.6,12.5,2.7c6.8,2.2,13.2,8.2,14.2,15.4C1145.3,1064.5,1139.9,1070.9,1135.5,1076.5z M1267.8,1005.2
			c-5.3,16.5-12.4,32.5-19.7,48.1c-8.9,19.3-9.9,39-14.4,59.3c-2.5,11.4-7.9,24-19.1,28.4c-4.9,1.9-9.6,1.5-15,1.5
			c-4.9,0-13.9,1.8-13.5,6c-2.9-7.9-7.7-18.6-9.6-27.6c-2-9.9-2.9-20.6-4.4-30.6c-1.7-10.5-2.4-20.9-3.5-31.5
			c-0.8-9.8-2.9-20.2-2.7-30.1c0.4-32.8,18.5-73.6,49.3-88.7c9.4-4.5,18.7-6.7,29.1-5c12.1,1.8,18.9,5.1,24.3,16.6
			C1275.8,967.6,1272.9,989,1267.8,1005.2z"/>
		
			<linearGradient id="SVGID_00000135661096156000531460000004664548526314094771_" gradientUnits="userSpaceOnUse" x1="1109.9526" y1="1884.4111" x2="1122.0121" y2="1884.4111" gradientTransform="matrix(1 0 0 -1 0 2922)">
			<stop  offset="0" style="stop-color:#E8DDFF"/>
			<stop  offset="1" style="stop-color:#AA8AD8"/>
		</linearGradient>
		
			<path style="opacity:0.4;fill-rule:evenodd;clip-rule:evenodd;fill:url(#SVGID_00000135661096156000531460000004664548526314094771_);enable-background:new    ;" d="
			M1122,1036.4c-1.6,0.8-3.1,1.6-4.4,2.3c-2.7-0.4-5.4-0.5-7.6-0.3L1122,1036.4z"/>
		
			<linearGradient id="SVGID_00000018944042236015811140000006175797097816639625_" gradientUnits="userSpaceOnUse" x1="490.779" y1="1661.631" x2="493.2826" y2="1661.631" gradientTransform="matrix(1 0 0 -1 0 2922)">
			<stop  offset="0" style="stop-color:#E8DDFF"/>
			<stop  offset="1" style="stop-color:#AA8AD8"/>
		</linearGradient>
		
			<path style="opacity:0.4;fill-rule:evenodd;clip-rule:evenodd;fill:url(#SVGID_00000018944042236015811140000006175797097816639625_);enable-background:new    ;" d="
			M493.2,1260.6c-0.7,0.1-1.6,0.1-2.4,0.2C492.8,1259.6,493.5,1259.6,493.2,1260.6z"/>
		
			<radialGradient id="SVGID_00000049938514215251215540000016680975526197250714_" cx="120.0767" cy="1674.4807" r="126.1788" gradientTransform="matrix(1.3926 -0.9161 -0.5873 -0.8928 1566.3201 2548.9819)" gradientUnits="userSpaceOnUse">
			<stop  offset="0" style="stop-color:#06FEFF;stop-opacity:0.5"/>
			<stop  offset="1" style="stop-color:#06FEFF;stop-opacity:0"/>
		</radialGradient>
		<path style="fill-rule:evenodd;clip-rule:evenodd;fill:url(#SVGID_00000049938514215251215540000016680975526197250714_);" d="
			M925.8,828.4c40.9,62.2-4.5,164.4-101.6,228.2s-208.9,65.2-249.8,2.9C533.5,997.4,579,895.2,676,831.3
			C773,767.5,884.9,766.2,925.8,828.4z"/>
	</g>
</g>
<g>
	<g>
		
			<linearGradient id="SVGID_00000037693156993715251230000017488180371288987545_" gradientUnits="userSpaceOnUse" x1="1167.5787" y1="963.6746" x2="1184.2654" y2="963.6746">
			<stop  offset="0" style="stop-color:#E8DDFF"/>
			<stop  offset="1" style="stop-color:#AA8AD8"/>
		</linearGradient>
		
			<path style="opacity:0.4;fill-rule:evenodd;clip-rule:evenodd;fill:url(#SVGID_00000037693156993715251230000017488180371288987545_);" d="
			M1184.3,962.1c-2.2,1.2-4.2,2.2-6.1,3.2c-3.8-0.6-7.5-0.7-10.5-0.4L1184.3,962.1z"/>
		
			<linearGradient id="SVGID_00000178199175308479527380000012266005806048193727_" gradientUnits="userSpaceOnUse" x1="310.4767" y1="1272.0208" x2="313.9425" y2="1272.0208">
			<stop  offset="0" style="stop-color:#E8DDFF"/>
			<stop  offset="1" style="stop-color:#AA8AD8"/>
		</linearGradient>
		
			<path style="opacity:0.4;fill-rule:evenodd;clip-rule:evenodd;fill:url(#SVGID_00000178199175308479527380000012266005806048193727_);" d="
			M313.8,1272.4c-1,0.1-2.2,0.1-3.4,0.3C313.3,1270.9,314.3,1270.9,313.8,1272.4z"/>
	</g>
	<path class="st14" d="M931.4,540.6c134.8-188.6,325.2-428.2,543.6-517.9c127.8-51.4,241.5,1.6,273.8,138.7
		c34.5,155.2,2.3,314.2-35,463.2c-152.9,554.4-496.1,1149.2-900,1558.8c-130,130.3-476.2,428.4-616.4,173.3
		c-96-219.3,57.5-602.3,152.7-809.7c-31.4,94.6-60.3,189.9-83.1,286.2c-135.3,579.9,37.7,739.7,480.1,284.3
		c333.2-359.1,589.2-790.8,778.8-1241.3c78.7-198.9,183.4-484.9,148.1-697c-33.1-173-199.8-105.4-306.5-37
		C1201.9,247.7,1062.7,394.3,931.4,540.6L931.4,540.6z"/>
	<path class="st15" d="M932.5,542.9c129.9-166.1,271.5-329.7,450.2-444.9c234.7-145.1,362.5-40,348.2,223.5
		c-41.9,528.2-419.5,1199.3-744.7,1613c-133.1,165.7-416.5,493.9-639.8,493.8c-149.6-6.4-163.2-189-153.3-304.2
		c17.8-199.1,83.5-390.7,158.3-574.8c-53.6,139.1-100.4,281.5-128.6,428.1c-13.8,73-23,147.2-20.5,221.5
		c3.7,135.4,59.6,252.4,215.8,204.5c46.6-14.3,90.2-38.2,131.4-65.1c82.5-54.6,156.2-121.7,225.7-191.9
		c342-359.5,600.6-795.8,789.9-1252.8c69.3-168.1,263.2-725.1,63.3-834.5c-21-10.8-45.1-15.1-69.1-13.9
		c-61.4,3.2-118.7,31.3-170.9,62C1208.6,219.3,1065.6,380.4,932.5,542.9L932.5,542.9z"/>
</g>
</svg>
