<?xml version="1.0" encoding="utf-8"?>
<!-- Generator: Adobe Illustrator 26.4.1, SVG Export Plug-In . SVG Version: 6.00 Build 0)  -->
<svg version="1.1" id="Layer_1" xmlns="http://www.w3.org/2000/svg" xmlns:xlink="http://www.w3.org/1999/xlink" x="0px" y="0px"
	 viewBox="0 0 360 360" style="enable-background:new 0 0 360 360;" xml:space="preserve">
<style type="text/css">
	.st0{fill-rule:evenodd;clip-rule:evenodd;fill:url(#SVGID_1_);}
	.st1{fill-rule:evenodd;clip-rule:evenodd;fill:url(#SVGID_00000018230936641834722070000003282488363189189800_);}
	.st2{fill-rule:evenodd;clip-rule:evenodd;fill:url(#SVGID_00000088844904643592332110000007185640847709761454_);}
	.st3{fill-rule:evenodd;clip-rule:evenodd;fill:url(#SVGID_00000136379903176070521690000011469997790417656753_);}
	.st4{fill-rule:evenodd;clip-rule:evenodd;fill:url(#SVGID_00000173861713117068360960000017313979896594350774_);}
	.st5{fill-rule:evenodd;clip-rule:evenodd;fill:url(#SVGID_00000054257948803269395590000015816144777656044734_);}
	.st6{fill-rule:evenodd;clip-rule:evenodd;fill:url(#SVGID_00000062909265050384848150000003789564893202171796_);}
	.st7{fill-rule:evenodd;clip-rule:evenodd;fill:url(#SVGID_00000124877555321509175950000000949914073781867677_);}
	.st8{fill-rule:evenodd;clip-rule:evenodd;fill:url(#SVGID_00000116214004444454277450000014632283104584330397_);}
	
		.st9{opacity:0.4;fill-rule:evenodd;clip-rule:evenodd;fill:url(#SVGID_00000015343636083002925820000001869949968921065661_);enable-background:new    ;}
	
		.st10{opacity:0.4;fill-rule:evenodd;clip-rule:evenodd;fill:url(#SVGID_00000163062995545152469510000008110913562642869918_);enable-background:new    ;}
	.st11{fill-rule:evenodd;clip-rule:evenodd;fill:url(#SVGID_00000121243649196737182120000014319566336105518779_);}
</style>
<g>
	<g>
		
			<radialGradient id="SVGID_1_" cx="180" cy="640" r="180" gradientTransform="matrix(1 0 0 -1 0 820)" gradientUnits="userSpaceOnUse">
			<stop  offset="5.586590e-03" style="stop-color:#009BFF"/>
			<stop  offset="1" style="stop-color:#009BFF;stop-opacity:0"/>
		</radialGradient>
		<circle class="st0" cx="180" cy="180" r="180"/>
		
			<radialGradient id="SVGID_00000044899257729585759060000011917846589155545222_" cx="180" cy="640" r="150.67" gradientTransform="matrix(1 0 0 -1 0 820)" gradientUnits="userSpaceOnUse">
			<stop  offset="5.586590e-03" style="stop-color:#009BFF"/>
			<stop  offset="1" style="stop-color:#009BFF;stop-opacity:0"/>
		</radialGradient>
		
			<circle style="fill-rule:evenodd;clip-rule:evenodd;fill:url(#SVGID_00000044899257729585759060000011917846589155545222_);" cx="180" cy="180" r="150.67"/>
		
			<radialGradient id="SVGID_00000130630010375096267270000002506403339437401232_" cx="180" cy="640" r="153.34" gradientTransform="matrix(1 0 0 -1 0 820)" gradientUnits="userSpaceOnUse">
			<stop  offset="5.586590e-03" style="stop-color:#0092FF"/>
			<stop  offset="1" style="stop-color:#0092FF;stop-opacity:0"/>
		</radialGradient>
		
			<circle style="fill-rule:evenodd;clip-rule:evenodd;fill:url(#SVGID_00000130630010375096267270000002506403339437401232_);" cx="180" cy="180" r="153.34"/>
		
			<radialGradient id="SVGID_00000078013246124572925170000017135061216315735947_" cx="99.5602" cy="700.7528" r="208.8812" gradientTransform="matrix(1 0 0 -1 0 820)" gradientUnits="userSpaceOnUse">
			<stop  offset="5.586590e-03" style="stop-color:#60DBFF"/>
			<stop  offset="0.0937" style="stop-color:#60D5FF"/>
			<stop  offset="0.211" style="stop-color:#5FC4FF"/>
			<stop  offset="0.3446" style="stop-color:#5DA9FF"/>
			<stop  offset="0.4903" style="stop-color:#5A82FF"/>
			<stop  offset="0.6442" style="stop-color:#5751FF"/>
			<stop  offset="0.6844" style="stop-color:#5643FF"/>
			<stop  offset="0.7432" style="stop-color:#563DF8"/>
			<stop  offset="0.8282" style="stop-color:#552EE5"/>
			<stop  offset="0.9287" style="stop-color:#5315C6"/>
			<stop  offset="1" style="stop-color:#5200AB"/>
		</radialGradient>
		<path style="fill-rule:evenodd;clip-rule:evenodd;fill:url(#SVGID_00000078013246124572925170000017135061216315735947_);" d="
			M310.13,180.07c0,12.49-1.76,24.59-5.08,36.01c-6.59,22.97-19.35,43.31-36.4,59.18c-12.19,11.36-26.57,20.39-42.41,26.4
			c-14.35,5.46-29.89,8.43-46.17,8.43c-2.31,0-4.64-0.05-6.92-0.19h-0.03c-3.4-0.16-6.78-0.49-10.1-0.91
			c-25.11-3.29-47.92-13.72-66.42-29.26c-6.94-5.79-13.26-12.32-18.83-19.46c-4.23-5.35-8.04-11.03-11.39-17.05
			c-0.8-1.43-1.56-2.88-2.33-4.34c0-0.05-0.03-0.08-0.05-0.14c-0.8-1.56-1.54-3.13-2.25-4.72c-0.03,0-0.03,0-0.03,0
			c-2.25-4.97-4.23-10.1-5.82-15.37c-1.21-3.79-2.22-7.69-3.05-11.64c-0.03-0.03-0.03-0.08-0.03-0.11c-0.58-2.77-1.07-5.57-1.46-8.4
			c-0.88-6.04-1.32-12.19-1.32-18.45c0-3.6,0.14-7.19,0.47-10.7c0.16-2.25,0.41-4.47,0.71-6.7c1.67-12.79,5.24-24.98,10.4-36.31
			c2.53-5.57,5.43-10.92,8.7-16.06c5.43-8.56,11.86-16.41,19.1-23.47C112.83,64.03,144.81,50,180.05,50c1.37,0,2.74,0.03,4.09,0.06
			c1.46,0.05,2.91,0.11,4.36,0.22c7.47,0.49,14.77,1.59,21.82,3.29c4.12,0.99,8.15,2.14,12.1,3.51c2.69,0.91,5.32,1.92,7.93,3.02
			c1.95,0.82,3.84,1.67,5.74,2.58c0.33,0.16,0.66,0.3,0.99,0.47c12.63,6.18,24.07,14.3,34.01,24.04c1.43,1.37,2.8,2.8,4.17,4.25
			c0.91,0.99,1.81,2,2.69,3.02c1.51,1.7,2.96,3.49,4.39,5.27c5.19,6.59,9.74,13.67,13.56,21.19c4.47,8.73,7.99,18.03,10.37,27.78
			C308.81,158.77,310.13,169.26,310.13,180.07z"/>
		
			<radialGradient id="SVGID_00000003067014776264492520000009076722078375218857_" cx="85.0658" cy="728.4416" r="171.1566" gradientTransform="matrix(1 0 0 -1 0 820)" gradientUnits="userSpaceOnUse">
			<stop  offset="0" style="stop-color:#FFFFFF"/>
			<stop  offset="1" style="stop-color:#FFFFFF;stop-opacity:0"/>
		</radialGradient>
		<path style="fill-rule:evenodd;clip-rule:evenodd;fill:url(#SVGID_00000003067014776264492520000009076722078375218857_);" d="
			M102.98,281.63c-13.44-11.26-24.59-25.19-32.59-40.98c-5.03-9.92-8.82-20.57-11.17-31.74c-0.02-0.02-0.02-0.07-0.02-0.11
			c-1.8-8.66-2.77-17.64-2.77-26.84c0-25.67,7.44-49.6,20.28-69.77c5.46-8.57,11.86-16.42,19.1-23.46
			c23.44-22.78,55.4-36.81,90.65-36.81c2.84,0,5.64,0.09,8.44,0.27c8.82,0.57,17.39,2.03,25.63,4.26c-10.16-3.33-20.89-5.43-32-6.15
			c-2.8-0.18-5.59-0.27-8.44-0.27c-35.25,0-67.22,14.03-90.65,36.81c-7.24,7.04-13.65,14.89-19.1,23.46
			c-12.83,20.17-20.28,44.1-20.28,69.77c0,9.2,0.97,18.18,2.77,26.84c0,0.05,0,0.09,0.02,0.11c2.35,11.17,6.14,21.81,11.17,31.74
			c8.01,15.79,19.15,29.73,32.59,40.98c14.25,11.95,31.07,20.88,49.52,25.86C130.17,300.4,115.57,292.19,102.98,281.63z"/>
		
			<linearGradient id="SVGID_00000038370979836108636380000008389012103171870388_" gradientUnits="userSpaceOnUse" x1="51.24" y1="712.4178" x2="214.7773" y2="712.4178" gradientTransform="matrix(1 0 0 -1 0 820)">
			<stop  offset="0" style="stop-color:#FFFFFF;stop-opacity:0"/>
			<stop  offset="1" style="stop-color:#FFFFFF;stop-opacity:0.1"/>
		</linearGradient>
		<path style="fill-rule:evenodd;clip-rule:evenodd;fill:url(#SVGID_00000038370979836108636380000008389012103171870388_);" d="
			M210.36,53.59c-7.05-1.7-14.36-2.8-21.82-3.29c-1.46-0.11-2.91-0.16-4.36-0.22c3.1,1.73,5.98,4.78,6.7,7.9
			c1.18,5.35,2.91,10.32,3.9,15.67c0.99,5.27,0.8,11.8-1.59,16.58c-1.51,3.02-3.29,5.6-5.68,8.07c-1.7,1.73-3.16,2.69-4.36,4.83
			c-1.21,2.09-2.36,4.12-3.73,6.09c-2.03,2.96-4.17,6.12-6.51,8.84c-0.82,0.99-1.73,1.67-2.47,2.83c-0.93,1.43-1.37,2.77-2.39,3.9
			c-2.33,2.61-5.96,4.06-9.17,5.24c-4.17,1.56-7.71,3.32-11.64,5.41c-5.52,2.91-10.05,6.64-16.5,6.81
			c-2.14,0.05-4.36-0.25-6.51-0.05c-2.66,0.22-5.13,1.51-7.77,2c-2.31,0.44-4.61,0.91-6.92,1.29c-3.79,0.58-6.92,1.87-10.57,2.74
			c-4.75,1.18-9.72,0.88-14.49,1.54c-4.31,0.58-8.04,1.1-12.32,0.05c-6.61-1.65-10.16-4.78-8.76-11.8c0.93-4.61,0.6-8.12-1.76-11.67
			c-5.16,11.34-8.73,23.52-10.4,36.31c3.13,1.32,6.7,2,9.47,2.28c9.63,0.99,20.01-3.32,28.82-6.61c4.5-1.7,9.09-4.17,13.94-4.72
			c5.1-0.55,9.61,0.08,14.71-1.18c17.59-4.34,34.94-10.48,50.64-19.79c6.51-3.84,9.39-9.33,13.92-14.9
			c3.98-4.86,8.45-8.89,13.2-12.96c4.67-3.98,8.78-7.93,11.56-13.5c2.94-5.87,5.43-12.32,6.78-18.77
			C215.71,65.7,213.95,59.14,210.36,53.59z M209.48,71.27c-0.27,1.45-0.47,3.02-0.91,4.39c-1.13,3.49-3.21,7.08-6.48,8.92
			c-1.51,0.85-3.51,0.33-4.39-1.18c-0.47-0.82-0.47-1.87-0.63-2.77c-0.33-1.78-0.55-3.54-0.52-5.38c0.06-4.42-0.11-8.67-0.52-13.09
			c0.47,2.5-0.11-3.71,3.79-5.41c1.84-0.82,4.61-0.08,6.01,1.34c1.76,1.78,2.17,4.8,2.83,7.14
			C209.23,67.32,209.86,69.07,209.48,71.27z"/>
		
			<linearGradient id="SVGID_00000063624972310269072540000002865474612310756482_" gradientUnits="userSpaceOnUse" x1="77.77" y1="590.6801" x2="310.1201" y2="590.6801" gradientTransform="matrix(1 0 0 -1 0 820)">
			<stop  offset="0" style="stop-color:#FFFFFF;stop-opacity:0"/>
			<stop  offset="1" style="stop-color:#FFFFFF;stop-opacity:0.1"/>
		</linearGradient>
		<path style="fill-rule:evenodd;clip-rule:evenodd;fill:url(#SVGID_00000063624972310269072540000002865474612310756482_);" d="
			M190.65,278.86c-0.38,0.06-0.74,0.14-1.1,0.16l2.58,0.25C191.8,279.19,191.25,279,190.65,278.86z M190.65,278.86
			c-0.38,0.06-0.74,0.14-1.1,0.16l2.58,0.25C191.8,279.19,191.25,279,190.65,278.86z M306.31,148.73c-0.05,3.4-1.02,6.78-1.1,10.21
			c-0.08,4.56-0.85,8.1-2.03,12.49c-0.82,3.02-2.36,5.24-3.38,8.15c-1.15,3.35-2.8,6.2-4.5,9.28c-3.38,6.15-6.75,12.3-8.21,19.27
			c-1.32,6.29-1.59,11.58-4.72,17.35c-2.99,5.54-7.52,10.16-10.73,15.54c-1.51,2.58-2.55,2.44-4.83,4.06
			c-2.55,1.81-4.89,4.67-7.36,6.67c-5.32,4.25-10.18,7.19-16.63,9.61c-4.03,1.54-7.96,2.74-12.24,3.4c-2.8,0.44-5.54,0-8.32,0.47
			c-4.39,0.71-8.56,2.03-12.79,3.4c-6.94,2.25-14.03,3.54-20.94,5.68c-4.83,1.48-9.55,2.36-14.47,3.4
			c-2.99,0.63-5.41,2.25-8.51,1.62c-3.13-0.66-5.98-1.7-9.06-2.66c-3.93-1.21-7.16-1.29-11.39-1.29c-5.63,0-12.16,0.85-17.7-0.22
			c-6.26-1.21-12.49-2.88-18.75-4.17c-3.79-0.8-6.67-2.36-10.13-3.98c-3.24-1.51-6.72-1.95-10.1-3.02c-3.57-1.13-7-2.8-10.65-3.71
			c5.57,7.14,11.88,13.67,18.83,19.46c18.5,15.54,41.31,25.97,66.42,29.26c3.32,0.41,6.7,0.74,10.1,0.91h0.03
			c7.36-1.67,14.55-3.84,21.96-6.12c12.32-3.84,22.97-11.28,35.3-14.9c4.58-1.37,8.7-2.85,12.98-4.97c3.16-1.56,6.51-1.98,9.69-3.35
			c11.45-4.86,20.06-15.97,25.17-26.87c2.31-4.94,4.53-10.54,8.67-14.25c1.7-1.54,3.73-2.88,5.22-4.61c1.67-1.89,2.8-4.25,4.28-6.31
			c2.61-3.68,5.13-7.38,7.74-11.09c0.33-0.44,0.63-0.88,0.88-1.35c3.32-11.42,5.08-23.52,5.08-36.01
			C310.13,169.26,308.81,158.77,306.31,148.73z M187.03,279.79c0.47-0.3,1.23-0.93,1.73-1.07c0.49-0.16,1.24-0.03,1.89,0.14
			c0.96-0.14,1.92-0.25,2.83,0.14c0.52,0.25,1.51,0.71,1.73,1.32c0.25,0.58-0.08,0.93-0.47,1.32c-0.49,0.49-0.88,0.49-1.56,0.63
			c-1.43,0.27-2.83,0.52-4.31,0.38c-0.88-0.08-2.2-0.14-2.74-0.96C185.6,280.89,186.37,280.23,187.03,279.79z M195.56,296.75
			c-0.8,1.02-1.59,2.06-2.64,2.83c-0.99,0.77-2.09,1.23-3.16,1.84c-2.64,1.48-5.35,3.07-8.32,3.84c-1.18,0.3-2.36,0.25-3.6,0.33
			c-1.48,0.14-2.94,0.16-4.42,0.19c-1.76,0.03-3.46,0.38-5.22,0.49c-1.76,0.08-3.49,0.14-5.24,0.25c-2.91,0.19-5.49-0.3-8.23-1.29
			c-2.47-0.91-5.02-2.06-7.25-3.54c-1.56-1.04-2.91-2.52-4.25-3.84c-1.26-1.18-2.28-2.44-2.99-4.04c-0.25-0.58-0.52-1.18-0.38-1.81
			c0.05-0.3,0.19-0.55,0.19-0.63c0.49-0.38,0.99-0.74,1.45-0.93c0.93-0.41,1.98-0.6,2.96-0.71c2.39-0.33,5,0.08,7.38,0.27
			c1.43,0.11,2.69,0.19,4.09-0.03c1.87-0.27,3.73-0.85,5.54-1.35c4.39-1.18,8.7-2.11,13.23-2.61c4.5-0.49,9.22-0.99,13.75-0.22
			c1.7,0.27,3.76,0.77,5.24,1.76c1.1,0.74,1.98,1.92,2.58,3.1C197.35,292.66,196.91,295.02,195.56,296.75z M230.01,285.47
			c-0.8,0.93-1.95,1.48-2.94,2.17c-1.37,0.96-2.83,1.73-4.25,2.55c-1.21,0.71-2.36,1.29-3.62,1.87c-1.24,0.58-2.5,1.15-3.73,1.78
			c-1.34,0.69-2.8,1.15-4.23,1.65c-1.04,0.38-2.17,0.85-3.29,0.66c-0.91-0.19-1.92-0.55-2.58-1.24c-0.99-1.04-0.82-2.17-0.49-2.64
			c0-0.96-0.27-2.33,0.03-3.27c0.19-0.55,0.85-1.37,1.15-1.92c1.15-2.09,2.8-3.6,4.53-5.24c1.51-1.45,2.96-2.55,5-3.27
			c2.28-0.77,4.89-0.96,7.25-1.26c2.58-0.3,6.94-0.49,8.1,2.47C231.71,281.85,231.44,283.74,230.01,285.47z M192.13,279.27
			c-0.33-0.08-0.88-0.27-1.48-0.41c-0.38,0.06-0.74,0.14-1.1,0.16L192.13,279.27z"/>
		
			<linearGradient id="SVGID_00000175290088025746917050000012339025220772451501_" gradientUnits="userSpaceOnUse" x1="64.07" y1="638.7447" x2="295.94" y2="638.7447" gradientTransform="matrix(1 0 0 -1 0 820)">
			<stop  offset="0" style="stop-color:#FFFFFF;stop-opacity:0"/>
			<stop  offset="1" style="stop-color:#FFFFFF;stop-opacity:0.1"/>
		</linearGradient>
		<path style="fill-rule:evenodd;clip-rule:evenodd;fill:url(#SVGID_00000175290088025746917050000012339025220772451501_);" d="
			M295.94,120.95v0.52c-0.16,3.6-1.62,6.07-2.91,9.33c-1.04,2.64-2.25,5-3.6,7.49c-2.28,4.17-3.35,8.1-5.02,12.57
			c-2.61,7-3.92,14.16-8.01,20.53c-3.68,5.68-4.53,12.65-7.52,18.72c-3.38,6.78-8.54,11.64-14.08,16.58
			c-2.47,2.22-4.53,4.89-6.75,7.3c-2.36,2.55-4.2,5.85-7.03,7.88c-6.12,4.45-12.82,8.29-18.8,12.98c-3.6,2.8-6.15,6.53-10.1,8.87
			c-3.95,2.36-8.23,4.01-12.16,6.4c-3.54,2.17-7.03,4.5-10.87,6.07c-4.39,1.76-8.04,1.23-12.54,1.45c-5,0.22-10.16,1.54-14.85,3.16
			c-3.9,1.37-7.16,2.77-11.14,1.37c-2.63-0.93-5.02-2.66-7.79-3.24c-6.45-1.32-13.81,0-20.37-0.16c-5.13-0.14-10.79-1.32-15.81-2.33
			c-4.94-0.96-8.98-4.42-13.75-5.82c-5.9-1.73-12.79-0.25-18.5-2.5c-2.33-0.91-4.56-2.77-6.62-4.06c-0.44-0.27-0.88-0.55-1.32-0.82
			c-0.8-1.43-1.56-2.88-2.33-4.34c1.4,0.58,2.8,1.21,4.23,1.89c7.47,3.57,16.77,3.02,24.81,4.42c9.06,1.59,18.12,3.95,27.26,5
			c3.71,0.41,7.44,0.38,11.12-0.03c5.16-0.58,10.51-0.49,15.59-1.37c8.84-1.56,17.46-5.74,26.62-4.56c1.7,0.22,3.6,1.13,5.32,1.1
			c2.55-0.08,4.31-2.31,6.37-3.6c3.62-2.28,7.44-1.84,10.62-4.83c3.13-2.94,6.59-4.83,10.4-6.75c9.94-5.05,17.98-13.26,25.77-21.05
			c6.53-6.51,12.87-13.39,17.35-21.52c4.39-7.99,3.51-17.48,6.81-25.77c2.39-5.93,4.39-11.5,8.26-16.72
			c1.87-2.5,4.14-4.64,6.12-7.03c2.11-2.55,3.4-5.32,5.02-8.18c1.78-3.18,4.03-6.12,5.46-9.5c1.34-3.24,1.23-6.09,1.18-9.47
			c-0.06-3.71,0-7.47,0-11.17C287.57,106.35,292.12,113.43,295.94,120.95z"/>
		
			<linearGradient id="SVGID_00000167380587370477436450000013783712093813490069_" gradientUnits="userSpaceOnUse" x1="50.0399" y1="671.1403" x2="277.9799" y2="671.1403" gradientTransform="matrix(1 0 0 -1 0 820)">
			<stop  offset="0" style="stop-color:#FFFFFF;stop-opacity:0"/>
			<stop  offset="1" style="stop-color:#FFFFFF;stop-opacity:0.1"/>
		</linearGradient>
		<path style="fill-rule:evenodd;clip-rule:evenodd;fill:url(#SVGID_00000167380587370477436450000013783712093813490069_);" d="
			M275.3,91.47c-1.37-1.46-2.74-2.88-4.17-4.25c-9.94-9.74-21.38-17.87-34.01-24.04c-0.33-0.16-0.66-0.3-0.99-0.47
			c-1.89-0.91-3.79-1.76-5.74-2.58c-2.61-1.1-5.24-2.11-7.93-3.02c0.85,0.55,1.84,0.99,2.17,1.15c1.62,0.82,2.94,1.37,4.06,2.83
			c1.1,1.43,1.59,2.5,1.67,4.31c0.06,1.7,0.3,3.46,0.6,5.16c0.27,1.56,1.04,3.05,1.37,4.61c0.16,0.93,0.3,1.76,0.6,2.69
			c0.69,2.17,1.4,4.31,1.87,6.56c0.82,4.01-1.32,7.33-2.74,10.98c-2.25,5.79-3.68,11.67-5.35,17.65c-1.32,4.72-3.9,9.39-7.47,12.79
			c-3.49,3.38-8.65,4.14-11.78,7.8c-2.74,3.21-6.12,6.26-9.99,8.07c-4.47,2.14-9.2,3.79-13.94,5.24c-3.4,1.02-6.97,1.1-10.4,2
			c-4.25,1.07-8.15,3.21-12.16,4.94c-4.25,1.84-8.23,4.2-12.52,6.04c-4.31,1.81-8.32,4.28-12.6,6.04c-2.09,0.85-4.28,1.26-6.4,2
			c-4.39,1.54-8.65,4.34-13.31,4.89c-1.62,0.19-3.27,0.58-4.86,0.58c-1.29,0.03-2.44,0.16-3.68,0.63c-4.06,1.59-6.56,6.18-11.23,6.2
			c-4.28,0-8.51-0.16-12.76,0.33c-2.06,0.25-4.12,0.11-6.18,0.14c-0.6,0-1.4,0.14-2-0.11c-0.69-0.27-1.45-0.93-2.14-1.32
			c-1.54-0.85-3.02-1.95-4.39-2.99c-2.69-2.09-6.26-0.93-9.36-1.56c-0.93-0.19-2.31-0.08-3.13-0.55c-1.92-1.15-4.34-3.51-5.9-4.83
			c-0.33,3.51-0.47,7.11-0.47,10.7c0,6.26,0.44,12.41,1.32,18.45c0.38,2.83,0.88,5.63,1.46,8.4c0,0.03,0,0.08,0.03,0.11
			c0.82,3.95,1.84,7.85,3.05,11.64c1.59,5.27,3.57,10.4,5.82,15.37c0,0,0,0,0.03,0c3.54,0.58,7.19,1.04,10.76,0.52
			c5.08-0.74,10.13-1.54,15.29-1.34c4.83,0.22,9.33,1.87,14.05,2.66c5.3,0.88,10.81,1.59,16.19,1.95c4.91,0.3,9.8,0.71,14.68,1.26
			c3.68,0.44,7.36,1.15,11.03,1.4c9.55,0.66,18.88-1.84,28.27-2.83c4.69-0.49,9.36-1.67,13.97-2.66c2.83-0.6,5.57-1.34,8.07-2.88
			c3.29-2.06,5.38-5.22,8.32-7.71c3.24-2.77,6.61-5.46,9.99-8.04c2.88-2.2,5.6-4.58,8.62-6.53c2.31-1.51,4.61-2.94,6.78-4.64
			c4.25-3.35,7.63-7.22,11.14-11.28c4.91-5.71,6.94-13.64,8.92-20.72c1.78-6.51,3.02-13.01,6.59-18.86c1.76-2.85,3.07-6.15,3.9-9.39
			c0.52-2.03,0.71-4.31,1.65-6.23c1.48-3.13,4.39-5.38,6.18-8.34c1.4-2.33,2.96-4.5,3.95-7.08c1.92-5.08,3.38-10.02,4.2-15.43
			c0.6-3.98,1.89-7.63,3.13-11.45c0.19-0.63,0.38-1.26,0.55-1.92C277.11,93.48,276.2,92.46,275.3,91.47z M106.08,180.32
			c0.27-0.69,5.13-2.58,5.87-2.8c-0.03,0.03-0.08,0.06-0.16,0.08l-3.18,1.37c3.51-1.18,9.85,2.39,6.78,6.42
			c-0.91,1.18-3.27,1.76-4.67,1.98c-1.4,0.25-2.28-0.22-3.13-1.43c-0.71-1.04-1.24-2.85-1.43-4.09
			C106.08,181.42,105.89,180.76,106.08,180.32z M67.35,215.34c-3.79-1.04-6.31-2.44-8.65-5.63c-1.51-2.06-2.83-4.12-3.24-6.64
			c-0.33-2.09-1.15-3.95-0.66-6.04c0.38-1.65,1.04-3.46,1.81-5c0.85-1.73,2.11-3.51,2.22-4.09c3.79-0.33,7.33-0.47,11.12-0.49
			c4.23-0.03,8.45,0.52,12.71,0.55c1.92,0.03,3.84,0.11,5.74-0.3c1.84-0.36,3.62-0.85,5.49-1.15c3.24-0.55,6.26-0.93,9.3,0.69
			c2.31,1.23,3.38,3.79,4.45,6.09c0.6,1.32,0.96,2.25,0.96,3.73c0.03,1.78-0.08,3.54-0.3,5.32c-0.08,0.66-0.16,1.34-0.27,2
			c-2.66,5.82-9.99,7.74-15.45,9.77C84.59,217.1,75.56,217.57,67.35,215.34z M125.82,227.81c-1.7,4.28-8.87,5.82-12.98,5.98
			c-2.03,0.08-4.47-0.33-6.26-1.4c-0.99-0.6-2.03-1.76-2.61-2.77c-0.47-0.77-1.51-2.2-3.62-1.56c0.44-2.36,1.18-4.61,2.17-6.78
			c0.93-1.04,1.92-2.03,2.94-2.96c1.92-1.73,4.06-3.24,6.37-4.42c3.6-1.81,7.36-0.47,10.81,1.13c2.33,1.07,4.14,2.66,4.64,5.21
			C127.85,223.14,126.89,225.2,125.82,227.81z M173.96,226.98c-1.32,3.16-3.16,3.87-6.07,5.35c-3.4,1.73-7.55,3.02-11.39,3.05
			c-1.98,0.03-3.81-0.91-5.6-1.62c-1.18-0.47-2.47-0.77-3.4-1.65c-2.58-2.36-2.99-5.82-1.4-5.11c-0.99-2.11-1.62-4.28-1.87-6.56
			c0.44-0.36,0.71-0.82,0.85-1.4c1.37-2.58,3.93-4.72,6.45-6.15c4.5-2.58,10.24-2.88,15.04-0.88c2.11,0.88,3.46,1.95,5.05,3.57
			c0.74,0.77,1.78,1.48,2.36,2.42C175.42,220.39,174.98,224.57,173.96,226.98z M188.76,226.49c-0.74,0.6-2.17,1.78-3.13,1.59
			c-0.8-0.16-2.31-1.78-2.06-2.63l-0.52-0.52c1.15-1.78,2.31-3.6,3.43-5.43c1.76,0.77,3.32,0.66,4.39,2.58
			C191.86,223.85,190.07,225.42,188.76,226.49z M225.56,140.16c-1.45,1.95-3.38,3.79-5.63,4.72c-2.83,1.18-6.62,2.06-6.75-2.2
			c-0.11-2.5,0.3-4.31,1.43-6.61c1.62-3.27,3.16-4.09,6.29-5.71c1.15,0.14,2.36,0.41,3.24,0.71c1.76,0.58,3.43,2.14,3.68,4.01
			C228.09,137.04,226.69,138.71,225.56,140.16z M259.9,121.66c-1.37,4.28-3.21,8.43-5.11,12.49c-2.31,5-2.58,10.13-3.73,15.4
			c-0.66,2.96-2.06,6.23-4.97,7.38c-1.26,0.49-2.5,0.38-3.9,0.38c-1.26,0-3.6,0.47-3.51,1.56c-0.74-2.06-2-4.83-2.5-7.16
			c-0.52-2.58-0.74-5.35-1.15-7.93c-0.44-2.72-0.63-5.43-0.91-8.18c-0.22-2.55-0.74-5.24-0.71-7.82c0.11-8.51,4.8-19.1,12.79-23.03
			c2.44-1.18,4.86-1.73,7.55-1.29c3.13,0.47,4.91,1.32,6.31,4.31C261.96,111.89,261.22,117.44,259.9,121.66z"/>
		
			<linearGradient id="SVGID_00000076601612193447874440000016649280460441131189_" gradientUnits="userSpaceOnUse" x1="218.92" y1="689.94" x2="222.05" y2="689.94" gradientTransform="matrix(1 0 0 -1 0 820)">
			<stop  offset="0" style="stop-color:#E8DDFF"/>
			<stop  offset="1" style="stop-color:#AA8AD8"/>
		</linearGradient>
		
			<path style="opacity:0.4;fill-rule:evenodd;clip-rule:evenodd;fill:url(#SVGID_00000076601612193447874440000016649280460441131189_);enable-background:new    ;" d="
			M222.05,129.76c-0.41,0.22-0.8,0.41-1.15,0.6c-0.71-0.11-1.4-0.14-1.98-0.08L222.05,129.76z"/>
		
			<linearGradient id="SVGID_00000183969371649758225220000011900184338621237406_" gradientUnits="userSpaceOnUse" x1="58.2144" y1="632.1178" x2="58.8642" y2="632.1178" gradientTransform="matrix(1 0 0 -1 0 820)">
			<stop  offset="0" style="stop-color:#E8DDFF"/>
			<stop  offset="1" style="stop-color:#AA8AD8"/>
		</linearGradient>
		
			<path style="opacity:0.4;fill-rule:evenodd;clip-rule:evenodd;fill:url(#SVGID_00000183969371649758225220000011900184338621237406_);enable-background:new    ;" d="
			M58.85,187.95c-0.19,0.03-0.41,0.03-0.63,0.06C58.74,187.68,58.93,187.68,58.85,187.95z"/>
		
			<radialGradient id="SVGID_00000122717500745078486800000003018508877364701078_" cx="169.8825" cy="610.8199" r="32.7495" gradientTransform="matrix(1.3926 -0.9161 -0.5873 -0.8928 247.6811 806.7394)" gradientUnits="userSpaceOnUse">
			<stop  offset="0" style="stop-color:#06FEFF;stop-opacity:0.5"/>
			<stop  offset="1" style="stop-color:#06FEFF;stop-opacity:0"/>
		</radialGradient>
		<path style="fill-rule:evenodd;clip-rule:evenodd;fill:url(#SVGID_00000122717500745078486800000003018508877364701078_);" d="
			M171.13,75.77c10.62,16.15-1.18,42.67-26.37,59.24s-54.22,16.91-64.84,0.76s1.18-42.67,26.37-59.24
			C131.47,59.97,160.5,59.63,171.13,75.77z"/>
	</g>
</g>
</svg>
